<svg width="131" height="152" xmlns="http://www.w3.org/2000/svg" xmlns:xlink="http://www.w3.org/1999/xlink" xml:space="preserve" overflow="hidden"><g transform="translate(-2820 -2463)"><path d="M104.8 86.7875C98.7958 81.875 91.1542 78.6 83.5125 76.4167 78.0542 74.7792 72.05 73.6875 65.5 73.6875 59.4958 73.6875 53.4917 74.7792 47.4875 76.4167 39.8458 78.6 32.2042 82.4208 26.2 86.7875 23.4708 88.9708 21.8333 92.2458 21.8333 95.5208L21.8333 117.354 109.167 117.354 109.167 95.5208C109.167 92.2458 107.529 88.9708 104.8 86.7875Z" fill="#FFFFFF" transform="matrix(-1 0 0 1.16031 2951 2463)"/><path d="M44.2125 27.8375C45.0312 27.8375 45.7135 27.5646 46.1229 27.0187L46.1229 27.0187C51.1719 22.1063 57.9948 19.1042 65.5 19.1042 80.5104 19.1042 92.7917 31.3854 92.7917 46.3958L92.7917 52.6729 77.099 57.8583C76.4167 57.5854 75.7344 57.3125 75.0521 57.3125 72.7323 57.3125 70.9583 59.0865 70.9583 61.4062 70.9583 63.726 72.7323 65.5 75.0521 65.5 76.6896 65.5 78.1906 64.5448 78.8729 63.0438L100.57 55.8115C101.661 55.4021 102.48 54.4469 102.48 53.2188L102.48 40.9375C102.48 39.4365 101.252 38.2083 99.751 38.2083L97.2948 38.2083C93.6104 24.1531 80.7833 13.6458 65.5 13.6458 56.6302 13.6458 48.5792 17.1938 42.575 22.925 41.8927 23.4708 41.4833 24.1531 41.4833 25.1083 41.4833 26.6094 42.7115 27.8375 44.2125 27.8375Z" fill="#FFFFFF" transform="matrix(-1 0 0 1.16031 2951 2463)"/><path d="M87.1969 48.7156C87.3333 47.8969 87.3333 47.2146 87.3333 46.3958 87.3333 34.3875 77.5083 24.5625 65.5 24.5625 53.4917 24.5625 43.6667 34.3875 43.6667 46.3958 43.6667 58.4042 53.4917 68.2292 65.5 68.2292 65.9094 68.2292 66.4552 68.2292 66.8646 68.0927L66.8646 61.4062 66.8646 61.4062C66.8646 60.1781 67.1375 58.95 67.6833 57.7219 68.6385 55.8115 70.276 54.3104 72.4594 53.6281L87.1969 48.7156Z" fill="#FFFFFF" transform="matrix(-1 0 0 1.16031 2951 2463)"/></g></svg>