<?xml version="1.0" encoding="utf-8"?>
<!-- Generator: Adobe Illustrator 27.1.1, SVG Export Plug-In . SVG Version: 6.00 Build 0)  -->
<svg version="1.1" id="Capa_1" xmlns="http://www.w3.org/2000/svg" xmlns:xlink="http://www.w3.org/1999/xlink" x="0px" y="0px"
	 viewBox="0 0 131 152" style="enable-background:new 0 0 131 152;" xml:space="preserve">
<style type="text/css">
	.st0{fill:#032B43;}
</style>
<g transform="translate(-2820 -2463)">
	<path class="st0" d="M2846.2,2563.7c6-5.7,13.6-9.5,21.3-12c5.5-1.9,11.5-3.2,18-3.2c6,0,12,1.3,18,3.2c7.6,2.5,15.3,7,21.3,12
		c2.7,2.5,4.4,6.3,4.4,10.1v25.3h-87.3v-25.3C2841.8,2570,2843.5,2566.2,2846.2,2563.7z"/>
	<path class="st0" d="M2906.8,2495.3c-0.8,0-1.5-0.3-1.9-0.9l0,0c-5-5.7-11.9-9.2-19.4-9.2c-15,0-27.3,14.2-27.3,31.7v7.3l15.7,6
		c0.7-0.3,1.4-0.6,2-0.6c2.3,0,4.1,2.1,4.1,4.8s-1.8,4.8-4.1,4.8c-1.6,0-3.1-1.1-3.8-2.8l-21.7-8.4c-1.1-0.5-1.9-1.6-1.9-3v-14.2
		c0-1.7,1.2-3.2,2.7-3.2h2.5c3.7-16.3,16.5-28.5,31.8-28.5c8.9,0,16.9,4.1,22.9,10.8c0.7,0.6,1.1,1.4,1.1,2.5
		C2909.5,2493.9,2908.3,2495.3,2906.8,2495.3z"/>
	<path class="st0" d="M2863.8,2519.5c-0.1-0.9-0.1-1.7-0.1-2.7c0-13.9,9.8-25.3,21.8-25.3s21.8,11.4,21.8,25.3
		c0,13.9-9.8,25.3-21.8,25.3c-0.4,0-1,0-1.4-0.2v-7.8l0,0c0-1.4-0.3-2.8-0.8-4.3c-1-2.2-2.6-4-4.8-4.8L2863.8,2519.5z"/>
</g>
</svg>
