<svg width="129" height="129" xmlns="http://www.w3.org/2000/svg" xmlns:xlink="http://www.w3.org/1999/xlink" xml:space="preserve" overflow="hidden"><g transform="translate(-668 -2474)"><path d="M764.75 2520.76 764.75 2498.19 754 2498.19 754 2510.55 732.5 2490.12 732.5 2490.12 676.062 2543.88 682.109 2548.98 732.5 2501.14 732.5 2501.14 782.891 2548.98 788.938 2543.88Z" fill="#FFFFFF"/><path d="M692.188 2546.97 692.188 2586.88 724.438 2586.88 724.438 2553.28 740.562 2553.28 740.562 2586.88 772.812 2586.88 772.812 2546.97 732.5 2508.67 692.188 2546.97ZM716.375 2569.41 700.25 2569.41 700.25 2553.28 716.375 2553.28 716.375 2569.41ZM748.625 2553.28 764.75 2553.28 764.75 2569.41 748.625 2569.41 748.625 2553.28Z" fill="#FFFFFF"/></g></svg>