<?xml version="1.0" encoding="utf-8"?>
<!-- Generator: Adobe Illustrator 27.1.1, SVG Export Plug-In . SVG Version: 6.00 Build 0)  -->
<svg version="1.1" id="OBJECTS" xmlns="http://www.w3.org/2000/svg" xmlns:xlink="http://www.w3.org/1999/xlink" x="0px" y="0px"
	 viewBox="0 0 152.5 91.9" style="enable-background:new 0 0 152.5 91.9;" xml:space="preserve">
<style type="text/css">
	.st0{fill:#D00000;}
	.st1{fill:#0973A8;}
	.st2{fill:#FFCE6C;}
	.st3{fill:#EB5822;}
	.st4{fill:#D1AB56;}
	.st5{fill:#032333;}
</style>
<rect x="26.4" y="1.6" class="st0" width="76" height="51.7"/>
<path class="st1" d="M126,51.8c-5,0-9,4-9,9s4,9,9,9s9-4,9-9S131,51.8,126,51.8z M126,66.1c-2.9,0-5.3-2.4-5.3-5.3s2.4-5.3,5.3-5.3
	s5.3,2.4,5.3,5.3S128.9,66.1,126,66.1z"/>
<polygon class="st2" points="112.1,20.6 112.1,35.8 132.9,35.8 128.7,20.6 "/>
<path class="st3" d="M126,58.5c-1.3,0-2.3,1.1-2.3,2.3s1,2.3,2.3,2.3s2.3-1.1,2.3-2.3S127.3,58.5,126,58.5z"/>
<path class="st4" d="M142.2,35.7l-6.9-22.2h-31.1v43.8h10.4c1.5-4.9,6.1-8.4,11.4-8.4s9.9,3.6,11.4,8.4h4.8L142.2,35.7L142.2,35.7z
	 M116.8,45.4h-6.1c-0.8,0-1.5-0.7-1.5-1.5s0.7-1.5,1.5-1.5h6.1c0.8,0,1.5,0.7,1.5,1.5S117.6,45.4,116.8,45.4z M134.9,38.8h-24.3
	c-0.8,0-1.5-0.7-1.5-1.5V19.2c0-0.8,0.7-1.5,1.5-1.5h19.2c0.7,0,1.3,0.4,1.4,1.1l5.1,18.1c0.1,0.4,0,0.9-0.2,1.3
	S135.4,38.8,134.9,38.8z"/>
<path class="st1" d="M27.8,54.6v2.6h12.9c0.3-0.9,0.7-1.8,1.2-2.6H27.8z"/>
<path class="st1" d="M101.2,54.6H62.4c0.5,0.8,0.9,1.7,1.2,2.6h37.6V54.6z"/>
<path class="st1" d="M52.1,51.8c-5,0-9,4-9,9s4,9,9,9s9-4,9-9S57.1,51.8,52.1,51.8z M52.1,66.1c-2.9,0-5.3-2.4-5.3-5.3
	s2.4-5.3,5.3-5.3s5.3,2.4,5.3,5.3S55.1,66.1,52.1,66.1z"/>
<path class="st3" d="M52.1,58.5c-1.3,0-2.3,1.1-2.3,2.3s1,2.3,2.3,2.3s2.3-1.1,2.3-2.3S53.4,58.5,52.1,58.5z"/>
<g>
	<path class="st5" d="M52.1,72.8c-6.6,0-12-5.4-12-12s5.4-12,12-12s12,5.4,12,12S58.7,72.8,52.1,72.8z M52.1,51.8c-5,0-9,4-9,9
		s4,9,9,9s9-4,9-9S57.1,51.8,52.1,51.8z"/>
	<path class="st5" d="M52.1,66.1c-2.9,0-5.3-2.4-5.3-5.3s2.4-5.3,5.3-5.3s5.3,2.4,5.3,5.3S55.1,66.1,52.1,66.1z M52.1,58.4
		c-1.3,0-2.3,1.1-2.3,2.3s1,2.3,2.3,2.3s2.3-1.1,2.3-2.3S53.4,58.4,52.1,58.4z"/>
	<path class="st5" d="M126,72.8c-6.6,0-12-5.4-12-12s5.4-12,12-12s12,5.4,12,12S132.6,72.8,126,72.8z M126,51.8c-5,0-9,4-9,9
		s4,9,9,9s9-4,9-9S131,51.8,126,51.8z"/>
	<path class="st5" d="M126,66.1c-2.9,0-5.3-2.4-5.3-5.3s2.4-5.3,5.3-5.3s5.3,2.4,5.3,5.3S128.9,66.1,126,66.1z M126,58.4
		c-1.3,0-2.3,1.1-2.3,2.3s1,2.3,2.3,2.3s2.3-1.1,2.3-2.3S127.3,58.4,126,58.4z"/>
	<path class="st5" d="M41.7,60.2H23.6c-0.8,0-1.5-0.7-1.5-1.5s0.7-1.5,1.5-1.5h18.1c0.8,0,1.5,0.7,1.5,1.5S42.5,60.2,41.7,60.2z"/>
	<path class="st5" d="M115.5,60.2H62.6c-0.8,0-1.5-0.7-1.5-1.5s0.7-1.5,1.5-1.5h52.9c0.8,0,1.5,0.7,1.5,1.5S116.4,60.2,115.5,60.2
		L115.5,60.2z"/>
	<path class="st5" d="M151,60.2h-14.5c-0.8,0-1.5-0.7-1.5-1.5s0.7-1.5,1.5-1.5H151c0.8,0,1.5,0.7,1.5,1.5S151.8,60.2,151,60.2z"/>
	<path class="st5" d="M143.7,60.2c-0.8,0-1.5-0.7-1.5-1.5v-23l-6.9-22.2h-31.1v45.3c0,0.8-0.7,1.5-1.5,1.5s-1.5-0.7-1.5-1.5V12
		c0-0.8,0.7-1.5,1.5-1.5h33.8c0.7,0,1.2,0.4,1.4,1.1l7.3,23.5c0,0.1,0.1,0.3,0.1,0.4v23.2C145.2,59.6,144.6,60.2,143.7,60.2
		L143.7,60.2z"/>
	<path class="st5" d="M102.7,13.5c-0.8,0-1.5-0.7-1.5-1.5V3H27.8v9c0,0.8-0.7,1.5-1.5,1.5s-1.5-0.7-1.5-1.5V1.5
		c0-0.8,0.7-1.5,1.5-1.5h76.4c0.8,0,1.5,0.7,1.5,1.5V12C104.2,12.8,103.6,13.5,102.7,13.5L102.7,13.5z"/>
	<path class="st5" d="M39.1,18.6H10.7c-0.8,0-1.5-0.7-1.5-1.5s0.7-1.5,1.5-1.5h28.4c0.8,0,1.5,0.7,1.5,1.5S39.9,18.6,39.1,18.6
		L39.1,18.6z"/>
	<path class="st5" d="M30.9,27.8H1.5c-0.8,0-1.5-0.7-1.5-1.5s0.7-1.5,1.5-1.5h29.4c0.8,0,1.5,0.7,1.5,1.5S31.7,27.8,30.9,27.8z"/>
	<path class="st5" d="M40.6,36.9H14.8c-0.8,0-1.5-0.7-1.5-1.5s0.7-1.5,1.5-1.5h25.8c0.8,0,1.5,0.7,1.5,1.5S41.5,36.9,40.6,36.9z"/>
	<path class="st5" d="M26.3,60.2c-0.8,0-1.5-0.7-1.5-1.5V40.8c0-0.8,0.7-1.5,1.5-1.5s1.5,0.7,1.5,1.5v17.9
		C27.8,59.6,27.1,60.2,26.3,60.2z"/>
	<path class="st5" d="M134.9,38.8h-24.3c-0.8,0-1.5-0.7-1.5-1.5V19.2c0-0.8,0.7-1.5,1.5-1.5h19.2c0.7,0,1.3,0.4,1.4,1.1l5.1,18.1
		c0.1,0.4,0,0.9-0.2,1.3S135.4,38.8,134.9,38.8z M112.1,35.8h20.8l-4.2-15.1h-16.6L112.1,35.8L112.1,35.8z"/>
	<path class="st5" d="M45,54.6H26.3c-0.8,0-1.5-0.7-1.5-1.5s0.7-1.5,1.5-1.5H45c0.8,0,1.5,0.7,1.5,1.5S45.8,54.6,45,54.6z"/>
	<path class="st5" d="M102.7,54.6H59.2c-0.8,0-1.5-0.7-1.5-1.5s0.7-1.5,1.5-1.5h43.5c0.8,0,1.5,0.7,1.5,1.5S103.5,54.6,102.7,54.6z"
		/>
	<path class="st5" d="M116.8,45.4h-6.1c-0.8,0-1.5-0.7-1.5-1.5s0.7-1.5,1.5-1.5h6.1c0.8,0,1.5,0.7,1.5,1.5S117.6,45.4,116.8,45.4z"
		/>
</g>
<path class="st0" d="M95.5,79.6H69.7c-0.8,0-1.5-0.7-1.5-1.5s0.7-1.5,1.5-1.5h25.8c0.8,0,1.5,0.7,1.5,1.5S96.3,79.6,95.5,79.6z"/>
<path class="st0" d="M95.5,85.8H52.1c-0.8,0-1.5-0.7-1.5-1.5s0.7-1.5,1.5-1.5h43.4c0.8,0,1.5,0.7,1.5,1.5S96.3,85.8,95.5,85.8z"/>
<path class="st0" d="M95.5,91.9H30.2c-0.8,0-1.5-0.7-1.5-1.5s0.7-1.5,1.5-1.5h65.3c0.8,0,1.5,0.7,1.5,1.5S96.3,91.9,95.5,91.9z"/>
</svg>
