<svg width="129" height="129" xmlns="http://www.w3.org/2000/svg" xmlns:xlink="http://www.w3.org/1999/xlink" xml:space="preserve" overflow="hidden"><g transform="translate(-1745 -2474)"><path d="M1855.19 2586.34 1828.31 2560.81 1855.19 2535.27 1855.19 2586.34ZM1768.11 2589.56 1794.72 2564.43 1796.6 2562.69C1803.86 2555.83 1815.28 2555.83 1822.53 2562.69L1824.42 2564.43 1850.89 2589.56 1768.11 2589.56ZM1763.81 2535.14 1790.69 2560.67 1763.81 2586.2 1763.81 2535.14ZM1782.62 2500.88 1836.38 2500.88 1836.38 2545.62 1824.28 2557.18C1815.55 2550.46 1803.45 2550.46 1794.72 2557.18L1782.62 2545.62 1782.62 2500.88ZM1844.44 2504.5 1844.44 2492.81 1825.62 2492.81 1809.5 2479.38 1793.38 2492.81 1774.56 2492.81 1774.56 2504.64 1755.75 2522.51 1755.75 2597.62 1863.25 2597.62 1863.25 2522.51 1844.44 2504.5Z" fill="#FFFFFF"/><path d="M1809.5 2530.84C1807.08 2530.84 1805.2 2528.82 1805.2 2526.54 1805.2 2524.12 1807.22 2522.24 1809.5 2522.24 1811.92 2522.24 1813.8 2524.12 1813.8 2526.54 1813.8 2528.96 1811.92 2530.84 1809.5 2530.84ZM1809.5 2543.88C1812.59 2543.88 1815.55 2543.07 1818.23 2541.73 1819.31 2541.05 1819.71 2539.71 1819.18 2538.63 1818.5 2537.56 1817.16 2537.16 1816.08 2537.69 1814.07 2538.77 1811.78 2539.31 1809.5 2539.31 1802.38 2539.31 1796.47 2533.39 1796.6 2526.27 1796.6 2519.15 1802.51 2513.24 1809.63 2513.24 1816.76 2513.24 1822.67 2519.02 1822.67 2526.27L1822.67 2530.57C1820.25 2530.57 1818.37 2528.69 1818.37 2526.27 1818.37 2521.97 1815.41 2518.34 1811.25 2517.54 1807.08 2516.73 1802.92 2519.02 1801.44 2522.91 1799.96 2526.81 1801.44 2531.38 1805.07 2533.53 1808.69 2535.68 1813.4 2535.01 1816.22 2531.78 1817.83 2533.66 1820.25 2534.74 1822.8 2534.74 1825.22 2534.74 1827.1 2532.86 1827.1 2530.44L1827.1 2526.14C1827.1 2516.46 1819.31 2508.67 1809.63 2508.67 1799.96 2508.67 1792.17 2516.46 1792.17 2526.14 1792.03 2535.95 1799.82 2543.74 1809.5 2543.88Z" fill="#FFFFFF"/></g></svg>