<?xml version="1.0" encoding="utf-8"?>
<!-- Generator: Adobe Illustrator 27.1.1, SVG Export Plug-In . SVG Version: 6.00 Build 0)  -->
<svg version="1.1" id="Capa_1" xmlns="http://www.w3.org/2000/svg" xmlns:xlink="http://www.w3.org/1999/xlink" x="0px" y="0px"
	 viewBox="0 0 107.5 118.2" style="enable-background:new 0 0 107.5 118.2;" xml:space="preserve">
<style type="text/css">
	.st0{fill:#032B43;}
</style>
<g transform="translate(-1745 -2474)">
	<path class="st0" d="M1844.4,2581l-26.9-25.5l26.9-25.5V2581z M1757.4,2584.2l26.6-25.1l1.9-1.7c7.3-6.9,18.7-6.9,25.9,0l1.9,1.7
		l26.5,25.1H1757.4z M1753.1,2529.8l26.9,25.5l-26.9,25.5V2529.8z M1771.9,2495.5h53.8v44.7l-12.1,11.6c-8.7-6.7-20.8-6.7-29.6,0
		l-12.1-11.6V2495.5z M1833.7,2499.1v-11.7h-18.8l-16.1-13.4l-16.1,13.4h-18.8v11.8l-18.8,17.9v75.1h107.5v-75.1L1833.7,2499.1z"/>
	<path class="st0" d="M1798.8,2525.5c-2.4,0-4.3-2-4.3-4.3c0-2.4,2-4.3,4.3-4.3c2.4,0,4.3,1.9,4.3,4.3S1801.2,2525.5,1798.8,2525.5z
		 M1798.8,2538.5c3.1,0,6.1-0.8,8.7-2.1c1.1-0.7,1.5-2,1-3.1c-0.7-1.1-2-1.5-3.1-0.9c-2,1.1-4.3,1.6-6.6,1.6c-7.1,0-13-5.9-12.9-13
		c0-7.1,5.9-13,13-13c7.1,0,13,5.8,13,13v4.3c-2.4,0-4.3-1.9-4.3-4.3c0-4.3-3-7.9-7.1-8.7c-4.2-0.8-8.3,1.5-9.8,5.4
		c-1.5,3.9,0,8.5,3.6,10.6c3.6,2.1,8.3,1.5,11.2-1.8c1.6,1.9,4,3,6.6,3c2.4,0,4.3-1.9,4.3-4.3v-4.3c0-9.7-7.8-17.5-17.5-17.5
		c-9.7,0-17.5,7.8-17.5,17.5C1781.3,2530.6,1789.1,2538.4,1798.8,2538.5z"/>
</g>
</svg>
