<?xml version="1.0" encoding="utf-8"?>
<!-- Generator: Adobe Illustrator 27.1.1, SVG Export Plug-In . SVG Version: 6.00 Build 0)  -->
<svg version="1.1" id="Capa_1" xmlns="http://www.w3.org/2000/svg" xmlns:xlink="http://www.w3.org/1999/xlink" x="0px" y="0px"
	 viewBox="0 0 101.3 102.1" style="enable-background:new 0 0 101.3 102.1;" xml:space="preserve">
<style type="text/css">
	.st0{fill:#032B43;}
</style>
<g transform="translate(-3908 -2474)">
	<path class="st0" d="M3958.7,2568.1c-23.5,0-42.7-19.4-42.7-43c0-23.7,19.2-43,42.7-43c23.5,0,42.7,19.3,42.7,43
		C4001.3,2548.7,3982.1,2568.1,3958.7,2568.1z M3958.7,2474c-28,0-50.7,22.8-50.7,51.1c0,28.2,22.7,51.1,50.7,51.1
		s50.7-22.8,50.7-51.1C4009.3,2496.8,3986.7,2474,3958.7,2474z"/>
	<path class="st0" d="M3961.3,2498.2h-5.3v26.9c0,0.8,0.3,1.5,0.8,1.9l18.8,18.9l3.7-3.8l-18-18.1V2498.2z"/>
	<path class="st0" d="M3961.3,2490.1c0,1.5-1.2,2.7-2.7,2.7c-1.5,0-2.7-1.2-2.7-2.7c0-1.5,1.2-2.7,2.7-2.7
		C3960.1,2487.4,3961.3,2488.6,3961.3,2490.1z"/>
	<path class="st0" d="M3961.3,2560c0,1.5-1.2,2.7-2.7,2.7c-1.5,0-2.7-1.2-2.7-2.7c0-1.5,1.2-2.7,2.7-2.7
		C3960.1,2557.3,3961.3,2558.5,3961.3,2560z"/>
	<path class="st0" d="M3926.7,2525.1c0,1.5-1.2,2.7-2.7,2.7c-1.5,0-2.7-1.2-2.7-2.7c0-1.5,1.2-2.7,2.7-2.7
		C3925.5,2522.4,3926.7,2523.6,3926.7,2525.1z"/>
	<path class="st0" d="M3996,2525.1c0,1.5-1.2,2.7-2.7,2.7c-1.5,0-2.7-1.2-2.7-2.7c0-1.5,1.2-2.7,2.7-2.7
		C3994.8,2522.4,3996,2523.6,3996,2525.1z"/>
</g>
</svg>
