<svg width="128" height="129" xmlns="http://www.w3.org/2000/svg" xmlns:xlink="http://www.w3.org/1999/xlink" xml:space="preserve" overflow="hidden"><g transform="translate(-3908 -2474)"><path d="M64 106.667C40.5333 106.667 21.3333 87.4667 21.3333 64 21.3333 40.5333 40.5333 21.3333 64 21.3333 87.4667 21.3333 106.667 40.5333 106.667 64 106.667 87.4667 87.4667 106.667 64 106.667ZM64 13.3333C36 13.3333 13.3333 36 13.3333 64 13.3333 92 36 114.667 64 114.667 92 114.667 114.667 92 114.667 64 114.667 36 92 13.3333 64 13.3333Z" fill="#FFFFFF" transform="matrix(1 0 0 1.00781 3908 2474)"/><path d="M66.6667 37.3333 61.3333 37.3333 61.3333 64C61.3333 64.8 61.6 65.4667 62.1333 65.8667L80.9333 84.6667 84.6667 80.9333 66.6667 62.9333 66.6667 37.3333Z" fill="#FFFFFF" transform="matrix(1 0 0 1.00781 3908 2474)"/><path d="M66.6667 29.3333C66.6667 30.8061 65.4728 32 64 32 62.5272 32 61.3333 30.8061 61.3333 29.3333 61.3333 27.8606 62.5272 26.6667 64 26.6667 65.4728 26.6667 66.6667 27.8606 66.6667 29.3333Z" fill="#FFFFFF" transform="matrix(1 0 0 1.00781 3908 2474)"/><path d="M66.6667 98.6667C66.6667 100.139 65.4728 101.333 64 101.333 62.5272 101.333 61.3333 100.139 61.3333 98.6667 61.3333 97.1939 62.5272 96 64 96 65.4728 96 66.6667 97.1939 66.6667 98.6667Z" fill="#FFFFFF" transform="matrix(1 0 0 1.00781 3908 2474)"/><path d="M32 64C32 65.4728 30.8061 66.6667 29.3333 66.6667 27.8606 66.6667 26.6667 65.4728 26.6667 64 26.6667 62.5272 27.8606 61.3333 29.3333 61.3333 30.8061 61.3333 32 62.5272 32 64Z" fill="#FFFFFF" transform="matrix(1 0 0 1.00781 3908 2474)"/><path d="M101.333 64C101.333 65.4728 100.139 66.6667 98.6667 66.6667 97.1939 66.6667 96 65.4728 96 64 96 62.5272 97.1939 61.3333 98.6667 61.3333 100.139 61.3333 101.333 62.5272 101.333 64Z" fill="#FFFFFF" transform="matrix(1 0 0 1.00781 3908 2474)"/></g></svg>