<?xml version="1.0" encoding="UTF-8"?>
<svg id="Capa_2" data-name="Capa 2" xmlns="http://www.w3.org/2000/svg" viewBox="0 0 13.71 13.71">
  <defs>
    <style>
      .cls-1 {
        fill: #fff;
      }

      .cls-2 {
        fill-rule: evenodd;
      }

      .cls-2, .cls-3 {
        fill: #0e1e34;
      }
    </style>
  </defs>
  <g id="Layer_1" data-name="Layer 1">
    <g>
      <circle class="cls-1" cx="6.73" cy="6.73" r="6.24"/>
      <path class="cls-3" d="m6.85,13.71c-3.78,0-6.85-3.07-6.85-6.85S3.07,0,6.85,0s6.85,3.07,6.85,6.85-3.08,6.85-6.85,6.85ZM6.85.99C3.62.99.99,3.62.99,6.85s2.63,5.87,5.87,5.87,5.86-2.63,5.86-5.87S10.09.99,6.85.99Z"/>
      <path class="cls-2" d="m9.41,3.39h-5.09c-.61,0-.92.32-.92.93,0,.84,0,1.69,0,2.53s0,1.7,0,2.56c0,.58.32.9.89.9,1.71,0,3.41,0,5.12,0,.59,0,.91-.32.91-.91v-5.09c0-.59-.31-.91-.91-.91Zm-.56.79q.68,0,.68.69t-.67.66-.68-.67.67-.68Zm-1.99,1.33c.73,0,1.35.62,1.34,1.35,0,.73-.63,1.35-1.36,1.33-.73,0-1.34-.64-1.33-1.36.02-.72.62-1.32,1.34-1.32Zm2.67,3.61c0,.31-.09.41-.41.41h-4.53c-.32,0-.41-.09-.41-.41,0-.85,0-1.69,0-2.53,0-.23.07-.29.29-.28.32.02.32,0,.29.31-.12,1.08.62,2.1,1.68,2.31,1.08.22,2.17-.44,2.47-1.49.09-.33.11-.66.05-.99-.02-.11,0-.14.11-.14.48-.03.48-.04.48.45v2.36Z"/>
    </g>
  </g>
</svg>