<?xml version="1.0" encoding="utf-8"?>
<!-- Generator: Adobe Illustrator 27.1.1, SVG Export Plug-In . SVG Version: 6.00 Build 0)  -->
<svg version="1.1" id="Capa_1" xmlns="http://www.w3.org/2000/svg" xmlns:xlink="http://www.w3.org/1999/xlink" x="0px" y="0px"
	 viewBox="0 0 383 383" style="enable-background:new 0 0 383 383;" xml:space="preserve">
<style type="text/css">
	.st0{fill:#032B43;}
</style>
<path class="st0" d="M0,155.6c0,22.3,15.3,40.8,35.9,46.2v157.3H12c-6.6,0-12,5.4-12,12s5.4,12,12,12h359.1c6.6,0,12-5.4,12-12
	s-5.3-12-12-12h-23.9V201.8c20.6-5.4,35.9-23.9,35.9-46.2v-12H0V155.6L0,155.6z M239.4,203.5c26.5,0,47.9-21.4,47.9-47.9
	c0,22.3,15.3,40.8,35.9,46.2v157.3H143.7V203.5c26.5,0,47.9-21.4,47.9-47.9C191.5,182,213,203.5,239.4,203.5L239.4,203.5z
	 M131.7,201.8v157.3H59.9V201.8c20.6-5.4,35.9-23.9,35.9-46.2C95.8,177.9,111.1,196.4,131.7,201.8L131.7,201.8z M335.1,35.9H47.9
	L0,131.7h383L335.1,35.9L335.1,35.9z M101.1,62.5l-23.9,47.9c-1.1,2.1-3.2,3.3-5.4,3.3c-0.9,0-1.8-0.2-2.7-0.6
	c-2.9-1.5-4.2-5.1-2.7-8l23.9-47.9c1.5-2.9,5.1-4.1,8-2.7C101.4,56,102.6,59.6,101.1,62.5L101.1,62.5z M149,62.5l-23.9,47.9
	c-1.1,2.1-3.2,3.3-5.4,3.3c-0.9,0-1.8-0.2-2.7-0.6c-2.9-1.5-4.2-5.1-2.7-8l23.9-47.9c1.5-2.9,5.1-4.1,8-2.7
	C149.3,56,150.5,59.6,149,62.5L149,62.5z M197.5,107.7c0,3.3-2.7,6-6,6s-6-2.7-6-6V59.9c0-3.3,2.7-6,6-6s6,2.7,6,6V107.7z
	 M266.2,113c-0.9,0.5-1.9,0.8-2.9,0.8c-2.1,0-4.2-1.1-5.2-3.1l-26.2-47.9c-1.6-2.9-0.5-6.6,2.4-8.1c2.9-1.6,6.5-0.6,8.1,2.4
	l26.2,47.9C270.2,107.8,269.1,111.4,266.2,113L266.2,113z M313.9,113.1c-0.8,0.4-1.7,0.6-2.7,0.6c-2.2,0-4.3-1.2-5.3-3.3l-23.9-47.9
	c-1.5-2.9-0.3-6.6,2.7-8c2.9-1.5,6.5-0.3,8,2.7l23.9,47.9C318,108,316.9,111.6,313.9,113.1L313.9,113.1z M101.7,289.1v-27.6
	c-3.5-2.1-6-5.7-6-10.1c0-6.6,5.4-12,12-12s12,5.4,12,12c0,4.4-2.4,8-6,10.1v27.6c3.5,2.1,6,5.8,6,10.1c0,6.6-5.3,12-12,12
	s-12-5.4-12-12C95.8,294.8,98.2,291.2,101.7,289.1z M47.9,12c0-6.6,5.4-12,12-12h263.3c6.6,0,12,5.3,12,12s-5.3,12-12,12H59.9
	C53.3,23.9,47.9,18.6,47.9,12z M209.8,267.5l-8.5-8.5l33.9-33.8l8.5,8.5L209.8,267.5z M209.8,301.4l-8.5-8.5l67.7-67.7l8.5,8.5
	L209.8,301.4L209.8,301.4z M269,259.1l8.5,8.5l-33.9,33.9l-8.5-8.5L269,259.1z"/>
</svg>
