<?xml version="1.0" encoding="utf-8"?>
<!-- Generator: Adobe Illustrator 27.1.1, SVG Export Plug-In . SVG Version: 6.00 Build 0)  -->
<svg version="1.1" id="Objects" xmlns="http://www.w3.org/2000/svg" xmlns:xlink="http://www.w3.org/1999/xlink" x="0px" y="0px"
	 viewBox="0 0 828.5 878.4" style="enable-background:new 0 0 828.5 878.4;" xml:space="preserve">
<style type="text/css">
	.st0{fill:#FFCE6C;}
	.st1{fill:#D00000;}
	.st2{fill:#032B43;}
</style>
<g>
	<g>
		<path class="st0" d="M765.9,878.4H62.6C28,878.4,0,850.4,0,815.8V294.1l13.3-17.2h801.2l14,17.2v521.7
			C828.5,850.3,800.5,878.4,765.9,878.4L765.9,878.4z"/>
		<path class="st1" d="M765.9,78.6H62.6C28,78.6,0,106.6,0,141.2V294h828.5V141.2C828.5,106.7,800.4,78.6,765.9,78.6L765.9,78.6z
			 M164.3,171.9c-19.3,0-35-15.7-35-35s15.7-35,35-35s35,15.7,35,35S183.7,171.9,164.3,171.9z M330.9,171.9c-19.3,0-35-15.7-35-35
			s15.7-35,35-35s35,15.7,35,35S350.3,171.9,330.9,171.9z M497.5,171.9c-19.3,0-35-15.7-35-35s15.7-35,35-35s35,15.7,35,35
			S516.8,171.9,497.5,171.9z M664.1,171.9c-19.3,0-35-15.7-35-35s15.7-35,35-35s35,15.7,35,35S683.4,171.9,664.1,171.9z"/>
	</g>
	<path class="st2" d="M164.4,0L164.4,0c12.6,0,22.8,10.2,22.8,22.8v110.8c0,12.6-10.2,22.8-22.8,22.8l0,0
		c-12.6,0-22.8-10.2-22.8-22.8V22.8C141.6,10.2,151.8,0,164.4,0z"/>
	<path class="st2" d="M330.9,0L330.9,0c12.6,0,22.8,10.2,22.8,22.8v110.8c0,12.6-10.2,22.8-22.8,22.8l0,0
		c-12.6,0-22.8-10.2-22.8-22.8V22.8C308.2,10.2,318.4,0,330.9,0z"/>
	<path class="st2" d="M497.5,0L497.5,0c12.6,0,22.8,10.2,22.8,22.8v110.8c0,12.6-10.2,22.8-22.8,22.8l0,0
		c-12.6,0-22.8-10.2-22.8-22.8V22.8C474.8,10.2,485,0,497.5,0z"/>
	<path class="st2" d="M664.1,0L664.1,0c12.6,0,22.8,10.2,22.8,22.8v110.8c0,12.6-10.2,22.8-22.8,22.8l0,0
		c-12.6,0-22.8-10.2-22.8-22.8V22.8C641.4,10.2,651.6,0,664.1,0z"/>
</g>
<path class="st2" d="M631.1,507.9L394,745c-9.8,9.8-25.6,9.8-35.3,0L197.4,583.6c-9.4-9.4-9.4-24.8,0-34.2l46.5-46.5
	c9.4-9.4,24.8-9.4,34.2,0l98.3,98.3l174-174c9.4-9.4,24.8-9.4,34.2,0l46.5,46.5C640.6,483.1,640.6,498.5,631.1,507.9L631.1,507.9z"
	/>
</svg>
