<?xml version="1.0" encoding="utf-8"?>
<!-- Generator: Adobe Illustrator 27.1.1, SVG Export Plug-In . SVG Version: 6.00 Build 0)  -->
<svg version="1.1" id="Capa_1" xmlns="http://www.w3.org/2000/svg" xmlns:xlink="http://www.w3.org/1999/xlink" x="0px" y="0px"
	 viewBox="0 0 1362.6 1081.5" style="enable-background:new 0 0 1362.6 1081.5;" xml:space="preserve">
<style type="text/css">
	.st0{clip-path:url(#SVGID_00000016765784787455408830000001828970808922495148_);}
	.st1{fill-rule:evenodd;clip-rule:evenodd;fill:#FFFFFF;stroke:#FDD466;stroke-width:6.875;stroke-miterlimit:8;}
	.st2{fill-rule:evenodd;clip-rule:evenodd;fill:#FDD466;}
	.st3{display:none;fill:#032B43;enable-background:new    ;}
	.st4{font-family:'ArialMT';}
	.st5{font-size:66px;}
	.st6{enable-background:new    ;}
	.st7{fill:#032B43;}
	.st8{font-family:'Arial-BoldMT';}
	.st9{display:none;}
	.st10{display:inline;fill:#032B43;}
	.st11{font-family:'GillSans-UltraBold';}
	.st12{font-size:600px;}
</style>
<g transform="translate(-2643 -5310)">
	<g>
		<g>
			<g>
				<g>
					<g>
						<g>
							<defs>
								<path id="SVGID_1_" d="M3177.8,5437.6c-211.7,0-383.4,171.7-383.4,383.4v383.4h717.9c211.7,0,383.4-171.7,383.4-383.4
									v-383.4H3177.8z M2643,5310h1362.6v1020H2643V5310z"/>
							</defs>
							<clipPath id="SVGID_00000077302096344820868240000016036817508165356946_">
								<use xlink:href="#SVGID_1_"  style="overflow:visible;"/>
							</clipPath>
							<g style="clip-path:url(#SVGID_00000077302096344820868240000016036817508165356946_);">
								<g transform="matrix(2 0 0 1.99924 3123 5711)">
								</g>
							</g>
						</g>
					</g>
				</g>
			</g>
		</g>
		<path class="st1" d="M3177.8,5437.6h717.9V5821c0,211.7-171.7,383.4-383.4,383.4h-717.9V5821
			C2794.4,5609.3,2966,5437.6,3177.8,5437.6z"/>
		<path class="st2" d="M3207.3,5577.3h31.9l9.8-28.2l9.8,28.2h31.9l-25.8,17.4l9.8,28.2l-25.8-17.4l-25.8,17.4l9.8-28.2
			L3207.3,5577.3z"/>
		<path class="st2" d="M3306,5577.3h31.9l9.8-28.2l9.8,28.2h31.9l-25.8,17.4l9.8,28.2l-25.8-17.4l-25.8,17.4l9.8-28.2L3306,5577.3z"
			/>
		<path class="st2" d="M3404.7,5577.3h31.9l9.8-28.2l9.8,28.2h31.9l-25.8,17.4l9.8,28.2l-25.8-17.4l-25.8,17.4l9.8-28.2
			L3404.7,5577.3z"/>
		<path class="st2" d="M3503.4,5577.3h31.9l9.8-28.2l9.8,28.2h31.9l-25.8,17.4l9.8,28.2l-25.8-17.4l-25.8,17.4l9.8-28.2
			L3503.4,5577.3z"/>
		<path class="st2" d="M3602.1,5577.3h31.9l9.8-28.2l9.8,28.2h31.9l-25.8,17.4l9.8,28.2l-25.8-17.4l-25.8,17.4l9.8-28.2
			L3602.1,5577.3z"/>
		<text transform="matrix(1 0 0 1 2946.5464 5715)" class="st3 st4 st5">Lorem</text>
		<text transform="matrix(1 0 0 1 3135.0942 5715)" class="st3 st4 st5"> </text>
		<text transform="matrix(1 0 0 1 3151.4194 5715)" class="st3 st4 st5">ipsum</text>
		<text transform="matrix(1 0 0 1 3332.9194 5715)" class="st3 st4 st5"> </text>
		<text transform="matrix(1 0 0 1 3349.2495 5715)" class="st3 st4 st5">dolor </text>
		<text transform="matrix(1 0 0 1 3516.4839 5715)" class="st3 st4 st5">sit</text>
		<text transform="matrix(1 0 0 1 3588.1538 5715)" class="st3 st4 st5"> </text>
		<text transform="matrix(1 0 0 1 2946.5464 5794.2002)" class="st3 st4 st5">amet</text>
		<text transform="matrix(1 0 0 1 3097.1079 5794.2002)" class="st3 st4 st5"> </text>
		<text transform="matrix(1 0 0 1 3113.437 5794.2002)" class="st3 st4 st5">consectetur</text>
		<text transform="matrix(1 0 0 1 3462.8589 5794.2002)" class="st3 st4 st5"> </text>
		<text transform="matrix(1 0 0 1 2946.5464 5873.4004)" class="st3 st4 st5">adipiscing</text>
		<text transform="matrix(1 0 0 1 3246.9849 5873.4004)" class="st3 st4 st5"> </text>
		<text transform="matrix(1 0 0 1 3263.311 5873.4004)" class="st3 st4 st5">elit</text>
		<text transform="matrix(1 0 0 1 3351.9995 5873.4004)" class="st3 st4 st5"> </text>
		<text transform="matrix(1 0 0 1 3368.3257 5873.4004)" class="st3 st4 st5">quisque mus </text>
		<text transform="matrix(1 0 0 1 2946.5464 5952.5996)" class="st3 st4 st5">aliquam</text>
		<text transform="matrix(1 0 0 1 3182.188 5952.5996)" class="st3 st4 st5"> </text>
		<text transform="matrix(1 0 0 1 3198.5142 5952.5996)" class="st3 st4 st5">pretium</text>
		<text transform="matrix(1 0 0 1 3425.0464 5952.5996)" class="st3 st4 st5"> </text>
		<g>
			<g class="st6">
				<path class="st7" d="M2945.1,6057.4h8.2l1.5,33.6v13.3h-9.6V6057.4z M2949.5,6057.4h8.2l12.1,34.5l12.1-34.5h8.2l-17,46.9h-6.6
					L2949.5,6057.4z M2986.3,6057.4h8.2v46.9h-9.7V6091L2986.3,6057.4z"/>
				<path class="st7" d="M3022.4,6083.1l0.1,5.3h-5.2c-1.2,0-2.3,0.1-3.2,0.4s-1.6,0.7-2.2,1.2s-1,1.1-1.3,1.8
					c-0.3,0.7-0.4,1.4-0.4,2.2s0.2,1.5,0.5,2.1c0.4,0.6,0.9,1.1,1.6,1.5c0.7,0.4,1.5,0.5,2.4,0.5c1.4,0,2.6-0.3,3.6-0.8
					s1.8-1.2,2.4-2.1c0.6-0.8,0.9-1.6,0.9-2.3l2.4,3.9c-0.3,0.9-0.8,1.8-1.4,2.7c-0.6,0.9-1.3,1.8-2.2,2.7c-0.9,0.8-2,1.5-3.3,2
					c-1.3,0.5-2.8,0.8-4.5,0.8c-2.2,0-4.2-0.4-6-1.3c-1.8-0.9-3.2-2.1-4.3-3.7c-1-1.6-1.6-3.4-1.6-5.4c0-1.8,0.3-3.4,1-4.9
					c0.7-1.4,1.7-2.6,3-3.6c1.3-1,3-1.7,5-2.2c2-0.5,4.4-0.8,7-0.8H3022.4z M3021.1,6096.4v-15.5c0-1.1-0.2-2.1-0.5-2.9
					c-0.4-0.8-0.9-1.4-1.7-1.9c-0.8-0.5-1.7-0.7-2.9-0.7c-1,0-1.9,0.2-2.7,0.5c-0.8,0.4-1.3,0.9-1.7,1.5c-0.4,0.7-0.6,1.4-0.6,2.3
					h-9.3c0-1.5,0.3-2.9,1-4.2c0.7-1.3,1.7-2.5,3-3.5c1.3-1,2.9-1.8,4.7-2.4c1.8-0.6,3.9-0.9,6.1-0.9c2.7,0,5.1,0.5,7.2,1.4
					c2.1,0.9,3.8,2.3,5,4.1c1.2,1.8,1.8,4.1,1.8,6.8v14.9c0,1.9,0.1,3.5,0.4,4.7c0.2,1.2,0.6,2.3,1,3.2v0.5h-9.4
					c-0.5-0.9-0.8-2.1-1-3.6S3021.1,6097.9,3021.1,6096.4z"/>
				<path class="st7" d="M3046.9,6077v27.3h-9.3v-34.9h8.7L3046.9,6077z M3057.4,6069.2l-0.2,8.6c-0.5-0.1-1-0.1-1.6-0.2
					c-0.6-0.1-1.2-0.1-1.7-0.1c-1.3,0-2.4,0.2-3.4,0.5c-1,0.3-1.8,0.8-2.4,1.5c-0.6,0.6-1.1,1.4-1.4,2.4c-0.3,0.9-0.5,2-0.5,3.2
					l-1.9-0.6c0-2.3,0.2-4.3,0.7-6.2c0.5-1.9,1.1-3.6,2-5s1.9-2.5,3.2-3.3c1.3-0.8,2.7-1.2,4.4-1.2c0.5,0,1,0,1.6,0.1
					C3056.7,6069,3057.1,6069.1,3057.4,6069.2z"/>
				<path class="st7" d="M3076.2,6097.7c1.1,0,2.1-0.2,3-0.7c0.9-0.4,1.6-1.1,2.1-1.9c0.5-0.8,0.8-1.8,0.8-2.9h8.7
					c0,2.4-0.7,4.6-2,6.5c-1.3,1.9-3,3.4-5.2,4.5c-2.2,1.1-4.6,1.6-7.3,1.6c-2.7,0-5.1-0.5-7.1-1.4c-2-0.9-3.7-2.2-5-3.8
					c-1.3-1.6-2.3-3.5-3-5.6c-0.7-2.1-1-4.4-1-6.9v-0.9c0-2.5,0.3-4.8,1-6.9c0.7-2.1,1.7-4,3-5.6c1.3-1.6,3-2.9,5-3.8s4.3-1.4,7-1.4
					c2.9,0,5.4,0.5,7.5,1.6s3.9,2.7,5.1,4.7c1.2,2,1.9,4.4,1.9,7.2h-8.7c0-1.2-0.3-2.2-0.7-3.2c-0.5-0.9-1.1-1.7-2-2.3
					s-1.9-0.9-3.2-0.9c-1.4,0-2.5,0.3-3.3,0.9c-0.9,0.6-1.5,1.3-2,2.3c-0.5,1-0.8,2.1-1,3.3c-0.2,1.2-0.3,2.5-0.3,3.9v0.9
					c0,1.4,0.1,2.7,0.3,3.9c0.2,1.2,0.5,2.4,1,3.3s1.2,1.7,2,2.3C3073.7,6097.4,3074.8,6097.7,3076.2,6097.7z"/>
				<path class="st7" d="M3112.3,6104.9c-2.7,0-5.1-0.4-7.3-1.3c-2.1-0.9-4-2.1-5.5-3.6c-1.5-1.5-2.6-3.3-3.4-5.4
					c-0.8-2.1-1.2-4.2-1.2-6.6v-1.3c0-2.6,0.4-5.1,1.1-7.3c0.8-2.2,1.8-4.1,3.2-5.7c1.4-1.6,3.1-2.9,5.1-3.7c2-0.9,4.3-1.3,6.8-1.3
					c2.5,0,4.7,0.4,6.6,1.2c1.9,0.8,3.5,2,4.8,3.5c1.3,1.5,2.3,3.3,2.9,5.4c0.7,2.1,1,4.4,1,7v3.9h-27.7v-6.2h18.6v-0.7
					c0-1.3-0.2-2.4-0.7-3.5c-0.5-1-1.2-1.8-2.1-2.4c-0.9-0.6-2.1-0.9-3.5-0.9c-1.2,0-2.3,0.3-3.2,0.8c-0.9,0.5-1.6,1.3-2.1,2.3
					s-1,2.1-1.2,3.4c-0.3,1.3-0.4,2.7-0.4,4.3v1.3c0,1.4,0.2,2.7,0.6,3.9c0.4,1.2,1,2.2,1.7,3.1s1.6,1.5,2.7,2s2.3,0.7,3.6,0.7
					c1.7,0,3.2-0.3,4.7-1c1.5-0.7,2.7-1.6,3.8-3l4.5,4.9c-0.7,1.1-1.7,2.1-3,3s-2.8,1.8-4.5,2.4
					C3116.5,6104.6,3114.5,6104.9,3112.3,6104.9z"/>
				<path class="st7" d="M3141.6,6054.8v49.5h-9.3v-49.5H3141.6z"/>
				<path class="st7" d="M3169.4,6083.1l0.1,5.3h-5.2c-1.2,0-2.3,0.1-3.2,0.4s-1.6,0.7-2.2,1.2s-1,1.1-1.3,1.8
					c-0.3,0.7-0.4,1.4-0.4,2.2s0.2,1.5,0.5,2.1c0.4,0.6,0.9,1.1,1.6,1.5c0.7,0.4,1.5,0.5,2.4,0.5c1.4,0,2.6-0.3,3.6-0.8
					s1.8-1.2,2.4-2.1c0.6-0.8,0.9-1.6,0.9-2.3l2.4,3.9c-0.3,0.9-0.8,1.8-1.4,2.7c-0.6,0.9-1.3,1.8-2.2,2.7c-0.9,0.8-2,1.5-3.3,2
					c-1.3,0.5-2.8,0.8-4.5,0.8c-2.2,0-4.2-0.4-6-1.3c-1.8-0.9-3.2-2.1-4.3-3.7c-1-1.6-1.6-3.4-1.6-5.4c0-1.8,0.3-3.4,1-4.9
					c0.7-1.4,1.7-2.6,3-3.6c1.3-1,3-1.7,5-2.2c2-0.5,4.4-0.8,7-0.8H3169.4z M3168.1,6096.4v-15.5c0-1.1-0.2-2.1-0.5-2.9
					c-0.4-0.8-0.9-1.4-1.7-1.9c-0.8-0.5-1.7-0.7-2.9-0.7c-1,0-1.9,0.2-2.7,0.5c-0.8,0.4-1.3,0.9-1.7,1.5c-0.4,0.7-0.6,1.4-0.6,2.3
					h-9.3c0-1.5,0.3-2.9,1-4.2c0.7-1.3,1.7-2.5,3-3.5c1.3-1,2.9-1.8,4.7-2.4c1.8-0.6,3.9-0.9,6.1-0.9c2.7,0,5.1,0.5,7.2,1.4
					c2.1,0.9,3.8,2.3,5,4.1c1.2,1.8,1.8,4.1,1.8,6.8v14.9c0,1.9,0.1,3.5,0.4,4.7c0.2,1.2,0.6,2.3,1,3.2v0.5h-9.4
					c-0.5-0.9-0.8-2.1-1-3.6S3168.1,6097.9,3168.1,6096.4z"/>
			</g>
		</g>
		<text transform="matrix(1 0 0 1 3131.0288 6063.3008)" class="st3 st8 st5"> </text>
		<text transform="matrix(1 0 0 1 3147.3579 6063.3008)" class="st3 st8 st5">ipsum</text>
		<text transform="matrix(1 0 0 1 3330.061 6063.3008)" class="st3 st8 st5"> </text>
		<text transform="matrix(1 0 0 1 3346.3901 6063.3008)" class="st3 st8 st5">dolor</text>
		<text transform="matrix(1 0 0 1 3499.8726 6063.3008)" class="st3 st8 st5"> </text>
		<g>
			<g class="st6">
				<path class="st7" d="M2952.6,6110.6v46.9h-6.2v-46.9H2952.6z M2975.5,6110.6v5.1h-24.2v-5.1H2975.5z M2972.3,6131.7v5.1h-21
					v-5.1H2972.3z"/>
				<path class="st7" d="M2996.4,6158.1c-2.4,0-4.6-0.4-6.6-1.2c-2-0.8-3.7-2-5.1-3.5c-1.4-1.5-2.5-3.3-3.2-5.3
					c-0.8-2.1-1.1-4.3-1.1-6.8v-1.4c0-2.8,0.4-5.4,1.3-7.6c0.8-2.2,2-4.1,3.4-5.7c1.4-1.5,3.1-2.7,4.9-3.5c1.8-0.8,3.7-1.2,5.7-1.2
					c2.5,0,4.6,0.4,6.5,1.3c1.8,0.9,3.3,2.1,4.5,3.6s2,3.3,2.6,5.4c0.6,2.1,0.8,4.3,0.8,6.8v2.7h-26v-4.9h20.1v-0.5
					c-0.1-1.5-0.4-3.1-1-4.5s-1.4-2.7-2.6-3.6c-1.2-0.9-2.8-1.4-4.8-1.4c-1.4,0-2.6,0.3-3.7,0.9c-1.1,0.6-2.1,1.4-2.9,2.5
					c-0.8,1.1-1.5,2.5-1.9,4.1s-0.7,3.5-0.7,5.6v1.4c0,1.7,0.2,3.2,0.7,4.7c0.5,1.4,1.1,2.7,2,3.8c0.9,1.1,2,2,3.3,2.6
					c1.3,0.6,2.7,0.9,4.4,0.9c2.1,0,3.9-0.4,5.3-1.3c1.5-0.9,2.7-2,3.8-3.4l3.6,2.9c-0.8,1.1-1.7,2.2-2.9,3.3s-2.6,1.9-4.3,2.5
					C3000.7,6157.8,2998.7,6158.1,2996.4,6158.1z"/>
				<path class="st7" d="M3022.9,6128.1v29.4h-6v-34.9h5.8L3022.9,6128.1z M3033.8,6122.4l0,5.5c-0.5-0.1-1-0.2-1.4-0.2
					c-0.4,0-0.9,0-1.5,0c-1.4,0-2.6,0.2-3.6,0.6c-1.1,0.4-1.9,1-2.7,1.8c-0.7,0.8-1.3,1.7-1.7,2.8c-0.4,1.1-0.7,2.2-0.8,3.5l-1.7,1
					c0-2.1,0.2-4.1,0.6-5.9s1.1-3.5,1.9-4.9c0.9-1.4,2-2.5,3.4-3.4c1.4-0.8,3-1.2,4.9-1.2c0.4,0,0.9,0,1.5,0.1
					C3033.2,6122.2,3033.6,6122.3,3033.8,6122.4z"/>
				<path class="st7" d="M3045.3,6128.1v29.4h-6v-34.9h5.8L3045.3,6128.1z M3056.2,6122.4l0,5.5c-0.5-0.1-1-0.2-1.4-0.2
					c-0.4,0-0.9,0-1.5,0c-1.4,0-2.6,0.2-3.6,0.6c-1.1,0.4-1.9,1-2.7,1.8c-0.7,0.8-1.3,1.7-1.7,2.8c-0.4,1.1-0.7,2.2-0.8,3.5l-1.7,1
					c0-2.1,0.2-4.1,0.6-5.9s1.1-3.5,1.9-4.9c0.9-1.4,2-2.5,3.4-3.4c1.4-0.8,3-1.2,4.9-1.2c0.4,0,0.9,0,1.5,0.1
					C3055.6,6122.2,3056,6122.3,3056.2,6122.4z"/>
				<path class="st7" d="M3076.2,6158.1c-2.4,0-4.6-0.4-6.6-1.2c-2-0.8-3.7-2-5.1-3.5c-1.4-1.5-2.5-3.3-3.2-5.3
					c-0.8-2.1-1.1-4.3-1.1-6.8v-1.4c0-2.8,0.4-5.4,1.3-7.6c0.8-2.2,2-4.1,3.4-5.7c1.4-1.5,3.1-2.7,4.9-3.5c1.8-0.8,3.7-1.2,5.7-1.2
					c2.5,0,4.6,0.4,6.5,1.3c1.8,0.9,3.3,2.1,4.5,3.6s2,3.3,2.6,5.4c0.6,2.1,0.8,4.3,0.8,6.8v2.7h-26v-4.9h20.1v-0.5
					c-0.1-1.5-0.4-3.1-1-4.5s-1.4-2.7-2.6-3.6c-1.2-0.9-2.8-1.4-4.8-1.4c-1.4,0-2.6,0.3-3.7,0.9c-1.1,0.6-2.1,1.4-2.9,2.5
					c-0.8,1.1-1.5,2.5-1.9,4.1s-0.7,3.5-0.7,5.6v1.4c0,1.7,0.2,3.2,0.7,4.7c0.5,1.4,1.1,2.7,2,3.8c0.9,1.1,2,2,3.3,2.6
					c1.3,0.6,2.7,0.9,4.4,0.9c2.1,0,3.9-0.4,5.3-1.3c1.5-0.9,2.7-2,3.8-3.4l3.6,2.9c-0.8,1.1-1.7,2.2-2.9,3.3s-2.6,1.9-4.3,2.5
					C3080.5,6157.8,3078.5,6158.1,3076.2,6158.1z"/>
				<path class="st7" d="M3111.3,6122.6v4.6h-18.9v-4.6H3111.3z M3098.8,6114.2h6v34.7c0,1.2,0.2,2.1,0.5,2.7c0.4,0.6,0.8,1,1.4,1.2
					s1.2,0.3,1.9,0.3c0.5,0,1,0,1.6-0.1c0.5-0.1,1-0.2,1.2-0.2l0,4.9c-0.5,0.2-1.1,0.3-1.9,0.4c-0.8,0.1-1.7,0.2-2.8,0.2
					c-1.5,0-2.8-0.3-4-0.9s-2.2-1.6-2.9-2.9c-0.7-1.4-1.1-3.2-1.1-5.5V6114.2z"/>
				<path class="st7" d="M3132.7,6158.1c-2.4,0-4.6-0.4-6.6-1.2c-2-0.8-3.7-2-5.1-3.5c-1.4-1.5-2.5-3.3-3.2-5.3
					c-0.8-2.1-1.1-4.3-1.1-6.8v-1.4c0-2.8,0.4-5.4,1.3-7.6c0.8-2.2,2-4.1,3.4-5.7c1.4-1.5,3.1-2.7,4.9-3.5c1.8-0.8,3.7-1.2,5.7-1.2
					c2.5,0,4.6,0.4,6.5,1.3c1.8,0.9,3.3,2.1,4.5,3.6s2,3.3,2.6,5.4c0.6,2.1,0.8,4.3,0.8,6.8v2.7h-26v-4.9h20.1v-0.5
					c-0.1-1.5-0.4-3.1-1-4.5s-1.4-2.7-2.6-3.6c-1.2-0.9-2.8-1.4-4.8-1.4c-1.4,0-2.6,0.3-3.7,0.9c-1.1,0.6-2.1,1.4-2.9,2.5
					c-0.8,1.1-1.5,2.5-1.9,4.1s-0.7,3.5-0.7,5.6v1.4c0,1.7,0.2,3.2,0.7,4.7c0.5,1.4,1.1,2.7,2,3.8c0.9,1.1,2,2,3.3,2.6
					c1.3,0.6,2.7,0.9,4.4,0.9c2.1,0,3.9-0.4,5.3-1.3c1.5-0.9,2.7-2,3.8-3.4l3.6,2.9c-0.8,1.1-1.7,2.2-2.9,3.3s-2.6,1.9-4.3,2.5
					C3137,6157.8,3135,6158.1,3132.7,6158.1z"/>
				<path class="st7" d="M3159.2,6128.1v29.4h-6v-34.9h5.8L3159.2,6128.1z M3170.1,6122.4l0,5.5c-0.5-0.1-1-0.2-1.4-0.2
					c-0.4,0-0.9,0-1.5,0c-1.4,0-2.6,0.2-3.6,0.6c-1.1,0.4-1.9,1-2.7,1.8c-0.7,0.8-1.3,1.7-1.7,2.8c-0.4,1.1-0.7,2.2-0.8,3.5l-1.7,1
					c0-2.1,0.2-4.1,0.6-5.9s1.1-3.5,1.9-4.9c0.9-1.4,2-2.5,3.4-3.4c1.4-0.8,3-1.2,4.9-1.2c0.4,0,0.9,0,1.5,0.1
					C3169.5,6122.2,3169.9,6122.3,3170.1,6122.4z"/>
				<path class="st7" d="M3175.7,6113.4c0-1,0.3-1.8,0.9-2.4c0.6-0.7,1.5-1,2.6-1c1.1,0,2,0.3,2.6,1s0.9,1.5,0.9,2.4
					c0,0.9-0.3,1.7-0.9,2.4c-0.6,0.7-1.5,1-2.6,1c-1.2,0-2-0.3-2.6-1C3176,6115.1,3175.7,6114.3,3175.7,6113.4z M3182.1,6122.6v34.9
					h-6v-34.9H3182.1z"/>
				<path class="st7" d="M3213.3,6136.4l0.1,4.2h-6c-1.7,0-3.2,0.1-4.5,0.4c-1.3,0.3-2.4,0.7-3.4,1.2s-1.6,1.2-2.1,2
					c-0.5,0.8-0.7,1.7-0.7,2.8c0,1.1,0.2,2.1,0.7,3c0.5,0.9,1.2,1.6,2.2,2.1s2.2,0.8,3.7,0.8c1.8,0,3.4-0.4,4.8-1.2
					c1.4-0.8,2.5-1.7,3.3-2.8c0.8-1.1,1.3-2.2,1.3-3.3l2.5,2.9c-0.2,0.9-0.6,1.9-1.2,3c-0.7,1.1-1.6,2.1-2.7,3.1
					c-1.1,1-2.4,1.8-3.9,2.5c-1.5,0.7-3.2,1-5.1,1c-2.4,0-4.4-0.5-6.2-1.4s-3.1-2.2-4.1-3.7c-1-1.6-1.5-3.3-1.5-5.2
					c0-1.9,0.4-3.5,1.1-4.9c0.7-1.4,1.8-2.6,3.2-3.6c1.4-1,3-1.7,5-2.2s4.1-0.7,6.5-0.7H3213.3z M3212.3,6151.5v-18
					c0-1.4-0.3-2.6-0.8-3.6c-0.5-1-1.4-1.8-2.5-2.4s-2.4-0.8-4.1-0.8c-1.5,0-2.8,0.3-3.9,0.8s-2,1.2-2.6,2c-0.6,0.8-1,1.7-1,2.7h-6
					c0-1.2,0.3-2.5,1-3.7s1.6-2.3,2.8-3.3c1.2-1,2.7-1.8,4.4-2.4s3.6-0.9,5.7-0.9c2.5,0,4.8,0.4,6.7,1.3c1.9,0.9,3.5,2.2,4.6,3.9
					c1.1,1.7,1.7,3.9,1.7,6.5v16.2c0,1.2,0.1,2.4,0.3,3.7c0.2,1.3,0.5,2.4,0.9,3.4v0.5h-6.2c-0.3-0.7-0.5-1.6-0.7-2.8
					C3212.3,6153.6,3212.3,6152.5,3212.3,6151.5z"/>
				<path class="st7" d="M3264.6,6143.8v-33.2h6.2v33.2c0,3.1-0.6,5.7-1.9,7.8c-1.3,2.1-3,3.7-5.2,4.8c-2.2,1.1-4.8,1.7-7.7,1.7
					c-2.9,0-5.4-0.5-7.7-1.5c-2.2-1-4-2.5-5.3-4.5c-1.3-2-1.9-4.6-1.9-7.6h6.2c0,2,0.4,3.6,1.1,4.9c0.7,1.3,1.7,2.2,3,2.8
					c1.3,0.6,2.8,0.9,4.5,0.9c1.6,0,3.1-0.3,4.4-1c1.3-0.7,2.3-1.7,3.1-3.1C3264.2,6147.5,3264.6,6145.8,3264.6,6143.8z"/>
				<path class="st7" d="M3283.1,6122.6l9.1,27.1l1.5,6.3l-4.3,2.2l-12.8-35.5H3283.1z M3290.2,6153.9l9.7-31.3h6.4l-14,40.3
					c-0.3,0.9-0.7,1.8-1.3,2.8c-0.5,1-1.2,1.9-2,2.9c-0.8,0.9-1.8,1.6-2.9,2.2c-1.1,0.6-2.5,0.9-4.1,0.9c-0.5,0-1.1-0.1-1.8-0.2
					c-0.7-0.1-1.2-0.2-1.5-0.3l0-4.8c0.2,0,0.4,0,0.8,0.1c0.4,0,0.6,0,0.8,0c1.4,0,2.5-0.2,3.4-0.5c0.9-0.4,1.7-0.9,2.4-1.8
					c0.7-0.8,1.2-2,1.7-3.4L3290.2,6153.9z"/>
				<path class="st7" d="M3318.7,6110.6v46.9h-6.2v-46.9H3318.7z M3341,6152.4v5.1h-23.5v-5.1H3341z"/>
			</g>
		</g>
		<text transform="matrix(1 0 0 1 3340.0298 6142.5)" class="st3 st4 st5"> </text>
		<g class="st9">
			<text transform="matrix(1 0 0 1 2794.3999 5887.1465)" class="st10 st11 st12">‘</text>
			<text transform="matrix(-1 0 0 -1 3895.7012 5868)" class="st10 st11 st12">‘</text>
		</g>
	</g>
</g>
<g>
	<g>
		<g>
			<g>
				<path class="st7" d="M150.4,233.7L150.4,233.7L150.4,233.7L150.4,233.7L150.4,233.7L150.4,233.7L150.4,233.7L150.4,233.7
					L150.4,233.7L150.4,233.7L150.4,233.7L150.4,233.7L150.4,233.7L150.4,233.7L150.4,233.7L150.4,233.7L150.4,233.7L150.4,233.7
					L150.4,233.7L150.4,233.7L150.4,233.7L150.4,233.7L150.4,233.7L150.4,233.7L150.4,233.7L150.4,233.7L150.4,233.7L150.4,233.7
					L150.4,233.7L150.4,233.7L150.4,233.7L150.4,233.7L150.4,233.7c0.2,1.9,0.4,3.8,0.6,5.6c0.2,1.9,0.4,3.7,0.7,5.5s0.6,3.6,1,5.4
					s0.8,3.6,1.2,5.4c0.5,1.8,0.9,3.5,1.5,5.3c0.5,1.7,1.1,3.5,1.7,5.2s1.3,3.4,2,5c0.7,1.7,1.4,3.3,2.2,4.9s1.6,3.2,2.4,4.8
					c0.8,1.6,1.7,3.1,2.6,4.7c0.9,1.5,1.8,3,2.8,4.5s2,2.9,3,4.4c1,1.4,2.1,2.8,3.2,4.2c1.1,1.4,2.2,2.7,3.4,4.1s2.4,2.6,3.6,3.9
					s2.5,2.5,3.8,3.7s2.6,2.4,3.9,3.6s2.7,2.3,4.1,3.4s2.8,2.2,4.2,3.2s2.9,2,4.4,3s3,1.9,4.5,2.8s3.1,1.8,4.7,2.6s3.2,1.6,4.8,2.4
					s3.3,1.5,4.9,2.1c1.7,0.7,3.3,1.3,5.1,1.9c1.7,0.6,3.4,1.2,5.2,1.7c1.7,0.5,3.5,1,5.3,1.4s3.6,0.8,5.4,1.2
					c1.8,0.4,3.6,0.7,5.5,0.9c1.8,0.3,3.7,0.5,5.5,0.7c1.9,0.2,3.7,0.3,5.6,0.4s3.8,0.1,5.7,0.1c2,0,3.9-0.1,5.9-0.1
					c2-0.1,3.9-0.2,5.8-0.4c1.9-0.2,3.8-0.4,5.7-0.7c1.9-0.3,3.8-0.6,5.6-1c1.9-0.4,3.7-0.8,5.5-1.3s3.6-1,5.4-1.5
					c1.8-0.6,3.6-1.2,5.3-1.8s3.5-1.3,5.2-2.1c1.7-0.7,3.4-1.5,5.1-2.3s3.3-1.6,4.9-2.5s3.2-1.8,4.8-2.8c1.6-1,3.1-2,4.7-3
					c1.5-1,3-2.1,4.5-3.2s2.9-2.2,4.3-3.4c1.4-1.2,2.8-2.4,4.2-3.6c1.4-1.2,2.7-2.5,4-3.8s2.6-2.6,3.8-4c1.2-1.4,2.4-2.7,3.6-4.2
					s2.3-2.9,3.4-4.3c1.1-1.5,2.2-3,3.2-4.5s2-3.1,3-4.7s1.9-3.2,2.8-4.8s1.7-3.3,2.5-4.9s1.6-3.4,2.3-5.1c0.7-1.7,1.4-3.5,2.1-5.2
					c0.6-1.8,1.2-3.5,1.8-5.3c0.6-1.8,1.1-3.6,1.5-5.4c0.5-1.8,0.9-3.7,1.3-5.5c0.4-1.9,0.7-3.7,1-5.6s0.5-3.8,0.7-5.7
					s0.3-3.9,0.4-5.8c0.1-2,0.1-3.9,0.1-5.9s-0.1-3.9-0.1-5.9c-0.1-2-0.2-3.9-0.4-5.8c-0.2-1.9-0.4-3.8-0.7-5.7
					c-0.3-1.9-0.6-3.8-1-5.6c-0.4-1.9-0.8-3.7-1.3-5.5s-1-3.6-1.5-5.4c-0.6-1.8-1.2-3.6-1.8-5.3c-0.6-1.8-1.3-3.5-2.1-5.2
					c-0.7-1.7-1.5-3.4-2.3-5.1s-1.6-3.3-2.5-4.9s-1.8-3.2-2.8-4.8s-2-3.1-3-4.7c-1-1.5-2.1-3-3.2-4.5s-2.2-2.9-3.4-4.3
					c-1.2-1.4-2.4-2.8-3.6-4.2s-2.5-2.7-3.8-4s-2.6-2.6-4-3.8s-2.7-2.4-4.2-3.6c-1.4-1.2-2.9-2.3-4.3-3.4s-3-2.2-4.5-3.2
					s-3.1-2-4.7-3s-3.2-1.9-4.8-2.8c-1.6-0.9-3.3-1.7-4.9-2.5c-1.7-0.8-3.4-1.6-5.1-2.3c-1.7-0.7-3.5-1.4-5.2-2.1s-3.5-1.2-5.3-1.8
					c-1.8-0.6-3.6-1.1-5.4-1.5c-1.8-0.5-3.7-0.9-5.5-1.3c-1.9-0.4-3.7-0.7-5.6-1s-3.8-0.5-5.7-0.7c-1.9-0.2-3.9-0.3-5.8-0.4
					c-2-0.1-3.9-0.1-5.9-0.1c-0.1,0-0.2,0-0.2,0h-0.2c-0.1,0-0.2,0-0.2,0h-0.2h-0.2c-0.1,0-0.2,0-0.2,0c-0.1,0-0.2,0-0.2,0
					s-0.1,0-0.2,0s-0.1,0-0.2,0s-0.1,0-0.2,0s-0.1,0-0.2,0s-0.1,0-0.2,0s-0.1,0-0.2,0s-0.1,0-0.2,0s-0.1,0-0.2,0s-0.1,0-0.2,0
					s-0.1,0-0.2,0s-0.1,0-0.2,0s-0.1,0-0.2,0s-0.1,0-0.2,0s-0.1,0-0.2,0s-0.1,0-0.2,0s-0.1,0-0.2,0s-0.1,0-0.2,0s-0.1,0-0.2,0
					s-0.1,0-0.2,0s-0.1,0-0.2,0s-0.1,0-0.2,0s-0.1,0-0.2,0s-0.1,0-0.2,0s-0.1,0-0.2,0s-0.1,0-0.2,0v-2.2v-2.2v-2.2v-2.2v-2.2v-2.2
					v-2.2v-2.2v-2.2v-2.2v-2.2v-2.2v-2.2v-2.2v-2.2v-2.2v-2.2v-2.2v-2.2v-2.2v-2.2v-2.2v-2.2v-2.2v-2.2v-2.2v-2.2v-2.2v-2.2v-2.2
					v-2.2v-2.2c-1.3,0.8-2.6,1.7-3.9,2.7c-1.3,0.9-2.7,1.9-4,3c-1.4,1-2.7,2.1-4.1,3.2s-2.8,2.3-4.2,3.5s-2.9,2.5-4.3,3.8
					c-1.5,1.3-2.9,2.6-4.4,4c-1.5,1.4-3,2.8-4.4,4.3s-3,3-4.5,4.5s-3,3.1-4.5,4.7s-3,3.2-4.5,4.9c-1.5,1.7-3,3.4-4.5,5.1
					s-3,3.5-4.4,5.3c-1.5,1.8-2.9,3.6-4.4,5.5s-2.9,3.8-4.3,5.7c-1.4,1.9-2.8,3.9-4.2,5.9s-2.8,4-4.1,6c-1.4,2-2.7,4.1-4,6.2
					s-2.6,4.2-3.9,6.3c-1.3,2.1-2.5,4.3-3.7,6.5s-2.4,4.4-3.6,6.6s-2.3,4.5-3.4,6.7c-1.1,2.3-2.2,4.5-3.2,6.8s-2,4.6-3,6.9
					c-0.9,2.3-1.9,4.7-2.7,7c-0.9,2.4-1.7,4.7-2.5,7.1s-1.5,4.8-2.2,7.2s-1.3,4.8-1.9,7.2c-0.6,2.4-1.1,4.9-1.6,7.3
					s-0.9,4.9-1.3,7.3c-0.4,2.5-0.7,4.9-0.9,7.4s-0.4,4.9-0.6,7.4c-0.1,2.5-0.2,5-0.2,7.4c0,0.1,0,0.1,0,0.2s0,0.1,0,0.2
					s0,0.1,0,0.2s0,0.1,0,0.2s0,0.1,0,0.2s0,0.1,0,0.2s0,0.1,0,0.2s0,0.1,0,0.2s0,0.1,0,0.2s0,0.1,0,0.2s0,0.1,0,0.2s0,0.1,0,0.2
					s0,0.1,0,0.2s0,0.1,0,0.2s0,0.1,0,0.2s0,0.1,0,0.2s0,0.1,0,0.2s0,0.1,0,0.2s0,0.1,0,0.2s0,0.1,0,0.2s0,0.1,0,0.2s0,0.1,0,0.2
					s0,0.1,0,0.2s0,0.1,0,0.2s0,0.1,0,0.2s0,0.1,0,0.2s0,0.1,0,0.2s0,0.1,0,0.2s0,0.1,0,0.2s0,0.1,0,0.2s0,0.1,0,0.2
					C150.4,233.6,150.4,233.6,150.4,233.7z"/>
			</g>
			<g>
				<path class="st7" d="M1251.4,785.3L1251.4,785.3L1251.4,785.3L1251.4,785.3L1251.4,785.3L1251.4,785.3L1251.4,785.3
					L1251.4,785.3L1251.4,785.3L1251.4,785.3L1251.4,785.3L1251.4,785.3L1251.4,785.3L1251.4,785.3L1251.4,785.3L1251.4,785.3
					L1251.4,785.3L1251.4,785.3L1251.4,785.3L1251.4,785.3L1251.4,785.3L1251.4,785.3L1251.4,785.3L1251.4,785.3L1251.4,785.3
					L1251.4,785.3L1251.4,785.3L1251.4,785.3L1251.4,785.3L1251.4,785.3L1251.4,785.3L1251.4,785.3L1251.4,785.3
					c-0.2-1.9-0.4-3.8-0.6-5.6c-0.2-1.9-0.4-3.7-0.7-5.5s-0.6-3.6-1-5.4s-0.8-3.6-1.2-5.4c-0.5-1.8-0.9-3.5-1.5-5.3
					c-0.5-1.7-1.1-3.5-1.7-5.2s-1.3-3.4-2-5s-1.4-3.3-2.2-4.9s-1.6-3.2-2.4-4.8s-1.7-3.1-2.6-4.7c-0.9-1.5-1.8-3-2.8-4.5
					s-2-2.9-3-4.4c-1-1.4-2.1-2.8-3.2-4.2s-2.2-2.7-3.4-4.1s-2.4-2.6-3.6-3.9c-1.2-1.3-2.5-2.5-3.8-3.7s-2.6-2.4-3.9-3.6
					c-1.3-1.2-2.7-2.3-4.1-3.4s-2.8-2.2-4.2-3.2s-2.9-2-4.4-3s-3-1.9-4.5-2.8s-3.1-1.8-4.7-2.6s-3.2-1.6-4.8-2.4s-3.3-1.5-4.9-2.1
					c-1.7-0.7-3.3-1.3-5.1-1.9c-1.7-0.6-3.4-1.2-5.2-1.7c-1.7-0.5-3.5-1-5.3-1.4s-3.6-0.8-5.4-1.2s-3.6-0.7-5.5-0.9
					c-1.8-0.3-3.7-0.5-5.5-0.7c-1.9-0.2-3.7-0.3-5.6-0.4c-1.9-0.1-3.8-0.1-5.7-0.1c-2,0-3.9,0.1-5.9,0.1c-2,0.1-3.9,0.2-5.8,0.4
					s-3.8,0.4-5.7,0.7c-1.9,0.3-3.8,0.6-5.6,1c-1.9,0.4-3.7,0.8-5.5,1.3s-3.6,1-5.4,1.5c-1.8,0.6-3.6,1.2-5.3,1.8s-3.5,1.3-5.2,2.1
					c-1.7,0.7-3.4,1.5-5.1,2.3s-3.3,1.6-4.9,2.5s-3.2,1.8-4.8,2.8s-3.1,2-4.7,3c-1.5,1-3,2.1-4.5,3.2s-2.9,2.2-4.3,3.4
					s-2.8,2.4-4.2,3.6s-2.7,2.5-4,3.8s-2.6,2.6-3.8,4s-2.4,2.7-3.6,4.2c-1.2,1.4-2.3,2.9-3.4,4.3c-1.1,1.5-2.2,3-3.2,4.5
					s-2,3.1-3,4.7s-1.9,3.2-2.8,4.8s-1.7,3.3-2.5,4.9c-0.8,1.7-1.6,3.4-2.3,5.1s-1.4,3.5-2.1,5.2c-0.6,1.8-1.2,3.5-1.8,5.3
					s-1.1,3.6-1.5,5.4c-0.5,1.8-0.9,3.7-1.3,5.5c-0.4,1.9-0.7,3.7-1,5.6s-0.5,3.8-0.7,5.7s-0.3,3.9-0.4,5.8c-0.1,2-0.1,3.9-0.1,5.9
					s0.1,3.9,0.1,5.9c0.1,2,0.2,3.9,0.4,5.8s0.4,3.8,0.7,5.7c0.3,1.9,0.6,3.8,1,5.6c0.4,1.9,0.8,3.7,1.3,5.5s1,3.6,1.5,5.4
					c0.6,1.8,1.2,3.6,1.8,5.3c0.6,1.8,1.3,3.5,2.1,5.2c0.7,1.7,1.5,3.4,2.3,5.1s1.6,3.3,2.5,4.9s1.8,3.2,2.8,4.8s2,3.1,3,4.7
					s2.1,3,3.2,4.5s2.2,2.9,3.4,4.3s2.4,2.8,3.6,4.2s2.5,2.7,3.8,4s2.6,2.6,4,3.8s2.7,2.4,4.2,3.6c1.4,1.2,2.9,2.3,4.3,3.4
					s3,2.2,4.5,3.2s3.1,2,4.7,3s3.2,1.9,4.8,2.8s3.3,1.7,4.9,2.5c1.7,0.8,3.4,1.6,5.1,2.3s3.5,1.4,5.2,2.1s3.5,1.2,5.3,1.8
					s3.6,1.1,5.4,1.5c1.8,0.5,3.7,0.9,5.5,1.3c1.9,0.4,3.7,0.7,5.6,1s3.8,0.5,5.7,0.7s3.9,0.3,5.8,0.4c2,0.1,3.9,0.1,5.9,0.1
					c0.1,0,0.2,0,0.2,0c0.1,0,0.2,0,0.2,0h0.2h0.2c0.1,0,0.2,0,0.2,0c0.1,0,0.2,0,0.2,0c0.1,0,0.2,0,0.2,0c0.1,0,0.1,0,0.2,0
					s0.1,0,0.2,0s0.1,0,0.2,0s0.1,0,0.2,0s0.1,0,0.2,0s0.1,0,0.2,0s0.1,0,0.2,0s0.1,0,0.2,0s0.1,0,0.2,0s0.1,0,0.2,0s0.1,0,0.2,0
					s0.1,0,0.2,0s0.1,0,0.2,0s0.1,0,0.2,0s0.1,0,0.2,0s0.1,0,0.2,0s0.1,0,0.2,0s0.1,0,0.2,0s0.1,0,0.2,0s0.1,0,0.2,0s0.1,0,0.2,0
					s0.1,0,0.2,0s0.1,0,0.2,0s0.1,0,0.2,0s0.1,0,0.2,0v2.2v2.2v2.2v2.2v2.2v2.2v2.2v2.2v2.2v2.2v2.2v2.2v2.2v2.2v2.2v2.2v2.2v2.2
					v2.2v2.2v2.2v2.2v2.2v2.2v2.2v2.2v2.2v2.2v2.2v2.2v2.2v2.2c1.3-0.8,2.6-1.7,3.9-2.7c1.3-0.9,2.7-1.9,4-3s2.7-2.1,4.1-3.2
					s2.8-2.3,4.2-3.5s2.9-2.5,4.3-3.8c1.5-1.3,2.9-2.6,4.4-4s3-2.8,4.4-4.3c1.5-1.5,3-3,4.5-4.5s3-3.1,4.5-4.7s3-3.2,4.5-4.9
					s3-3.4,4.5-5.1c1.5-1.7,3-3.5,4.4-5.3c1.5-1.8,2.9-3.6,4.4-5.5s2.9-3.8,4.3-5.7s2.8-3.9,4.2-5.9s2.8-4,4.1-6
					c1.4-2,2.7-4.1,4-6.2s2.6-4.2,3.9-6.3s2.5-4.3,3.7-6.5s2.4-4.4,3.6-6.6c1.2-2.2,2.3-4.5,3.4-6.7c1.1-2.3,2.2-4.5,3.2-6.8
					s2-4.6,3-6.9c0.9-2.3,1.9-4.7,2.7-7c0.9-2.4,1.7-4.7,2.5-7.1s1.5-4.8,2.2-7.2s1.3-4.8,1.9-7.2s1.1-4.9,1.6-7.3s0.9-4.9,1.3-7.3
					c0.4-2.5,0.7-4.9,0.9-7.4s0.4-4.9,0.6-7.4c0.1-2.5,0.2-5,0.2-7.4c0-0.1,0-0.1,0-0.2s0-0.1,0-0.2s0-0.1,0-0.2s0-0.1,0-0.2
					s0-0.1,0-0.2s0-0.1,0-0.2s0-0.1,0-0.2s0-0.1,0-0.2s0-0.1,0-0.2s0-0.1,0-0.2s0-0.1,0-0.2s0-0.1,0-0.2s0-0.1,0-0.2s0-0.1,0-0.2
					s0-0.1,0-0.2s0-0.1,0-0.2s0-0.1,0-0.2s0-0.1,0-0.2s0-0.1,0-0.2s0-0.1,0-0.2s0-0.1,0-0.2s0-0.1,0-0.2s0-0.1,0-0.2s0-0.1,0-0.2
					s0-0.1,0-0.2s0-0.1,0-0.2s0-0.1,0-0.2s0-0.1,0-0.2s0-0.1,0-0.2s0-0.1,0-0.2s0-0.1,0-0.2C1251.4,785.4,1251.4,785.4,1251.4,785.3
					z"/>
			</g>
		</g>
	</g>
</g>
<g>
	<g>
		<path class="st7" d="M312,336.9v4.4l-1,11.5h-3.6v-11.2v-4.7H312z M320.7,336.9v4.4l-1,11.5h-3.6v-11.4v-4.4H320.7z"/>
		<path class="st7" d="M356.5,339.5h6.2v31.7c0,3.5-0.8,6.5-2.4,8.8c-1.6,2.3-3.6,4.1-6.2,5.3c-2.6,1.2-5.4,1.8-8.4,1.8
			c-3.2,0-6.1-0.6-8.6-1.8c-2.6-1.2-4.6-2.9-6.1-5.3c-1.5-2.3-2.2-5.3-2.2-8.8v-31.7h6.2v31.7c0,2.4,0.5,4.5,1.4,6.1
			c0.9,1.6,2.2,2.8,3.8,3.5c1.6,0.8,3.5,1.2,5.7,1.2c2.2,0,4.1-0.4,5.7-1.2c1.6-0.8,2.9-2,3.8-3.5c0.9-1.6,1.4-3.6,1.4-6.1V339.5z"
			/>
		<path class="st7" d="M377.5,359v27.4h-6v-34.9h5.6L377.5,359z M376,367.6l-2.5-0.1c0-2.4,0.4-4.6,1.1-6.6c0.7-2,1.7-3.8,2.9-5.3
			c1.2-1.5,2.7-2.7,4.5-3.5c1.7-0.8,3.6-1.2,5.8-1.2c1.7,0,3.3,0.2,4.6,0.7c1.4,0.5,2.6,1.2,3.5,2.2c1,1,1.7,2.3,2.2,3.9
			c0.5,1.6,0.8,3.6,0.8,5.8v22.8h-6v-22.9c0-1.8-0.3-3.3-0.8-4.4c-0.5-1.1-1.3-1.9-2.4-2.4c-1-0.5-2.3-0.8-3.8-0.8
			c-1.5,0-2.8,0.3-4,0.9c-1.2,0.6-2.3,1.5-3.1,2.6s-1.5,2.3-2,3.8C376.3,364.6,376,366.1,376,367.6z"/>
		<path class="st7" d="M429.5,365.3l0.1,4.2h-6c-1.7,0-3.2,0.1-4.5,0.4c-1.3,0.3-2.4,0.7-3.4,1.2c-0.9,0.5-1.6,1.2-2.1,2
			c-0.5,0.8-0.7,1.7-0.7,2.8c0,1.1,0.2,2.1,0.7,3c0.5,0.9,1.2,1.6,2.2,2.1c1,0.5,2.2,0.8,3.7,0.8c1.8,0,3.4-0.4,4.8-1.2
			c1.4-0.8,2.5-1.7,3.3-2.8c0.8-1.1,1.3-2.2,1.3-3.3l2.5,2.9c-0.2,0.9-0.6,1.9-1.2,3c-0.7,1.1-1.6,2.1-2.7,3.1
			c-1.1,1-2.4,1.8-3.9,2.5s-3.2,1-5.1,1c-2.4,0-4.4-0.5-6.2-1.4s-3.1-2.2-4.1-3.7c-1-1.6-1.5-3.3-1.5-5.2c0-1.9,0.4-3.5,1.1-4.9
			c0.7-1.4,1.8-2.6,3.2-3.6c1.4-1,3-1.7,5-2.2c1.9-0.5,4.1-0.7,6.5-0.7H429.5z M428.5,380.4v-18c0-1.4-0.3-2.6-0.8-3.6
			c-0.5-1-1.4-1.8-2.5-2.4c-1.1-0.6-2.4-0.8-4.1-0.8c-1.5,0-2.8,0.3-3.9,0.8s-2,1.2-2.6,2c-0.6,0.8-1,1.7-1,2.7h-6
			c0-1.2,0.3-2.5,1-3.7s1.6-2.3,2.8-3.3c1.2-1,2.7-1.8,4.4-2.4c1.7-0.6,3.6-0.9,5.7-0.9c2.5,0,4.8,0.4,6.7,1.3
			c1.9,0.9,3.5,2.2,4.6,3.9c1.1,1.7,1.7,3.9,1.7,6.5v16.2c0,1.2,0.1,2.4,0.3,3.7c0.2,1.3,0.5,2.4,0.9,3.4v0.5h-6.2
			c-0.3-0.7-0.5-1.6-0.7-2.8C428.6,382.5,428.5,381.4,428.5,380.4z"/>
		<path class="st7" d="M458.8,369.4v-0.7c0-2.7,0.3-5.1,1-7.3c0.6-2.2,1.5-4.1,2.7-5.6c1.2-1.6,2.6-2.8,4.3-3.6
			c1.7-0.8,3.6-1.3,5.7-1.3c2.2,0,4.1,0.4,5.8,1.1c1.6,0.8,3,1.9,4.2,3.3c1.1,1.5,2.1,3.2,2.7,5.2c0.7,2,1.1,4.4,1.4,6.9v3
			c-0.2,2.6-0.7,4.9-1.4,6.9c-0.7,2-1.6,3.8-2.7,5.2c-1.1,1.4-2.6,2.5-4.2,3.3c-1.7,0.8-3.6,1.1-5.8,1.1c-2.1,0-4-0.4-5.7-1.3
			c-1.7-0.9-3.1-2.1-4.3-3.7c-1.2-1.6-2.1-3.5-2.8-5.6C459.1,374.2,458.8,371.9,458.8,369.4z M482.8,351.5h5.4v34.1
			c0,3.1-0.6,5.7-1.9,7.9c-1.2,2.2-3,3.8-5.2,4.9s-4.8,1.7-7.7,1.7c-1.2,0-2.6-0.2-4.2-0.6c-1.6-0.4-3.2-1-4.8-1.9
			c-1.6-0.9-2.9-2.1-3.9-3.6l3.1-3.5c1.5,1.8,3,3,4.6,3.7c1.6,0.7,3.2,1,4.8,1c1.9,0,3.5-0.4,4.9-1.1c1.4-0.7,2.4-1.8,3.2-3.1
			c0.8-1.4,1.1-3.1,1.1-5.1v-26.7L482.8,351.5z M464.8,368.7v0.7c0,1.7,0.2,3.4,0.5,4.9c0.4,1.5,0.9,2.9,1.6,4s1.7,2.1,2.9,2.7
			c1.2,0.7,2.5,1,4.2,1c2,0,3.6-0.4,4.9-1.3s2.3-1.9,3.1-3.3c0.8-1.4,1.4-2.9,1.8-4.5v-7.8c-0.2-1.2-0.6-2.3-1.1-3.4
			c-0.5-1.1-1.1-2.1-1.9-3c-0.8-0.9-1.7-1.6-2.8-2.1c-1.1-0.5-2.4-0.8-3.9-0.8c-1.6,0-3,0.3-4.2,1c-1.2,0.7-2.1,1.6-2.9,2.8
			c-0.7,1.2-1.3,2.5-1.6,4.1C464.9,365.3,464.8,366.9,464.8,368.7z"/>
		<path class="st7" d="M503.2,357v29.4h-6v-34.9h5.8L503.2,357z M514.1,351.3l0,5.5c-0.5-0.1-1-0.2-1.4-0.2c-0.4,0-0.9,0-1.5,0
			c-1.4,0-2.6,0.2-3.6,0.6c-1.1,0.4-1.9,1-2.7,1.8c-0.7,0.8-1.3,1.7-1.7,2.8s-0.7,2.2-0.8,3.5l-1.7,1c0-2.1,0.2-4.1,0.6-5.9
			c0.4-1.8,1.1-3.5,1.9-4.9c0.9-1.4,2-2.5,3.4-3.4c1.4-0.8,3-1.2,4.9-1.2c0.4,0,0.9,0,1.5,0.1C513.5,351.1,513.9,351.2,514.1,351.3z
			"/>
		<path class="st7" d="M541.2,365.3l0.1,4.2h-6c-1.7,0-3.2,0.1-4.5,0.4c-1.3,0.3-2.4,0.7-3.4,1.2c-0.9,0.5-1.6,1.2-2.1,2
			c-0.5,0.8-0.7,1.7-0.7,2.8c0,1.1,0.2,2.1,0.7,3c0.5,0.9,1.2,1.6,2.2,2.1c1,0.5,2.2,0.8,3.7,0.8c1.8,0,3.4-0.4,4.8-1.2
			c1.4-0.8,2.5-1.7,3.3-2.8c0.8-1.1,1.3-2.2,1.3-3.3l2.5,2.9c-0.2,0.9-0.6,1.9-1.2,3c-0.7,1.1-1.6,2.1-2.7,3.1
			c-1.1,1-2.4,1.8-3.9,2.5s-3.2,1-5.1,1c-2.4,0-4.4-0.5-6.2-1.4s-3.1-2.2-4.1-3.7c-1-1.6-1.5-3.3-1.5-5.2c0-1.9,0.4-3.5,1.1-4.9
			c0.7-1.4,1.8-2.6,3.2-3.6c1.4-1,3-1.7,5-2.2c1.9-0.5,4.1-0.7,6.5-0.7H541.2z M540.2,380.4v-18c0-1.4-0.3-2.6-0.8-3.6
			c-0.5-1-1.4-1.8-2.5-2.4c-1.1-0.6-2.4-0.8-4.1-0.8c-1.5,0-2.8,0.3-3.9,0.8s-2,1.2-2.6,2c-0.6,0.8-1,1.7-1,2.7h-6
			c0-1.2,0.3-2.5,1-3.7s1.6-2.3,2.8-3.3c1.2-1,2.7-1.8,4.4-2.4c1.7-0.6,3.6-0.9,5.7-0.9c2.5,0,4.8,0.4,6.7,1.3
			c1.9,0.9,3.5,2.2,4.6,3.9c1.1,1.7,1.7,3.9,1.7,6.5v16.2c0,1.2,0.1,2.4,0.3,3.7c0.2,1.3,0.5,2.4,0.9,3.4v0.5h-6.2
			c-0.3-0.7-0.5-1.6-0.7-2.8C540.3,382.5,540.2,381.4,540.2,380.4z"/>
		<path class="st7" d="M561.5,359v27.4h-6v-34.9h5.6L561.5,359z M560.1,367.6l-2.5-0.1c0-2.4,0.4-4.6,1.1-6.6c0.7-2,1.7-3.8,2.9-5.3
			c1.2-1.5,2.7-2.7,4.5-3.5c1.7-0.8,3.6-1.2,5.8-1.2c1.7,0,3.3,0.2,4.6,0.7c1.4,0.5,2.6,1.2,3.5,2.2c1,1,1.7,2.3,2.2,3.9
			c0.5,1.6,0.8,3.6,0.8,5.8v22.8h-6v-22.9c0-1.8-0.3-3.3-0.8-4.4c-0.5-1.1-1.3-1.9-2.4-2.4c-1-0.5-2.3-0.8-3.8-0.8
			c-1.5,0-2.8,0.3-4,0.9c-1.2,0.6-2.3,1.5-3.1,2.6s-1.5,2.3-2,3.8C560.3,364.6,560.1,366.1,560.1,367.6z"/>
		<path class="st7" d="M628.7,377.2c0-0.9-0.2-1.7-0.6-2.4c-0.4-0.7-1.1-1.4-2.3-2s-2.9-1.1-5.2-1.6c-1.9-0.4-3.7-0.9-5.2-1.5
			c-1.6-0.6-2.9-1.2-4-2c-1.1-0.8-1.9-1.7-2.5-2.8c-0.6-1.1-0.9-2.3-0.9-3.8c0-1.4,0.3-2.7,0.9-3.9c0.6-1.2,1.5-2.3,2.6-3.3
			c1.1-0.9,2.5-1.7,4.1-2.2c1.6-0.5,3.4-0.8,5.3-0.8c2.8,0,5.2,0.5,7.2,1.5c2,1,3.5,2.3,4.5,3.9s1.6,3.5,1.6,5.5h-6
			c0-1-0.3-1.9-0.9-2.8c-0.6-0.9-1.4-1.7-2.5-2.3c-1.1-0.6-2.4-0.9-4-0.9c-1.7,0-3,0.3-4,0.8c-1,0.5-1.8,1.1-2.2,1.9
			c-0.5,0.8-0.7,1.6-0.7,2.4c0,0.6,0.1,1.2,0.3,1.7c0.2,0.5,0.6,1,1.2,1.4s1.4,0.8,2.4,1.2c1.1,0.4,2.4,0.7,4,1.1
			c2.9,0.6,5.2,1.4,7.1,2.3s3.2,2,4.1,3.3c0.9,1.3,1.4,2.9,1.4,4.8c0,1.5-0.3,2.9-1,4.2c-0.6,1.3-1.5,2.4-2.7,3.3
			c-1.2,0.9-2.6,1.6-4.3,2.1c-1.6,0.5-3.5,0.8-5.5,0.8c-3.1,0-5.7-0.5-7.8-1.6s-3.7-2.5-4.8-4.3s-1.6-3.6-1.6-5.5h6
			c0.1,1.6,0.6,2.9,1.4,3.9c0.9,1,1.9,1.6,3.2,2c1.2,0.4,2.5,0.6,3.7,0.6c1.6,0,3-0.2,4.1-0.6c1.1-0.4,1.9-1,2.5-1.8
			C628.4,379,628.7,378.1,628.7,377.2z"/>
		<path class="st7" d="M656.9,387c-2.4,0-4.6-0.4-6.6-1.2c-2-0.8-3.7-2-5.1-3.5c-1.4-1.5-2.5-3.3-3.2-5.3s-1.1-4.3-1.1-6.8v-1.4
			c0-2.8,0.4-5.4,1.3-7.6s2-4.1,3.4-5.7s3.1-2.7,4.9-3.5c1.8-0.8,3.7-1.2,5.7-1.2c2.5,0,4.6,0.4,6.5,1.3c1.8,0.9,3.3,2.1,4.5,3.6
			c1.2,1.5,2,3.3,2.6,5.4c0.6,2.1,0.8,4.3,0.8,6.8v2.7h-26v-4.9h20.1v-0.5c-0.1-1.5-0.4-3.1-1-4.5c-0.5-1.5-1.4-2.7-2.6-3.6
			c-1.2-0.9-2.8-1.4-4.8-1.4c-1.4,0-2.6,0.3-3.7,0.9c-1.1,0.6-2.1,1.4-2.9,2.5c-0.8,1.1-1.5,2.5-1.9,4.1s-0.7,3.5-0.7,5.6v1.4
			c0,1.7,0.2,3.2,0.7,4.7s1.1,2.7,2,3.8c0.9,1.1,2,2,3.3,2.6c1.3,0.6,2.7,0.9,4.4,0.9c2.1,0,3.9-0.4,5.3-1.3c1.5-0.9,2.7-2,3.8-3.4
			l3.6,2.9c-0.8,1.1-1.7,2.2-2.9,3.3s-2.6,1.9-4.3,2.5C661.2,386.7,659.2,387,656.9,387z"/>
		<path class="st7" d="M683.9,336.9v49.5h-6v-49.5H683.9z"/>
		<path class="st7" d="M707.9,387c-2.4,0-4.6-0.4-6.6-1.2c-2-0.8-3.7-2-5.1-3.5c-1.4-1.5-2.5-3.3-3.2-5.3s-1.1-4.3-1.1-6.8v-1.4
			c0-2.8,0.4-5.4,1.3-7.6s2-4.1,3.4-5.7s3.1-2.7,4.9-3.5c1.8-0.8,3.7-1.2,5.7-1.2c2.5,0,4.6,0.4,6.5,1.3c1.8,0.9,3.3,2.1,4.5,3.6
			c1.2,1.5,2,3.3,2.6,5.4c0.6,2.1,0.8,4.3,0.8,6.8v2.7h-26v-4.9h20.1v-0.5c-0.1-1.5-0.4-3.1-1-4.5c-0.5-1.5-1.4-2.7-2.6-3.6
			c-1.2-0.9-2.8-1.4-4.8-1.4c-1.4,0-2.6,0.3-3.7,0.9c-1.1,0.6-2.1,1.4-2.9,2.5c-0.8,1.1-1.5,2.5-1.9,4.1s-0.7,3.5-0.7,5.6v1.4
			c0,1.7,0.2,3.2,0.7,4.7s1.1,2.7,2,3.8c0.9,1.1,2,2,3.3,2.6c1.3,0.6,2.7,0.9,4.4,0.9c2.1,0,3.9-0.4,5.3-1.3c1.5-0.9,2.7-2,3.8-3.4
			l3.6,2.9c-0.8,1.1-1.7,2.2-2.9,3.3s-2.6,1.9-4.3,2.5C712.2,386.7,710.2,387,707.9,387z"/>
		<path class="st7" d="M742.4,382.1c1.4,0,2.7-0.3,3.9-0.9s2.2-1.4,3-2.4c0.8-1,1.2-2.2,1.3-3.5h5.7c-0.1,2.1-0.8,4-2.1,5.8
			s-2.9,3.2-5,4.3s-4.3,1.6-6.8,1.6c-2.6,0-4.9-0.5-6.8-1.4c-1.9-0.9-3.6-2.2-4.8-3.8c-1.3-1.6-2.2-3.5-2.9-5.6s-1-4.3-1-6.7v-1.4
			c0-2.3,0.3-4.6,1-6.7s1.6-3.9,2.9-5.6c1.3-1.6,2.9-2.9,4.8-3.8c1.9-0.9,4.2-1.4,6.8-1.4c2.7,0,5.1,0.6,7.2,1.7
			c2,1.1,3.6,2.6,4.8,4.5c1.2,1.9,1.8,4.1,1.9,6.5h-5.7c-0.1-1.4-0.5-2.7-1.2-3.9c-0.7-1.2-1.6-2.1-2.8-2.8c-1.2-0.7-2.6-1-4.2-1
			c-1.8,0-3.4,0.4-4.6,1.1c-1.2,0.7-2.2,1.7-2.9,2.9c-0.7,1.2-1.2,2.6-1.5,4c-0.3,1.5-0.5,3-0.5,4.5v1.4c0,1.5,0.2,3,0.5,4.5
			s0.8,2.8,1.5,4c0.7,1.2,1.7,2.2,2.9,2.9C739,381.8,740.6,382.1,742.4,382.1z"/>
		<path class="st7" d="M777,382.1c1.4,0,2.7-0.3,3.9-0.9s2.2-1.4,3-2.4c0.8-1,1.2-2.2,1.3-3.5h5.7c-0.1,2.1-0.8,4-2.1,5.8
			s-2.9,3.2-5,4.3s-4.3,1.6-6.8,1.6c-2.6,0-4.9-0.5-6.8-1.4c-1.9-0.9-3.6-2.2-4.8-3.8c-1.3-1.6-2.2-3.5-2.9-5.6s-1-4.3-1-6.7v-1.4
			c0-2.3,0.3-4.6,1-6.7s1.6-3.9,2.9-5.6c1.3-1.6,2.9-2.9,4.8-3.8c1.9-0.9,4.2-1.4,6.8-1.4c2.7,0,5.1,0.6,7.2,1.7
			c2,1.1,3.6,2.6,4.8,4.5c1.2,1.9,1.8,4.1,1.9,6.5h-5.7c-0.1-1.4-0.5-2.7-1.2-3.9c-0.7-1.2-1.6-2.1-2.8-2.8c-1.2-0.7-2.6-1-4.2-1
			c-1.8,0-3.4,0.4-4.6,1.1c-1.2,0.7-2.2,1.7-2.9,2.9c-0.7,1.2-1.2,2.6-1.5,4c-0.3,1.5-0.5,3-0.5,4.5v1.4c0,1.5,0.2,3,0.5,4.5
			s0.8,2.8,1.5,4c0.7,1.2,1.7,2.2,2.9,2.9C773.6,381.8,775.1,382.1,777,382.1z"/>
		<path class="st7" d="M797.6,342.3c0-1,0.3-1.8,0.9-2.4c0.6-0.7,1.5-1,2.6-1c1.1,0,2,0.3,2.6,1c0.6,0.7,0.9,1.5,0.9,2.4
			c0,0.9-0.3,1.7-0.9,2.4c-0.6,0.7-1.5,1-2.6,1c-1.2,0-2-0.3-2.6-1C797.9,344,797.6,343.2,797.6,342.3z M804,351.5v34.9h-6v-34.9
			H804z"/>
		<path class="st7" d="M812,369.4v-0.7c0-2.5,0.4-4.9,1.1-7s1.8-4,3.2-5.6c1.4-1.6,3-2.8,5-3.7c2-0.9,4.1-1.3,6.6-1.3
			c2.4,0,4.7,0.4,6.6,1.3c2,0.9,3.6,2.1,5,3.7c1.4,1.6,2.4,3.5,3.2,5.6s1.1,4.5,1.1,7v0.7c0,2.5-0.4,4.8-1.1,7
			c-0.7,2.1-1.8,4-3.2,5.6c-1.4,1.6-3.1,2.8-5,3.7c-1.9,0.9-4.1,1.3-6.6,1.3s-4.7-0.4-6.6-1.3s-3.6-2.1-5-3.7
			c-1.4-1.6-2.4-3.5-3.2-5.6C812.4,374.2,812,371.9,812,369.4z M818,368.6v0.7c0,1.7,0.2,3.4,0.6,4.9c0.4,1.5,1,2.9,1.9,4.1
			c0.8,1.2,1.9,2.1,3.1,2.8s2.7,1,4.4,1c1.6,0,3.1-0.3,4.3-1s2.3-1.6,3.1-2.8c0.8-1.2,1.4-2.5,1.9-4.1c0.4-1.5,0.6-3.2,0.6-4.9v-0.7
			c0-1.7-0.2-3.3-0.6-4.9c-0.4-1.5-1-2.9-1.9-4.1c-0.8-1.2-1.9-2.1-3.1-2.8c-1.2-0.7-2.7-1-4.3-1c-1.6,0-3.1,0.3-4.3,1
			c-1.2,0.7-2.3,1.6-3.1,2.8c-0.8,1.2-1.4,2.6-1.9,4.1C818.2,365.3,818,366.9,818,368.6z M824.3,346.4l6.3-9.5h7.2l-8.6,9.5H824.3z"
			/>
		<path class="st7" d="M857.2,359v27.4h-6v-34.9h5.6L857.2,359z M855.8,367.6l-2.5-0.1c0-2.4,0.4-4.6,1.1-6.6s1.7-3.8,2.9-5.3
			c1.2-1.5,2.7-2.7,4.5-3.5c1.7-0.8,3.6-1.2,5.8-1.2c1.7,0,3.3,0.2,4.6,0.7c1.4,0.5,2.6,1.2,3.5,2.2c1,1,1.7,2.3,2.2,3.9
			c0.5,1.6,0.8,3.6,0.8,5.8v22.8h-6v-22.9c0-1.8-0.3-3.3-0.8-4.4c-0.5-1.1-1.3-1.9-2.4-2.4c-1-0.5-2.3-0.8-3.8-0.8
			c-1.5,0-2.8,0.3-4,0.9c-1.2,0.6-2.3,1.5-3.1,2.6c-0.9,1.1-1.5,2.3-2,3.8C856,364.6,855.8,366.1,855.8,367.6z"/>
		<path class="st7" d="M902.6,369.4v-0.7c0-2.7,0.3-5.1,1-7.3c0.7-2.2,1.6-4.1,2.8-5.6c1.2-1.6,2.7-2.8,4.4-3.6
			c1.7-0.8,3.6-1.3,5.7-1.3c2.2,0,4.1,0.4,5.8,1.1c1.6,0.8,3,1.9,4.2,3.3c1.1,1.5,2.1,3.2,2.7,5.2c0.7,2,1.1,4.4,1.4,6.9v3
			c-0.2,2.6-0.7,4.9-1.4,6.9c-0.7,2-1.6,3.8-2.7,5.2c-1.2,1.4-2.6,2.5-4.2,3.3s-3.6,1.1-5.8,1.1c-2,0-3.9-0.4-5.6-1.3
			c-1.7-0.9-3.1-2.1-4.4-3.7c-1.2-1.6-2.1-3.5-2.8-5.6C902.9,374.2,902.6,371.9,902.6,369.4z M908.6,368.7v0.7
			c0,1.7,0.2,3.4,0.5,4.9c0.4,1.5,0.9,2.9,1.7,4s1.7,2.1,2.9,2.7c1.2,0.7,2.5,1,4.2,1c2,0,3.6-0.4,4.9-1.3s2.3-1.9,3.1-3.3
			c0.8-1.4,1.4-2.9,1.8-4.5v-7.8c-0.3-1.2-0.6-2.3-1.1-3.4c-0.5-1.1-1.1-2.1-1.9-3c-0.8-0.9-1.7-1.6-2.8-2.1s-2.4-0.8-3.9-0.8
			c-1.6,0-3,0.3-4.2,1s-2.1,1.6-2.9,2.8c-0.8,1.2-1.3,2.5-1.7,4.1C908.8,365.3,908.6,366.9,908.6,368.7z M926.1,379.6v-42.7h6v49.5
			h-5.5L926.1,379.6z"/>
		<path class="st7" d="M955.8,387c-2.4,0-4.6-0.4-6.6-1.2c-2-0.8-3.7-2-5.1-3.5c-1.4-1.5-2.5-3.3-3.2-5.3s-1.1-4.3-1.1-6.8v-1.4
			c0-2.8,0.4-5.4,1.3-7.6s2-4.1,3.4-5.7s3.1-2.7,4.9-3.5c1.8-0.8,3.7-1.2,5.7-1.2c2.5,0,4.6,0.4,6.5,1.3c1.8,0.9,3.3,2.1,4.5,3.6
			c1.2,1.5,2,3.3,2.6,5.4c0.6,2.1,0.8,4.3,0.8,6.8v2.7h-26v-4.9h20.1v-0.5c-0.1-1.5-0.4-3.1-1-4.5c-0.5-1.5-1.4-2.7-2.6-3.6
			c-1.2-0.9-2.8-1.4-4.8-1.4c-1.4,0-2.6,0.3-3.7,0.9c-1.1,0.6-2.1,1.4-2.9,2.5c-0.8,1.1-1.5,2.5-1.9,4.1s-0.7,3.5-0.7,5.6v1.4
			c0,1.7,0.2,3.2,0.7,4.7s1.1,2.7,2,3.8c0.9,1.1,2,2,3.3,2.6c1.3,0.6,2.7,0.9,4.4,0.9c2.1,0,3.9-0.4,5.3-1.3c1.5-0.9,2.7-2,3.8-3.4
			l3.6,2.9c-0.8,1.1-1.7,2.2-2.9,3.3s-2.6,1.9-4.3,2.5C960.1,386.7,958.1,387,955.8,387z"/>
		<path class="st7" d="M313.5,437.4V479h-6v-48.3h5.5L313.5,437.4z M337,447.9v0.7c0,2.5-0.3,4.9-0.9,7c-0.6,2.2-1.5,4-2.6,5.6
			c-1.1,1.6-2.6,2.8-4.2,3.7s-3.6,1.3-5.8,1.3c-2.2,0-4.2-0.4-5.9-1.1c-1.7-0.7-3.1-1.8-4.3-3.2c-1.2-1.4-2.1-3.1-2.8-5
			c-0.7-2-1.2-4.2-1.4-6.6v-3.6c0.3-2.6,0.7-4.9,1.5-6.9c0.7-2,1.6-3.8,2.8-5.2c1.2-1.5,2.6-2.6,4.3-3.3c1.7-0.8,3.6-1.1,5.8-1.1
			s4.1,0.4,5.8,1.3c1.7,0.8,3.1,2.1,4.3,3.6c1.2,1.6,2,3.4,2.6,5.6C336.7,442.8,337,445.2,337,447.9z M331,448.6v-0.7
			c0-1.7-0.2-3.4-0.5-4.9c-0.4-1.5-0.9-2.9-1.7-4.1c-0.8-1.2-1.7-2.1-2.9-2.8c-1.2-0.7-2.6-1-4.2-1c-1.5,0-2.8,0.3-3.9,0.8
			c-1.1,0.5-2,1.2-2.8,2.1s-1.4,1.9-1.9,3c-0.5,1.1-0.8,2.3-1.1,3.4v8.3c0.4,1.5,1,2.9,1.8,4.2s1.8,2.4,3.1,3.2s2.9,1.2,4.9,1.2
			c1.6,0,3-0.3,4.2-1c1.2-0.7,2.1-1.6,2.9-2.8c0.8-1.2,1.3-2.5,1.7-4.1C330.8,451.9,331,450.3,331,448.6z"/>
		<path class="st7" d="M351.1,416.1v49.5h-6v-49.5H351.1z"/>
		<path class="st7" d="M382.3,444.5l0.1,4.2h-6c-1.7,0-3.2,0.1-4.5,0.4c-1.3,0.3-2.4,0.7-3.4,1.2c-0.9,0.5-1.6,1.2-2.1,2
			c-0.5,0.8-0.7,1.7-0.7,2.8c0,1.1,0.2,2.1,0.7,3c0.5,0.9,1.2,1.6,2.2,2.1c1,0.5,2.2,0.8,3.7,0.8c1.8,0,3.4-0.4,4.8-1.2
			c1.4-0.8,2.5-1.7,3.3-2.8c0.8-1.1,1.3-2.2,1.3-3.3l2.5,2.9c-0.2,0.9-0.6,1.9-1.2,3c-0.7,1.1-1.6,2.1-2.7,3.1
			c-1.1,1-2.4,1.8-3.9,2.5s-3.2,1-5.1,1c-2.4,0-4.4-0.5-6.2-1.4s-3.1-2.2-4.1-3.7c-1-1.6-1.5-3.3-1.5-5.2c0-1.9,0.4-3.5,1.1-4.9
			c0.7-1.4,1.8-2.6,3.2-3.6c1.4-1,3-1.7,5-2.2c1.9-0.5,4.1-0.7,6.5-0.7H382.3z M381.2,459.6v-18c0-1.4-0.3-2.6-0.8-3.6
			c-0.5-1-1.4-1.8-2.5-2.4c-1.1-0.6-2.4-0.8-4.1-0.8c-1.5,0-2.8,0.3-3.9,0.8s-2,1.2-2.6,2c-0.6,0.8-1,1.7-1,2.7h-6
			c0-1.2,0.3-2.5,1-3.7s1.6-2.3,2.8-3.3c1.2-1,2.7-1.8,4.4-2.4c1.7-0.6,3.6-0.9,5.7-0.9c2.5,0,4.8,0.4,6.7,1.3
			c1.9,0.9,3.5,2.2,4.6,3.9c1.1,1.7,1.7,3.9,1.7,6.5V458c0,1.2,0.1,2.4,0.3,3.7c0.2,1.3,0.5,2.4,0.9,3.4v0.5h-6.2
			c-0.3-0.7-0.5-1.6-0.7-2.8C381.3,461.7,381.2,460.6,381.2,459.6z"/>
		<path class="st7" d="M411.2,430.7v4.6h-18.9v-4.6H411.2z M398.7,422.3h6V457c0,1.2,0.2,2.1,0.5,2.7c0.4,0.6,0.8,1,1.4,1.2
			s1.2,0.3,1.9,0.3c0.5,0,1,0,1.6-0.1s1-0.2,1.2-0.2l0,4.9c-0.5,0.1-1.1,0.3-1.9,0.4c-0.8,0.1-1.7,0.2-2.8,0.2c-1.5,0-2.8-0.3-4-0.9
			s-2.2-1.6-2.9-2.9c-0.7-1.4-1.1-3.2-1.1-5.5V422.3z"/>
		<path class="st7" d="M416.6,448.6v-0.7c0-2.5,0.4-4.9,1.1-7c0.7-2.2,1.8-4,3.2-5.6c1.4-1.6,3-2.8,5-3.7c2-0.9,4.1-1.3,6.6-1.3
			c2.4,0,4.7,0.4,6.6,1.3c2,0.9,3.6,2.1,5,3.7c1.4,1.6,2.4,3.5,3.2,5.6c0.7,2.2,1.1,4.5,1.1,7v0.7c0,2.5-0.4,4.8-1.1,7
			c-0.7,2.1-1.8,4-3.2,5.6c-1.4,1.6-3.1,2.8-5,3.7c-1.9,0.9-4.1,1.3-6.6,1.3s-4.7-0.4-6.6-1.3c-2-0.9-3.6-2.1-5-3.7
			c-1.4-1.6-2.4-3.5-3.2-5.6C417,453.4,416.6,451.1,416.6,448.6z M422.5,447.8v0.7c0,1.7,0.2,3.4,0.6,4.9c0.4,1.5,1,2.9,1.9,4.1
			c0.8,1.2,1.9,2.1,3.1,2.8c1.2,0.7,2.7,1,4.4,1c1.6,0,3.1-0.3,4.3-1c1.2-0.7,2.3-1.6,3.1-2.8c0.8-1.2,1.4-2.5,1.9-4.1
			c0.4-1.5,0.6-3.2,0.6-4.9v-0.7c0-1.7-0.2-3.3-0.6-4.9c-0.4-1.5-1-2.9-1.9-4.1c-0.8-1.2-1.9-2.1-3.1-2.8c-1.2-0.7-2.7-1-4.3-1
			c-1.6,0-3.1,0.3-4.3,1c-1.2,0.7-2.3,1.6-3.1,2.8c-0.8,1.2-1.4,2.6-1.9,4.1C422.8,444.5,422.5,446.1,422.5,447.8z"/>
		<path class="st7" d="M476.1,456.4c0-0.9-0.2-1.7-0.6-2.4c-0.4-0.7-1.1-1.4-2.3-2c-1.1-0.6-2.9-1.1-5.2-1.6
			c-1.9-0.4-3.7-0.9-5.2-1.5c-1.6-0.6-2.9-1.2-4-2c-1.1-0.8-1.9-1.7-2.5-2.8c-0.6-1.1-0.9-2.3-0.9-3.8c0-1.4,0.3-2.7,0.9-3.9
			s1.5-2.3,2.6-3.3c1.1-0.9,2.5-1.7,4.1-2.2c1.6-0.5,3.4-0.8,5.3-0.8c2.8,0,5.2,0.5,7.2,1.5c2,1,3.5,2.3,4.5,3.9
			c1.1,1.6,1.6,3.5,1.6,5.5h-6c0-1-0.3-1.9-0.9-2.8c-0.6-0.9-1.4-1.7-2.5-2.3c-1.1-0.6-2.4-0.9-4-0.9c-1.7,0-3,0.3-4,0.8
			c-1,0.5-1.8,1.1-2.2,1.9c-0.5,0.8-0.7,1.6-0.7,2.4c0,0.6,0.1,1.2,0.3,1.7c0.2,0.5,0.6,1,1.2,1.4s1.4,0.8,2.4,1.2
			c1.1,0.4,2.4,0.7,4,1.1c2.9,0.6,5.2,1.4,7.1,2.3c1.8,0.9,3.2,2,4.1,3.3c0.9,1.3,1.4,2.9,1.4,4.8c0,1.5-0.3,2.9-1,4.2
			c-0.6,1.3-1.5,2.4-2.7,3.3c-1.2,0.9-2.6,1.6-4.3,2.1s-3.5,0.8-5.5,0.8c-3.1,0-5.7-0.5-7.8-1.6s-3.7-2.5-4.8-4.3s-1.6-3.6-1.6-5.5
			h6c0.1,1.6,0.6,2.9,1.4,3.9c0.9,1,1.9,1.6,3.2,2c1.2,0.4,2.5,0.6,3.7,0.6c1.6,0,3-0.2,4.1-0.6c1.1-0.4,1.9-1,2.5-1.8
			C475.8,458.2,476.1,457.3,476.1,456.4z"/>
		<path class="st7" d="M526.5,456.4c0-0.9-0.2-1.7-0.6-2.4c-0.4-0.7-1.1-1.4-2.3-2c-1.1-0.6-2.9-1.1-5.2-1.6
			c-1.9-0.4-3.7-0.9-5.2-1.5c-1.6-0.6-2.9-1.2-4-2c-1.1-0.8-1.9-1.7-2.5-2.8c-0.6-1.1-0.9-2.3-0.9-3.8c0-1.4,0.3-2.7,0.9-3.9
			s1.5-2.3,2.6-3.3c1.1-0.9,2.5-1.7,4.1-2.2c1.6-0.5,3.4-0.8,5.3-0.8c2.8,0,5.2,0.5,7.2,1.5c2,1,3.5,2.3,4.5,3.9
			c1.1,1.6,1.6,3.5,1.6,5.5h-6c0-1-0.3-1.9-0.9-2.8c-0.6-0.9-1.4-1.7-2.5-2.3c-1.1-0.6-2.4-0.9-4-0.9c-1.7,0-3,0.3-4,0.8
			c-1,0.5-1.8,1.1-2.2,1.9c-0.5,0.8-0.7,1.6-0.7,2.4c0,0.6,0.1,1.2,0.3,1.7c0.2,0.5,0.6,1,1.2,1.4s1.4,0.8,2.4,1.2
			c1.1,0.4,2.4,0.7,4,1.1c2.9,0.6,5.2,1.4,7.1,2.3c1.8,0.9,3.2,2,4.1,3.3c0.9,1.3,1.4,2.9,1.4,4.8c0,1.5-0.3,2.9-1,4.2
			c-0.6,1.3-1.5,2.4-2.7,3.3c-1.2,0.9-2.6,1.6-4.3,2.1s-3.5,0.8-5.5,0.8c-3.1,0-5.7-0.5-7.8-1.6s-3.7-2.5-4.8-4.3s-1.6-3.6-1.6-5.5
			h6c0.1,1.6,0.6,2.9,1.4,3.9c0.9,1,1.9,1.6,3.2,2c1.2,0.4,2.5,0.6,3.7,0.6c1.6,0,3-0.2,4.1-0.6c1.1-0.4,1.9-1,2.5-1.8
			C526.3,458.2,526.5,457.3,526.5,456.4z"/>
		<path class="st7" d="M561.9,444.5l0.1,4.2h-6c-1.7,0-3.2,0.1-4.5,0.4c-1.3,0.3-2.4,0.7-3.4,1.2c-0.9,0.5-1.6,1.2-2.1,2
			c-0.5,0.8-0.7,1.7-0.7,2.8c0,1.1,0.2,2.1,0.7,3c0.5,0.9,1.2,1.6,2.2,2.1c1,0.5,2.2,0.8,3.7,0.8c1.8,0,3.4-0.4,4.8-1.2
			c1.4-0.8,2.5-1.7,3.3-2.8c0.8-1.1,1.3-2.2,1.3-3.3l2.5,2.9c-0.2,0.9-0.6,1.9-1.2,3c-0.7,1.1-1.6,2.1-2.7,3.1
			c-1.1,1-2.4,1.8-3.9,2.5s-3.2,1-5.1,1c-2.4,0-4.4-0.5-6.2-1.4s-3.1-2.2-4.1-3.7c-1-1.6-1.5-3.3-1.5-5.2c0-1.9,0.4-3.5,1.1-4.9
			c0.7-1.4,1.8-2.6,3.2-3.6c1.4-1,3-1.7,5-2.2c1.9-0.5,4.1-0.7,6.5-0.7H561.9z M560.9,459.6v-18c0-1.4-0.3-2.6-0.8-3.6
			c-0.5-1-1.4-1.8-2.5-2.4c-1.1-0.6-2.4-0.8-4.1-0.8c-1.5,0-2.8,0.3-3.9,0.8s-2,1.2-2.6,2c-0.6,0.8-1,1.7-1,2.7h-6
			c0-1.2,0.3-2.5,1-3.7s1.6-2.3,2.8-3.3c1.2-1,2.7-1.8,4.4-2.4c1.7-0.6,3.6-0.9,5.7-0.9c2.5,0,4.8,0.4,6.7,1.3
			c1.9,0.9,3.5,2.2,4.6,3.9c1.1,1.7,1.7,3.9,1.7,6.5V458c0,1.2,0.1,2.4,0.3,3.7c0.2,1.3,0.5,2.4,0.9,3.4v0.5h-6.2
			c-0.3-0.7-0.5-1.6-0.7-2.8C560.9,461.7,560.9,460.6,560.9,459.6z"/>
		<path class="st7" d="M582.7,416.1v49.5h-6v-49.5H582.7z"/>
		<path class="st7" d="M614.7,450.2l2.5-0.1c0,2.3-0.2,4.5-0.7,6.4c-0.5,2-1.3,3.7-2.3,5.1c-1.1,1.4-2.5,2.6-4.2,3.4
			s-3.9,1.2-6.3,1.2c-1.7,0-3.2-0.2-4.7-0.7c-1.4-0.5-2.6-1.3-3.6-2.3s-1.8-2.4-2.3-4c-0.5-1.7-0.8-3.6-0.8-6v-22.5h6v22.6
			c0,1.6,0.2,2.9,0.5,3.9c0.4,1,0.8,1.8,1.5,2.4c0.6,0.6,1.3,1,2.1,1.2c0.8,0.2,1.6,0.4,2.4,0.4c2.5,0,4.5-0.5,6-1.5
			c1.5-1,2.6-2.3,3.2-4C614.4,454.1,614.7,452.2,614.7,450.2z M613.6,457.5v-26.8h6v34.9h-5.7L613.6,457.5z"/>
		<path class="st7" d="M627.2,448.6v-0.7c0-2.7,0.3-5.1,1-7.3c0.7-2.2,1.6-4.1,2.8-5.6c1.2-1.6,2.7-2.8,4.4-3.6
			c1.7-0.8,3.6-1.3,5.7-1.3c2.2,0,4.1,0.4,5.8,1.1c1.6,0.8,3,1.9,4.2,3.3c1.1,1.5,2.1,3.2,2.7,5.2c0.7,2,1.1,4.4,1.4,6.9v3
			c-0.2,2.6-0.7,4.9-1.4,6.9c-0.7,2-1.6,3.8-2.7,5.2c-1.2,1.4-2.6,2.5-4.2,3.3s-3.6,1.1-5.8,1.1c-2,0-3.9-0.4-5.6-1.3
			c-1.7-0.9-3.1-2.1-4.4-3.7c-1.2-1.6-2.1-3.5-2.8-5.6C627.5,453.4,627.2,451.1,627.2,448.6z M633.1,447.9v0.7
			c0,1.7,0.2,3.4,0.5,4.9c0.4,1.5,0.9,2.9,1.7,4s1.7,2.1,2.9,2.7c1.2,0.7,2.5,1,4.2,1c2,0,3.6-0.4,4.9-1.3s2.3-1.9,3.1-3.3
			c0.8-1.4,1.4-2.9,1.8-4.5v-7.8c-0.3-1.2-0.6-2.3-1.1-3.4c-0.5-1.1-1.1-2.1-1.9-3c-0.8-0.9-1.7-1.6-2.8-2.1s-2.4-0.8-3.9-0.8
			c-1.6,0-3,0.3-4.2,1s-2.1,1.6-2.9,2.8c-0.8,1.2-1.3,2.5-1.7,4.1C633.3,444.5,633.1,446.1,633.1,447.9z M650.6,458.8v-42.7h6v49.5
			h-5.5L650.6,458.8z"/>
		<path class="st7" d="M687.4,444.5l0.1,4.2h-6c-1.7,0-3.2,0.1-4.5,0.4c-1.3,0.3-2.4,0.7-3.4,1.2c-0.9,0.5-1.6,1.2-2.1,2
			s-0.7,1.7-0.7,2.8c0,1.1,0.2,2.1,0.7,3s1.2,1.6,2.2,2.1c1,0.5,2.2,0.8,3.7,0.8c1.8,0,3.4-0.4,4.8-1.2s2.5-1.7,3.3-2.8
			c0.8-1.1,1.3-2.2,1.3-3.3l2.5,2.9c-0.2,0.9-0.6,1.9-1.2,3s-1.6,2.1-2.7,3.1c-1.1,1-2.4,1.8-3.9,2.5c-1.5,0.7-3.2,1-5.1,1
			c-2.4,0-4.4-0.5-6.2-1.4c-1.8-0.9-3.1-2.2-4.1-3.7c-1-1.6-1.5-3.3-1.5-5.2c0-1.9,0.4-3.5,1.1-4.9c0.7-1.4,1.8-2.6,3.2-3.6
			c1.4-1,3-1.7,5-2.2c1.9-0.5,4.1-0.7,6.5-0.7H687.4z M686.4,459.6v-18c0-1.4-0.3-2.6-0.8-3.6c-0.5-1-1.4-1.8-2.5-2.4
			c-1.1-0.6-2.4-0.8-4.1-0.8c-1.5,0-2.8,0.3-3.9,0.8c-1.1,0.5-2,1.2-2.6,2s-1,1.7-1,2.7h-6c0-1.2,0.3-2.5,1-3.7s1.6-2.3,2.8-3.3
			s2.7-1.8,4.4-2.4c1.7-0.6,3.6-0.9,5.7-0.9c2.5,0,4.8,0.4,6.7,1.3c1.9,0.9,3.5,2.2,4.6,3.9c1.1,1.7,1.7,3.9,1.7,6.5V458
			c0,1.2,0.1,2.4,0.3,3.7c0.2,1.3,0.5,2.4,0.9,3.4v0.5h-6.2c-0.3-0.7-0.5-1.6-0.7-2.8C686.5,461.7,686.4,460.6,686.4,459.6z"/>
		<path class="st7" d="M701.7,416.1h6v42.7l-0.5,6.8h-5.5V416.1z M731.3,447.9v0.7c0,2.5-0.3,4.9-0.9,7s-1.5,4-2.6,5.6
			c-1.2,1.6-2.6,2.8-4.3,3.7s-3.6,1.3-5.8,1.3c-2.2,0-4.2-0.4-5.8-1.1c-1.7-0.8-3.1-1.9-4.2-3.3c-1.1-1.4-2-3.2-2.7-5.2
			c-0.7-2-1.1-4.3-1.4-6.9v-3c0.3-2.6,0.7-4.9,1.4-6.9c0.7-2,1.6-3.8,2.7-5.2s2.5-2.6,4.2-3.3c1.7-0.8,3.6-1.1,5.8-1.1
			s4.1,0.4,5.8,1.3c1.7,0.8,3.1,2.1,4.3,3.6c1.1,1.6,2,3.4,2.6,5.6C731,442.8,731.3,445.2,731.3,447.9z M725.3,448.6v-0.7
			c0-1.7-0.2-3.4-0.5-4.9c-0.3-1.5-0.8-2.9-1.5-4.1c-0.7-1.2-1.6-2.1-2.8-2.8s-2.6-1-4.3-1c-1.5,0-2.8,0.3-3.9,0.8s-2,1.2-2.8,2.1
			s-1.4,1.9-1.9,3c-0.5,1.1-0.8,2.3-1.1,3.4v7.8c0.3,1.5,0.9,2.9,1.7,4.3c0.8,1.4,1.8,2.5,3.2,3.4c1.3,0.9,3,1.3,4.9,1.3
			c1.6,0,3-0.3,4.1-1c1.1-0.7,2.1-1.6,2.8-2.7c0.7-1.2,1.3-2.5,1.6-4C725.1,451.9,725.3,450.3,725.3,448.6z"/>
		<path class="st7" d="M745.3,416.1v49.5h-6v-49.5H745.3z"/>
		<path class="st7" d="M769.3,466.2c-2.4,0-4.6-0.4-6.6-1.2c-2-0.8-3.7-2-5.1-3.5c-1.4-1.5-2.5-3.3-3.2-5.3s-1.1-4.3-1.1-6.8V448
			c0-2.8,0.4-5.4,1.3-7.6s2-4.1,3.4-5.7s3.1-2.7,4.9-3.5c1.8-0.8,3.7-1.2,5.7-1.2c2.5,0,4.6,0.4,6.5,1.3c1.8,0.9,3.3,2.1,4.5,3.6
			c1.2,1.5,2,3.3,2.6,5.4c0.6,2.1,0.8,4.3,0.8,6.8v2.7h-26V445h20.1v-0.5c-0.1-1.5-0.4-3.1-1-4.5c-0.5-1.5-1.4-2.7-2.6-3.6
			c-1.2-0.9-2.8-1.4-4.8-1.4c-1.4,0-2.6,0.3-3.7,0.9c-1.1,0.6-2.1,1.4-2.9,2.5c-0.8,1.1-1.5,2.5-1.9,4.1s-0.7,3.5-0.7,5.6v1.4
			c0,1.7,0.2,3.2,0.7,4.7s1.1,2.7,2,3.8c0.9,1.1,2,2,3.3,2.6c1.3,0.6,2.7,0.9,4.4,0.9c2.1,0,3.9-0.4,5.3-1.3c1.5-0.9,2.7-2,3.8-3.4
			l3.6,2.9c-0.8,1.1-1.7,2.2-2.9,3.3s-2.6,1.9-4.3,2.5C773.6,465.9,771.6,466.2,769.3,466.2z"/>
		<path class="st7" d="M810.2,456.4c0-0.9-0.2-1.7-0.6-2.4c-0.4-0.7-1.1-1.4-2.3-2s-2.9-1.1-5.2-1.6c-1.9-0.4-3.7-0.9-5.2-1.5
			c-1.6-0.6-2.9-1.2-4-2c-1.1-0.8-1.9-1.7-2.5-2.8c-0.6-1.1-0.9-2.3-0.9-3.8c0-1.4,0.3-2.7,0.9-3.9c0.6-1.2,1.5-2.3,2.6-3.3
			c1.1-0.9,2.5-1.7,4.1-2.2c1.6-0.5,3.4-0.8,5.3-0.8c2.8,0,5.2,0.5,7.2,1.5c2,1,3.5,2.3,4.5,3.9s1.6,3.5,1.6,5.5h-6
			c0-1-0.3-1.9-0.9-2.8c-0.6-0.9-1.4-1.7-2.5-2.3c-1.1-0.6-2.4-0.9-4-0.9c-1.7,0-3,0.3-4,0.8c-1,0.5-1.8,1.1-2.2,1.9
			c-0.5,0.8-0.7,1.6-0.7,2.4c0,0.6,0.1,1.2,0.3,1.7c0.2,0.5,0.6,1,1.2,1.4s1.4,0.8,2.4,1.2c1.1,0.4,2.4,0.7,4,1.1
			c2.9,0.6,5.2,1.4,7.1,2.3s3.2,2,4.1,3.3c0.9,1.3,1.4,2.9,1.4,4.8c0,1.5-0.3,2.9-1,4.2c-0.6,1.3-1.5,2.4-2.7,3.3
			c-1.2,0.9-2.6,1.6-4.3,2.1c-1.6,0.5-3.5,0.8-5.5,0.8c-3.1,0-5.7-0.5-7.8-1.6s-3.7-2.5-4.8-4.3s-1.6-3.6-1.6-5.5h6
			c0.1,1.6,0.6,2.9,1.4,3.9c0.9,1,1.9,1.6,3.2,2c1.2,0.4,2.5,0.6,3.7,0.6c1.6,0,3-0.2,4.1-0.6c1.1-0.4,1.9-1,2.5-1.8
			C809.9,458.2,810.2,457.3,810.2,456.4z"/>
		<path class="st7" d="M824,462.4c0-1,0.3-1.9,1-2.6c0.6-0.7,1.6-1,2.8-1s2.1,0.3,2.8,1c0.6,0.7,1,1.6,1,2.6c0,1-0.3,1.8-1,2.5
			s-1.6,1-2.8,1s-2.1-0.3-2.8-1C824.3,464.3,824,463.4,824,462.4z"/>
		<path class="st7" d="M858.6,418.7h5.3l0.9,28.6v18.3h-6.2V418.7z M860.6,418.7h6l15.4,38.3l15.3-38.3h6.1l-19.1,46.9h-4.7
			L860.6,418.7z M900,418.7h5.3v46.9h-6.2v-18.3L900,418.7z"/>
		<path class="st7" d="M929.8,466.2c-2.4,0-4.6-0.4-6.6-1.2c-2-0.8-3.7-2-5.1-3.5c-1.4-1.5-2.5-3.3-3.2-5.3s-1.1-4.3-1.1-6.8V448
			c0-2.8,0.4-5.4,1.3-7.6s2-4.1,3.4-5.7s3.1-2.7,4.9-3.5c1.8-0.8,3.7-1.2,5.7-1.2c2.5,0,4.6,0.4,6.5,1.3c1.8,0.9,3.3,2.1,4.5,3.6
			c1.2,1.5,2,3.3,2.6,5.4c0.6,2.1,0.8,4.3,0.8,6.8v2.7h-26V445h20.1v-0.5c-0.1-1.5-0.4-3.1-1-4.5c-0.5-1.5-1.4-2.7-2.6-3.6
			c-1.2-0.9-2.8-1.4-4.8-1.4c-1.4,0-2.6,0.3-3.7,0.9c-1.1,0.6-2.1,1.4-2.9,2.5c-0.8,1.1-1.5,2.5-1.9,4.1s-0.7,3.5-0.7,5.6v1.4
			c0,1.7,0.2,3.2,0.7,4.7s1.1,2.7,2,3.8c0.9,1.1,2,2,3.3,2.6c1.3,0.6,2.7,0.9,4.4,0.9c2.1,0,3.9-0.4,5.3-1.3c1.5-0.9,2.7-2,3.8-3.4
			l3.6,2.9c-0.8,1.1-1.7,2.2-2.9,3.3s-2.6,1.9-4.3,2.5C934.1,465.9,932.1,466.2,929.8,466.2z"/>
		<path class="st7" d="M981.2,466.2c-2.4,0-4.6-0.4-6.6-1.2c-2-0.8-3.7-2-5.1-3.5c-1.4-1.5-2.5-3.3-3.2-5.3s-1.1-4.3-1.1-6.8V448
			c0-2.8,0.4-5.4,1.3-7.6s2-4.1,3.4-5.7s3.1-2.7,4.9-3.5c1.8-0.8,3.7-1.2,5.7-1.2c2.5,0,4.6,0.4,6.5,1.3c1.8,0.9,3.3,2.1,4.5,3.6
			c1.2,1.5,2,3.3,2.6,5.4c0.6,2.1,0.8,4.3,0.8,6.8v2.7h-26V445h20.1v-0.5c-0.1-1.5-0.4-3.1-1-4.5c-0.5-1.5-1.4-2.7-2.6-3.6
			c-1.2-0.9-2.8-1.4-4.8-1.4c-1.4,0-2.6,0.3-3.7,0.9c-1.1,0.6-2.1,1.4-2.9,2.5c-0.8,1.1-1.5,2.5-1.9,4.1s-0.7,3.5-0.7,5.6v1.4
			c0,1.7,0.2,3.2,0.7,4.7s1.1,2.7,2,3.8c0.9,1.1,2,2,3.3,2.6c1.3,0.6,2.7,0.9,4.4,0.9c2.1,0,3.9-0.4,5.3-1.3c1.5-0.9,2.7-2,3.8-3.4
			l3.6,2.9c-0.8,1.1-1.7,2.2-2.9,3.3s-2.6,1.9-4.3,2.5C985.5,465.9,983.5,466.2,981.2,466.2z"/>
		<path class="st7" d="M1007.7,438.2v27.4h-6v-34.9h5.6L1007.7,438.2z M1006.2,446.8l-2.5-0.1c0-2.4,0.4-4.6,1.1-6.6
			s1.7-3.8,2.9-5.3c1.2-1.5,2.7-2.7,4.5-3.5c1.7-0.8,3.6-1.2,5.8-1.2c1.7,0,3.3,0.2,4.6,0.7c1.4,0.5,2.6,1.2,3.5,2.2
			c1,1,1.7,2.3,2.2,3.9c0.5,1.6,0.8,3.6,0.8,5.8v22.8h-6v-22.9c0-1.8-0.3-3.3-0.8-4.4c-0.5-1.1-1.3-1.9-2.4-2.4
			c-1-0.5-2.3-0.8-3.8-0.8c-1.5,0-2.8,0.3-4,0.9c-1.2,0.6-2.3,1.5-3.1,2.6c-0.9,1.1-1.5,2.3-2,3.8
			C1006.5,443.8,1006.2,445.3,1006.2,446.8z"/>
		<path class="st7" d="M1050.5,443.2v4.9h-15.7v-4.9H1050.5z"/>
		<path class="st7" d="M321.5,540.5c1.4,0,2.7-0.3,3.9-0.9c1.2-0.6,2.2-1.4,3-2.4c0.8-1,1.2-2.2,1.3-3.5h5.7c-0.1,2.1-0.8,4-2.1,5.8
			c-1.3,1.8-2.9,3.2-5,4.3c-2.1,1.1-4.3,1.6-6.8,1.6c-2.6,0-4.9-0.5-6.8-1.4c-1.9-0.9-3.6-2.2-4.8-3.8c-1.3-1.6-2.2-3.5-2.9-5.6
			c-0.6-2.1-1-4.3-1-6.7v-1.4c0-2.3,0.3-4.6,1-6.7c0.6-2.1,1.6-3.9,2.9-5.6c1.3-1.6,2.9-2.9,4.8-3.8c1.9-0.9,4.2-1.4,6.8-1.4
			c2.7,0,5.1,0.6,7.2,1.7c2,1.1,3.6,2.6,4.8,4.5c1.2,1.9,1.8,4.1,1.9,6.5h-5.7c-0.1-1.4-0.5-2.7-1.2-3.9c-0.7-1.2-1.6-2.1-2.8-2.8
			c-1.2-0.7-2.6-1-4.2-1c-1.8,0-3.4,0.4-4.6,1.1c-1.2,0.7-2.2,1.7-2.9,2.9c-0.7,1.2-1.2,2.6-1.5,4c-0.3,1.5-0.5,3-0.5,4.5v1.4
			c0,1.5,0.1,3,0.5,4.5c0.3,1.5,0.8,2.8,1.5,4c0.7,1.2,1.7,2.2,2.9,2.9C318.1,540.2,319.7,540.5,321.5,540.5z"/>
		<path class="st7" d="M363.7,523.7l0.1,4.2h-6c-1.7,0-3.2,0.1-4.5,0.4c-1.3,0.3-2.4,0.7-3.4,1.2c-0.9,0.5-1.6,1.2-2.1,2
			c-0.5,0.8-0.7,1.7-0.7,2.8c0,1.1,0.2,2.1,0.7,3c0.5,0.9,1.2,1.6,2.2,2.1c1,0.5,2.2,0.8,3.7,0.8c1.8,0,3.4-0.4,4.8-1.2
			c1.4-0.8,2.5-1.7,3.3-2.8c0.8-1.1,1.3-2.2,1.3-3.3l2.5,2.9c-0.2,0.9-0.6,1.9-1.2,3c-0.7,1.1-1.6,2.1-2.7,3.1
			c-1.1,1-2.4,1.8-3.9,2.5s-3.2,1-5.1,1c-2.4,0-4.4-0.5-6.2-1.4c-1.8-0.9-3.1-2.2-4.1-3.7c-1-1.6-1.5-3.3-1.5-5.2
			c0-1.9,0.4-3.5,1.1-4.9c0.7-1.4,1.8-2.6,3.2-3.6c1.4-1,3-1.7,5-2.2c1.9-0.5,4.1-0.7,6.5-0.7H363.7z M362.7,538.8v-18
			c0-1.4-0.3-2.6-0.8-3.6c-0.5-1-1.4-1.8-2.5-2.4c-1.1-0.6-2.4-0.8-4.1-0.8c-1.5,0-2.8,0.3-3.9,0.8s-2,1.2-2.6,2
			c-0.6,0.8-1,1.7-1,2.7h-6c0-1.2,0.3-2.5,1-3.7s1.6-2.3,2.8-3.3c1.2-1,2.7-1.8,4.4-2.4c1.7-0.6,3.6-0.9,5.7-0.9
			c2.5,0,4.8,0.4,6.7,1.3c1.9,0.9,3.5,2.2,4.6,3.9c1.1,1.7,1.7,3.9,1.7,6.5v16.2c0,1.2,0.1,2.4,0.3,3.7c0.2,1.3,0.5,2.4,0.9,3.4v0.5
			h-6.2c-0.3-0.7-0.5-1.6-0.7-2.8C362.8,540.9,362.7,539.8,362.7,538.8z"/>
		<path class="st7" d="M384,517.4v27.4h-6v-34.9h5.6L384,517.4z M382.6,526l-2.5-0.1c0-2.4,0.4-4.6,1.1-6.6c0.7-2,1.7-3.8,2.9-5.3
			c1.2-1.5,2.7-2.7,4.5-3.5c1.7-0.8,3.6-1.2,5.8-1.2c1.7,0,3.3,0.2,4.6,0.7c1.4,0.5,2.6,1.2,3.5,2.2c1,1,1.7,2.3,2.2,3.9
			c0.5,1.6,0.8,3.6,0.8,5.8v22.8h-6v-22.9c0-1.8-0.3-3.3-0.8-4.4c-0.5-1.1-1.3-1.9-2.4-2.4c-1-0.5-2.3-0.8-3.8-0.8
			c-1.5,0-2.8,0.3-4,0.9c-1.2,0.6-2.3,1.5-3.1,2.6s-1.5,2.3-2,3.8C382.8,523,382.6,524.5,382.6,526z"/>
		<path class="st7" d="M429.1,509.9v4.6h-18.9v-4.6H429.1z M416.6,501.5h6v34.7c0,1.2,0.2,2.1,0.5,2.7c0.4,0.6,0.8,1,1.4,1.2
			s1.2,0.3,1.9,0.3c0.5,0,1,0,1.6-0.1s1-0.2,1.2-0.2l0,4.9c-0.5,0.1-1.1,0.3-1.9,0.4c-0.8,0.1-1.7,0.2-2.8,0.2c-1.5,0-2.8-0.3-4-0.9
			s-2.2-1.6-2.9-2.9c-0.7-1.4-1.1-3.2-1.1-5.5V501.5z"/>
		<path class="st7" d="M457.6,523.7l0.1,4.2h-6c-1.7,0-3.2,0.1-4.5,0.4c-1.3,0.3-2.4,0.7-3.4,1.2c-0.9,0.5-1.6,1.2-2.1,2
			c-0.5,0.8-0.7,1.7-0.7,2.8c0,1.1,0.2,2.1,0.7,3c0.5,0.9,1.2,1.6,2.2,2.1c1,0.5,2.2,0.8,3.7,0.8c1.8,0,3.4-0.4,4.8-1.2
			c1.4-0.8,2.5-1.7,3.3-2.8c0.8-1.1,1.3-2.2,1.3-3.3l2.5,2.9c-0.2,0.9-0.6,1.9-1.2,3c-0.7,1.1-1.6,2.1-2.7,3.1
			c-1.1,1-2.4,1.8-3.9,2.5s-3.2,1-5.1,1c-2.4,0-4.4-0.5-6.2-1.4c-1.8-0.9-3.1-2.2-4.1-3.7c-1-1.6-1.5-3.3-1.5-5.2
			c0-1.9,0.4-3.5,1.1-4.9c0.7-1.4,1.8-2.6,3.2-3.6c1.4-1,3-1.7,5-2.2c1.9-0.5,4.1-0.7,6.5-0.7H457.6z M456.6,538.8v-18
			c0-1.4-0.3-2.6-0.8-3.6c-0.5-1-1.4-1.8-2.5-2.4c-1.1-0.6-2.4-0.8-4.1-0.8c-1.5,0-2.8,0.3-3.9,0.8s-2,1.2-2.6,2
			c-0.6,0.8-1,1.7-1,2.7h-6c0-1.2,0.3-2.5,1-3.7s1.6-2.3,2.8-3.3c1.2-1,2.7-1.8,4.4-2.4c1.7-0.6,3.6-0.9,5.7-0.9
			c2.5,0,4.8,0.4,6.7,1.3c1.9,0.9,3.5,2.2,4.6,3.9c1.1,1.7,1.7,3.9,1.7,6.5v16.2c0,1.2,0.1,2.4,0.3,3.7c0.2,1.3,0.5,2.4,0.9,3.4v0.5
			h-6.2c-0.3-0.7-0.5-1.6-0.7-2.8C456.7,540.9,456.6,539.8,456.6,538.8z"/>
		<path class="st7" d="M477.9,515.4v29.4h-6v-34.9h5.8L477.9,515.4z M488.8,509.7l0,5.5c-0.5-0.1-1-0.2-1.4-0.2c-0.4,0-0.9,0-1.5,0
			c-1.4,0-2.6,0.2-3.6,0.6c-1.1,0.4-1.9,1-2.7,1.8c-0.7,0.8-1.3,1.7-1.7,2.8s-0.7,2.2-0.8,3.5l-1.7,1c0-2.1,0.2-4.1,0.6-5.9
			c0.4-1.8,1.1-3.5,1.9-4.9c0.9-1.4,2-2.5,3.4-3.4c1.4-0.8,3-1.2,4.9-1.2c0.4,0,0.9,0,1.5,0.1C488.2,509.5,488.6,509.6,488.8,509.7z
			"/>
		<path class="st7" d="M492.7,527.8V527c0-2.5,0.4-4.9,1.1-7c0.7-2.2,1.8-4,3.2-5.6c1.4-1.6,3-2.8,5-3.7c2-0.9,4.1-1.3,6.6-1.3
			c2.4,0,4.7,0.4,6.6,1.3c2,0.9,3.6,2.1,5,3.7c1.4,1.6,2.4,3.5,3.2,5.6c0.7,2.2,1.1,4.5,1.1,7v0.7c0,2.5-0.4,4.8-1.1,7
			c-0.7,2.1-1.8,4-3.2,5.6s-3.1,2.8-5,3.7c-1.9,0.9-4.1,1.3-6.6,1.3s-4.7-0.4-6.6-1.3c-2-0.9-3.6-2.1-5-3.7s-2.4-3.5-3.2-5.6
			C493.1,532.6,492.7,530.3,492.7,527.8z M498.7,527v0.7c0,1.7,0.2,3.4,0.6,4.9c0.4,1.5,1,2.9,1.9,4.1c0.8,1.2,1.9,2.1,3.1,2.8
			c1.2,0.7,2.7,1,4.4,1c1.6,0,3.1-0.3,4.3-1c1.2-0.7,2.3-1.6,3.1-2.8c0.8-1.2,1.4-2.5,1.9-4.1c0.4-1.5,0.6-3.2,0.6-4.9V527
			c0-1.7-0.2-3.3-0.6-4.9c-0.4-1.5-1-2.9-1.9-4.1c-0.8-1.2-1.9-2.1-3.1-2.8c-1.2-0.7-2.7-1-4.3-1c-1.6,0-3.1,0.3-4.3,1
			c-1.2,0.7-2.3,1.6-3.1,2.8c-0.8,1.2-1.4,2.6-1.9,4.1C498.9,523.7,498.7,525.3,498.7,527z"/>
		<path class="st7" d="M537.9,517.4v27.4h-6v-34.9h5.6L537.9,517.4z M536.5,526l-2.5-0.1c0-2.4,0.4-4.6,1.1-6.6
			c0.7-2,1.7-3.8,2.9-5.3c1.2-1.5,2.7-2.7,4.5-3.5c1.7-0.8,3.6-1.2,5.8-1.2c1.7,0,3.3,0.2,4.6,0.7c1.4,0.5,2.6,1.2,3.5,2.2
			c1,1,1.7,2.3,2.2,3.9c0.5,1.6,0.8,3.6,0.8,5.8v22.8h-6v-22.9c0-1.8-0.3-3.3-0.8-4.4c-0.5-1.1-1.3-1.9-2.4-2.4
			c-1-0.5-2.3-0.8-3.8-0.8c-1.5,0-2.8,0.3-4,0.9c-1.2,0.6-2.3,1.5-3.1,2.6s-1.5,2.3-2,3.8C536.7,523,536.5,524.5,536.5,526z"/>
		<path class="st7" d="M591.3,495.3v49.5h-6v-49.5H591.3z"/>
		<path class="st7" d="M622.4,523.7l0.1,4.2h-6c-1.7,0-3.2,0.1-4.5,0.4c-1.3,0.3-2.4,0.7-3.4,1.2c-0.9,0.5-1.6,1.2-2.1,2
			s-0.7,1.7-0.7,2.8c0,1.1,0.2,2.1,0.7,3s1.2,1.6,2.2,2.1c1,0.5,2.2,0.8,3.7,0.8c1.8,0,3.4-0.4,4.8-1.2s2.5-1.7,3.3-2.8
			c0.8-1.1,1.3-2.2,1.3-3.3l2.5,2.9c-0.2,0.9-0.6,1.9-1.2,3s-1.6,2.1-2.7,3.1c-1.1,1-2.4,1.8-3.9,2.5c-1.5,0.7-3.2,1-5.1,1
			c-2.4,0-4.4-0.5-6.2-1.4c-1.8-0.9-3.1-2.2-4.1-3.7c-1-1.6-1.5-3.3-1.5-5.2c0-1.9,0.4-3.5,1.1-4.9c0.7-1.4,1.8-2.6,3.2-3.6
			c1.4-1,3-1.7,5-2.2c1.9-0.5,4.1-0.7,6.5-0.7H622.4z M621.4,538.8v-18c0-1.4-0.3-2.6-0.8-3.6c-0.5-1-1.4-1.8-2.5-2.4
			c-1.1-0.6-2.4-0.8-4.1-0.8c-1.5,0-2.8,0.3-3.9,0.8c-1.1,0.5-2,1.2-2.6,2s-1,1.7-1,2.7h-6c0-1.2,0.3-2.5,1-3.7s1.6-2.3,2.8-3.3
			s2.7-1.8,4.4-2.4c1.7-0.6,3.6-0.9,5.7-0.9c2.5,0,4.8,0.4,6.7,1.3c1.9,0.9,3.5,2.2,4.6,3.9c1.1,1.7,1.7,3.9,1.7,6.5v16.2
			c0,1.2,0.1,2.4,0.3,3.7c0.2,1.3,0.5,2.4,0.9,3.4v0.5h-6.2c-0.3-0.7-0.5-1.6-0.7-2.8C621.5,540.9,621.4,539.8,621.4,538.8z"/>
		<path class="st7" d="M657,535.6c0-0.9-0.2-1.7-0.6-2.4c-0.4-0.7-1.1-1.4-2.3-2s-2.9-1.1-5.2-1.6c-1.9-0.4-3.7-0.9-5.2-1.5
			c-1.6-0.6-2.9-1.2-4-2c-1.1-0.8-1.9-1.7-2.5-2.8c-0.6-1.1-0.9-2.3-0.9-3.8c0-1.4,0.3-2.7,0.9-3.9c0.6-1.2,1.5-2.3,2.6-3.3
			c1.1-0.9,2.5-1.7,4.1-2.2c1.6-0.5,3.4-0.8,5.3-0.8c2.8,0,5.2,0.5,7.2,1.5c2,1,3.5,2.3,4.5,3.9s1.6,3.5,1.6,5.5h-6
			c0-1-0.3-1.9-0.9-2.8c-0.6-0.9-1.4-1.7-2.5-2.3c-1.1-0.6-2.4-0.9-4-0.9c-1.7,0-3,0.3-4,0.8c-1,0.5-1.8,1.1-2.2,1.9
			c-0.5,0.8-0.7,1.6-0.7,2.4c0,0.6,0.1,1.2,0.3,1.7c0.2,0.5,0.6,1,1.2,1.4s1.4,0.8,2.4,1.2c1.1,0.4,2.4,0.7,4,1.1
			c2.9,0.6,5.2,1.4,7.1,2.3s3.2,2,4.1,3.3c0.9,1.3,1.4,2.9,1.4,4.8c0,1.5-0.3,2.9-1,4.2c-0.6,1.3-1.5,2.4-2.7,3.3
			c-1.2,0.9-2.6,1.6-4.3,2.1c-1.6,0.5-3.5,0.8-5.5,0.8c-3.1,0-5.7-0.5-7.8-1.6s-3.7-2.5-4.8-4.3s-1.6-3.6-1.6-5.5h6
			c0.1,1.6,0.6,2.9,1.4,3.9c0.9,1,1.9,1.6,3.2,2c1.2,0.4,2.5,0.6,3.7,0.6c1.6,0,3-0.2,4.1-0.6c1.1-0.4,1.9-1,2.5-1.8
			C656.7,537.4,657,536.5,657,535.6z"/>
		<path class="st7" d="M701.6,545.4c-2.4,0-4.6-0.4-6.6-1.2c-2-0.8-3.7-2-5.1-3.5c-1.4-1.5-2.5-3.3-3.2-5.3s-1.1-4.3-1.1-6.8v-1.4
			c0-2.8,0.4-5.4,1.3-7.6s2-4.1,3.4-5.7s3.1-2.7,4.9-3.5c1.8-0.8,3.7-1.2,5.7-1.2c2.5,0,4.6,0.4,6.5,1.3c1.8,0.9,3.3,2.1,4.5,3.6
			c1.2,1.5,2,3.3,2.6,5.4c0.6,2.1,0.8,4.3,0.8,6.8v2.7h-26v-4.9h20.1v-0.5c-0.1-1.5-0.4-3.1-1-4.5c-0.5-1.5-1.4-2.7-2.6-3.6
			c-1.2-0.9-2.8-1.4-4.8-1.4c-1.4,0-2.6,0.3-3.7,0.9c-1.1,0.6-2.1,1.4-2.9,2.5c-0.8,1.1-1.5,2.5-1.9,4.1s-0.7,3.5-0.7,5.6v1.4
			c0,1.7,0.2,3.2,0.7,4.7s1.1,2.7,2,3.8c0.9,1.1,2,2,3.3,2.6c1.3,0.6,2.7,0.9,4.4,0.9c2.1,0,3.9-0.4,5.3-1.3c1.5-0.9,2.7-2,3.8-3.4
			l3.6,2.9c-0.8,1.1-1.7,2.2-2.9,3.3s-2.6,1.9-4.3,2.5C705.9,545.1,703.9,545.4,701.6,545.4z"/>
		<path class="st7" d="M728.1,517.4v27.4h-6v-34.9h5.6L728.1,517.4z M726.7,526l-2.5-0.1c0-2.4,0.4-4.6,1.1-6.6s1.7-3.8,2.9-5.3
			c1.2-1.5,2.7-2.7,4.5-3.5c1.7-0.8,3.6-1.2,5.8-1.2c1.7,0,3.3,0.2,4.6,0.7c1.4,0.5,2.6,1.2,3.5,2.2c1,1,1.7,2.3,2.2,3.9
			c0.5,1.6,0.8,3.6,0.8,5.8v22.8h-6v-22.9c0-1.8-0.3-3.3-0.8-4.4c-0.5-1.1-1.3-1.9-2.4-2.4c-1-0.5-2.3-0.8-3.8-0.8
			c-1.5,0-2.8,0.3-4,0.9c-1.2,0.6-2.3,1.5-3.1,2.6c-0.9,1.1-1.5,2.3-2,3.8C726.9,523,726.7,524.5,726.7,526z"/>
		<path class="st7" d="M778.9,535.6c0-0.9-0.2-1.7-0.6-2.4c-0.4-0.7-1.1-1.4-2.3-2s-2.9-1.1-5.2-1.6c-1.9-0.4-3.7-0.9-5.2-1.5
			c-1.6-0.6-2.9-1.2-4-2c-1.1-0.8-1.9-1.7-2.5-2.8c-0.6-1.1-0.9-2.3-0.9-3.8c0-1.4,0.3-2.7,0.9-3.9c0.6-1.2,1.5-2.3,2.6-3.3
			c1.1-0.9,2.5-1.7,4.1-2.2c1.6-0.5,3.4-0.8,5.3-0.8c2.8,0,5.2,0.5,7.2,1.5c2,1,3.5,2.3,4.5,3.9s1.6,3.5,1.6,5.5h-6
			c0-1-0.3-1.9-0.9-2.8c-0.6-0.9-1.4-1.7-2.5-2.3c-1.1-0.6-2.4-0.9-4-0.9c-1.7,0-3,0.3-4,0.8c-1,0.5-1.8,1.1-2.2,1.9
			c-0.5,0.8-0.7,1.6-0.7,2.4c0,0.6,0.1,1.2,0.3,1.7c0.2,0.5,0.6,1,1.2,1.4s1.4,0.8,2.4,1.2c1.1,0.4,2.4,0.7,4,1.1
			c2.9,0.6,5.2,1.4,7.1,2.3s3.2,2,4.1,3.3c0.9,1.3,1.4,2.9,1.4,4.8c0,1.5-0.3,2.9-1,4.2c-0.6,1.3-1.5,2.4-2.7,3.3
			c-1.2,0.9-2.6,1.6-4.3,2.1c-1.6,0.5-3.5,0.8-5.5,0.8c-3.1,0-5.7-0.5-7.8-1.6s-3.7-2.5-4.8-4.3s-1.6-3.6-1.6-5.5h6
			c0.1,1.6,0.6,2.9,1.4,3.9c0.9,1,1.9,1.6,3.2,2c1.2,0.4,2.5,0.6,3.7,0.6c1.6,0,3-0.2,4.1-0.6c1.1-0.4,1.9-1,2.5-1.8
			C778.6,537.4,778.9,536.5,778.9,535.6z"/>
		<path class="st7" d="M814.3,523.7l0.1,4.2h-6c-1.7,0-3.2,0.1-4.5,0.4c-1.3,0.3-2.4,0.7-3.4,1.2c-0.9,0.5-1.6,1.2-2.1,2
			s-0.7,1.7-0.7,2.8c0,1.1,0.2,2.1,0.7,3s1.2,1.6,2.2,2.1c1,0.5,2.2,0.8,3.7,0.8c1.8,0,3.4-0.4,4.8-1.2s2.5-1.7,3.3-2.8
			c0.8-1.1,1.3-2.2,1.3-3.3l2.5,2.9c-0.2,0.9-0.6,1.9-1.2,3s-1.6,2.1-2.7,3.1c-1.1,1-2.4,1.8-3.9,2.5c-1.5,0.7-3.2,1-5.1,1
			c-2.4,0-4.4-0.5-6.2-1.4c-1.8-0.9-3.1-2.2-4.1-3.7c-1-1.6-1.5-3.3-1.5-5.2c0-1.9,0.4-3.5,1.1-4.9c0.7-1.4,1.8-2.6,3.2-3.6
			c1.4-1,3-1.7,5-2.2c1.9-0.5,4.1-0.7,6.5-0.7H814.3z M813.2,538.8v-18c0-1.4-0.3-2.6-0.8-3.6c-0.5-1-1.4-1.8-2.5-2.4
			c-1.1-0.6-2.4-0.8-4.1-0.8c-1.5,0-2.8,0.3-3.9,0.8c-1.1,0.5-2,1.2-2.6,2s-1,1.7-1,2.7h-6c0-1.2,0.3-2.5,1-3.7s1.6-2.3,2.8-3.3
			s2.7-1.8,4.4-2.4c1.7-0.6,3.6-0.9,5.7-0.9c2.5,0,4.8,0.4,6.7,1.3c1.9,0.9,3.5,2.2,4.6,3.9c1.1,1.7,1.7,3.9,1.7,6.5v16.2
			c0,1.2,0.1,2.4,0.3,3.7c0.2,1.3,0.5,2.4,0.9,3.4v0.5h-6.2c-0.3-0.7-0.5-1.6-0.7-2.8C813.3,540.9,813.2,539.8,813.2,538.8z"/>
		<path class="st7" d="M835,495.3v49.5h-6v-49.5H835z"/>
		<path class="st7" d="M866.2,523.7l0.1,4.2h-6c-1.7,0-3.2,0.1-4.5,0.4c-1.3,0.3-2.4,0.7-3.4,1.2c-0.9,0.5-1.6,1.2-2.1,2
			s-0.7,1.7-0.7,2.8c0,1.1,0.2,2.1,0.7,3s1.2,1.6,2.2,2.1c1,0.5,2.2,0.8,3.7,0.8c1.8,0,3.4-0.4,4.8-1.2s2.5-1.7,3.3-2.8
			c0.8-1.1,1.3-2.2,1.3-3.3l2.5,2.9c-0.2,0.9-0.6,1.9-1.2,3s-1.6,2.1-2.7,3.1c-1.1,1-2.4,1.8-3.9,2.5c-1.5,0.7-3.2,1-5.1,1
			c-2.4,0-4.4-0.5-6.2-1.4c-1.8-0.9-3.1-2.2-4.1-3.7c-1-1.6-1.5-3.3-1.5-5.2c0-1.9,0.4-3.5,1.1-4.9c0.7-1.4,1.8-2.6,3.2-3.6
			c1.4-1,3-1.7,5-2.2c1.9-0.5,4.1-0.7,6.5-0.7H866.2z M865.2,538.8v-18c0-1.4-0.3-2.6-0.8-3.6c-0.5-1-1.4-1.8-2.5-2.4
			c-1.1-0.6-2.4-0.8-4.1-0.8c-1.5,0-2.8,0.3-3.9,0.8c-1.1,0.5-2,1.2-2.6,2s-1,1.7-1,2.7h-6c0-1.2,0.3-2.5,1-3.7s1.6-2.3,2.8-3.3
			s2.7-1.8,4.4-2.4c1.7-0.6,3.6-0.9,5.7-0.9c2.5,0,4.8,0.4,6.7,1.3c1.9,0.9,3.5,2.2,4.6,3.9c1.1,1.7,1.7,3.9,1.7,6.5v16.2
			c0,1.2,0.1,2.4,0.3,3.7c0.2,1.3,0.5,2.4,0.9,3.4v0.5h-6.2c-0.3-0.7-0.5-1.6-0.7-2.8C865.3,540.9,865.2,539.8,865.2,538.8z"/>
		<path class="st7" d="M879,527.8v-0.7c0-2.7,0.3-5.1,1-7.3c0.7-2.2,1.6-4.1,2.8-5.6c1.2-1.6,2.7-2.8,4.4-3.6
			c1.7-0.8,3.6-1.3,5.7-1.3c2.2,0,4.1,0.4,5.8,1.1c1.6,0.8,3,1.9,4.2,3.3c1.1,1.5,2.1,3.2,2.7,5.2c0.7,2,1.1,4.4,1.4,6.9v3
			c-0.2,2.6-0.7,4.9-1.4,6.9c-0.7,2-1.6,3.8-2.7,5.2c-1.2,1.4-2.6,2.5-4.2,3.3c-1.7,0.8-3.6,1.1-5.8,1.1c-2,0-3.9-0.4-5.6-1.3
			c-1.7-0.9-3.1-2.1-4.4-3.7s-2.1-3.5-2.8-5.6C879.4,532.6,879,530.3,879,527.8z M885,527.1v0.7c0,1.7,0.2,3.4,0.5,4.9
			c0.4,1.5,0.9,2.9,1.7,4s1.7,2.1,2.9,2.7c1.2,0.7,2.5,1,4.2,1c2,0,3.6-0.4,4.9-1.3s2.3-1.9,3.1-3.3c0.8-1.4,1.4-2.9,1.8-4.5v-7.8
			c-0.3-1.2-0.6-2.3-1.1-3.4c-0.5-1.1-1.1-2.1-1.9-3c-0.8-0.9-1.7-1.6-2.8-2.1s-2.4-0.8-3.9-0.8c-1.6,0-3,0.3-4.2,1
			s-2.1,1.6-2.9,2.8c-0.8,1.2-1.3,2.5-1.7,4.1C885.2,523.7,885,525.3,885,527.1z M902.5,538v-42.7h6v49.5H903L902.5,538z"/>
		<path class="st7" d="M939.3,523.7l0.1,4.2h-6c-1.7,0-3.2,0.1-4.5,0.4c-1.3,0.3-2.4,0.7-3.4,1.2c-0.9,0.5-1.6,1.2-2.1,2
			s-0.7,1.7-0.7,2.8c0,1.1,0.2,2.1,0.7,3s1.2,1.6,2.2,2.1c1,0.5,2.2,0.8,3.7,0.8c1.8,0,3.4-0.4,4.8-1.2s2.5-1.7,3.3-2.8
			c0.8-1.1,1.3-2.2,1.3-3.3l2.5,2.9c-0.2,0.9-0.6,1.9-1.2,3s-1.6,2.1-2.7,3.1c-1.1,1-2.4,1.8-3.9,2.5c-1.5,0.7-3.2,1-5.1,1
			c-2.4,0-4.4-0.5-6.2-1.4c-1.8-0.9-3.1-2.2-4.1-3.7c-1-1.6-1.5-3.3-1.5-5.2c0-1.9,0.4-3.5,1.1-4.9c0.7-1.4,1.8-2.6,3.2-3.6
			c1.4-1,3-1.7,5-2.2c1.9-0.5,4.1-0.7,6.5-0.7H939.3z M938.3,538.8v-18c0-1.4-0.3-2.6-0.8-3.6c-0.5-1-1.4-1.8-2.5-2.4
			c-1.1-0.6-2.4-0.8-4.1-0.8c-1.5,0-2.8,0.3-3.9,0.8c-1.1,0.5-2,1.2-2.6,2s-1,1.7-1,2.7h-6c0-1.2,0.3-2.5,1-3.7s1.6-2.3,2.8-3.3
			s2.7-1.8,4.4-2.4c1.7-0.6,3.6-0.9,5.7-0.9c2.5,0,4.8,0.4,6.7,1.3c1.9,0.9,3.5,2.2,4.6,3.9c1.1,1.7,1.7,3.9,1.7,6.5v16.2
			c0,1.2,0.1,2.4,0.3,3.7c0.2,1.3,0.5,2.4,0.9,3.4v0.5h-6.2c-0.3-0.7-0.5-1.6-0.7-2.8C938.4,540.9,938.3,539.8,938.3,538.8z"/>
		<path class="st7" d="M973.9,535.6c0-0.9-0.2-1.7-0.6-2.4c-0.4-0.7-1.1-1.4-2.3-2s-2.9-1.1-5.2-1.6c-1.9-0.4-3.7-0.9-5.2-1.5
			c-1.6-0.6-2.9-1.2-4-2c-1.1-0.8-1.9-1.7-2.5-2.8c-0.6-1.1-0.9-2.3-0.9-3.8c0-1.4,0.3-2.7,0.9-3.9c0.6-1.2,1.5-2.3,2.6-3.3
			c1.1-0.9,2.5-1.7,4.1-2.2c1.6-0.5,3.4-0.8,5.3-0.8c2.8,0,5.2,0.5,7.2,1.5c2,1,3.5,2.3,4.5,3.9s1.6,3.5,1.6,5.5h-6
			c0-1-0.3-1.9-0.9-2.8c-0.6-0.9-1.4-1.7-2.5-2.3c-1.1-0.6-2.4-0.9-4-0.9c-1.7,0-3,0.3-4,0.8c-1,0.5-1.8,1.1-2.2,1.9
			c-0.5,0.8-0.7,1.6-0.7,2.4c0,0.6,0.1,1.2,0.3,1.7c0.2,0.5,0.6,1,1.2,1.4s1.4,0.8,2.4,1.2c1.1,0.4,2.4,0.7,4,1.1
			c2.9,0.6,5.2,1.4,7.1,2.3s3.2,2,4.1,3.3c0.9,1.3,1.4,2.9,1.4,4.8c0,1.5-0.3,2.9-1,4.2c-0.6,1.3-1.5,2.4-2.7,3.3
			c-1.2,0.9-2.6,1.6-4.3,2.1c-1.6,0.5-3.5,0.8-5.5,0.8c-3.1,0-5.7-0.5-7.8-1.6s-3.7-2.5-4.8-4.3s-1.6-3.6-1.6-5.5h6
			c0.1,1.6,0.6,2.9,1.4,3.9c0.9,1,1.9,1.6,3.2,2c1.2,0.4,2.5,0.6,3.7,0.6c1.6,0,3-0.2,4.1-0.6c1.1-0.4,1.9-1,2.5-1.8
			C973.7,537.4,973.9,536.5,973.9,535.6z"/>
		<path class="st7" d="M323.9,589.1v4.6H305v-4.6H323.9z M316.5,624h-6v-38.5c0-2.5,0.5-4.6,1.4-6.4c0.9-1.7,2.2-3,3.9-3.9
			c1.7-0.9,3.8-1.3,6.1-1.3c0.7,0,1.4,0,2.1,0.1c0.7,0.1,1.4,0.2,2,0.4l-0.3,4.9c-0.5-0.1-1-0.2-1.5-0.2c-0.6,0-1.1-0.1-1.7-0.1
			c-1.3,0-2.4,0.3-3.3,0.8c-0.9,0.5-1.6,1.2-2.1,2.2c-0.5,1-0.7,2.2-0.7,3.6V624z"/>
		<path class="st7" d="M336.5,594.6V624h-6v-34.9h5.8L336.5,594.6z M347.4,588.9l0,5.5c-0.5-0.1-1-0.2-1.4-0.2c-0.4,0-0.9,0-1.5,0
			c-1.4,0-2.6,0.2-3.6,0.6c-1.1,0.4-1.9,1-2.7,1.8c-0.7,0.8-1.3,1.7-1.7,2.8s-0.7,2.2-0.8,3.5l-1.7,1c0-2.1,0.2-4.1,0.6-5.9
			s1.1-3.5,1.9-4.9c0.9-1.4,2-2.5,3.4-3.4c1.4-0.8,3-1.2,4.9-1.2c0.4,0,0.9,0,1.5,0.1C346.8,588.7,347.1,588.8,347.4,588.9z"/>
		<path class="st7" d="M367.3,624.6c-2.4,0-4.6-0.4-6.6-1.2c-2-0.8-3.7-2-5.1-3.5c-1.4-1.5-2.5-3.3-3.2-5.3
			c-0.8-2.1-1.1-4.3-1.1-6.8v-1.4c0-2.8,0.4-5.4,1.3-7.6s2-4.1,3.4-5.7c1.4-1.5,3.1-2.7,4.9-3.5c1.8-0.8,3.7-1.2,5.7-1.2
			c2.5,0,4.6,0.4,6.5,1.3c1.8,0.9,3.3,2.1,4.5,3.6c1.2,1.5,2,3.3,2.6,5.4c0.6,2.1,0.8,4.3,0.8,6.8v2.7h-26v-4.9h20.1v-0.5
			c-0.1-1.5-0.4-3.1-1-4.5s-1.4-2.7-2.6-3.6c-1.2-0.9-2.8-1.4-4.8-1.4c-1.4,0-2.6,0.3-3.7,0.9c-1.1,0.6-2.1,1.4-2.9,2.5
			c-0.8,1.1-1.5,2.5-1.9,4.1s-0.7,3.5-0.7,5.6v1.4c0,1.7,0.2,3.2,0.7,4.7c0.5,1.5,1.1,2.7,2,3.8c0.9,1.1,2,2,3.3,2.6
			c1.3,0.6,2.7,0.9,4.4,0.9c2.1,0,3.9-0.4,5.3-1.3c1.5-0.9,2.7-2,3.8-3.4l3.6,2.9c-0.8,1.1-1.7,2.2-2.9,3.3s-2.6,1.9-4.3,2.5
			C371.6,624.3,369.6,624.6,367.3,624.6z"/>
		<path class="st7" d="M408.2,614.8c0-0.9-0.2-1.7-0.6-2.4c-0.4-0.7-1.1-1.4-2.3-2c-1.1-0.6-2.9-1.1-5.2-1.6
			c-1.9-0.4-3.7-0.9-5.2-1.5c-1.6-0.6-2.9-1.2-4-2c-1.1-0.8-1.9-1.7-2.5-2.8s-0.9-2.3-0.9-3.8c0-1.4,0.3-2.7,0.9-3.9
			s1.5-2.3,2.6-3.3s2.5-1.7,4.1-2.2c1.6-0.5,3.4-0.8,5.3-0.8c2.8,0,5.2,0.5,7.2,1.5c2,1,3.5,2.3,4.5,3.9c1.1,1.6,1.6,3.5,1.6,5.5h-6
			c0-1-0.3-1.9-0.9-2.8c-0.6-0.9-1.4-1.7-2.5-2.3c-1.1-0.6-2.4-0.9-4-0.9c-1.7,0-3,0.3-4,0.8c-1,0.5-1.8,1.1-2.2,1.9
			c-0.5,0.8-0.7,1.6-0.7,2.4c0,0.6,0.1,1.2,0.3,1.7c0.2,0.5,0.6,1,1.2,1.4s1.4,0.8,2.4,1.2c1.1,0.4,2.4,0.7,4,1.1
			c2.9,0.6,5.2,1.4,7.1,2.3c1.8,0.9,3.2,2,4.1,3.3s1.4,2.9,1.4,4.8c0,1.5-0.3,2.9-1,4.2c-0.6,1.3-1.5,2.4-2.7,3.3
			c-1.2,0.9-2.6,1.6-4.3,2.1c-1.6,0.5-3.5,0.8-5.5,0.8c-3.1,0-5.7-0.5-7.8-1.6s-3.7-2.5-4.8-4.3s-1.6-3.6-1.6-5.5h6
			c0.1,1.6,0.6,2.9,1.4,3.9c0.9,1,1.9,1.6,3.2,2c1.2,0.4,2.5,0.6,3.7,0.6c1.6,0,3-0.2,4.1-0.6c1.1-0.4,1.9-1,2.5-1.8
			S408.2,615.7,408.2,614.8z"/>
		<path class="st7" d="M435.9,619.7c1.4,0,2.7-0.3,3.9-0.9c1.2-0.6,2.2-1.4,3-2.4c0.8-1,1.2-2.2,1.3-3.5h5.7c-0.1,2.1-0.8,4-2.1,5.8
			c-1.3,1.8-2.9,3.2-5,4.3c-2.1,1.1-4.3,1.6-6.8,1.6c-2.6,0-4.9-0.5-6.8-1.4c-1.9-0.9-3.6-2.2-4.8-3.8c-1.3-1.6-2.2-3.5-2.9-5.6
			c-0.6-2.1-1-4.3-1-6.7v-1.4c0-2.3,0.3-4.6,1-6.7c0.6-2.1,1.6-3.9,2.9-5.6c1.3-1.6,2.9-2.9,4.8-3.8c1.9-0.9,4.2-1.4,6.8-1.4
			c2.7,0,5.1,0.6,7.2,1.7c2,1.1,3.6,2.6,4.8,4.5c1.2,1.9,1.8,4.1,1.9,6.5h-5.7c-0.1-1.4-0.5-2.7-1.2-3.9c-0.7-1.2-1.6-2.1-2.8-2.8
			c-1.2-0.7-2.6-1-4.2-1c-1.8,0-3.4,0.4-4.6,1.1c-1.2,0.7-2.2,1.7-2.9,2.9c-0.7,1.2-1.2,2.6-1.5,4c-0.3,1.5-0.5,3-0.5,4.5v1.4
			c0,1.5,0.1,3,0.5,4.5c0.3,1.5,0.8,2.8,1.5,4c0.7,1.2,1.7,2.2,2.9,2.9C432.5,619.4,434,619.7,435.9,619.7z"/>
		<path class="st7" d="M478.1,602.9l0.1,4.2h-6c-1.7,0-3.2,0.1-4.5,0.4c-1.3,0.3-2.4,0.7-3.4,1.2s-1.6,1.2-2.1,2
			c-0.5,0.8-0.7,1.7-0.7,2.8c0,1.1,0.2,2.1,0.7,3c0.5,0.9,1.2,1.6,2.2,2.1c1,0.5,2.2,0.8,3.7,0.8c1.8,0,3.4-0.4,4.8-1.2
			c1.4-0.8,2.5-1.7,3.3-2.8c0.8-1.1,1.3-2.2,1.3-3.3l2.5,2.9c-0.2,0.9-0.6,1.9-1.2,3c-0.7,1.1-1.6,2.1-2.7,3.1
			c-1.1,1-2.4,1.8-3.9,2.5s-3.2,1-5.1,1c-2.4,0-4.4-0.5-6.2-1.4c-1.8-0.9-3.1-2.2-4.1-3.7c-1-1.6-1.5-3.3-1.5-5.2
			c0-1.9,0.4-3.5,1.1-4.9c0.7-1.4,1.8-2.6,3.2-3.6c1.4-1,3-1.7,5-2.2s4.1-0.7,6.5-0.7H478.1z M477,618v-18c0-1.4-0.3-2.6-0.8-3.6
			c-0.5-1-1.4-1.8-2.5-2.4s-2.4-0.8-4.1-0.8c-1.5,0-2.8,0.3-3.9,0.8s-2,1.2-2.6,2c-0.6,0.8-1,1.7-1,2.7h-6c0-1.2,0.3-2.5,1-3.7
			s1.6-2.3,2.8-3.3c1.2-1,2.7-1.8,4.4-2.4c1.7-0.6,3.6-0.9,5.7-0.9c2.5,0,4.8,0.4,6.7,1.3c1.9,0.9,3.5,2.2,4.6,3.9
			c1.1,1.7,1.7,3.9,1.7,6.5v16.2c0,1.2,0.1,2.4,0.3,3.7c0.2,1.3,0.5,2.4,0.9,3.4v0.5H478c-0.3-0.7-0.5-1.6-0.7-2.8
			C477.1,620.1,477,619,477,618z"/>
		<path class="st7" d="M512.7,614.8c0-0.9-0.2-1.7-0.6-2.4c-0.4-0.7-1.1-1.4-2.3-2c-1.1-0.6-2.9-1.1-5.2-1.6
			c-1.9-0.4-3.7-0.9-5.2-1.5c-1.6-0.6-2.9-1.2-4-2c-1.1-0.8-1.9-1.7-2.5-2.8s-0.9-2.3-0.9-3.8c0-1.4,0.3-2.7,0.9-3.9
			s1.5-2.3,2.6-3.3s2.5-1.7,4.1-2.2c1.6-0.5,3.4-0.8,5.3-0.8c2.8,0,5.2,0.5,7.2,1.5c2,1,3.5,2.3,4.5,3.9c1.1,1.6,1.6,3.5,1.6,5.5h-6
			c0-1-0.3-1.9-0.9-2.8c-0.6-0.9-1.4-1.7-2.5-2.3c-1.1-0.6-2.4-0.9-4-0.9c-1.7,0-3,0.3-4,0.8c-1,0.5-1.8,1.1-2.2,1.9
			c-0.5,0.8-0.7,1.6-0.7,2.4c0,0.6,0.1,1.2,0.3,1.7c0.2,0.5,0.6,1,1.2,1.4s1.4,0.8,2.4,1.2c1.1,0.4,2.4,0.7,4,1.1
			c2.9,0.6,5.2,1.4,7.1,2.3c1.8,0.9,3.2,2,4.1,3.3s1.4,2.9,1.4,4.8c0,1.5-0.3,2.9-1,4.2c-0.6,1.3-1.5,2.4-2.7,3.3
			c-1.2,0.9-2.6,1.6-4.3,2.1c-1.6,0.5-3.5,0.8-5.5,0.8c-3.1,0-5.7-0.5-7.8-1.6s-3.7-2.5-4.8-4.3s-1.6-3.6-1.6-5.5h6
			c0.1,1.6,0.6,2.9,1.4,3.9c0.9,1,1.9,1.6,3.2,2c1.2,0.4,2.5,0.6,3.7,0.6c1.6,0,3-0.2,4.1-0.6c1.1-0.4,1.9-1,2.5-1.8
			S512.7,615.7,512.7,614.8z"/>
		<path class="st7" d="M545.5,589.1l9.1,27.1l1.5,6.3l-4.3,2.2L539,589.1H545.5z M552.6,620.4l9.7-31.3h6.4l-14,40.3
			c-0.3,0.9-0.7,1.8-1.3,2.8c-0.5,1-1.2,2-2,2.9c-0.8,0.9-1.8,1.6-2.9,2.2c-1.1,0.6-2.5,0.9-4.1,0.9c-0.5,0-1.1-0.1-1.8-0.2
			c-0.7-0.1-1.2-0.2-1.5-0.3l0-4.8c0.2,0,0.4,0,0.8,0.1c0.4,0,0.6,0,0.8,0c1.4,0,2.5-0.2,3.4-0.5c0.9-0.4,1.7-0.9,2.4-1.8
			c0.7-0.8,1.2-2,1.7-3.4L552.6,620.4z"/>
		<path class="st7" d="M596.9,574.5V624h-6v-49.5H596.9z"/>
		<path class="st7" d="M604.9,607v-0.7c0-2.5,0.4-4.9,1.1-7s1.8-4,3.2-5.6c1.4-1.6,3-2.8,5-3.7c2-0.9,4.1-1.3,6.6-1.3
			c2.4,0,4.7,0.4,6.6,1.3c2,0.9,3.6,2.1,5,3.7c1.4,1.6,2.4,3.5,3.2,5.6s1.1,4.5,1.1,7v0.7c0,2.5-0.4,4.8-1.1,7s-1.8,4-3.2,5.6
			c-1.4,1.6-3.1,2.8-5,3.7c-1.9,0.9-4.1,1.3-6.6,1.3s-4.7-0.4-6.6-1.3c-2-0.9-3.6-2.1-5-3.7c-1.4-1.6-2.4-3.5-3.2-5.6
			S604.9,609.5,604.9,607z M610.8,606.2v0.7c0,1.7,0.2,3.4,0.6,4.9c0.4,1.5,1,2.9,1.9,4.1c0.8,1.2,1.9,2.1,3.1,2.8s2.7,1,4.4,1
			c1.6,0,3.1-0.3,4.3-1s2.3-1.6,3.1-2.8s1.4-2.5,1.9-4.1c0.4-1.5,0.6-3.2,0.6-4.9v-0.7c0-1.7-0.2-3.3-0.6-4.9
			c-0.4-1.5-1-2.9-1.9-4.1c-0.8-1.2-1.9-2.1-3.1-2.8c-1.2-0.7-2.7-1-4.3-1c-1.6,0-3.1,0.3-4.3,1c-1.2,0.7-2.3,1.6-3.1,2.8
			c-0.8,1.2-1.4,2.6-1.9,4.1C611.1,602.9,610.8,604.5,610.8,606.2z"/>
		<path class="st7" d="M664.4,614.8c0-0.9-0.2-1.7-0.6-2.4c-0.4-0.7-1.1-1.4-2.3-2s-2.9-1.1-5.2-1.6c-1.9-0.4-3.7-0.9-5.2-1.5
			c-1.6-0.6-2.9-1.2-4-2s-1.9-1.7-2.5-2.8s-0.9-2.3-0.9-3.8c0-1.4,0.3-2.7,0.9-3.9c0.6-1.2,1.5-2.3,2.6-3.3c1.1-0.9,2.5-1.7,4.1-2.2
			s3.4-0.8,5.3-0.8c2.8,0,5.2,0.5,7.2,1.5s3.5,2.3,4.5,3.9s1.6,3.5,1.6,5.5h-6c0-1-0.3-1.9-0.9-2.8c-0.6-0.9-1.4-1.7-2.5-2.3
			s-2.4-0.9-4-0.9c-1.7,0-3,0.3-4,0.8c-1,0.5-1.8,1.1-2.2,1.9c-0.5,0.8-0.7,1.6-0.7,2.4c0,0.6,0.1,1.2,0.3,1.7
			c0.2,0.5,0.6,1,1.2,1.4s1.4,0.8,2.4,1.2s2.4,0.7,4,1.1c2.9,0.6,5.2,1.4,7.1,2.3s3.2,2,4.1,3.3s1.4,2.9,1.4,4.8
			c0,1.5-0.3,2.9-1,4.2s-1.5,2.4-2.7,3.3c-1.2,0.9-2.6,1.6-4.3,2.1c-1.6,0.5-3.5,0.8-5.5,0.8c-3.1,0-5.7-0.5-7.8-1.6
			s-3.7-2.5-4.8-4.3s-1.6-3.6-1.6-5.5h6c0.1,1.6,0.6,2.9,1.4,3.9c0.9,1,1.9,1.6,3.2,2c1.2,0.4,2.5,0.6,3.7,0.6c1.6,0,3-0.2,4.1-0.6
			c1.1-0.4,1.9-1,2.5-1.8S664.4,615.7,664.4,614.8z"/>
		<path class="st7" d="M694.7,589.1h6v39c0,2.1-0.3,3.9-1,5.4c-0.7,1.5-1.7,2.6-3,3.4s-3,1.1-5.1,1.1c-0.5,0-1.2-0.1-1.9-0.2
			c-0.7-0.1-1.3-0.2-1.8-0.4l0-4.8c0.4,0.1,0.9,0.2,1.4,0.2s1,0.1,1.4,0.1c0.9,0,1.6-0.2,2.2-0.5s1.1-0.8,1.4-1.5
			c0.3-0.7,0.5-1.7,0.5-2.8V589.1z M694.1,579.9c0-1,0.3-1.8,0.9-2.4s1.5-1,2.6-1c1.2,0,2,0.3,2.6,1s0.9,1.5,0.9,2.4
			c0,0.9-0.3,1.7-0.9,2.4c-0.6,0.7-1.5,1-2.6,1c-1.1,0-2-0.3-2.6-1C694.4,581.6,694.1,580.8,694.1,579.9z"/>
		<path class="st7" d="M732.8,608.6l2.5-0.1c0,2.3-0.2,4.5-0.7,6.4c-0.5,2-1.3,3.7-2.3,5.1s-2.5,2.6-4.2,3.4s-3.9,1.2-6.3,1.2
			c-1.7,0-3.2-0.2-4.7-0.7c-1.4-0.5-2.6-1.3-3.6-2.3s-1.8-2.4-2.3-4c-0.5-1.7-0.8-3.6-0.8-6v-22.5h6v22.6c0,1.6,0.2,2.9,0.5,3.9
			c0.4,1,0.8,1.8,1.5,2.4c0.6,0.6,1.3,1,2.1,1.2c0.8,0.2,1.6,0.4,2.4,0.4c2.5,0,4.5-0.5,6-1.5c1.5-1,2.6-2.3,3.2-4
			C732.5,612.5,732.8,610.6,732.8,608.6z M731.7,615.9v-26.8h6V624H732L731.7,615.9z"/>
		<path class="st7" d="M745.3,607v-0.7c0-2.7,0.3-5.1,1-7.3c0.6-2.2,1.5-4.1,2.7-5.6c1.2-1.6,2.6-2.8,4.3-3.6
			c1.7-0.8,3.6-1.3,5.7-1.3c2.2,0,4.1,0.4,5.8,1.1c1.6,0.8,3,1.9,4.2,3.3s2.1,3.2,2.7,5.2s1.1,4.4,1.4,6.9v3
			c-0.2,2.6-0.7,4.9-1.4,6.9c-0.7,2-1.6,3.8-2.7,5.2s-2.6,2.5-4.2,3.3c-1.7,0.8-3.6,1.1-5.8,1.1c-2.1,0-4-0.4-5.7-1.3
			s-3.1-2.1-4.3-3.7s-2.1-3.5-2.8-5.6S745.3,609.5,745.3,607z M769.3,589.1h5.4v34.1c0,3.1-0.6,5.7-1.9,7.9c-1.2,2.2-3,3.8-5.2,4.9
			c-2.2,1.1-4.8,1.7-7.7,1.7c-1.2,0-2.6-0.2-4.2-0.6s-3.2-1-4.8-1.9s-2.9-2.1-3.9-3.6l3.1-3.5c1.5,1.8,3,3,4.6,3.7
			c1.6,0.7,3.2,1,4.8,1c1.9,0,3.5-0.4,4.9-1.1s2.4-1.8,3.2-3.1c0.8-1.4,1.1-3.1,1.1-5.1v-26.7L769.3,589.1z M751.3,606.3v0.7
			c0,1.7,0.2,3.4,0.5,4.9c0.4,1.5,0.9,2.9,1.6,4c0.7,1.2,1.7,2.1,2.9,2.7c1.2,0.7,2.5,1,4.2,1c2,0,3.6-0.4,4.9-1.3s2.3-1.9,3.1-3.3
			s1.4-2.9,1.8-4.5v-7.8c-0.2-1.2-0.6-2.3-1.1-3.4c-0.5-1.1-1.1-2.1-1.9-3s-1.7-1.6-2.8-2.1s-2.4-0.8-3.9-0.8c-1.6,0-3,0.3-4.2,1
			s-2.1,1.6-2.9,2.8c-0.7,1.2-1.3,2.5-1.6,4.1C751.4,602.9,751.3,604.5,751.3,606.3z"/>
		<path class="st7" d="M782.2,607v-0.7c0-2.5,0.4-4.9,1.1-7s1.8-4,3.2-5.6c1.4-1.6,3-2.8,5-3.7c2-0.9,4.1-1.3,6.6-1.3
			c2.4,0,4.7,0.4,6.6,1.3c2,0.9,3.6,2.1,5,3.7c1.4,1.6,2.4,3.5,3.2,5.6s1.1,4.5,1.1,7v0.7c0,2.5-0.4,4.8-1.1,7s-1.8,4-3.2,5.6
			c-1.4,1.6-3.1,2.8-5,3.7c-1.9,0.9-4.1,1.3-6.6,1.3s-4.7-0.4-6.6-1.3c-2-0.9-3.6-2.1-5-3.7c-1.4-1.6-2.4-3.5-3.2-5.6
			S782.2,609.5,782.2,607z M788.2,606.2v0.7c0,1.7,0.2,3.4,0.6,4.9c0.4,1.5,1,2.9,1.9,4.1c0.8,1.2,1.9,2.1,3.1,2.8s2.7,1,4.4,1
			c1.6,0,3.1-0.3,4.3-1s2.3-1.6,3.1-2.8s1.4-2.5,1.9-4.1c0.4-1.5,0.6-3.2,0.6-4.9v-0.7c0-1.7-0.2-3.3-0.6-4.9
			c-0.4-1.5-1-2.9-1.9-4.1c-0.8-1.2-1.9-2.1-3.1-2.8c-1.2-0.7-2.7-1-4.3-1c-1.6,0-3.1,0.3-4.3,1c-1.2,0.7-2.3,1.6-3.1,2.8
			c-0.8,1.2-1.4,2.6-1.9,4.1C788.4,602.9,788.2,604.5,788.2,606.2z"/>
		<path class="st7" d="M841.7,614.8c0-0.9-0.2-1.7-0.6-2.4c-0.4-0.7-1.1-1.4-2.3-2s-2.9-1.1-5.2-1.6c-1.9-0.4-3.7-0.9-5.2-1.5
			c-1.6-0.6-2.9-1.2-4-2s-1.9-1.7-2.5-2.8s-0.9-2.3-0.9-3.8c0-1.4,0.3-2.7,0.9-3.9c0.6-1.2,1.5-2.3,2.6-3.3c1.1-0.9,2.5-1.7,4.1-2.2
			s3.4-0.8,5.3-0.8c2.8,0,5.2,0.5,7.2,1.5s3.5,2.3,4.5,3.9s1.6,3.5,1.6,5.5h-6c0-1-0.3-1.9-0.9-2.8c-0.6-0.9-1.4-1.7-2.5-2.3
			s-2.4-0.9-4-0.9c-1.7,0-3,0.3-4,0.8c-1,0.5-1.8,1.1-2.2,1.9c-0.5,0.8-0.7,1.6-0.7,2.4c0,0.6,0.1,1.2,0.3,1.7
			c0.2,0.5,0.6,1,1.2,1.4s1.4,0.8,2.4,1.2s2.4,0.7,4,1.1c2.9,0.6,5.2,1.4,7.1,2.3s3.2,2,4.1,3.3s1.4,2.9,1.4,4.8
			c0,1.5-0.3,2.9-1,4.2s-1.5,2.4-2.7,3.3c-1.2,0.9-2.6,1.6-4.3,2.1c-1.6,0.5-3.5,0.8-5.5,0.8c-3.1,0-5.7-0.5-7.8-1.6
			s-3.7-2.5-4.8-4.3s-1.6-3.6-1.6-5.5h6c0.1,1.6,0.6,2.9,1.4,3.9c0.9,1,1.9,1.6,3.2,2c1.2,0.4,2.5,0.6,3.7,0.6c1.6,0,3-0.2,4.1-0.6
			c1.1-0.4,1.9-1,2.5-1.8S841.7,615.7,841.7,614.8z"/>
		<path class="st7" d="M877.8,596.6V624h-6v-34.9h5.6L877.8,596.6z M876.4,605.2l-2.5-0.1c0-2.4,0.4-4.6,1.1-6.6s1.7-3.8,2.9-5.3
			s2.7-2.7,4.5-3.5c1.7-0.8,3.6-1.2,5.8-1.2c1.7,0,3.3,0.2,4.6,0.7c1.4,0.5,2.6,1.2,3.5,2.2s1.7,2.3,2.2,3.9
			c0.5,1.6,0.8,3.6,0.8,5.8V624h-6v-22.9c0-1.8-0.3-3.3-0.8-4.4c-0.5-1.1-1.3-1.9-2.4-2.4c-1-0.5-2.3-0.8-3.8-0.8
			c-1.5,0-2.8,0.3-4,0.9s-2.3,1.5-3.1,2.6c-0.9,1.1-1.5,2.3-2,3.8C876.6,602.2,876.4,603.7,876.4,605.2z"/>
		<path class="st7" d="M929.9,602.9l0.1,4.2h-6c-1.7,0-3.2,0.1-4.5,0.4c-1.3,0.3-2.4,0.7-3.4,1.2s-1.6,1.2-2.1,2s-0.7,1.7-0.7,2.8
			c0,1.1,0.2,2.1,0.7,3s1.2,1.6,2.2,2.1c1,0.5,2.2,0.8,3.7,0.8c1.8,0,3.4-0.4,4.8-1.2s2.5-1.7,3.3-2.8c0.8-1.1,1.3-2.2,1.3-3.3
			l2.5,2.9c-0.2,0.9-0.6,1.9-1.2,3s-1.6,2.1-2.7,3.1c-1.1,1-2.4,1.8-3.9,2.5c-1.5,0.7-3.2,1-5.1,1c-2.4,0-4.4-0.5-6.2-1.4
			c-1.8-0.9-3.1-2.2-4.1-3.7c-1-1.6-1.5-3.3-1.5-5.2c0-1.9,0.4-3.5,1.1-4.9c0.7-1.4,1.8-2.6,3.2-3.6c1.4-1,3-1.7,5-2.2
			s4.1-0.7,6.5-0.7H929.9z M928.9,618v-18c0-1.4-0.3-2.6-0.8-3.6c-0.5-1-1.4-1.8-2.5-2.4s-2.4-0.8-4.1-0.8c-1.5,0-2.8,0.3-3.9,0.8
			c-1.1,0.5-2,1.2-2.6,2s-1,1.7-1,2.7h-6c0-1.2,0.3-2.5,1-3.7s1.6-2.3,2.8-3.3s2.7-1.8,4.4-2.4c1.7-0.6,3.6-0.9,5.7-0.9
			c2.5,0,4.8,0.4,6.7,1.3s3.5,2.2,4.6,3.9c1.1,1.7,1.7,3.9,1.7,6.5v16.2c0,1.2,0.1,2.4,0.3,3.7c0.2,1.3,0.5,2.4,0.9,3.4v0.5h-6.2
			c-0.3-0.7-0.5-1.6-0.7-2.8C928.9,620.1,928.9,619,928.9,618z"/>
		<path class="st7" d="M958.8,589.1v4.6h-18.9v-4.6H958.8z M946.3,580.7h6v34.7c0,1.2,0.2,2.1,0.5,2.7s0.8,1,1.4,1.2
			s1.2,0.3,1.9,0.3c0.5,0,1,0,1.6-0.1c0.5-0.1,1-0.2,1.2-0.2l0,4.9c-0.5,0.1-1.1,0.3-1.9,0.4c-0.8,0.1-1.7,0.2-2.8,0.2
			c-1.5,0-2.8-0.3-4-0.9s-2.2-1.6-2.9-2.9c-0.7-1.4-1.1-3.2-1.1-5.5V580.7z"/>
		<path class="st7" d="M988.3,608.6l2.5-0.1c0,2.3-0.2,4.5-0.7,6.4c-0.5,2-1.3,3.7-2.3,5.1s-2.5,2.6-4.2,3.4s-3.9,1.2-6.3,1.2
			c-1.7,0-3.2-0.2-4.7-0.7c-1.4-0.5-2.6-1.3-3.6-2.3s-1.8-2.4-2.3-4c-0.5-1.7-0.8-3.6-0.8-6v-22.5h6v22.6c0,1.6,0.2,2.9,0.5,3.9
			c0.4,1,0.8,1.8,1.5,2.4c0.6,0.6,1.3,1,2.1,1.2c0.8,0.2,1.6,0.4,2.4,0.4c2.5,0,4.5-0.5,6-1.5c1.5-1,2.6-2.3,3.2-4
			C987.9,612.5,988.3,610.6,988.3,608.6z M987.1,615.9v-26.8h6V624h-5.7L987.1,615.9z"/>
		<path class="st7" d="M1008.1,594.6V624h-6v-34.9h5.8L1008.1,594.6z M1019,588.9l0,5.5c-0.5-0.1-1-0.2-1.4-0.2c-0.4,0-0.9,0-1.5,0
			c-1.4,0-2.6,0.2-3.6,0.6s-1.9,1-2.7,1.8s-1.3,1.7-1.7,2.8c-0.4,1.1-0.7,2.2-0.8,3.5l-1.7,1c0-2.1,0.2-4.1,0.6-5.9
			c0.4-1.8,1.1-3.5,1.9-4.9c0.9-1.4,2-2.5,3.4-3.4s3-1.2,4.9-1.2c0.4,0,0.9,0,1.5,0.1S1018.8,588.8,1019,588.9z"/>
		<path class="st7" d="M1046.1,602.9l0.1,4.2h-6c-1.7,0-3.2,0.1-4.5,0.4c-1.3,0.3-2.4,0.7-3.4,1.2s-1.6,1.2-2.1,2s-0.7,1.7-0.7,2.8
			c0,1.1,0.2,2.1,0.7,3s1.2,1.6,2.2,2.1c1,0.5,2.2,0.8,3.7,0.8c1.8,0,3.4-0.4,4.8-1.2s2.5-1.7,3.3-2.8c0.8-1.1,1.3-2.2,1.3-3.3
			l2.5,2.9c-0.2,0.9-0.6,1.9-1.2,3s-1.6,2.1-2.7,3.1c-1.1,1-2.4,1.8-3.9,2.5c-1.5,0.7-3.2,1-5.1,1c-2.4,0-4.4-0.5-6.2-1.4
			c-1.8-0.9-3.1-2.2-4.1-3.7c-1-1.6-1.5-3.3-1.5-5.2c0-1.9,0.4-3.5,1.1-4.9c0.7-1.4,1.8-2.6,3.2-3.6c1.4-1,3-1.7,5-2.2
			s4.1-0.7,6.5-0.7H1046.1z M1045.1,618v-18c0-1.4-0.3-2.6-0.8-3.6c-0.5-1-1.4-1.8-2.5-2.4s-2.4-0.8-4.1-0.8c-1.5,0-2.8,0.3-3.9,0.8
			c-1.1,0.5-2,1.2-2.6,2s-1,1.7-1,2.7h-6c0-1.2,0.3-2.5,1-3.7s1.6-2.3,2.8-3.3s2.7-1.8,4.4-2.4c1.7-0.6,3.6-0.9,5.7-0.9
			c2.5,0,4.8,0.4,6.7,1.3s3.5,2.2,4.6,3.9c1.1,1.7,1.7,3.9,1.7,6.5v16.2c0,1.2,0.1,2.4,0.3,3.7c0.2,1.3,0.5,2.4,0.9,3.4v0.5h-6.2
			c-0.3-0.7-0.5-1.6-0.7-2.8C1045.2,620.1,1045.1,619,1045.1,618z"/>
		<path class="st7" d="M1072.8,601.6v4.9h-15.7v-4.9H1072.8z"/>
		<path class="st7" d="M314,653.7v49.5h-6v-49.5H314z"/>
		<path class="st7" d="M338.1,703.8c-2.4,0-4.6-0.4-6.6-1.2c-2-0.8-3.7-2-5.1-3.5c-1.4-1.5-2.5-3.3-3.2-5.3
			c-0.8-2.1-1.1-4.3-1.1-6.8v-1.4c0-2.8,0.4-5.4,1.3-7.6s2-4.1,3.4-5.7c1.4-1.5,3.1-2.7,4.9-3.5c1.8-0.8,3.7-1.2,5.7-1.2
			c2.5,0,4.6,0.4,6.5,1.3c1.8,0.9,3.3,2.1,4.5,3.6s2,3.3,2.6,5.4c0.6,2.1,0.8,4.3,0.8,6.8v2.7h-26v-4.9h20.1v-0.5
			c-0.1-1.5-0.4-3-1-4.5c-0.5-1.5-1.4-2.7-2.6-3.6c-1.2-0.9-2.8-1.4-4.8-1.4c-1.4,0-2.6,0.3-3.7,0.9c-1.1,0.6-2.1,1.4-2.9,2.5
			c-0.8,1.1-1.5,2.5-1.9,4.1s-0.7,3.5-0.7,5.6v1.4c0,1.7,0.2,3.2,0.7,4.7c0.5,1.4,1.1,2.7,2,3.8c0.9,1.1,2,2,3.3,2.6
			c1.3,0.6,2.7,0.9,4.4,0.9c2.1,0,3.9-0.4,5.3-1.3c1.5-0.9,2.7-2,3.8-3.4l3.6,2.9c-0.8,1.1-1.7,2.2-2.9,3.3s-2.6,1.9-4.3,2.5
			C342.4,703.5,340.4,703.8,338.1,703.8z"/>
		<path class="st7" d="M378.9,694c0-0.9-0.2-1.7-0.6-2.4c-0.4-0.7-1.1-1.4-2.3-2c-1.1-0.6-2.9-1.1-5.2-1.6c-1.9-0.4-3.7-0.9-5.2-1.5
			c-1.6-0.6-2.9-1.2-4-2c-1.1-0.8-1.9-1.7-2.5-2.8c-0.6-1.1-0.9-2.3-0.9-3.8c0-1.4,0.3-2.7,0.9-3.9s1.5-2.3,2.6-3.3
			c1.1-0.9,2.5-1.7,4.1-2.2c1.6-0.5,3.4-0.8,5.3-0.8c2.8,0,5.2,0.5,7.2,1.5c2,1,3.5,2.3,4.5,3.9c1.1,1.6,1.6,3.5,1.6,5.5h-6
			c0-1-0.3-1.9-0.9-2.8c-0.6-0.9-1.4-1.7-2.5-2.3c-1.1-0.6-2.4-0.9-4-0.9c-1.7,0-3,0.3-4,0.8c-1,0.5-1.8,1.1-2.2,1.9
			c-0.5,0.8-0.7,1.6-0.7,2.4c0,0.6,0.1,1.2,0.3,1.7s0.6,1,1.2,1.4s1.4,0.8,2.4,1.2c1.1,0.4,2.4,0.7,4,1.1c2.9,0.6,5.2,1.4,7.1,2.3
			c1.8,0.9,3.2,2,4.1,3.3s1.4,2.9,1.4,4.8c0,1.5-0.3,2.9-1,4.2c-0.6,1.3-1.5,2.4-2.7,3.3c-1.2,0.9-2.6,1.6-4.3,2.1
			c-1.6,0.5-3.5,0.8-5.5,0.8c-3.1,0-5.7-0.5-7.8-1.6s-3.7-2.5-4.8-4.3s-1.6-3.6-1.6-5.5h6c0.1,1.6,0.6,2.9,1.4,3.9
			c0.9,1,1.9,1.6,3.2,2c1.2,0.4,2.5,0.6,3.7,0.6c1.6,0,3-0.2,4.1-0.6c1.1-0.4,1.9-1,2.5-1.8S378.9,694.9,378.9,694z"/>
		<path class="st7" d="M397.1,653.7v4.4l-1,11.5h-3.6v-11.2v-4.7H397.1z M405.8,653.7v4.4l-1,11.5h-3.6v-11.4v-4.4H405.8z"/>
		<path class="st7" d="M413.9,700c0-1,0.3-1.9,1-2.6c0.6-0.7,1.6-1,2.8-1c1.2,0,2.1,0.3,2.8,1c0.6,0.7,1,1.6,1,2.6
			c0,1-0.3,1.8-1,2.5c-0.6,0.7-1.6,1-2.8,1c-1.2,0-2.1-0.3-2.8-1C414.2,701.9,413.9,701,413.9,700z"/>
	</g>
</g>
</svg>
