<?xml version="1.0" encoding="utf-8"?>
<!-- Generator: Adobe Illustrator 27.1.1, SVG Export Plug-In . SVG Version: 6.00 Build 0)  -->
<svg version="1.1" id="Capa_1" xmlns="http://www.w3.org/2000/svg" xmlns:xlink="http://www.w3.org/1999/xlink" x="0px" y="0px"
	 viewBox="0 0 1362.6 1081.5" style="enable-background:new 0 0 1362.6 1081.5;" xml:space="preserve">
<style type="text/css">
	.st0{clip-path:url(#SVGID_00000125586210020533219920000012594860511362882751_);}
	.st1{fill-rule:evenodd;clip-rule:evenodd;fill:#FFFFFF;stroke:#FDD466;stroke-width:6.875;stroke-miterlimit:8;}
	.st2{fill-rule:evenodd;clip-rule:evenodd;fill:#FDD466;}
	.st3{display:none;fill:#032B43;enable-background:new    ;}
	.st4{font-family:'ArialMT';}
	.st5{font-size:66px;}
	.st6{enable-background:new    ;}
	.st7{fill:#032B43;}
	.st8{font-family:'Arial-BoldMT';}
	.st9{display:none;}
	.st10{display:inline;fill:#032B43;}
	.st11{font-family:'GillSans-UltraBold';}
	.st12{font-size:600px;}
</style>
<g transform="translate(-2643 -5310)">
	<g>
		<g>
			<g>
				<g>
					<g>
						<g>
							<defs>
								<path id="SVGID_1_" d="M3177.8,5437.6c-211.7,0-383.4,171.7-383.4,383.4v383.4h717.9c211.7,0,383.4-171.7,383.4-383.4
									v-383.4H3177.8z M2643,5310h1362.6v1020H2643V5310z"/>
							</defs>
							<clipPath id="SVGID_00000088110918430014003720000005219323251643119745_">
								<use xlink:href="#SVGID_1_"  style="overflow:visible;"/>
							</clipPath>
							<g style="clip-path:url(#SVGID_00000088110918430014003720000005219323251643119745_);">
								<g transform="matrix(2 0 0 1.99924 3123 5711)">
								</g>
							</g>
						</g>
					</g>
				</g>
			</g>
		</g>
		<path class="st1" d="M3177.8,5437.6h717.9V5821c0,211.7-171.7,383.4-383.4,383.4h-717.9V5821
			C2794.4,5609.3,2966,5437.6,3177.8,5437.6z"/>
		<path class="st2" d="M3207.3,5577.3h31.9l9.8-28.2l9.8,28.2h31.9l-25.8,17.4l9.8,28.2l-25.8-17.4l-25.8,17.4l9.8-28.2
			L3207.3,5577.3z"/>
		<path class="st2" d="M3306,5577.3h31.9l9.8-28.2l9.8,28.2h31.9l-25.8,17.4l9.8,28.2l-25.8-17.4l-25.8,17.4l9.8-28.2L3306,5577.3z"
			/>
		<path class="st2" d="M3404.7,5577.3h31.9l9.8-28.2l9.8,28.2h31.9l-25.8,17.4l9.8,28.2l-25.8-17.4l-25.8,17.4l9.8-28.2
			L3404.7,5577.3z"/>
		<path class="st2" d="M3503.4,5577.3h31.9l9.8-28.2l9.8,28.2h31.9l-25.8,17.4l9.8,28.2l-25.8-17.4l-25.8,17.4l9.8-28.2
			L3503.4,5577.3z"/>
		<path class="st2" d="M3602.1,5577.3h31.9l9.8-28.2l9.8,28.2h31.9l-25.8,17.4l9.8,28.2l-25.8-17.4l-25.8,17.4l9.8-28.2
			L3602.1,5577.3z"/>
		<text transform="matrix(1 0 0 1 2946.5464 5715)" class="st3 st4 st5">Lorem</text>
		<text transform="matrix(1 0 0 1 3135.0942 5715)" class="st3 st4 st5"> </text>
		<text transform="matrix(1 0 0 1 3151.4194 5715)" class="st3 st4 st5">ipsum</text>
		<text transform="matrix(1 0 0 1 3332.9194 5715)" class="st3 st4 st5"> </text>
		<text transform="matrix(1 0 0 1 3349.2495 5715)" class="st3 st4 st5">dolor </text>
		<text transform="matrix(1 0 0 1 3516.4839 5715)" class="st3 st4 st5">sit</text>
		<text transform="matrix(1 0 0 1 3588.1538 5715)" class="st3 st4 st5"> </text>
		<text transform="matrix(1 0 0 1 2946.5464 5794.2002)" class="st3 st4 st5">amet</text>
		<text transform="matrix(1 0 0 1 3097.1079 5794.2002)" class="st3 st4 st5"> </text>
		<text transform="matrix(1 0 0 1 3113.437 5794.2002)" class="st3 st4 st5">consectetur</text>
		<text transform="matrix(1 0 0 1 3462.8589 5794.2002)" class="st3 st4 st5"> </text>
		<text transform="matrix(1 0 0 1 2946.5464 5873.4004)" class="st3 st4 st5">adipiscing</text>
		<text transform="matrix(1 0 0 1 3246.9849 5873.4004)" class="st3 st4 st5"> </text>
		<text transform="matrix(1 0 0 1 3263.311 5873.4004)" class="st3 st4 st5">elit</text>
		<text transform="matrix(1 0 0 1 3351.9995 5873.4004)" class="st3 st4 st5"> </text>
		<text transform="matrix(1 0 0 1 3368.3257 5873.4004)" class="st3 st4 st5">quisque mus </text>
		<text transform="matrix(1 0 0 1 2946.5464 5952.5996)" class="st3 st4 st5">aliquam</text>
		<text transform="matrix(1 0 0 1 3182.188 5952.5996)" class="st3 st4 st5"> </text>
		<text transform="matrix(1 0 0 1 3198.5142 5952.5996)" class="st3 st4 st5">pretium</text>
		<text transform="matrix(1 0 0 1 3425.0464 5952.5996)" class="st3 st4 st5"> </text>
		<g>
			<g class="st6">
				<path class="st7" d="M2964.2,6065.4l-12.8,38.9h-10.3l17.4-46.9h6.5L2964.2,6065.4z M2974.2,6086.8v7.6h-24.8v-7.6H2974.2z
					 M2974.8,6104.3l-12.8-38.9l-1-8h6.6l17.5,46.9H2974.8z"/>
				<path class="st7" d="M2987.4,6087.3v-0.7c0-2.7,0.3-5.1,0.9-7.3c0.6-2.2,1.5-4.1,2.6-5.6s2.6-2.8,4.3-3.6
					c1.7-0.9,3.6-1.3,5.8-1.3c2,0,3.8,0.4,5.4,1.3c1.5,0.9,2.8,2.1,3.9,3.7c1.1,1.6,2,3.4,2.6,5.6c0.7,2.1,1.1,4.5,1.5,7v1.5
					c-0.3,2.4-0.8,4.7-1.5,6.8c-0.7,2.1-1.5,3.9-2.6,5.5c-1.1,1.6-2.4,2.8-3.9,3.6s-3.4,1.3-5.4,1.3c-2.2,0-4.1-0.4-5.8-1.3
					c-1.7-0.9-3.1-2.1-4.3-3.7c-1.1-1.6-2-3.5-2.6-5.6C2987.7,6092.2,2987.4,6089.8,2987.4,6087.3z M2996.7,6086.6v0.7
					c0,1.4,0.1,2.8,0.3,4s0.6,2.3,1.1,3.3c0.5,1,1.2,1.7,2.1,2.2c0.8,0.5,1.9,0.8,3.1,0.8c1.6,0,2.9-0.4,3.9-1.1s1.8-1.7,2.4-3
					s0.9-2.7,1-4.4v-4.2c-0.1-1.4-0.3-2.6-0.6-3.7c-0.3-1.1-0.8-2-1.4-2.8c-0.6-0.8-1.3-1.4-2.2-1.8s-1.9-0.6-3.1-0.6
					c-1.2,0-2.2,0.3-3.1,0.8c-0.9,0.5-1.6,1.3-2.1,2.2c-0.5,0.9-0.9,2.1-1.2,3.3C2996.8,6083.7,2996.7,6085.1,2996.7,6086.6z
					 M3009.5,6096.7v-41.9h9.3v49.5h-8.4L3009.5,6096.7z"/>
				<path class="st7" d="M3035.3,6077v27.3h-9.3v-34.9h8.7L3035.3,6077z M3045.8,6069.2l-0.2,8.6c-0.5-0.1-1-0.1-1.6-0.2
					c-0.6-0.1-1.2-0.1-1.7-0.1c-1.3,0-2.4,0.2-3.4,0.5c-1,0.3-1.8,0.8-2.4,1.5c-0.6,0.6-1.1,1.4-1.4,2.4c-0.3,0.9-0.5,2-0.5,3.2
					l-1.9-0.6c0-2.3,0.2-4.3,0.7-6.2c0.5-1.9,1.1-3.6,2-5s1.9-2.5,3.2-3.3c1.3-0.8,2.7-1.2,4.4-1.2c0.5,0,1,0,1.6,0.1
					C3045,6069,3045.5,6069.1,3045.8,6069.2z"/>
				<path class="st7" d="M3050.1,6060.3c0-1.4,0.5-2.5,1.4-3.4c0.9-0.9,2.2-1.3,3.8-1.3c1.6,0,2.8,0.4,3.8,1.3c1,0.9,1.4,2,1.4,3.4
					s-0.5,2.5-1.4,3.4c-1,0.9-2.2,1.3-3.8,1.3c-1.6,0-2.9-0.4-3.8-1.3C3050.6,6062.8,3050.1,6061.7,3050.1,6060.3z M3060,6069.4
					v34.9h-9.3v-34.9H3060z"/>
				<path class="st7" d="M3087.7,6083.1l0.1,5.3h-5.2c-1.2,0-2.3,0.1-3.2,0.4s-1.6,0.7-2.2,1.2s-1,1.1-1.3,1.8
					c-0.3,0.7-0.4,1.4-0.4,2.2s0.2,1.5,0.5,2.1c0.4,0.6,0.9,1.1,1.6,1.5c0.7,0.4,1.5,0.5,2.4,0.5c1.4,0,2.6-0.3,3.6-0.8
					s1.8-1.2,2.4-2.1c0.6-0.8,0.9-1.6,0.9-2.3l2.4,3.9c-0.3,0.9-0.8,1.8-1.4,2.7c-0.6,0.9-1.3,1.8-2.2,2.7c-0.9,0.8-2,1.5-3.3,2
					c-1.3,0.5-2.8,0.8-4.5,0.8c-2.2,0-4.2-0.4-6-1.3c-1.8-0.9-3.2-2.1-4.3-3.7c-1-1.6-1.6-3.4-1.6-5.4c0-1.8,0.3-3.4,1-4.9
					c0.7-1.4,1.7-2.6,3-3.6c1.3-1,3-1.7,5-2.2c2-0.5,4.4-0.8,7-0.8H3087.7z M3086.5,6096.4v-15.5c0-1.1-0.2-2.1-0.5-2.9
					c-0.4-0.8-0.9-1.4-1.7-1.9c-0.8-0.5-1.7-0.7-2.9-0.7c-1,0-1.9,0.2-2.7,0.5c-0.8,0.4-1.3,0.9-1.7,1.5c-0.4,0.7-0.6,1.4-0.6,2.3
					h-9.3c0-1.5,0.3-2.9,1-4.2c0.7-1.3,1.7-2.5,3-3.5c1.3-1,2.9-1.8,4.7-2.4c1.8-0.6,3.9-0.9,6.1-0.9c2.7,0,5.1,0.5,7.2,1.4
					c2.1,0.9,3.8,2.3,5,4.1c1.2,1.8,1.8,4.1,1.8,6.8v14.9c0,1.9,0.1,3.5,0.4,4.7c0.2,1.2,0.6,2.3,1,3.2v0.5h-9.4
					c-0.5-0.9-0.8-2.1-1-3.6S3086.5,6097.9,3086.5,6096.4z"/>
				<path class="st7" d="M3112.1,6076.9v27.4h-9.3v-34.9h8.7L3112.1,6076.9z M3110.7,6085.6h-2.5c0-2.6,0.3-4.9,1-7
					c0.7-2.1,1.6-3.8,2.8-5.3c1.2-1.5,2.6-2.6,4.3-3.4c1.7-0.8,3.5-1.2,5.6-1.2c1.6,0,3.1,0.2,4.5,0.7s2.5,1.2,3.5,2.3
					c1,1,1.7,2.4,2.3,4.1c0.5,1.7,0.8,3.8,0.8,6.2v22.2h-9.3V6082c0-1.5-0.2-2.8-0.6-3.6c-0.4-0.9-1.1-1.5-1.9-1.8
					c-0.8-0.4-1.8-0.5-3-0.5c-1.2,0-2.3,0.2-3.2,0.7c-0.9,0.5-1.7,1.2-2.3,2c-0.6,0.9-1,1.9-1.3,3
					C3110.9,6083.1,3110.7,6084.3,3110.7,6085.6z"/>
				<path class="st7" d="M3160,6083.1l0.1,5.3h-5.2c-1.2,0-2.3,0.1-3.2,0.4s-1.6,0.7-2.2,1.2s-1,1.1-1.3,1.8
					c-0.3,0.7-0.4,1.4-0.4,2.2s0.2,1.5,0.5,2.1c0.4,0.6,0.9,1.1,1.6,1.5c0.7,0.4,1.5,0.5,2.4,0.5c1.4,0,2.6-0.3,3.6-0.8
					s1.8-1.2,2.4-2.1c0.6-0.8,0.9-1.6,0.9-2.3l2.4,3.9c-0.3,0.9-0.8,1.8-1.4,2.7c-0.6,0.9-1.3,1.8-2.2,2.7c-0.9,0.8-2,1.5-3.3,2
					c-1.3,0.5-2.8,0.8-4.5,0.8c-2.2,0-4.2-0.4-6-1.3c-1.8-0.9-3.2-2.1-4.3-3.7c-1-1.6-1.6-3.4-1.6-5.4c0-1.8,0.3-3.4,1-4.9
					c0.7-1.4,1.7-2.6,3-3.6c1.3-1,3-1.7,5-2.2c2-0.5,4.4-0.8,7-0.8H3160z M3158.8,6096.4v-15.5c0-1.1-0.2-2.1-0.5-2.9
					c-0.4-0.8-0.9-1.4-1.7-1.9c-0.8-0.5-1.7-0.7-2.9-0.7c-1,0-1.9,0.2-2.7,0.5c-0.8,0.4-1.3,0.9-1.7,1.5c-0.4,0.7-0.6,1.4-0.6,2.3
					h-9.3c0-1.5,0.3-2.9,1-4.2c0.7-1.3,1.7-2.5,3-3.5c1.3-1,2.9-1.8,4.7-2.4c1.8-0.6,3.9-0.9,6.1-0.9c2.7,0,5.1,0.5,7.2,1.4
					c2.1,0.9,3.8,2.3,5,4.1c1.2,1.8,1.8,4.1,1.8,6.8v14.9c0,1.9,0.1,3.5,0.4,4.7c0.2,1.2,0.6,2.3,1,3.2v0.5h-9.4
					c-0.5-0.9-0.8-2.1-1-3.6S3158.8,6097.9,3158.8,6096.4z"/>
			</g>
		</g>
		<text transform="matrix(1 0 0 1 3131.0288 6063.3008)" class="st3 st8 st5"> </text>
		<text transform="matrix(1 0 0 1 3147.3579 6063.3008)" class="st3 st8 st5">ipsum</text>
		<text transform="matrix(1 0 0 1 3330.061 6063.3008)" class="st3 st8 st5"> </text>
		<text transform="matrix(1 0 0 1 3346.3901 6063.3008)" class="st3 st8 st5">dolor</text>
		<text transform="matrix(1 0 0 1 3499.8726 6063.3008)" class="st3 st8 st5"> </text>
		<g>
			<g class="st6">
				<path class="st7" d="M2963.1,6135.6h-11.9l-0.1-5h10.8c1.8,0,3.3-0.3,4.7-0.9c1.3-0.6,2.4-1.5,3.1-2.6c0.7-1.1,1.1-2.5,1.1-4
					c0-1.7-0.3-3.1-1-4.2c-0.7-1.1-1.7-1.9-3-2.4c-1.3-0.5-3-0.8-5.1-0.8h-9.2v41.8h-6.2v-46.9h15.4c2.4,0,4.6,0.2,6.4,0.7
					c1.9,0.5,3.5,1.2,4.8,2.3c1.3,1,2.3,2.3,3,3.9c0.7,1.6,1,3.4,1,5.6c0,1.9-0.5,3.7-1.5,5.2c-1,1.6-2.4,2.8-4.1,3.8
					c-1.8,1-3.8,1.6-6.1,1.9L2963.1,6135.6z M2962.8,6157.5h-14.1l3.5-5.1h10.5c2,0,3.7-0.3,5-1s2.4-1.7,3.2-2.9
					c0.7-1.3,1.1-2.7,1.1-4.5c0-1.7-0.3-3.2-0.9-4.5c-0.6-1.3-1.6-2.2-2.9-2.9c-1.3-0.7-3.1-1-5.2-1h-8.9l0.1-5h12.1l1.3,1.8
					c2.3,0.2,4.2,0.8,5.7,1.9c1.6,1.1,2.8,2.5,3.6,4.1c0.8,1.7,1.2,3.5,1.2,5.5c0,2.9-0.6,5.4-1.9,7.4c-1.3,2-3.1,3.5-5.4,4.6
					S2966,6157.5,2962.8,6157.5z"/>
				<path class="st7" d="M3008.2,6136.4l0.1,4.2h-6c-1.7,0-3.2,0.1-4.5,0.4c-1.3,0.3-2.4,0.7-3.4,1.2s-1.6,1.2-2.1,2
					c-0.5,0.8-0.7,1.7-0.7,2.8c0,1.1,0.2,2.1,0.7,3c0.5,0.9,1.2,1.6,2.2,2.1s2.2,0.8,3.7,0.8c1.8,0,3.4-0.4,4.8-1.2
					c1.4-0.8,2.5-1.7,3.3-2.8c0.8-1.1,1.3-2.2,1.3-3.3l2.5,2.9c-0.2,0.9-0.6,1.9-1.2,3c-0.7,1.1-1.6,2.1-2.7,3.1
					c-1.1,1-2.4,1.8-3.9,2.5c-1.5,0.7-3.2,1-5.1,1c-2.4,0-4.4-0.5-6.2-1.4s-3.1-2.2-4.1-3.7c-1-1.6-1.5-3.3-1.5-5.2
					c0-1.9,0.4-3.5,1.1-4.9c0.7-1.4,1.8-2.6,3.2-3.6c1.4-1,3-1.7,5-2.2s4.1-0.7,6.5-0.7H3008.2z M3007.2,6151.5v-18
					c0-1.4-0.3-2.6-0.8-3.6c-0.5-1-1.4-1.8-2.5-2.4s-2.4-0.8-4.1-0.8c-1.5,0-2.8,0.3-3.9,0.8s-2,1.2-2.6,2c-0.6,0.8-1,1.7-1,2.7h-6
					c0-1.2,0.3-2.5,1-3.7s1.6-2.3,2.8-3.3c1.2-1,2.7-1.8,4.4-2.4s3.6-0.9,5.7-0.9c2.5,0,4.8,0.4,6.7,1.3c1.9,0.9,3.5,2.2,4.6,3.9
					c1.1,1.7,1.7,3.9,1.7,6.5v16.2c0,1.2,0.1,2.4,0.3,3.7c0.2,1.3,0.5,2.4,0.9,3.4v0.5h-6.2c-0.3-0.7-0.5-1.6-0.7-2.8
					C3007.2,6153.6,3007.2,6152.5,3007.2,6151.5z"/>
				<path class="st7" d="M3028.5,6130.1v27.4h-6v-34.9h5.6L3028.5,6130.1z M3027,6138.7l-2.5-0.1c0-2.4,0.4-4.6,1.1-6.6
					c0.7-2,1.7-3.8,2.9-5.3c1.2-1.5,2.7-2.7,4.5-3.5c1.7-0.8,3.6-1.2,5.8-1.2c1.7,0,3.3,0.2,4.6,0.7c1.4,0.5,2.6,1.2,3.5,2.2
					c1,1,1.7,2.3,2.2,3.9s0.8,3.5,0.8,5.8v22.8h-6v-22.9c0-1.8-0.3-3.3-0.8-4.4c-0.5-1.1-1.3-1.9-2.4-2.4s-2.3-0.8-3.8-0.8
					c-1.5,0-2.8,0.3-4,0.9c-1.2,0.6-2.3,1.5-3.1,2.6s-1.5,2.3-2,3.8S3027,6137.2,3027,6138.7z"/>
				<path class="st7" d="M3072.9,6153.2c1.4,0,2.7-0.3,3.9-0.9c1.2-0.6,2.2-1.4,3-2.4c0.8-1,1.2-2.2,1.3-3.5h5.7
					c-0.1,2.1-0.8,4-2.1,5.8c-1.3,1.8-2.9,3.2-5,4.3c-2.1,1.1-4.3,1.6-6.8,1.6c-2.6,0-4.9-0.5-6.8-1.4c-1.9-0.9-3.6-2.2-4.8-3.8
					c-1.3-1.6-2.2-3.5-2.9-5.6c-0.6-2.1-1-4.3-1-6.7v-1.4c0-2.3,0.3-4.6,1-6.7c0.6-2.1,1.6-3.9,2.9-5.6c1.3-1.6,2.9-2.9,4.8-3.8
					c1.9-0.9,4.2-1.4,6.8-1.4c2.7,0,5.1,0.6,7.2,1.7c2,1.1,3.6,2.6,4.8,4.5c1.2,1.9,1.8,4.1,1.9,6.5h-5.7c-0.1-1.4-0.5-2.7-1.2-3.9
					c-0.7-1.2-1.6-2.1-2.8-2.8c-1.2-0.7-2.6-1-4.2-1c-1.8,0-3.4,0.4-4.6,1.1c-1.2,0.7-2.2,1.7-2.9,2.9c-0.7,1.2-1.2,2.6-1.5,4
					c-0.3,1.5-0.5,3-0.5,4.5v1.4c0,1.5,0.1,3,0.5,4.5c0.3,1.5,0.8,2.8,1.5,4c0.7,1.2,1.7,2.2,2.9,2.9
					C3069.5,6152.9,3071.1,6153.2,3072.9,6153.2z"/>
				<path class="st7" d="M3091.9,6140.5v-0.7c0-2.5,0.4-4.8,1.1-7c0.7-2.2,1.8-4,3.2-5.6c1.4-1.6,3-2.8,5-3.7c2-0.9,4.1-1.3,6.6-1.3
					c2.4,0,4.7,0.4,6.6,1.3s3.6,2.1,5,3.7s2.4,3.5,3.2,5.6c0.7,2.2,1.1,4.5,1.1,7v0.7c0,2.5-0.4,4.8-1.1,7c-0.7,2.1-1.8,4-3.2,5.6
					c-1.4,1.6-3.1,2.8-5,3.7c-1.9,0.9-4.1,1.3-6.6,1.3s-4.7-0.4-6.6-1.3c-2-0.9-3.6-2.1-5-3.7c-1.4-1.6-2.4-3.5-3.2-5.6
					C3092.3,6145.3,3091.9,6143,3091.9,6140.5z M3097.9,6139.7v0.7c0,1.7,0.2,3.4,0.6,4.9c0.4,1.5,1,2.9,1.9,4.1
					c0.8,1.2,1.9,2.1,3.1,2.8c1.2,0.7,2.7,1,4.4,1c1.6,0,3.1-0.3,4.3-1c1.2-0.7,2.3-1.6,3.1-2.8c0.8-1.2,1.4-2.5,1.9-4.1
					s0.6-3.2,0.6-4.9v-0.7c0-1.7-0.2-3.3-0.6-4.9c-0.4-1.5-1-2.9-1.9-4.1c-0.8-1.2-1.9-2.1-3.1-2.8c-1.2-0.7-2.7-1-4.3-1
					c-1.6,0-3.1,0.3-4.3,1c-1.2,0.7-2.3,1.6-3.1,2.8c-0.8,1.2-1.4,2.6-1.9,4.1C3098.1,6136.4,3097.9,6138,3097.9,6139.7z"/>
				<path class="st7" d="M3137.6,6108v49.5h-6V6108H3137.6z"/>
				<path class="st7" d="M3145.6,6140.5v-0.7c0-2.5,0.4-4.8,1.1-7c0.7-2.2,1.8-4,3.2-5.6c1.4-1.6,3-2.8,5-3.7c2-0.9,4.1-1.3,6.6-1.3
					c2.4,0,4.7,0.4,6.6,1.3s3.6,2.1,5,3.7s2.4,3.5,3.2,5.6c0.7,2.2,1.1,4.5,1.1,7v0.7c0,2.5-0.4,4.8-1.1,7c-0.7,2.1-1.8,4-3.2,5.6
					c-1.4,1.6-3.1,2.8-5,3.7c-1.9,0.9-4.1,1.3-6.6,1.3s-4.7-0.4-6.6-1.3c-2-0.9-3.6-2.1-5-3.7c-1.4-1.6-2.4-3.5-3.2-5.6
					C3146,6145.3,3145.6,6143,3145.6,6140.5z M3151.6,6139.7v0.7c0,1.7,0.2,3.4,0.6,4.9c0.4,1.5,1,2.9,1.9,4.1
					c0.8,1.2,1.9,2.1,3.1,2.8c1.2,0.7,2.7,1,4.4,1c1.6,0,3.1-0.3,4.3-1c1.2-0.7,2.3-1.6,3.1-2.8c0.8-1.2,1.4-2.5,1.9-4.1
					s0.6-3.2,0.6-4.9v-0.7c0-1.7-0.2-3.3-0.6-4.9c-0.4-1.5-1-2.9-1.9-4.1c-0.8-1.2-1.9-2.1-3.1-2.8c-1.2-0.7-2.7-1-4.3-1
					c-1.6,0-3.1,0.3-4.3,1c-1.2,0.7-2.3,1.6-3.1,2.8c-0.8,1.2-1.4,2.6-1.9,4.1C3151.8,6136.4,3151.6,6138,3151.6,6139.7z"/>
				<path class="st7" d="M3190.8,6129.6v27.9h-6v-34.9h5.7L3190.8,6129.6z M3189.5,6138.7l-2.8-0.1c0-2.4,0.3-4.6,0.9-6.6
					c0.6-2,1.5-3.8,2.7-5.3c1.2-1.5,2.7-2.7,4.4-3.5c1.8-0.8,3.8-1.2,6.1-1.2c1.6,0,3.1,0.2,4.5,0.7c1.4,0.5,2.6,1.2,3.6,2.2
					c1,1,1.8,2.3,2.4,3.8c0.6,1.5,0.8,3.4,0.8,5.6v23.2h-6v-22.9c0-1.8-0.3-3.3-0.9-4.4s-1.5-1.9-2.6-2.4c-1.1-0.5-2.4-0.8-3.9-0.8
					c-1.8,0-3.2,0.3-4.4,0.9c-1.2,0.6-2.1,1.5-2.8,2.6s-1.2,2.3-1.5,3.8C3189.7,6135.7,3189.5,6137.2,3189.5,6138.7z M3212.1,6135.5
					l-4,1.2c0-1.9,0.3-3.7,1-5.5s1.5-3.3,2.7-4.7c1.2-1.4,2.6-2.5,4.3-3.3c1.7-0.8,3.7-1.2,5.9-1.2c1.9,0,3.5,0.2,5,0.7
					s2.7,1.3,3.7,2.3s1.8,2.3,2.3,3.9s0.8,3.5,0.8,5.7v22.9h-6v-23c0-2-0.3-3.5-0.9-4.6s-1.5-1.8-2.6-2.3c-1.1-0.4-2.4-0.7-3.9-0.7
					c-1.3,0-2.5,0.2-3.5,0.7c-1,0.5-1.9,1.1-2.5,1.9c-0.7,0.8-1.2,1.7-1.6,2.7S3212.1,6134.3,3212.1,6135.5z"/>
				<path class="st7" d="M3242.7,6108h6v42.7l-0.5,6.8h-5.5V6108z M3272.2,6139.8v0.7c0,2.5-0.3,4.9-0.9,7c-0.6,2.2-1.5,4-2.6,5.6
					s-2.6,2.8-4.3,3.7s-3.6,1.3-5.8,1.3c-2.2,0-4.2-0.4-5.8-1.1c-1.7-0.8-3.1-1.9-4.2-3.3c-1.1-1.4-2-3.2-2.7-5.2s-1.1-4.3-1.4-6.9
					v-3c0.3-2.6,0.7-4.9,1.4-6.9s1.6-3.8,2.7-5.2c1.1-1.4,2.5-2.6,4.2-3.3c1.7-0.8,3.6-1.1,5.8-1.1s4.1,0.4,5.8,1.3
					c1.7,0.8,3.1,2.1,4.3,3.6c1.1,1.6,2,3.4,2.6,5.6C3271.9,6134.7,3272.2,6137.1,3272.2,6139.8z M3266.2,6140.5v-0.7
					c0-1.7-0.2-3.4-0.5-4.9s-0.8-2.9-1.5-4.1s-1.6-2.1-2.8-2.8c-1.2-0.7-2.6-1-4.3-1c-1.5,0-2.8,0.3-3.9,0.8c-1.1,0.5-2,1.2-2.8,2.1
					c-0.8,0.9-1.4,1.9-1.9,3c-0.5,1.1-0.8,2.3-1.1,3.4v7.8c0.3,1.5,0.9,2.9,1.7,4.3c0.8,1.4,1.8,2.5,3.2,3.4s3,1.3,4.9,1.3
					c1.6,0,3-0.3,4.1-1c1.1-0.7,2.1-1.6,2.8-2.7c0.7-1.2,1.3-2.5,1.6-4C3266.1,6143.8,3266.2,6142.2,3266.2,6140.5z"/>
				<path class="st7" d="M3279.8,6113.4c0-1,0.3-1.8,0.9-2.4c0.6-0.7,1.5-1,2.6-1c1.1,0,2,0.3,2.6,1s0.9,1.5,0.9,2.4
					c0,0.9-0.3,1.7-0.9,2.4c-0.6,0.7-1.5,1-2.6,1c-1.2,0-2-0.3-2.6-1C3280.1,6115.1,3279.8,6114.3,3279.8,6113.4z M3286.2,6122.6
					v34.9h-6v-34.9H3286.2z"/>
				<path class="st7" d="M3317.4,6136.4l0.1,4.2h-6c-1.7,0-3.2,0.1-4.5,0.4c-1.3,0.3-2.4,0.7-3.4,1.2s-1.6,1.2-2.1,2
					c-0.5,0.8-0.7,1.7-0.7,2.8c0,1.1,0.2,2.1,0.7,3c0.5,0.9,1.2,1.6,2.2,2.1s2.2,0.8,3.7,0.8c1.8,0,3.4-0.4,4.8-1.2
					c1.4-0.8,2.5-1.7,3.3-2.8c0.8-1.1,1.3-2.2,1.3-3.3l2.5,2.9c-0.2,0.9-0.6,1.9-1.2,3c-0.7,1.1-1.6,2.1-2.7,3.1
					c-1.1,1-2.4,1.8-3.9,2.5c-1.5,0.7-3.2,1-5.1,1c-2.4,0-4.4-0.5-6.2-1.4s-3.1-2.2-4.1-3.7c-1-1.6-1.5-3.3-1.5-5.2
					c0-1.9,0.4-3.5,1.1-4.9c0.7-1.4,1.8-2.6,3.2-3.6c1.4-1,3-1.7,5-2.2s4.1-0.7,6.5-0.7H3317.4z M3316.4,6151.5v-18
					c0-1.4-0.3-2.6-0.8-3.6c-0.5-1-1.4-1.8-2.5-2.4s-2.4-0.8-4.1-0.8c-1.5,0-2.8,0.3-3.9,0.8s-2,1.2-2.6,2c-0.6,0.8-1,1.7-1,2.7h-6
					c0-1.2,0.3-2.5,1-3.7s1.6-2.3,2.8-3.3c1.2-1,2.7-1.8,4.4-2.4s3.6-0.9,5.7-0.9c2.5,0,4.8,0.4,6.7,1.3c1.9,0.9,3.5,2.2,4.6,3.9
					c1.1,1.7,1.7,3.9,1.7,6.5v16.2c0,1.2,0.1,2.4,0.3,3.7c0.2,1.3,0.5,2.4,0.9,3.4v0.5h-6.2c-0.3-0.7-0.5-1.6-0.7-2.8
					C3316.5,6153.6,3316.4,6152.5,3316.4,6151.5z"/>
			</g>
		</g>
		<text transform="matrix(1 0 0 1 3340.0298 6142.5)" class="st3 st4 st5"> </text>
		<g class="st9">
			<text transform="matrix(1 0 0 1 2794.3999 5887.1465)" class="st10 st11 st12">‘</text>
			<text transform="matrix(-1 0 0 -1 3895.7012 5868)" class="st10 st11 st12">‘</text>
		</g>
	</g>
</g>
<g>
	<g>
		<g>
			<g>
				<path class="st7" d="M150.4,233.7L150.4,233.7L150.4,233.7L150.4,233.7L150.4,233.7L150.4,233.7L150.4,233.7L150.4,233.7
					L150.4,233.7L150.4,233.7L150.4,233.7L150.4,233.7L150.4,233.7L150.4,233.7L150.4,233.7L150.4,233.7L150.4,233.7L150.4,233.7
					L150.4,233.7L150.4,233.7L150.4,233.7L150.4,233.7L150.4,233.7L150.4,233.7L150.4,233.7L150.4,233.7L150.4,233.7L150.4,233.7
					L150.4,233.7L150.4,233.7L150.4,233.7L150.4,233.7L150.4,233.7c0.2,1.9,0.4,3.8,0.6,5.6c0.2,1.9,0.4,3.7,0.7,5.5s0.6,3.6,1,5.4
					s0.8,3.6,1.2,5.4c0.5,1.8,0.9,3.5,1.5,5.3c0.5,1.7,1.1,3.5,1.7,5.2s1.3,3.4,2,5c0.7,1.7,1.4,3.3,2.2,4.9s1.6,3.2,2.4,4.8
					c0.8,1.6,1.7,3.1,2.6,4.7c0.9,1.5,1.8,3,2.8,4.5s2,2.9,3,4.4c1,1.4,2.1,2.8,3.2,4.2c1.1,1.4,2.2,2.7,3.4,4.1s2.4,2.6,3.6,3.9
					s2.5,2.5,3.8,3.7s2.6,2.4,3.9,3.6s2.7,2.3,4.1,3.4s2.8,2.2,4.2,3.2s2.9,2,4.4,3s3,1.9,4.5,2.8s3.1,1.8,4.7,2.6s3.2,1.6,4.8,2.4
					s3.3,1.5,4.9,2.1c1.7,0.7,3.3,1.3,5.1,1.9c1.7,0.6,3.4,1.2,5.2,1.7c1.7,0.5,3.5,1,5.3,1.4s3.6,0.8,5.4,1.2
					c1.8,0.4,3.6,0.7,5.5,0.9c1.8,0.3,3.7,0.5,5.5,0.7c1.9,0.2,3.7,0.3,5.6,0.4s3.8,0.1,5.7,0.1c2,0,3.9-0.1,5.9-0.1
					c2-0.1,3.9-0.2,5.8-0.4c1.9-0.2,3.8-0.4,5.7-0.7c1.9-0.3,3.8-0.6,5.6-1c1.9-0.4,3.7-0.8,5.5-1.3s3.6-1,5.4-1.5
					c1.8-0.6,3.6-1.2,5.3-1.8s3.5-1.3,5.2-2.1c1.7-0.7,3.4-1.5,5.1-2.3s3.3-1.6,4.9-2.5s3.2-1.8,4.8-2.8c1.6-1,3.1-2,4.7-3
					c1.5-1,3-2.1,4.5-3.2s2.9-2.2,4.3-3.4c1.4-1.2,2.8-2.4,4.2-3.6c1.4-1.2,2.7-2.5,4-3.8s2.6-2.6,3.8-4c1.2-1.4,2.4-2.7,3.6-4.2
					s2.3-2.9,3.4-4.3c1.1-1.5,2.2-3,3.2-4.5s2-3.1,3-4.7s1.9-3.2,2.8-4.8s1.7-3.3,2.5-4.9s1.6-3.4,2.3-5.1c0.7-1.7,1.4-3.5,2.1-5.2
					c0.6-1.8,1.2-3.5,1.8-5.3c0.6-1.8,1.1-3.6,1.5-5.4c0.5-1.8,0.9-3.7,1.3-5.5c0.4-1.9,0.7-3.7,1-5.6s0.5-3.8,0.7-5.7
					s0.3-3.9,0.4-5.8c0.1-2,0.1-3.9,0.1-5.9s-0.1-3.9-0.1-5.9c-0.1-2-0.2-3.9-0.4-5.8c-0.2-1.9-0.4-3.8-0.7-5.7
					c-0.3-1.9-0.6-3.8-1-5.6c-0.4-1.9-0.8-3.7-1.3-5.5s-1-3.6-1.5-5.4c-0.6-1.8-1.2-3.6-1.8-5.3c-0.6-1.8-1.3-3.5-2.1-5.2
					c-0.7-1.7-1.5-3.4-2.3-5.1s-1.6-3.3-2.5-4.9s-1.8-3.2-2.8-4.8s-2-3.1-3-4.7c-1-1.5-2.1-3-3.2-4.5s-2.2-2.9-3.4-4.3
					c-1.2-1.4-2.4-2.8-3.6-4.2s-2.5-2.7-3.8-4s-2.6-2.6-4-3.8s-2.7-2.4-4.2-3.6c-1.4-1.2-2.9-2.3-4.3-3.4s-3-2.2-4.5-3.2
					s-3.1-2-4.7-3s-3.2-1.9-4.8-2.8c-1.6-0.9-3.3-1.7-4.9-2.5c-1.7-0.8-3.4-1.6-5.1-2.3c-1.7-0.7-3.5-1.4-5.2-2.1s-3.5-1.2-5.3-1.8
					c-1.8-0.6-3.6-1.1-5.4-1.5c-1.8-0.5-3.7-0.9-5.5-1.3c-1.9-0.4-3.7-0.7-5.6-1s-3.8-0.5-5.7-0.7c-1.9-0.2-3.9-0.3-5.8-0.4
					c-2-0.1-3.9-0.1-5.9-0.1c-0.1,0-0.2,0-0.2,0h-0.2c-0.1,0-0.2,0-0.2,0h-0.2h-0.2c-0.1,0-0.2,0-0.2,0c-0.1,0-0.2,0-0.2,0
					s-0.1,0-0.2,0s-0.1,0-0.2,0s-0.1,0-0.2,0s-0.1,0-0.2,0s-0.1,0-0.2,0s-0.1,0-0.2,0s-0.1,0-0.2,0s-0.1,0-0.2,0s-0.1,0-0.2,0
					s-0.1,0-0.2,0s-0.1,0-0.2,0s-0.1,0-0.2,0s-0.1,0-0.2,0s-0.1,0-0.2,0s-0.1,0-0.2,0s-0.1,0-0.2,0s-0.1,0-0.2,0s-0.1,0-0.2,0
					s-0.1,0-0.2,0s-0.1,0-0.2,0s-0.1,0-0.2,0s-0.1,0-0.2,0s-0.1,0-0.2,0s-0.1,0-0.2,0s-0.1,0-0.2,0v-2.2v-2.2v-2.2v-2.2v-2.2v-2.2
					v-2.2v-2.2v-2.2v-2.2v-2.2v-2.2v-2.2v-2.2v-2.2v-2.2v-2.2v-2.2v-2.2v-2.2v-2.2v-2.2v-2.2v-2.2v-2.2v-2.2v-2.2v-2.2v-2.2v-2.2
					v-2.2v-2.2c-1.3,0.8-2.6,1.7-3.9,2.7c-1.3,0.9-2.7,1.9-4,3c-1.4,1-2.7,2.1-4.1,3.2s-2.8,2.3-4.2,3.5s-2.9,2.5-4.3,3.8
					c-1.5,1.3-2.9,2.6-4.4,4c-1.5,1.4-3,2.8-4.4,4.3s-3,3-4.5,4.5s-3,3.1-4.5,4.7s-3,3.2-4.5,4.9c-1.5,1.7-3,3.4-4.5,5.1
					s-3,3.5-4.4,5.3c-1.5,1.8-2.9,3.6-4.4,5.5s-2.9,3.8-4.3,5.7c-1.4,1.9-2.8,3.9-4.2,5.9s-2.8,4-4.1,6c-1.4,2-2.7,4.1-4,6.2
					s-2.6,4.2-3.9,6.3c-1.3,2.1-2.5,4.3-3.7,6.5s-2.4,4.4-3.6,6.6s-2.3,4.5-3.4,6.7c-1.1,2.3-2.2,4.5-3.2,6.8s-2,4.6-3,6.9
					c-0.9,2.3-1.9,4.7-2.7,7c-0.9,2.4-1.7,4.7-2.5,7.1s-1.5,4.8-2.2,7.2s-1.3,4.8-1.9,7.2c-0.6,2.4-1.1,4.9-1.6,7.3
					s-0.9,4.9-1.3,7.3c-0.4,2.5-0.7,4.9-0.9,7.4s-0.4,4.9-0.6,7.4c-0.1,2.5-0.2,5-0.2,7.4c0,0.1,0,0.1,0,0.2s0,0.1,0,0.2
					s0,0.1,0,0.2s0,0.1,0,0.2s0,0.1,0,0.2s0,0.1,0,0.2s0,0.1,0,0.2s0,0.1,0,0.2s0,0.1,0,0.2s0,0.1,0,0.2s0,0.1,0,0.2s0,0.1,0,0.2
					s0,0.1,0,0.2s0,0.1,0,0.2s0,0.1,0,0.2s0,0.1,0,0.2s0,0.1,0,0.2s0,0.1,0,0.2s0,0.1,0,0.2s0,0.1,0,0.2s0,0.1,0,0.2s0,0.1,0,0.2
					s0,0.1,0,0.2s0,0.1,0,0.2s0,0.1,0,0.2s0,0.1,0,0.2s0,0.1,0,0.2s0,0.1,0,0.2s0,0.1,0,0.2s0,0.1,0,0.2s0,0.1,0,0.2
					C150.4,233.6,150.4,233.6,150.4,233.7z"/>
			</g>
			<g>
				<path class="st7" d="M1251.4,785.3L1251.4,785.3L1251.4,785.3L1251.4,785.3L1251.4,785.3L1251.4,785.3L1251.4,785.3
					L1251.4,785.3L1251.4,785.3L1251.4,785.3L1251.4,785.3L1251.4,785.3L1251.4,785.3L1251.4,785.3L1251.4,785.3L1251.4,785.3
					L1251.4,785.3L1251.4,785.3L1251.4,785.3L1251.4,785.3L1251.4,785.3L1251.4,785.3L1251.4,785.3L1251.4,785.3L1251.4,785.3
					L1251.4,785.3L1251.4,785.3L1251.4,785.3L1251.4,785.3L1251.4,785.3L1251.4,785.3L1251.4,785.3L1251.4,785.3
					c-0.2-1.9-0.4-3.8-0.6-5.6c-0.2-1.9-0.4-3.7-0.7-5.5s-0.6-3.6-1-5.4s-0.8-3.6-1.2-5.4c-0.5-1.8-0.9-3.5-1.5-5.3
					c-0.5-1.7-1.1-3.5-1.7-5.2s-1.3-3.4-2-5s-1.4-3.3-2.2-4.9s-1.6-3.2-2.4-4.8s-1.7-3.1-2.6-4.7c-0.9-1.5-1.8-3-2.8-4.5
					s-2-2.9-3-4.4c-1-1.4-2.1-2.8-3.2-4.2s-2.2-2.7-3.4-4.1s-2.4-2.6-3.6-3.9c-1.2-1.3-2.5-2.5-3.8-3.7s-2.6-2.4-3.9-3.6
					c-1.3-1.2-2.7-2.3-4.1-3.4s-2.8-2.2-4.2-3.2s-2.9-2-4.4-3s-3-1.9-4.5-2.8s-3.1-1.8-4.7-2.6s-3.2-1.6-4.8-2.4s-3.3-1.5-4.9-2.1
					c-1.7-0.7-3.3-1.3-5.1-1.9c-1.7-0.6-3.4-1.2-5.2-1.7c-1.7-0.5-3.5-1-5.3-1.4s-3.6-0.8-5.4-1.2s-3.6-0.7-5.5-0.9
					c-1.8-0.3-3.7-0.5-5.5-0.7c-1.9-0.2-3.7-0.3-5.6-0.4c-1.9-0.1-3.8-0.1-5.7-0.1c-2,0-3.9,0.1-5.9,0.1c-2,0.1-3.9,0.2-5.8,0.4
					s-3.8,0.4-5.7,0.7c-1.9,0.3-3.8,0.6-5.6,1c-1.9,0.4-3.7,0.8-5.5,1.3s-3.6,1-5.4,1.5c-1.8,0.6-3.6,1.2-5.3,1.8s-3.5,1.3-5.2,2.1
					c-1.7,0.7-3.4,1.5-5.1,2.3s-3.3,1.6-4.9,2.5s-3.2,1.8-4.8,2.8s-3.1,2-4.7,3c-1.5,1-3,2.1-4.5,3.2s-2.9,2.2-4.3,3.4
					s-2.8,2.4-4.2,3.6s-2.7,2.5-4,3.8s-2.6,2.6-3.8,4s-2.4,2.7-3.6,4.2c-1.2,1.4-2.3,2.9-3.4,4.3c-1.1,1.5-2.2,3-3.2,4.5
					s-2,3.1-3,4.7s-1.9,3.2-2.8,4.8s-1.7,3.3-2.5,4.9c-0.8,1.7-1.6,3.4-2.3,5.1s-1.4,3.5-2.1,5.2c-0.6,1.8-1.2,3.5-1.8,5.3
					s-1.1,3.6-1.5,5.4c-0.5,1.8-0.9,3.7-1.3,5.5c-0.4,1.9-0.7,3.7-1,5.6s-0.5,3.8-0.7,5.7s-0.3,3.9-0.4,5.8c-0.1,2-0.1,3.9-0.1,5.9
					s0.1,3.9,0.1,5.9c0.1,2,0.2,3.9,0.4,5.8s0.4,3.8,0.7,5.7c0.3,1.9,0.6,3.8,1,5.6c0.4,1.9,0.8,3.7,1.3,5.5s1,3.6,1.5,5.4
					c0.6,1.8,1.2,3.6,1.8,5.3c0.6,1.8,1.3,3.5,2.1,5.2c0.7,1.7,1.5,3.4,2.3,5.1s1.6,3.3,2.5,4.9s1.8,3.2,2.8,4.8s2,3.1,3,4.7
					s2.1,3,3.2,4.5s2.2,2.9,3.4,4.3s2.4,2.8,3.6,4.2s2.5,2.7,3.8,4s2.6,2.6,4,3.8s2.7,2.4,4.2,3.6c1.4,1.2,2.9,2.3,4.3,3.4
					s3,2.2,4.5,3.2s3.1,2,4.7,3s3.2,1.9,4.8,2.8s3.3,1.7,4.9,2.5c1.7,0.8,3.4,1.6,5.1,2.3s3.5,1.4,5.2,2.1s3.5,1.2,5.3,1.8
					s3.6,1.1,5.4,1.5c1.8,0.5,3.7,0.9,5.5,1.3c1.9,0.4,3.7,0.7,5.6,1s3.8,0.5,5.7,0.7s3.9,0.3,5.8,0.4c2,0.1,3.9,0.1,5.9,0.1
					c0.1,0,0.2,0,0.2,0c0.1,0,0.2,0,0.2,0h0.2h0.2c0.1,0,0.2,0,0.2,0c0.1,0,0.2,0,0.2,0c0.1,0,0.2,0,0.2,0c0.1,0,0.1,0,0.2,0
					s0.1,0,0.2,0s0.1,0,0.2,0s0.1,0,0.2,0s0.1,0,0.2,0s0.1,0,0.2,0s0.1,0,0.2,0s0.1,0,0.2,0s0.1,0,0.2,0s0.1,0,0.2,0s0.1,0,0.2,0
					s0.1,0,0.2,0s0.1,0,0.2,0s0.1,0,0.2,0s0.1,0,0.2,0s0.1,0,0.2,0s0.1,0,0.2,0s0.1,0,0.2,0s0.1,0,0.2,0s0.1,0,0.2,0s0.1,0,0.2,0
					s0.1,0,0.2,0s0.1,0,0.2,0s0.1,0,0.2,0s0.1,0,0.2,0v2.2v2.2v2.2v2.2v2.2v2.2v2.2v2.2v2.2v2.2v2.2v2.2v2.2v2.2v2.2v2.2v2.2v2.2
					v2.2v2.2v2.2v2.2v2.2v2.2v2.2v2.2v2.2v2.2v2.2v2.2v2.2v2.2c1.3-0.8,2.6-1.7,3.9-2.7c1.3-0.9,2.7-1.9,4-3s2.7-2.1,4.1-3.2
					s2.8-2.3,4.2-3.5s2.9-2.5,4.3-3.8c1.5-1.3,2.9-2.6,4.4-4s3-2.8,4.4-4.3c1.5-1.5,3-3,4.5-4.5s3-3.1,4.5-4.7s3-3.2,4.5-4.9
					s3-3.4,4.5-5.1c1.5-1.7,3-3.5,4.4-5.3c1.5-1.8,2.9-3.6,4.4-5.5s2.9-3.8,4.3-5.7s2.8-3.9,4.2-5.9s2.8-4,4.1-6
					c1.4-2,2.7-4.1,4-6.2s2.6-4.2,3.9-6.3s2.5-4.3,3.7-6.5s2.4-4.4,3.6-6.6c1.2-2.2,2.3-4.5,3.4-6.7c1.1-2.3,2.2-4.5,3.2-6.8
					s2-4.6,3-6.9c0.9-2.3,1.9-4.7,2.7-7c0.9-2.4,1.7-4.7,2.5-7.1s1.5-4.8,2.2-7.2s1.3-4.8,1.9-7.2s1.1-4.9,1.6-7.3s0.9-4.9,1.3-7.3
					c0.4-2.5,0.7-4.9,0.9-7.4s0.4-4.9,0.6-7.4c0.1-2.5,0.2-5,0.2-7.4c0-0.1,0-0.1,0-0.2s0-0.1,0-0.2s0-0.1,0-0.2s0-0.1,0-0.2
					s0-0.1,0-0.2s0-0.1,0-0.2s0-0.1,0-0.2s0-0.1,0-0.2s0-0.1,0-0.2s0-0.1,0-0.2s0-0.1,0-0.2s0-0.1,0-0.2s0-0.1,0-0.2s0-0.1,0-0.2
					s0-0.1,0-0.2s0-0.1,0-0.2s0-0.1,0-0.2s0-0.1,0-0.2s0-0.1,0-0.2s0-0.1,0-0.2s0-0.1,0-0.2s0-0.1,0-0.2s0-0.1,0-0.2s0-0.1,0-0.2
					s0-0.1,0-0.2s0-0.1,0-0.2s0-0.1,0-0.2s0-0.1,0-0.2s0-0.1,0-0.2s0-0.1,0-0.2s0-0.1,0-0.2C1251.4,785.4,1251.4,785.4,1251.4,785.3
					z"/>
			</g>
		</g>
	</g>
</g>
<g>
	<g>
		<path class="st7" d="M312,336.9v4.4l-1,11.5h-3.6v-11.2v-4.7H312z M320.7,336.9v4.4l-1,11.5h-3.6v-11.4v-4.4H320.7z"/>
		<path class="st7" d="M335.8,339.5v46.9h-6.2v-46.9H335.8z M358.1,381.3v5.1h-23.5v-5.1H358.1z"/>
		<path class="st7" d="M362.7,369.4v-0.7c0-2.5,0.4-4.9,1.1-7c0.7-2.2,1.8-4,3.2-5.6c1.4-1.6,3-2.8,5-3.7c2-0.9,4.1-1.3,6.6-1.3
			c2.4,0,4.7,0.4,6.6,1.3c2,0.9,3.6,2.1,5,3.7c1.4,1.6,2.4,3.5,3.2,5.6c0.7,2.2,1.1,4.5,1.1,7v0.7c0,2.5-0.4,4.8-1.1,7
			c-0.7,2.1-1.8,4-3.2,5.6c-1.4,1.6-3.1,2.8-5,3.7c-1.9,0.9-4.1,1.3-6.6,1.3s-4.7-0.4-6.6-1.3c-2-0.9-3.6-2.1-5-3.7
			c-1.4-1.6-2.4-3.5-3.2-5.6C363,374.2,362.7,371.9,362.7,369.4z M368.6,368.6v0.7c0,1.7,0.2,3.4,0.6,4.9c0.4,1.5,1,2.9,1.9,4.1
			c0.8,1.2,1.9,2.1,3.1,2.8c1.2,0.7,2.7,1,4.4,1c1.6,0,3.1-0.3,4.3-1c1.2-0.7,2.3-1.6,3.1-2.8c0.8-1.2,1.4-2.5,1.9-4.1
			c0.4-1.5,0.6-3.2,0.6-4.9v-0.7c0-1.7-0.2-3.3-0.6-4.9c-0.4-1.5-1-2.9-1.9-4.1c-0.8-1.2-1.9-2.1-3.1-2.8c-1.2-0.7-2.7-1-4.3-1
			c-1.6,0-3.1,0.3-4.3,1c-1.2,0.7-2.3,1.6-3.1,2.8c-0.8,1.2-1.4,2.6-1.9,4.1C368.8,365.3,368.6,366.9,368.6,368.6z"/>
		<path class="st7" d="M422.2,377.2c0-0.9-0.2-1.7-0.6-2.4c-0.4-0.7-1.1-1.4-2.3-2c-1.1-0.6-2.9-1.1-5.2-1.6
			c-1.9-0.4-3.7-0.9-5.2-1.5c-1.6-0.6-2.9-1.2-4-2c-1.1-0.8-1.9-1.7-2.5-2.8c-0.6-1.1-0.9-2.3-0.9-3.8c0-1.4,0.3-2.7,0.9-3.9
			s1.5-2.3,2.6-3.3c1.1-0.9,2.5-1.7,4.1-2.2c1.6-0.5,3.4-0.8,5.3-0.8c2.8,0,5.2,0.5,7.2,1.5c2,1,3.5,2.3,4.5,3.9
			c1.1,1.6,1.6,3.5,1.6,5.5h-6c0-1-0.3-1.9-0.9-2.8c-0.6-0.9-1.4-1.7-2.5-2.3c-1.1-0.6-2.4-0.9-4-0.9c-1.7,0-3,0.3-4,0.8
			c-1,0.5-1.8,1.1-2.2,1.9c-0.5,0.8-0.7,1.6-0.7,2.4c0,0.6,0.1,1.2,0.3,1.7c0.2,0.5,0.6,1,1.2,1.4s1.4,0.8,2.4,1.2
			c1.1,0.4,2.4,0.7,4,1.1c2.9,0.6,5.2,1.4,7.1,2.3c1.8,0.9,3.2,2,4.1,3.3c0.9,1.3,1.4,2.9,1.4,4.8c0,1.5-0.3,2.9-1,4.2
			c-0.6,1.3-1.5,2.4-2.7,3.3c-1.2,0.9-2.6,1.6-4.3,2.1s-3.5,0.8-5.5,0.8c-3.1,0-5.7-0.5-7.8-1.6s-3.7-2.5-4.8-4.3s-1.6-3.6-1.6-5.5
			h6c0.1,1.6,0.6,2.9,1.4,3.9c0.9,1,1.9,1.6,3.2,2c1.2,0.4,2.5,0.6,3.7,0.6c1.6,0,3-0.2,4.1-0.6c1.1-0.4,1.9-1,2.5-1.8
			C421.9,379,422.2,378.1,422.2,377.2z"/>
		<path class="st7" d="M458.3,358.2v41.6h-6v-48.3h5.5L458.3,358.2z M481.8,368.7v0.7c0,2.5-0.3,4.9-0.9,7c-0.6,2.2-1.5,4-2.6,5.6
			c-1.1,1.6-2.6,2.8-4.2,3.7s-3.6,1.3-5.8,1.3c-2.2,0-4.2-0.4-5.9-1.1c-1.7-0.7-3.1-1.8-4.3-3.2c-1.2-1.4-2.1-3.1-2.8-5
			c-0.7-2-1.2-4.2-1.4-6.6v-3.6c0.3-2.6,0.7-4.9,1.5-6.9c0.7-2,1.6-3.8,2.8-5.2c1.2-1.5,2.6-2.6,4.3-3.3c1.7-0.8,3.6-1.1,5.8-1.1
			s4.1,0.4,5.8,1.3c1.7,0.8,3.1,2.1,4.3,3.6c1.2,1.6,2,3.4,2.6,5.6C481.5,363.6,481.8,366,481.8,368.7z M475.8,369.4v-0.7
			c0-1.7-0.2-3.4-0.5-4.9c-0.4-1.5-0.9-2.9-1.7-4.1c-0.8-1.2-1.7-2.1-2.9-2.8c-1.2-0.7-2.6-1-4.2-1c-1.5,0-2.8,0.3-3.9,0.8
			c-1.1,0.5-2,1.2-2.8,2.1s-1.4,1.9-1.9,3c-0.5,1.1-0.8,2.3-1.1,3.4v8.3c0.4,1.5,1,2.9,1.8,4.2s1.8,2.4,3.1,3.2s2.9,1.2,4.9,1.2
			c1.6,0,3-0.3,4.2-1c1.2-0.7,2.1-1.6,2.9-2.8c0.8-1.2,1.3-2.5,1.7-4.1C475.6,372.7,475.8,371.1,475.8,369.4z"/>
		<path class="st7" d="M495.3,357v29.4h-6v-34.9h5.8L495.3,357z M506.2,351.3l0,5.5c-0.5-0.1-1-0.2-1.4-0.2c-0.4,0-0.9,0-1.5,0
			c-1.4,0-2.6,0.2-3.6,0.6c-1.1,0.4-1.9,1-2.7,1.8c-0.7,0.8-1.3,1.7-1.7,2.8s-0.7,2.2-0.8,3.5l-1.7,1c0-2.1,0.2-4.1,0.6-5.9
			c0.4-1.8,1.1-3.5,1.9-4.9c0.9-1.4,2-2.5,3.4-3.4c1.4-0.8,3-1.2,4.9-1.2c0.4,0,0.9,0,1.5,0.1C505.6,351.1,506,351.2,506.2,351.3z"
			/>
		<path class="st7" d="M526.2,387c-2.4,0-4.6-0.4-6.6-1.2s-3.7-2-5.1-3.5c-1.4-1.5-2.5-3.3-3.2-5.3c-0.8-2.1-1.1-4.3-1.1-6.8v-1.4
			c0-2.8,0.4-5.4,1.3-7.6s2-4.1,3.4-5.7c1.4-1.5,3.1-2.7,4.9-3.5c1.8-0.8,3.7-1.2,5.7-1.2c2.5,0,4.6,0.4,6.5,1.3
			c1.8,0.9,3.3,2.1,4.5,3.6c1.2,1.5,2,3.3,2.6,5.4c0.6,2.1,0.8,4.3,0.8,6.8v2.7h-26v-4.9h20.1v-0.5c-0.1-1.5-0.4-3.1-1-4.5
			c-0.5-1.5-1.4-2.7-2.6-3.6c-1.2-0.9-2.8-1.4-4.8-1.4c-1.4,0-2.6,0.3-3.7,0.9c-1.1,0.6-2.1,1.4-2.9,2.5c-0.8,1.1-1.5,2.5-1.9,4.1
			s-0.7,3.5-0.7,5.6v1.4c0,1.7,0.2,3.2,0.7,4.7c0.5,1.5,1.1,2.7,2,3.8c0.9,1.1,2,2,3.3,2.6c1.3,0.6,2.7,0.9,4.4,0.9
			c2.1,0,3.9-0.4,5.3-1.3c1.5-0.9,2.7-2,3.8-3.4l3.6,2.9c-0.8,1.1-1.7,2.2-2.9,3.3s-2.6,1.9-4.3,2.5
			C530.5,386.7,528.5,387,526.2,387z"/>
		<path class="st7" d="M560.7,382.1c1.4,0,2.7-0.3,3.9-0.9c1.2-0.6,2.2-1.4,3-2.4c0.8-1,1.2-2.2,1.3-3.5h5.7c-0.1,2.1-0.8,4-2.1,5.8
			c-1.3,1.8-2.9,3.2-5,4.3s-4.3,1.6-6.8,1.6c-2.6,0-4.9-0.5-6.8-1.4c-1.9-0.9-3.6-2.2-4.8-3.8c-1.3-1.6-2.2-3.5-2.9-5.6
			c-0.6-2.1-1-4.3-1-6.7v-1.4c0-2.3,0.3-4.6,1-6.7c0.6-2.1,1.6-3.9,2.9-5.6c1.3-1.6,2.9-2.9,4.8-3.8c1.9-0.9,4.2-1.4,6.8-1.4
			c2.7,0,5.1,0.6,7.2,1.7c2,1.1,3.6,2.6,4.8,4.5c1.2,1.9,1.8,4.1,1.9,6.5h-5.7c-0.1-1.4-0.5-2.7-1.2-3.9c-0.7-1.2-1.6-2.1-2.8-2.8
			c-1.2-0.7-2.6-1-4.2-1c-1.8,0-3.4,0.4-4.6,1.1c-1.2,0.7-2.2,1.7-2.9,2.9c-0.7,1.2-1.2,2.6-1.5,4c-0.3,1.5-0.5,3-0.5,4.5v1.4
			c0,1.5,0.1,3,0.5,4.5c0.3,1.5,0.8,2.8,1.5,4c0.7,1.2,1.7,2.2,2.9,2.9C557.3,381.8,558.9,382.1,560.7,382.1z"/>
		<path class="st7" d="M581.3,342.3c0-1,0.3-1.8,0.9-2.4c0.6-0.7,1.5-1,2.6-1c1.1,0,2,0.3,2.6,1c0.6,0.7,0.9,1.5,0.9,2.4
			c0,0.9-0.3,1.7-0.9,2.4c-0.6,0.7-1.5,1-2.6,1c-1.2,0-2-0.3-2.6-1C581.6,344,581.3,343.2,581.3,342.3z M587.8,351.5v34.9h-6v-34.9
			H587.8z"/>
		<path class="st7" d="M595.8,369.4v-0.7c0-2.5,0.4-4.9,1.1-7s1.8-4,3.2-5.6c1.4-1.6,3-2.8,5-3.7c2-0.9,4.1-1.3,6.6-1.3
			c2.4,0,4.7,0.4,6.6,1.3c2,0.9,3.6,2.1,5,3.7c1.4,1.6,2.4,3.5,3.2,5.6s1.1,4.5,1.1,7v0.7c0,2.5-0.4,4.8-1.1,7
			c-0.7,2.1-1.8,4-3.2,5.6c-1.4,1.6-3.1,2.8-5,3.7c-1.9,0.9-4.1,1.3-6.6,1.3s-4.7-0.4-6.6-1.3s-3.6-2.1-5-3.7
			c-1.4-1.6-2.4-3.5-3.2-5.6C596.1,374.2,595.8,371.9,595.8,369.4z M601.7,368.6v0.7c0,1.7,0.2,3.4,0.6,4.9c0.4,1.5,1,2.9,1.9,4.1
			c0.8,1.2,1.9,2.1,3.1,2.8s2.7,1,4.4,1c1.6,0,3.1-0.3,4.3-1s2.3-1.6,3.1-2.8c0.8-1.2,1.4-2.5,1.9-4.1c0.4-1.5,0.6-3.2,0.6-4.9v-0.7
			c0-1.7-0.2-3.3-0.6-4.9c-0.4-1.5-1-2.9-1.9-4.1c-0.8-1.2-1.9-2.1-3.1-2.8c-1.2-0.7-2.7-1-4.3-1c-1.6,0-3.1,0.3-4.3,1
			c-1.2,0.7-2.3,1.6-3.1,2.8c-0.8,1.2-1.4,2.6-1.9,4.1C601.9,365.3,601.7,366.9,601.7,368.6z"/>
		<path class="st7" d="M655.3,377.2c0-0.9-0.2-1.7-0.6-2.4c-0.4-0.7-1.1-1.4-2.3-2s-2.9-1.1-5.2-1.6c-1.9-0.4-3.7-0.9-5.2-1.5
			c-1.6-0.6-2.9-1.2-4-2c-1.1-0.8-1.9-1.7-2.5-2.8c-0.6-1.1-0.9-2.3-0.9-3.8c0-1.4,0.3-2.7,0.9-3.9c0.6-1.2,1.5-2.3,2.6-3.3
			c1.1-0.9,2.5-1.7,4.1-2.2c1.6-0.5,3.4-0.8,5.3-0.8c2.8,0,5.2,0.5,7.2,1.5c2,1,3.5,2.3,4.5,3.9s1.6,3.5,1.6,5.5h-6
			c0-1-0.3-1.9-0.9-2.8c-0.6-0.9-1.4-1.7-2.5-2.3c-1.1-0.6-2.4-0.9-4-0.9c-1.7,0-3,0.3-4,0.8c-1,0.5-1.8,1.1-2.2,1.9
			c-0.5,0.8-0.7,1.6-0.7,2.4c0,0.6,0.1,1.2,0.3,1.7c0.2,0.5,0.6,1,1.2,1.4s1.4,0.8,2.4,1.2c1.1,0.4,2.4,0.7,4,1.1
			c2.9,0.6,5.2,1.4,7.1,2.3s3.2,2,4.1,3.3c0.9,1.3,1.4,2.9,1.4,4.8c0,1.5-0.3,2.9-1,4.2c-0.6,1.3-1.5,2.4-2.7,3.3
			c-1.2,0.9-2.6,1.6-4.3,2.1c-1.6,0.5-3.5,0.8-5.5,0.8c-3.1,0-5.7-0.5-7.8-1.6s-3.7-2.5-4.8-4.3s-1.6-3.6-1.6-5.5h6
			c0.1,1.6,0.6,2.9,1.4,3.9c0.9,1,1.9,1.6,3.2,2c1.2,0.4,2.5,0.6,3.7,0.6c1.6,0,3-0.2,4.1-0.6c1.1-0.4,1.9-1,2.5-1.8
			C655,379,655.3,378.1,655.3,377.2z"/>
		<path class="st7" d="M705.7,377.2c0-0.9-0.2-1.7-0.6-2.4c-0.4-0.7-1.1-1.4-2.3-2s-2.9-1.1-5.2-1.6c-1.9-0.4-3.7-0.9-5.2-1.5
			c-1.6-0.6-2.9-1.2-4-2c-1.1-0.8-1.9-1.7-2.5-2.8c-0.6-1.1-0.9-2.3-0.9-3.8c0-1.4,0.3-2.7,0.9-3.9c0.6-1.2,1.5-2.3,2.6-3.3
			c1.1-0.9,2.5-1.7,4.1-2.2c1.6-0.5,3.4-0.8,5.3-0.8c2.8,0,5.2,0.5,7.2,1.5c2,1,3.5,2.3,4.5,3.9s1.6,3.5,1.6,5.5h-6
			c0-1-0.3-1.9-0.9-2.8c-0.6-0.9-1.4-1.7-2.5-2.3c-1.1-0.6-2.4-0.9-4-0.9c-1.7,0-3,0.3-4,0.8c-1,0.5-1.8,1.1-2.2,1.9
			c-0.5,0.8-0.7,1.6-0.7,2.4c0,0.6,0.1,1.2,0.3,1.7c0.2,0.5,0.6,1,1.2,1.4s1.4,0.8,2.4,1.2c1.1,0.4,2.4,0.7,4,1.1
			c2.9,0.6,5.2,1.4,7.1,2.3s3.2,2,4.1,3.3c0.9,1.3,1.4,2.9,1.4,4.8c0,1.5-0.3,2.9-1,4.2c-0.6,1.3-1.5,2.4-2.7,3.3
			c-1.2,0.9-2.6,1.6-4.3,2.1c-1.6,0.5-3.5,0.8-5.5,0.8c-3.1,0-5.7-0.5-7.8-1.6s-3.7-2.5-4.8-4.3s-1.6-3.6-1.6-5.5h6
			c0.1,1.6,0.6,2.9,1.4,3.9c0.9,1,1.9,1.6,3.2,2c1.2,0.4,2.5,0.6,3.7,0.6c1.6,0,3-0.2,4.1-0.6c1.1-0.4,1.9-1,2.5-1.8
			C705.4,379,705.7,378.1,705.7,377.2z"/>
		<path class="st7" d="M717.9,369.4v-0.7c0-2.5,0.4-4.9,1.1-7s1.8-4,3.2-5.6c1.4-1.6,3-2.8,5-3.7c2-0.9,4.1-1.3,6.6-1.3
			c2.4,0,4.7,0.4,6.6,1.3c2,0.9,3.6,2.1,5,3.7c1.4,1.6,2.4,3.5,3.2,5.6s1.1,4.5,1.1,7v0.7c0,2.5-0.4,4.8-1.1,7
			c-0.7,2.1-1.8,4-3.2,5.6c-1.4,1.6-3.1,2.8-5,3.7c-1.9,0.9-4.1,1.3-6.6,1.3s-4.7-0.4-6.6-1.3s-3.6-2.1-5-3.7
			c-1.4-1.6-2.4-3.5-3.2-5.6C718.3,374.2,717.9,371.9,717.9,369.4z M723.9,368.6v0.7c0,1.7,0.2,3.4,0.6,4.9c0.4,1.5,1,2.9,1.9,4.1
			c0.8,1.2,1.9,2.1,3.1,2.8s2.7,1,4.4,1c1.6,0,3.1-0.3,4.3-1s2.3-1.6,3.1-2.8c0.8-1.2,1.4-2.5,1.9-4.1c0.4-1.5,0.6-3.2,0.6-4.9v-0.7
			c0-1.7-0.2-3.3-0.6-4.9c-0.4-1.5-1-2.9-1.9-4.1c-0.8-1.2-1.9-2.1-3.1-2.8c-1.2-0.7-2.7-1-4.3-1c-1.6,0-3.1,0.3-4.3,1
			c-1.2,0.7-2.3,1.6-3.1,2.8c-0.8,1.2-1.4,2.6-1.9,4.1C724.1,365.3,723.9,366.9,723.9,368.6z"/>
		<path class="st7" d="M763.1,359v27.4h-6v-34.9h5.6L763.1,359z M761.7,367.6l-2.5-0.1c0-2.4,0.4-4.6,1.1-6.6s1.7-3.8,2.9-5.3
			c1.2-1.5,2.7-2.7,4.5-3.5c1.7-0.8,3.6-1.2,5.8-1.2c1.7,0,3.3,0.2,4.6,0.7c1.4,0.5,2.6,1.2,3.5,2.2c1,1,1.7,2.3,2.2,3.9
			c0.5,1.6,0.8,3.6,0.8,5.8v22.8h-6v-22.9c0-1.8-0.3-3.3-0.8-4.4c-0.5-1.1-1.3-1.9-2.4-2.4c-1-0.5-2.3-0.8-3.8-0.8
			c-1.5,0-2.8,0.3-4,0.9c-1.2,0.6-2.3,1.5-3.1,2.6c-0.9,1.1-1.5,2.3-2,3.8C761.9,364.6,761.7,366.1,761.7,367.6z"/>
		<path class="st7" d="M815.9,358.5v27.9h-6v-34.9h5.7L815.9,358.5z M814.6,367.6l-2.8-0.1c0-2.4,0.3-4.6,0.9-6.6s1.5-3.8,2.7-5.3
			c1.2-1.5,2.7-2.7,4.4-3.5c1.8-0.8,3.8-1.2,6.1-1.2c1.6,0,3.1,0.2,4.5,0.7c1.4,0.5,2.6,1.2,3.6,2.2c1,1,1.8,2.3,2.4,3.8
			s0.8,3.4,0.8,5.6v23.2h-6v-22.9c0-1.8-0.3-3.3-0.9-4.4c-0.6-1.1-1.5-1.9-2.6-2.4c-1.1-0.5-2.4-0.8-3.9-0.8c-1.8,0-3.2,0.3-4.4,0.9
			c-1.2,0.6-2.1,1.5-2.8,2.6s-1.2,2.3-1.5,3.8C814.8,364.6,814.6,366.1,814.6,367.6z M837.2,364.4l-4,1.2c0-1.9,0.3-3.7,1-5.5
			c0.6-1.8,1.5-3.3,2.7-4.7c1.2-1.4,2.6-2.5,4.3-3.3s3.7-1.2,5.9-1.2c1.9,0,3.5,0.2,5,0.7c1.5,0.5,2.7,1.3,3.7,2.3
			c1,1,1.8,2.3,2.3,3.9c0.5,1.6,0.8,3.5,0.8,5.7v22.9h-6v-23c0-2-0.3-3.5-0.9-4.6c-0.6-1.1-1.5-1.8-2.6-2.3
			c-1.1-0.4-2.4-0.7-3.9-0.7c-1.3,0-2.5,0.2-3.5,0.7s-1.9,1.1-2.5,1.9c-0.7,0.8-1.2,1.7-1.6,2.7
			C837.4,362.1,837.2,363.2,837.2,364.4z"/>
		<path class="st7" d="M890.3,371l2.5-0.1c0,2.3-0.2,4.5-0.7,6.4c-0.5,2-1.3,3.7-2.3,5.1c-1.1,1.4-2.5,2.6-4.2,3.4s-3.9,1.2-6.3,1.2
			c-1.7,0-3.2-0.2-4.7-0.7c-1.4-0.5-2.6-1.3-3.6-2.3s-1.8-2.4-2.3-4c-0.5-1.7-0.8-3.6-0.8-6v-22.5h6v22.6c0,1.6,0.2,2.9,0.5,3.9
			c0.4,1,0.8,1.8,1.5,2.4c0.6,0.6,1.3,1,2.1,1.2c0.8,0.2,1.6,0.4,2.4,0.4c2.5,0,4.5-0.5,6-1.5c1.5-1,2.6-2.3,3.2-4
			C890,374.9,890.3,373,890.3,371z M889.2,378.3v-26.8h6v34.9h-5.7L889.2,378.3z"/>
		<path class="st7" d="M906.9,351.5l9.1,27.1l1.5,6.3l-4.3,2.2l-12.8-35.5H906.9z M914,382.8l9.7-31.3h6.4l-14,40.3
			c-0.3,0.9-0.7,1.8-1.3,2.8s-1.2,1.9-2,2.9s-1.8,1.6-2.9,2.2c-1.1,0.6-2.5,0.9-4.1,0.9c-0.5,0-1.1-0.1-1.8-0.2s-1.2-0.2-1.5-0.3
			l0-4.8c0.2,0,0.4,0,0.8,0.1c0.4,0,0.6,0,0.8,0c1.4,0,2.5-0.2,3.4-0.5s1.7-0.9,2.4-1.8c0.7-0.8,1.2-2,1.7-3.4L914,382.8z"/>
		<path class="st7" d="M957.8,357v29.4h-6v-34.9h5.8L957.8,357z M968.7,351.3l0,5.5c-0.5-0.1-1-0.2-1.4-0.2c-0.4,0-0.9,0-1.5,0
			c-1.4,0-2.6,0.2-3.6,0.6c-1.1,0.4-1.9,1-2.7,1.8s-1.3,1.7-1.7,2.8c-0.4,1.1-0.7,2.2-0.8,3.5l-1.7,1c0-2.1,0.2-4.1,0.6-5.9
			c0.4-1.8,1.1-3.5,1.9-4.9c0.9-1.4,2-2.5,3.4-3.4s3-1.2,4.9-1.2c0.4,0,0.9,0,1.5,0.1S968.4,351.2,968.7,351.3z"/>
		<path class="st7" d="M995.8,365.3l0.1,4.2h-6c-1.7,0-3.2,0.1-4.5,0.4c-1.3,0.3-2.4,0.7-3.4,1.2c-0.9,0.5-1.6,1.2-2.1,2
			s-0.7,1.7-0.7,2.8c0,1.1,0.2,2.1,0.7,3s1.2,1.6,2.2,2.1c1,0.5,2.2,0.8,3.7,0.8c1.8,0,3.4-0.4,4.8-1.2s2.5-1.7,3.3-2.8
			c0.8-1.1,1.3-2.2,1.3-3.3l2.5,2.9c-0.2,0.9-0.6,1.9-1.2,3s-1.6,2.1-2.7,3.1c-1.1,1-2.4,1.8-3.9,2.5c-1.5,0.7-3.2,1-5.1,1
			c-2.4,0-4.4-0.5-6.2-1.4c-1.8-0.9-3.1-2.2-4.1-3.7c-1-1.6-1.5-3.3-1.5-5.2c0-1.9,0.4-3.5,1.1-4.9c0.7-1.4,1.8-2.6,3.2-3.6
			c1.4-1,3-1.7,5-2.2c1.9-0.5,4.1-0.7,6.5-0.7H995.8z M994.7,380.4v-18c0-1.4-0.3-2.6-0.8-3.6c-0.5-1-1.4-1.8-2.5-2.4
			c-1.1-0.6-2.4-0.8-4.1-0.8c-1.5,0-2.8,0.3-3.9,0.8c-1.1,0.5-2,1.2-2.6,2s-1,1.7-1,2.7h-6c0-1.2,0.3-2.5,1-3.7s1.6-2.3,2.8-3.3
			s2.7-1.8,4.4-2.4c1.7-0.6,3.6-0.9,5.7-0.9c2.5,0,4.8,0.4,6.7,1.3c1.9,0.9,3.5,2.2,4.6,3.9c1.1,1.7,1.7,3.9,1.7,6.5v16.2
			c0,1.2,0.1,2.4,0.3,3.7c0.2,1.3,0.5,2.4,0.9,3.4v0.5h-6.2c-0.3-0.7-0.5-1.6-0.7-2.8C994.8,382.5,994.7,381.4,994.7,380.4z"/>
		<path class="st7" d="M1022.5,364v4.9h-15.7V364H1022.5z"/>
		<path class="st7" d="M332.6,435l-23.1,30.6h-3.6v-4.4l22.9-30.5h3.8V435z M330,430.7v4.9h-23.8v-4.9H330z M333.5,460.7v4.9h-25.4
			v-4.9H333.5z"/>
		<path class="st7" d="M338.7,448.6v-0.7c0-2.5,0.4-4.9,1.1-7c0.7-2.2,1.8-4,3.2-5.6c1.4-1.6,3-2.8,5-3.7c2-0.9,4.1-1.3,6.6-1.3
			c2.4,0,4.7,0.4,6.6,1.3c2,0.9,3.6,2.1,5,3.7c1.4,1.6,2.4,3.5,3.2,5.6c0.7,2.2,1.1,4.5,1.1,7v0.7c0,2.5-0.4,4.8-1.1,7
			c-0.7,2.1-1.8,4-3.2,5.6c-1.4,1.6-3.1,2.8-5,3.7c-1.9,0.9-4.1,1.3-6.6,1.3s-4.7-0.4-6.6-1.3c-2-0.9-3.6-2.1-5-3.7
			c-1.4-1.6-2.4-3.5-3.2-5.6C339.1,453.4,338.7,451.1,338.7,448.6z M344.7,447.8v0.7c0,1.7,0.2,3.4,0.6,4.9c0.4,1.5,1,2.9,1.9,4.1
			c0.8,1.2,1.9,2.1,3.1,2.8c1.2,0.7,2.7,1,4.4,1c1.6,0,3.1-0.3,4.3-1c1.2-0.7,2.3-1.6,3.1-2.8c0.8-1.2,1.4-2.5,1.9-4.1
			c0.4-1.5,0.6-3.2,0.6-4.9v-0.7c0-1.7-0.2-3.3-0.6-4.9c-0.4-1.5-1-2.9-1.9-4.1c-0.8-1.2-1.9-2.1-3.1-2.8c-1.2-0.7-2.7-1-4.3-1
			c-1.6,0-3.1,0.3-4.3,1c-1.2,0.7-2.3,1.6-3.1,2.8c-0.8,1.2-1.4,2.6-1.9,4.1C344.9,444.5,344.7,446.1,344.7,447.8z"/>
		<path class="st7" d="M383.9,438.2v27.4h-6v-34.9h5.6L383.9,438.2z M382.5,446.8l-2.5-0.1c0-2.4,0.4-4.6,1.1-6.6
			c0.7-2,1.7-3.8,2.9-5.3c1.2-1.5,2.7-2.7,4.5-3.5c1.7-0.8,3.6-1.2,5.8-1.2c1.7,0,3.3,0.2,4.6,0.7c1.4,0.5,2.6,1.2,3.5,2.2
			c1,1,1.7,2.3,2.2,3.9c0.5,1.6,0.8,3.6,0.8,5.8v22.8h-6v-22.9c0-1.8-0.3-3.3-0.8-4.4c-0.5-1.1-1.3-1.9-2.4-2.4
			c-1-0.5-2.3-0.8-3.8-0.8c-1.5,0-2.8,0.3-4,0.9c-1.2,0.6-2.3,1.5-3.1,2.6s-1.5,2.3-2,3.8C382.7,443.8,382.5,445.3,382.5,446.8z"/>
		<path class="st7" d="M436,444.5l0.1,4.2h-6c-1.7,0-3.2,0.1-4.5,0.4c-1.3,0.3-2.4,0.7-3.4,1.2c-0.9,0.5-1.6,1.2-2.1,2
			c-0.5,0.8-0.7,1.7-0.7,2.8c0,1.1,0.2,2.1,0.7,3c0.5,0.9,1.2,1.6,2.2,2.1c1,0.5,2.2,0.8,3.7,0.8c1.8,0,3.4-0.4,4.8-1.2
			c1.4-0.8,2.5-1.7,3.3-2.8c0.8-1.1,1.3-2.2,1.3-3.3l2.5,2.9c-0.2,0.9-0.6,1.9-1.2,3c-0.7,1.1-1.6,2.1-2.7,3.1
			c-1.1,1-2.4,1.8-3.9,2.5s-3.2,1-5.1,1c-2.4,0-4.4-0.5-6.2-1.4s-3.1-2.2-4.1-3.7c-1-1.6-1.5-3.3-1.5-5.2c0-1.9,0.4-3.5,1.1-4.9
			c0.7-1.4,1.8-2.6,3.2-3.6c1.4-1,3-1.7,5-2.2c1.9-0.5,4.1-0.7,6.5-0.7H436z M435,459.6v-18c0-1.4-0.3-2.6-0.8-3.6
			c-0.5-1-1.4-1.8-2.5-2.4c-1.1-0.6-2.4-0.8-4.1-0.8c-1.5,0-2.8,0.3-3.9,0.8s-2,1.2-2.6,2c-0.6,0.8-1,1.7-1,2.7h-6
			c0-1.2,0.3-2.5,1-3.7s1.6-2.3,2.8-3.3c1.2-1,2.7-1.8,4.4-2.4c1.7-0.6,3.6-0.9,5.7-0.9c2.5,0,4.8,0.4,6.7,1.3
			c1.9,0.9,3.5,2.2,4.6,3.9c1.1,1.7,1.7,3.9,1.7,6.5V458c0,1.2,0.1,2.4,0.3,3.7c0.2,1.3,0.5,2.4,0.9,3.4v0.5h-6.2
			c-0.3-0.7-0.5-1.6-0.7-2.8C435,461.7,435,460.6,435,459.6z"/>
		<path class="st7" d="M450.3,416.1h6v42.7l-0.5,6.8h-5.5V416.1z M479.8,447.9v0.7c0,2.5-0.3,4.9-0.9,7c-0.6,2.2-1.5,4-2.6,5.6
			c-1.2,1.6-2.6,2.8-4.3,3.7s-3.6,1.3-5.8,1.3c-2.2,0-4.2-0.4-5.8-1.1c-1.7-0.8-3.1-1.9-4.2-3.3c-1.1-1.4-2-3.2-2.7-5.2
			c-0.7-2-1.1-4.3-1.4-6.9v-3c0.3-2.6,0.7-4.9,1.4-6.9c0.7-2,1.6-3.8,2.7-5.2c1.1-1.5,2.5-2.6,4.2-3.3c1.7-0.8,3.6-1.1,5.8-1.1
			s4.1,0.4,5.8,1.3c1.7,0.8,3.1,2.1,4.3,3.6c1.1,1.6,2,3.4,2.6,5.6C479.5,442.8,479.8,445.2,479.8,447.9z M473.8,448.6v-0.7
			c0-1.7-0.2-3.4-0.5-4.9c-0.3-1.5-0.8-2.9-1.5-4.1c-0.7-1.2-1.6-2.1-2.8-2.8s-2.6-1-4.3-1c-1.5,0-2.8,0.3-3.9,0.8
			c-1.1,0.5-2,1.2-2.8,2.1s-1.4,1.9-1.9,3c-0.5,1.1-0.8,2.3-1.1,3.4v7.8c0.3,1.5,0.9,2.9,1.7,4.3c0.8,1.4,1.8,2.5,3.2,3.4
			c1.3,0.9,3,1.3,4.9,1.3c1.6,0,3-0.3,4.1-1c1.1-0.7,2.1-1.6,2.8-2.7c0.7-1.2,1.3-2.5,1.6-4C473.6,451.9,473.8,450.3,473.8,448.6z"
			/>
		<path class="st7" d="M493.8,416.1v49.5h-6v-49.5H493.8z"/>
		<path class="st7" d="M517.9,466.2c-2.4,0-4.6-0.4-6.6-1.2s-3.7-2-5.1-3.5c-1.4-1.5-2.5-3.3-3.2-5.3c-0.8-2.1-1.1-4.3-1.1-6.8V448
			c0-2.8,0.4-5.4,1.3-7.6s2-4.1,3.4-5.7c1.4-1.5,3.1-2.7,4.9-3.5c1.8-0.8,3.7-1.2,5.7-1.2c2.5,0,4.6,0.4,6.5,1.3
			c1.8,0.9,3.3,2.1,4.5,3.6c1.2,1.5,2,3.3,2.6,5.4c0.6,2.1,0.8,4.3,0.8,6.8v2.7h-26V445h20.1v-0.5c-0.1-1.5-0.4-3.1-1-4.5
			c-0.5-1.5-1.4-2.7-2.6-3.6c-1.2-0.9-2.8-1.4-4.8-1.4c-1.4,0-2.6,0.3-3.7,0.9c-1.1,0.6-2.1,1.4-2.9,2.5c-0.8,1.1-1.5,2.5-1.9,4.1
			s-0.7,3.5-0.7,5.6v1.4c0,1.7,0.2,3.2,0.7,4.7c0.5,1.5,1.1,2.7,2,3.8c0.9,1.1,2,2,3.3,2.6c1.3,0.6,2.7,0.9,4.4,0.9
			c2.1,0,3.9-0.4,5.3-1.3c1.5-0.9,2.7-2,3.8-3.4l3.6,2.9c-0.8,1.1-1.7,2.2-2.9,3.3s-2.6,1.9-4.3,2.5
			C522.2,465.9,520.2,466.2,517.9,466.2z"/>
		<path class="st7" d="M558.7,456.4c0-0.9-0.2-1.7-0.6-2.4c-0.4-0.7-1.1-1.4-2.3-2c-1.1-0.6-2.9-1.1-5.2-1.6
			c-1.9-0.4-3.7-0.9-5.2-1.5c-1.6-0.6-2.9-1.2-4-2c-1.1-0.8-1.9-1.7-2.5-2.8c-0.6-1.1-0.9-2.3-0.9-3.8c0-1.4,0.3-2.7,0.9-3.9
			s1.5-2.3,2.6-3.3c1.1-0.9,2.5-1.7,4.1-2.2c1.6-0.5,3.4-0.8,5.3-0.8c2.8,0,5.2,0.5,7.2,1.5c2,1,3.5,2.3,4.5,3.9
			c1.1,1.6,1.6,3.5,1.6,5.5h-6c0-1-0.3-1.9-0.9-2.8c-0.6-0.9-1.4-1.7-2.5-2.3c-1.1-0.6-2.4-0.9-4-0.9c-1.7,0-3,0.3-4,0.8
			c-1,0.5-1.8,1.1-2.2,1.9c-0.5,0.8-0.7,1.6-0.7,2.4c0,0.6,0.1,1.2,0.3,1.7c0.2,0.5,0.6,1,1.2,1.4s1.4,0.8,2.4,1.2
			c1.1,0.4,2.4,0.7,4,1.1c2.9,0.6,5.2,1.4,7.1,2.3c1.8,0.9,3.2,2,4.1,3.3c0.9,1.3,1.4,2.9,1.4,4.8c0,1.5-0.3,2.9-1,4.2
			c-0.6,1.3-1.5,2.4-2.7,3.3c-1.2,0.9-2.6,1.6-4.3,2.1s-3.5,0.8-5.5,0.8c-3.1,0-5.7-0.5-7.8-1.6s-3.7-2.5-4.8-4.3s-1.6-3.6-1.6-5.5
			h6c0.1,1.6,0.6,2.9,1.4,3.9c0.9,1,1.9,1.6,3.2,2c1.2,0.4,2.5,0.6,3.7,0.6c1.6,0,3-0.2,4.1-0.6c1.1-0.4,1.9-1,2.5-1.8
			C558.4,458.2,558.7,457.3,558.7,456.4z"/>
		<path class="st7" d="M594.8,437.4V479h-6v-48.3h5.5L594.8,437.4z M618.3,447.9v0.7c0,2.5-0.3,4.9-0.9,7s-1.5,4-2.6,5.6
			c-1.2,1.6-2.6,2.8-4.2,3.7s-3.6,1.3-5.8,1.3c-2.2,0-4.2-0.4-5.9-1.1s-3.1-1.8-4.3-3.2c-1.2-1.4-2.1-3.1-2.8-5
			c-0.7-2-1.2-4.2-1.4-6.6v-3.6c0.3-2.6,0.7-4.9,1.5-6.9c0.7-2,1.6-3.8,2.8-5.2c1.2-1.5,2.6-2.6,4.3-3.3c1.7-0.8,3.6-1.1,5.8-1.1
			s4.1,0.4,5.8,1.3c1.7,0.8,3.1,2.1,4.3,3.6c1.2,1.6,2,3.4,2.6,5.6C618,442.8,618.3,445.2,618.3,447.9z M612.3,448.6v-0.7
			c0-1.7-0.2-3.4-0.5-4.9c-0.4-1.5-0.9-2.9-1.7-4.1c-0.8-1.2-1.7-2.1-2.9-2.8s-2.6-1-4.2-1c-1.5,0-2.8,0.3-3.9,0.8s-2,1.2-2.8,2.1
			s-1.4,1.9-1.9,3c-0.5,1.1-0.8,2.3-1.1,3.4v8.3c0.4,1.5,1,2.9,1.8,4.2s1.8,2.4,3.1,3.2s2.9,1.2,4.9,1.2c1.6,0,3-0.3,4.2-1
			c1.2-0.7,2.1-1.6,2.9-2.8c0.8-1.2,1.3-2.5,1.7-4.1C612.1,451.9,612.3,450.3,612.3,448.6z"/>
		<path class="st7" d="M647.5,444.5l0.1,4.2h-6c-1.7,0-3.2,0.1-4.5,0.4c-1.3,0.3-2.4,0.7-3.4,1.2c-0.9,0.5-1.6,1.2-2.1,2
			s-0.7,1.7-0.7,2.8c0,1.1,0.2,2.1,0.7,3s1.2,1.6,2.2,2.1c1,0.5,2.2,0.8,3.7,0.8c1.8,0,3.4-0.4,4.8-1.2s2.5-1.7,3.3-2.8
			c0.8-1.1,1.3-2.2,1.3-3.3l2.5,2.9c-0.2,0.9-0.6,1.9-1.2,3s-1.6,2.1-2.7,3.1c-1.1,1-2.4,1.8-3.9,2.5c-1.5,0.7-3.2,1-5.1,1
			c-2.4,0-4.4-0.5-6.2-1.4c-1.8-0.9-3.1-2.2-4.1-3.7c-1-1.6-1.5-3.3-1.5-5.2c0-1.9,0.4-3.5,1.1-4.9c0.7-1.4,1.8-2.6,3.2-3.6
			c1.4-1,3-1.7,5-2.2c1.9-0.5,4.1-0.7,6.5-0.7H647.5z M646.5,459.6v-18c0-1.4-0.3-2.6-0.8-3.6c-0.5-1-1.4-1.8-2.5-2.4
			c-1.1-0.6-2.4-0.8-4.1-0.8c-1.5,0-2.8,0.3-3.9,0.8c-1.1,0.5-2,1.2-2.6,2s-1,1.7-1,2.7h-6c0-1.2,0.3-2.5,1-3.7s1.6-2.3,2.8-3.3
			s2.7-1.8,4.4-2.4c1.7-0.6,3.6-0.9,5.7-0.9c2.5,0,4.8,0.4,6.7,1.3c1.9,0.9,3.5,2.2,4.6,3.9c1.1,1.7,1.7,3.9,1.7,6.5V458
			c0,1.2,0.1,2.4,0.3,3.7c0.2,1.3,0.5,2.4,0.9,3.4v0.5h-6.2c-0.3-0.7-0.5-1.6-0.7-2.8C646.5,461.7,646.5,460.6,646.5,459.6z"/>
		<path class="st7" d="M667.8,436.2v29.4h-6v-34.9h5.8L667.8,436.2z M678.7,430.5l0,5.5c-0.5-0.1-1-0.2-1.4-0.2c-0.4,0-0.9,0-1.5,0
			c-1.4,0-2.6,0.2-3.6,0.6c-1.1,0.4-1.9,1-2.7,1.8s-1.3,1.7-1.7,2.8c-0.4,1.1-0.7,2.2-0.8,3.5l-1.7,1c0-2.1,0.2-4.1,0.6-5.9
			c0.4-1.8,1.1-3.5,1.9-4.9c0.9-1.4,2-2.5,3.4-3.4s3-1.2,4.9-1.2c0.4,0,0.9,0,1.5,0.1S678.4,430.4,678.7,430.5z"/>
		<path class="st7" d="M705.8,444.5l0.1,4.2h-6c-1.7,0-3.2,0.1-4.5,0.4c-1.3,0.3-2.4,0.7-3.4,1.2c-0.9,0.5-1.6,1.2-2.1,2
			s-0.7,1.7-0.7,2.8c0,1.1,0.2,2.1,0.7,3s1.2,1.6,2.2,2.1c1,0.5,2.2,0.8,3.7,0.8c1.8,0,3.4-0.4,4.8-1.2s2.5-1.7,3.3-2.8
			c0.8-1.1,1.3-2.2,1.3-3.3l2.5,2.9c-0.2,0.9-0.6,1.9-1.2,3s-1.6,2.1-2.7,3.1c-1.1,1-2.4,1.8-3.9,2.5c-1.5,0.7-3.2,1-5.1,1
			c-2.4,0-4.4-0.5-6.2-1.4c-1.8-0.9-3.1-2.2-4.1-3.7c-1-1.6-1.5-3.3-1.5-5.2c0-1.9,0.4-3.5,1.1-4.9c0.7-1.4,1.8-2.6,3.2-3.6
			c1.4-1,3-1.7,5-2.2c1.9-0.5,4.1-0.7,6.5-0.7H705.8z M704.7,459.6v-18c0-1.4-0.3-2.6-0.8-3.6c-0.5-1-1.4-1.8-2.5-2.4
			c-1.1-0.6-2.4-0.8-4.1-0.8c-1.5,0-2.8,0.3-3.9,0.8c-1.1,0.5-2,1.2-2.6,2s-1,1.7-1,2.7h-6c0-1.2,0.3-2.5,1-3.7s1.6-2.3,2.8-3.3
			s2.7-1.8,4.4-2.4c1.7-0.6,3.6-0.9,5.7-0.9c2.5,0,4.8,0.4,6.7,1.3c1.9,0.9,3.5,2.2,4.6,3.9c1.1,1.7,1.7,3.9,1.7,6.5V458
			c0,1.2,0.1,2.4,0.3,3.7c0.2,1.3,0.5,2.4,0.9,3.4v0.5h-6.2c-0.3-0.7-0.5-1.6-0.7-2.8C704.8,461.7,704.7,460.6,704.7,459.6z"/>
		<path class="st7" d="M742.9,416.1v49.5h-6v-49.5H742.9z"/>
		<path class="st7" d="M774.1,444.5l0.1,4.2h-6c-1.7,0-3.2,0.1-4.5,0.4c-1.3,0.3-2.4,0.7-3.4,1.2c-0.9,0.5-1.6,1.2-2.1,2
			s-0.7,1.7-0.7,2.8c0,1.1,0.2,2.1,0.7,3s1.2,1.6,2.2,2.1c1,0.5,2.2,0.8,3.7,0.8c1.8,0,3.4-0.4,4.8-1.2s2.5-1.7,3.3-2.8
			c0.8-1.1,1.3-2.2,1.3-3.3l2.5,2.9c-0.2,0.9-0.6,1.9-1.2,3s-1.6,2.1-2.7,3.1c-1.1,1-2.4,1.8-3.9,2.5c-1.5,0.7-3.2,1-5.1,1
			c-2.4,0-4.4-0.5-6.2-1.4c-1.8-0.9-3.1-2.2-4.1-3.7c-1-1.6-1.5-3.3-1.5-5.2c0-1.9,0.4-3.5,1.1-4.9c0.7-1.4,1.8-2.6,3.2-3.6
			c1.4-1,3-1.7,5-2.2c1.9-0.5,4.1-0.7,6.5-0.7H774.1z M773,459.6v-18c0-1.4-0.3-2.6-0.8-3.6c-0.5-1-1.4-1.8-2.5-2.4
			c-1.1-0.6-2.4-0.8-4.1-0.8c-1.5,0-2.8,0.3-3.9,0.8c-1.1,0.5-2,1.2-2.6,2s-1,1.7-1,2.7h-6c0-1.2,0.3-2.5,1-3.7s1.6-2.3,2.8-3.3
			s2.7-1.8,4.4-2.4c1.7-0.6,3.6-0.9,5.7-0.9c2.5,0,4.8,0.4,6.7,1.3c1.9,0.9,3.5,2.2,4.6,3.9c1.1,1.7,1.7,3.9,1.7,6.5V458
			c0,1.2,0.1,2.4,0.3,3.7c0.2,1.3,0.5,2.4,0.9,3.4v0.5H774c-0.3-0.7-0.5-1.6-0.7-2.8C773.1,461.7,773,460.6,773,459.6z"/>
		<path class="st7" d="M818.7,461.3c1.4,0,2.7-0.3,3.9-0.9s2.2-1.4,3-2.4c0.8-1,1.2-2.2,1.3-3.5h5.7c-0.1,2.1-0.8,4-2.1,5.8
			s-2.9,3.2-5,4.3s-4.3,1.6-6.8,1.6c-2.6,0-4.9-0.5-6.8-1.4c-1.9-0.9-3.6-2.2-4.8-3.8c-1.3-1.6-2.2-3.5-2.9-5.6s-1-4.3-1-6.7v-1.4
			c0-2.3,0.3-4.6,1-6.7s1.6-3.9,2.9-5.6c1.3-1.6,2.9-2.9,4.8-3.8c1.9-0.9,4.2-1.4,6.8-1.4c2.7,0,5.1,0.6,7.2,1.7
			c2,1.1,3.6,2.6,4.8,4.5c1.2,1.9,1.8,4.1,1.9,6.5h-5.7c-0.1-1.4-0.5-2.7-1.2-3.9c-0.7-1.2-1.6-2.1-2.8-2.8c-1.2-0.7-2.6-1-4.2-1
			c-1.8,0-3.4,0.4-4.6,1.1c-1.2,0.7-2.2,1.7-2.9,2.9c-0.7,1.2-1.2,2.6-1.5,4c-0.3,1.5-0.5,3-0.5,4.5v1.4c0,1.5,0.2,3,0.5,4.5
			s0.8,2.8,1.5,4c0.7,1.2,1.7,2.2,2.9,2.9C815.3,461,816.9,461.3,818.7,461.3z"/>
		<path class="st7" d="M860.9,444.5l0.1,4.2h-6c-1.7,0-3.2,0.1-4.5,0.4c-1.3,0.3-2.4,0.7-3.4,1.2c-0.9,0.5-1.6,1.2-2.1,2
			s-0.7,1.7-0.7,2.8c0,1.1,0.2,2.1,0.7,3s1.2,1.6,2.2,2.1c1,0.5,2.2,0.8,3.7,0.8c1.8,0,3.4-0.4,4.8-1.2s2.5-1.7,3.3-2.8
			c0.8-1.1,1.3-2.2,1.3-3.3l2.5,2.9c-0.2,0.9-0.6,1.9-1.2,3s-1.6,2.1-2.7,3.1c-1.1,1-2.4,1.8-3.9,2.5c-1.5,0.7-3.2,1-5.1,1
			c-2.4,0-4.4-0.5-6.2-1.4c-1.8-0.9-3.1-2.2-4.1-3.7c-1-1.6-1.5-3.3-1.5-5.2c0-1.9,0.4-3.5,1.1-4.9c0.7-1.4,1.8-2.6,3.2-3.6
			c1.4-1,3-1.7,5-2.2c1.9-0.5,4.1-0.7,6.5-0.7H860.9z M859.9,459.6v-18c0-1.4-0.3-2.6-0.8-3.6c-0.5-1-1.4-1.8-2.5-2.4
			c-1.1-0.6-2.4-0.8-4.1-0.8c-1.5,0-2.8,0.3-3.9,0.8c-1.1,0.5-2,1.2-2.6,2s-1,1.7-1,2.7h-6c0-1.2,0.3-2.5,1-3.7s1.6-2.3,2.8-3.3
			s2.7-1.8,4.4-2.4c1.7-0.6,3.6-0.9,5.7-0.9c2.5,0,4.8,0.4,6.7,1.3c1.9,0.9,3.5,2.2,4.6,3.9c1.1,1.7,1.7,3.9,1.7,6.5V458
			c0,1.2,0.1,2.4,0.3,3.7c0.2,1.3,0.5,2.4,0.9,3.4v0.5h-6.2c-0.3-0.7-0.5-1.6-0.7-2.8C859.9,461.7,859.9,460.6,859.9,459.6z"/>
		<path class="st7" d="M881.7,416.1v49.5h-6v-49.5H881.7z"/>
		<path class="st7" d="M891.3,421.5c0-1,0.3-1.8,0.9-2.4c0.6-0.7,1.5-1,2.6-1c1.1,0,2,0.3,2.6,1c0.6,0.7,0.9,1.5,0.9,2.4
			c0,0.9-0.3,1.7-0.9,2.4c-0.6,0.7-1.5,1-2.6,1c-1.2,0-2-0.3-2.6-1C891.6,423.2,891.3,422.4,891.3,421.5z M897.7,430.7v34.9h-6
			v-34.9H897.7z"/>
		<path class="st7" d="M905.8,448.6v-0.7c0-2.7,0.3-5.1,1-7.3c0.7-2.2,1.6-4.1,2.8-5.6c1.2-1.6,2.7-2.8,4.4-3.6
			c1.7-0.8,3.6-1.3,5.7-1.3c2.2,0,4.1,0.4,5.8,1.1c1.6,0.8,3,1.9,4.2,3.3c1.1,1.5,2.1,3.2,2.7,5.2c0.7,2,1.1,4.4,1.4,6.9v3
			c-0.2,2.6-0.7,4.9-1.4,6.9c-0.7,2-1.6,3.8-2.7,5.2c-1.2,1.4-2.6,2.5-4.2,3.3s-3.6,1.1-5.8,1.1c-2,0-3.9-0.4-5.6-1.3
			c-1.7-0.9-3.1-2.1-4.4-3.7c-1.2-1.6-2.1-3.5-2.8-5.6C906.1,453.4,905.8,451.1,905.8,448.6z M911.8,447.9v0.7
			c0,1.7,0.2,3.4,0.5,4.9c0.4,1.5,0.9,2.9,1.7,4s1.7,2.1,2.9,2.7c1.2,0.7,2.5,1,4.2,1c2,0,3.6-0.4,4.9-1.3s2.3-1.9,3.1-3.3
			c0.8-1.4,1.4-2.9,1.8-4.5v-7.8c-0.3-1.2-0.6-2.3-1.1-3.4c-0.5-1.1-1.1-2.1-1.9-3c-0.8-0.9-1.7-1.6-2.8-2.1s-2.4-0.8-3.9-0.8
			c-1.6,0-3,0.3-4.2,1s-2.1,1.6-2.9,2.8c-0.8,1.2-1.3,2.5-1.7,4.1C912,444.5,911.8,446.1,911.8,447.9z M929.3,458.8v-42.7h6v49.5
			h-5.5L929.3,458.8z"/>
		<path class="st7" d="M966.1,444.5l0.1,4.2h-6c-1.7,0-3.2,0.1-4.5,0.4c-1.3,0.3-2.4,0.7-3.4,1.2c-0.9,0.5-1.6,1.2-2.1,2
			s-0.7,1.7-0.7,2.8c0,1.1,0.2,2.1,0.7,3s1.2,1.6,2.2,2.1c1,0.5,2.2,0.8,3.7,0.8c1.8,0,3.4-0.4,4.8-1.2s2.5-1.7,3.3-2.8
			c0.8-1.1,1.3-2.2,1.3-3.3l2.5,2.9c-0.2,0.9-0.6,1.9-1.2,3s-1.6,2.1-2.7,3.1c-1.1,1-2.4,1.8-3.9,2.5c-1.5,0.7-3.2,1-5.1,1
			c-2.4,0-4.4-0.5-6.2-1.4c-1.8-0.9-3.1-2.2-4.1-3.7c-1-1.6-1.5-3.3-1.5-5.2c0-1.9,0.4-3.5,1.1-4.9c0.7-1.4,1.8-2.6,3.2-3.6
			c1.4-1,3-1.7,5-2.2c1.9-0.5,4.1-0.7,6.5-0.7H966.1z M965.1,459.6v-18c0-1.4-0.3-2.6-0.8-3.6c-0.5-1-1.4-1.8-2.5-2.4
			c-1.1-0.6-2.4-0.8-4.1-0.8c-1.5,0-2.8,0.3-3.9,0.8c-1.1,0.5-2,1.2-2.6,2s-1,1.7-1,2.7h-6c0-1.2,0.3-2.5,1-3.7s1.6-2.3,2.8-3.3
			s2.7-1.8,4.4-2.4c1.7-0.6,3.6-0.9,5.7-0.9c2.5,0,4.8,0.4,6.7,1.3c1.9,0.9,3.5,2.2,4.6,3.9c1.1,1.7,1.7,3.9,1.7,6.5V458
			c0,1.2,0.1,2.4,0.3,3.7c0.2,1.3,0.5,2.4,0.9,3.4v0.5H966c-0.3-0.7-0.5-1.6-0.7-2.8C965.2,461.7,965.1,460.6,965.1,459.6z"/>
		<path class="st7" d="M978.9,448.6v-0.7c0-2.7,0.3-5.1,1-7.3c0.7-2.2,1.6-4.1,2.8-5.6c1.2-1.6,2.7-2.8,4.4-3.6
			c1.7-0.8,3.6-1.3,5.7-1.3c2.2,0,4.1,0.4,5.8,1.1c1.6,0.8,3,1.9,4.2,3.3c1.1,1.5,2.1,3.2,2.7,5.2c0.7,2,1.1,4.4,1.4,6.9v3
			c-0.2,2.6-0.7,4.9-1.4,6.9c-0.7,2-1.6,3.8-2.7,5.2c-1.2,1.4-2.6,2.5-4.2,3.3s-3.6,1.1-5.8,1.1c-2,0-3.9-0.4-5.6-1.3
			c-1.7-0.9-3.1-2.1-4.4-3.7c-1.2-1.6-2.1-3.5-2.8-5.6C979.3,453.4,978.9,451.1,978.9,448.6z M984.9,447.9v0.7
			c0,1.7,0.2,3.4,0.5,4.9c0.4,1.5,0.9,2.9,1.7,4s1.7,2.1,2.9,2.7c1.2,0.7,2.5,1,4.2,1c2,0,3.6-0.4,4.9-1.3s2.3-1.9,3.1-3.3
			c0.8-1.4,1.4-2.9,1.8-4.5v-7.8c-0.3-1.2-0.6-2.3-1.1-3.4c-0.5-1.1-1.1-2.1-1.9-3c-0.8-0.9-1.7-1.6-2.8-2.1s-2.4-0.8-3.9-0.8
			c-1.6,0-3,0.3-4.2,1s-2.1,1.6-2.9,2.8c-0.8,1.2-1.3,2.5-1.7,4.1C985.1,444.5,984.9,446.1,984.9,447.9z M1002.4,458.8v-42.7h6v49.5
			h-5.5L1002.4,458.8z"/>
		<path class="st7" d="M306.1,527.8v-0.7c0-2.7,0.3-5.1,1-7.3c0.7-2.2,1.6-4.1,2.8-5.6c1.2-1.6,2.7-2.8,4.4-3.6
			c1.7-0.8,3.6-1.3,5.7-1.3c2.2,0,4.1,0.4,5.8,1.1c1.6,0.8,3,1.9,4.2,3.3c1.1,1.5,2.1,3.2,2.7,5.2c0.7,2,1.1,4.4,1.4,6.9v3
			c-0.2,2.6-0.7,4.9-1.4,6.9c-0.7,2-1.6,3.8-2.7,5.2c-1.1,1.4-2.6,2.5-4.2,3.3c-1.7,0.8-3.6,1.1-5.8,1.1c-2,0-3.9-0.4-5.6-1.3
			c-1.7-0.9-3.1-2.1-4.4-3.7c-1.2-1.6-2.1-3.5-2.8-5.6C306.4,532.6,306.1,530.3,306.1,527.8z M312.1,527.1v0.7
			c0,1.7,0.2,3.4,0.5,4.9c0.4,1.5,0.9,2.9,1.7,4c0.8,1.2,1.7,2.1,2.9,2.7c1.2,0.7,2.5,1,4.2,1c2,0,3.6-0.4,4.9-1.3
			c1.3-0.8,2.3-1.9,3.1-3.3c0.8-1.4,1.4-2.9,1.8-4.5v-7.8c-0.3-1.2-0.6-2.3-1.1-3.4c-0.5-1.1-1.1-2.1-1.9-3
			c-0.8-0.9-1.7-1.6-2.8-2.1c-1.1-0.5-2.4-0.8-3.9-0.8c-1.6,0-3,0.3-4.2,1c-1.2,0.7-2.1,1.6-2.9,2.8c-0.8,1.2-1.3,2.5-1.7,4.1
			C312.3,523.7,312.1,525.3,312.1,527.1z M329.5,538v-42.7h6v49.5h-5.5L329.5,538z"/>
		<path class="st7" d="M359.3,545.4c-2.4,0-4.6-0.4-6.6-1.2c-2-0.8-3.7-2-5.1-3.5c-1.4-1.5-2.5-3.3-3.2-5.3
			c-0.8-2.1-1.1-4.3-1.1-6.8v-1.4c0-2.8,0.4-5.4,1.3-7.6s2-4.1,3.4-5.7c1.4-1.5,3.1-2.7,4.9-3.5c1.8-0.8,3.7-1.2,5.7-1.2
			c2.5,0,4.6,0.4,6.5,1.3c1.8,0.9,3.3,2.1,4.5,3.6c1.2,1.5,2,3.3,2.6,5.4c0.6,2.1,0.8,4.3,0.8,6.8v2.7h-26v-4.9h20.1v-0.5
			c-0.1-1.5-0.4-3.1-1-4.5c-0.5-1.5-1.4-2.7-2.6-3.6c-1.2-0.9-2.8-1.4-4.8-1.4c-1.4,0-2.6,0.3-3.7,0.9c-1.1,0.6-2.1,1.4-2.9,2.5
			c-0.8,1.1-1.5,2.5-1.9,4.1s-0.7,3.5-0.7,5.6v1.4c0,1.7,0.2,3.2,0.7,4.7c0.5,1.5,1.1,2.7,2,3.8c0.9,1.1,2,2,3.3,2.6
			c1.3,0.6,2.7,0.9,4.4,0.9c2.1,0,3.9-0.4,5.3-1.3c1.5-0.9,2.7-2,3.8-3.4l3.6,2.9c-0.8,1.1-1.7,2.2-2.9,3.3s-2.6,1.9-4.3,2.5
			C363.5,545.1,361.6,545.4,359.3,545.4z"/>
		<path class="st7" d="M402.6,495.3v49.5h-6v-49.5H402.6z"/>
		<path class="st7" d="M433.8,523.7l0.1,4.2h-6c-1.7,0-3.2,0.1-4.5,0.4c-1.3,0.3-2.4,0.7-3.4,1.2c-0.9,0.5-1.6,1.2-2.1,2
			c-0.5,0.8-0.7,1.7-0.7,2.8c0,1.1,0.2,2.1,0.7,3c0.5,0.9,1.2,1.6,2.2,2.1c1,0.5,2.2,0.8,3.7,0.8c1.8,0,3.4-0.4,4.8-1.2
			c1.4-0.8,2.5-1.7,3.3-2.8c0.8-1.1,1.3-2.2,1.3-3.3l2.5,2.9c-0.2,0.9-0.6,1.9-1.2,3c-0.7,1.1-1.6,2.1-2.7,3.1
			c-1.1,1-2.4,1.8-3.9,2.5s-3.2,1-5.1,1c-2.4,0-4.4-0.5-6.2-1.4c-1.8-0.9-3.1-2.2-4.1-3.7c-1-1.6-1.5-3.3-1.5-5.2
			c0-1.9,0.4-3.5,1.1-4.9c0.7-1.4,1.8-2.6,3.2-3.6c1.4-1,3-1.7,5-2.2c1.9-0.5,4.1-0.7,6.5-0.7H433.8z M432.8,538.8v-18
			c0-1.4-0.3-2.6-0.8-3.6c-0.5-1-1.4-1.8-2.5-2.4c-1.1-0.6-2.4-0.8-4.1-0.8c-1.5,0-2.8,0.3-3.9,0.8s-2,1.2-2.6,2
			c-0.6,0.8-1,1.7-1,2.7h-6c0-1.2,0.3-2.5,1-3.7s1.6-2.3,2.8-3.3c1.2-1,2.7-1.8,4.4-2.4c1.7-0.6,3.6-0.9,5.7-0.9
			c2.5,0,4.8,0.4,6.7,1.3c1.9,0.9,3.5,2.2,4.6,3.9c1.1,1.7,1.7,3.9,1.7,6.5v16.2c0,1.2,0.1,2.4,0.3,3.7c0.2,1.3,0.5,2.4,0.9,3.4v0.5
			h-6.2c-0.3-0.7-0.5-1.6-0.7-2.8C432.8,540.9,432.8,539.8,432.8,538.8z"/>
		<path class="st7" d="M478.4,540.5c1.4,0,2.7-0.3,3.9-0.9c1.2-0.6,2.2-1.4,3-2.4c0.8-1,1.2-2.2,1.3-3.5h5.7c-0.1,2.1-0.8,4-2.1,5.8
			c-1.3,1.8-2.9,3.2-5,4.3c-2.1,1.1-4.3,1.6-6.8,1.6c-2.6,0-4.9-0.5-6.8-1.4c-1.9-0.9-3.6-2.2-4.8-3.8c-1.3-1.6-2.2-3.5-2.9-5.6
			c-0.6-2.1-1-4.3-1-6.7v-1.4c0-2.3,0.3-4.6,1-6.7c0.6-2.1,1.6-3.9,2.9-5.6c1.3-1.6,2.9-2.9,4.8-3.8c1.9-0.9,4.2-1.4,6.8-1.4
			c2.7,0,5.1,0.6,7.2,1.7c2,1.1,3.6,2.6,4.8,4.5c1.2,1.9,1.8,4.1,1.9,6.5h-5.7c-0.1-1.4-0.5-2.7-1.2-3.9c-0.7-1.2-1.6-2.1-2.8-2.8
			c-1.2-0.7-2.6-1-4.2-1c-1.8,0-3.4,0.4-4.6,1.1c-1.2,0.7-2.2,1.7-2.9,2.9c-0.7,1.2-1.2,2.6-1.5,4c-0.3,1.5-0.5,3-0.5,4.5v1.4
			c0,1.5,0.1,3,0.5,4.5c0.3,1.5,0.8,2.8,1.5,4c0.7,1.2,1.7,2.2,2.9,2.9C475,540.2,476.6,540.5,478.4,540.5z"/>
		<path class="st7" d="M497.4,527.8V527c0-2.5,0.4-4.9,1.1-7c0.7-2.2,1.8-4,3.2-5.6c1.4-1.6,3-2.8,5-3.7c2-0.9,4.1-1.3,6.6-1.3
			c2.4,0,4.7,0.4,6.6,1.3c2,0.9,3.6,2.1,5,3.7c1.4,1.6,2.4,3.5,3.2,5.6c0.7,2.2,1.1,4.5,1.1,7v0.7c0,2.5-0.4,4.8-1.1,7
			c-0.7,2.1-1.8,4-3.2,5.6s-3.1,2.8-5,3.7c-1.9,0.9-4.1,1.3-6.6,1.3s-4.7-0.4-6.6-1.3c-2-0.9-3.6-2.1-5-3.7s-2.4-3.5-3.2-5.6
			C497.8,532.6,497.4,530.3,497.4,527.8z M503.4,527v0.7c0,1.7,0.2,3.4,0.6,4.9c0.4,1.5,1,2.9,1.9,4.1c0.8,1.2,1.9,2.1,3.1,2.8
			c1.2,0.7,2.7,1,4.4,1c1.6,0,3.1-0.3,4.3-1c1.2-0.7,2.3-1.6,3.1-2.8c0.8-1.2,1.4-2.5,1.9-4.1c0.4-1.5,0.6-3.2,0.6-4.9V527
			c0-1.7-0.2-3.3-0.6-4.9c-0.4-1.5-1-2.9-1.9-4.1c-0.8-1.2-1.9-2.1-3.1-2.8c-1.2-0.7-2.7-1-4.3-1c-1.6,0-3.1,0.3-4.3,1
			c-1.2,0.7-2.3,1.6-3.1,2.8c-0.8,1.2-1.4,2.6-1.9,4.1C503.6,523.7,503.4,525.3,503.4,527z"/>
		<path class="st7" d="M542.6,516.9v27.9h-6v-34.9h5.7L542.6,516.9z M541.4,526l-2.8-0.1c0-2.4,0.3-4.6,0.9-6.6
			c0.6-2,1.5-3.8,2.7-5.3c1.2-1.5,2.7-2.7,4.4-3.5c1.8-0.8,3.8-1.2,6.1-1.2c1.6,0,3.1,0.2,4.5,0.7c1.4,0.5,2.6,1.2,3.6,2.2
			c1,1,1.8,2.3,2.4,3.8c0.6,1.5,0.8,3.4,0.8,5.6v23.2h-6v-22.9c0-1.8-0.3-3.3-0.9-4.4s-1.5-1.9-2.6-2.4c-1.1-0.5-2.4-0.8-3.9-0.8
			c-1.8,0-3.2,0.3-4.4,0.9c-1.2,0.6-2.1,1.5-2.8,2.6s-1.2,2.3-1.5,3.8C541.5,523,541.4,524.5,541.4,526z M564,522.8l-4,1.2
			c0-1.9,0.3-3.7,1-5.5c0.6-1.8,1.5-3.3,2.7-4.7c1.2-1.4,2.6-2.5,4.3-3.3c1.7-0.8,3.7-1.2,5.9-1.2c1.9,0,3.5,0.2,5,0.7
			c1.5,0.5,2.7,1.3,3.7,2.3c1,1,1.8,2.3,2.3,3.9c0.5,1.6,0.8,3.5,0.8,5.7v22.9h-6v-23c0-2-0.3-3.5-0.9-4.6c-0.6-1.1-1.5-1.8-2.6-2.3
			c-1.1-0.4-2.4-0.7-3.9-0.7c-1.3,0-2.5,0.2-3.5,0.7c-1,0.5-1.9,1.1-2.5,1.9c-0.7,0.8-1.2,1.7-1.6,2.7
			C564.1,520.5,564,521.6,564,522.8z"/>
		<path class="st7" d="M594.6,500.7c0-1,0.3-1.8,0.9-2.4c0.6-0.7,1.5-1,2.6-1c1.1,0,2,0.3,2.6,1c0.6,0.7,0.9,1.5,0.9,2.4
			c0,0.9-0.3,1.7-0.9,2.4c-0.6,0.7-1.5,1-2.6,1c-1.2,0-2-0.3-2.6-1C594.9,502.4,594.6,501.6,594.6,500.7z M601,509.9v34.9h-6v-34.9
			H601z"/>
		<path class="st7" d="M609.1,527.8v-0.7c0-2.7,0.3-5.1,1-7.3c0.7-2.2,1.6-4.1,2.8-5.6c1.2-1.6,2.7-2.8,4.4-3.6
			c1.7-0.8,3.6-1.3,5.7-1.3c2.2,0,4.1,0.4,5.8,1.1c1.6,0.8,3,1.9,4.2,3.3c1.1,1.5,2.1,3.2,2.7,5.2c0.7,2,1.1,4.4,1.4,6.9v3
			c-0.2,2.6-0.7,4.9-1.4,6.9c-0.7,2-1.6,3.8-2.7,5.2c-1.2,1.4-2.6,2.5-4.2,3.3c-1.7,0.8-3.6,1.1-5.8,1.1c-2,0-3.9-0.4-5.6-1.3
			c-1.7-0.9-3.1-2.1-4.4-3.7s-2.1-3.5-2.8-5.6C609.4,532.6,609.1,530.3,609.1,527.8z M615.1,527.1v0.7c0,1.7,0.2,3.4,0.5,4.9
			c0.4,1.5,0.9,2.9,1.7,4s1.7,2.1,2.9,2.7c1.2,0.7,2.5,1,4.2,1c2,0,3.6-0.4,4.9-1.3s2.3-1.9,3.1-3.3c0.8-1.4,1.4-2.9,1.8-4.5v-7.8
			c-0.3-1.2-0.6-2.3-1.1-3.4c-0.5-1.1-1.1-2.1-1.9-3c-0.8-0.9-1.7-1.6-2.8-2.1s-2.4-0.8-3.9-0.8c-1.6,0-3,0.3-4.2,1
			s-2.1,1.6-2.9,2.8c-0.8,1.2-1.3,2.5-1.7,4.1C615.3,523.7,615.1,525.3,615.1,527.1z M632.6,538v-42.7h6v49.5h-5.5L632.6,538z"/>
		<path class="st7" d="M669.4,523.7l0.1,4.2h-6c-1.7,0-3.2,0.1-4.5,0.4c-1.3,0.3-2.4,0.7-3.4,1.2c-0.9,0.5-1.6,1.2-2.1,2
			s-0.7,1.7-0.7,2.8c0,1.1,0.2,2.1,0.7,3s1.2,1.6,2.2,2.1c1,0.5,2.2,0.8,3.7,0.8c1.8,0,3.4-0.4,4.8-1.2s2.5-1.7,3.3-2.8
			c0.8-1.1,1.3-2.2,1.3-3.3l2.5,2.9c-0.2,0.9-0.6,1.9-1.2,3s-1.6,2.1-2.7,3.1c-1.1,1-2.4,1.8-3.9,2.5c-1.5,0.7-3.2,1-5.1,1
			c-2.4,0-4.4-0.5-6.2-1.4c-1.8-0.9-3.1-2.2-4.1-3.7c-1-1.6-1.5-3.3-1.5-5.2c0-1.9,0.4-3.5,1.1-4.9c0.7-1.4,1.8-2.6,3.2-3.6
			c1.4-1,3-1.7,5-2.2c1.9-0.5,4.1-0.7,6.5-0.7H669.4z M668.4,538.8v-18c0-1.4-0.3-2.6-0.8-3.6c-0.5-1-1.4-1.8-2.5-2.4
			c-1.1-0.6-2.4-0.8-4.1-0.8c-1.5,0-2.8,0.3-3.9,0.8c-1.1,0.5-2,1.2-2.6,2s-1,1.7-1,2.7h-6c0-1.2,0.3-2.5,1-3.7s1.6-2.3,2.8-3.3
			s2.7-1.8,4.4-2.4c1.7-0.6,3.6-0.9,5.7-0.9c2.5,0,4.8,0.4,6.7,1.3c1.9,0.9,3.5,2.2,4.6,3.9c1.1,1.7,1.7,3.9,1.7,6.5v16.2
			c0,1.2,0.1,2.4,0.3,3.7c0.2,1.3,0.5,2.4,0.9,3.4v0.5h-6.2c-0.3-0.7-0.5-1.6-0.7-2.8C668.5,540.9,668.4,539.8,668.4,538.8z"/>
		<path class="st7" d="M702.8,509.9l9.1,27.1l1.5,6.3l-4.3,2.2l-12.8-35.5H702.8z M709.9,541.2l9.7-31.3h6.4l-14,40.3
			c-0.3,0.9-0.7,1.8-1.3,2.8s-1.2,2-2,2.9s-1.8,1.6-2.9,2.2s-2.5,0.9-4.1,0.9c-0.5,0-1.1-0.1-1.8-0.2s-1.2-0.2-1.5-0.3l0-4.8
			c0.2,0,0.4,0,0.8,0.1c0.4,0,0.6,0,0.8,0c1.4,0,2.5-0.2,3.4-0.5s1.7-0.9,2.4-1.8c0.7-0.8,1.2-2,1.7-3.4L709.9,541.2z"/>
		<path class="st7" d="M762.2,545.4c-2.4,0-4.6-0.4-6.6-1.2c-2-0.8-3.7-2-5.1-3.5c-1.4-1.5-2.5-3.3-3.2-5.3s-1.1-4.3-1.1-6.8v-1.4
			c0-2.8,0.4-5.4,1.3-7.6s2-4.1,3.4-5.7s3.1-2.7,4.9-3.5c1.8-0.8,3.7-1.2,5.7-1.2c2.5,0,4.6,0.4,6.5,1.3c1.8,0.9,3.3,2.1,4.5,3.6
			c1.2,1.5,2,3.3,2.6,5.4c0.6,2.1,0.8,4.3,0.8,6.8v2.7h-26v-4.9h20.1v-0.5c-0.1-1.5-0.4-3.1-1-4.5c-0.5-1.5-1.4-2.7-2.6-3.6
			c-1.2-0.9-2.8-1.4-4.8-1.4c-1.4,0-2.6,0.3-3.7,0.9c-1.1,0.6-2.1,1.4-2.9,2.5c-0.8,1.1-1.5,2.5-1.9,4.1s-0.7,3.5-0.7,5.6v1.4
			c0,1.7,0.2,3.2,0.7,4.7s1.1,2.7,2,3.8c0.9,1.1,2,2,3.3,2.6c1.3,0.6,2.7,0.9,4.4,0.9c2.1,0,3.9-0.4,5.3-1.3c1.5-0.9,2.7-2,3.8-3.4
			l3.6,2.9c-0.8,1.1-1.7,2.2-2.9,3.3s-2.6,1.9-4.3,2.5C766.4,545.1,764.4,545.4,762.2,545.4z"/>
		<path class="st7" d="M789.2,495.3v49.5h-6v-49.5H789.2z"/>
		<path class="st7" d="M835.4,535.6c0-0.9-0.2-1.7-0.6-2.4c-0.4-0.7-1.1-1.4-2.3-2s-2.9-1.1-5.2-1.6c-1.9-0.4-3.7-0.9-5.2-1.5
			c-1.6-0.6-2.9-1.2-4-2c-1.1-0.8-1.9-1.7-2.5-2.8c-0.6-1.1-0.9-2.3-0.9-3.8c0-1.4,0.3-2.7,0.9-3.9c0.6-1.2,1.5-2.3,2.6-3.3
			c1.1-0.9,2.5-1.7,4.1-2.2c1.6-0.5,3.4-0.8,5.3-0.8c2.8,0,5.2,0.5,7.2,1.5c2,1,3.5,2.3,4.5,3.9s1.6,3.5,1.6,5.5h-6
			c0-1-0.3-1.9-0.9-2.8c-0.6-0.9-1.4-1.7-2.5-2.3c-1.1-0.6-2.4-0.9-4-0.9c-1.7,0-3,0.3-4,0.8c-1,0.5-1.8,1.1-2.2,1.9
			c-0.5,0.8-0.7,1.6-0.7,2.4c0,0.6,0.1,1.2,0.3,1.7c0.2,0.5,0.6,1,1.2,1.4s1.4,0.8,2.4,1.2c1.1,0.4,2.4,0.7,4,1.1
			c2.9,0.6,5.2,1.4,7.1,2.3s3.2,2,4.1,3.3c0.9,1.3,1.4,2.9,1.4,4.8c0,1.5-0.3,2.9-1,4.2c-0.6,1.3-1.5,2.4-2.7,3.3
			c-1.2,0.9-2.6,1.6-4.3,2.1c-1.6,0.5-3.5,0.8-5.5,0.8c-3.1,0-5.7-0.5-7.8-1.6s-3.7-2.5-4.8-4.3s-1.6-3.6-1.6-5.5h6
			c0.1,1.6,0.6,2.9,1.4,3.9c0.9,1,1.9,1.6,3.2,2c1.2,0.4,2.5,0.6,3.7,0.6c1.6,0,3-0.2,4.1-0.6c1.1-0.4,1.9-1,2.5-1.8
			C835.1,537.4,835.4,536.5,835.4,535.6z"/>
		<path class="st7" d="M863.6,545.4c-2.4,0-4.6-0.4-6.6-1.2c-2-0.8-3.7-2-5.1-3.5c-1.4-1.5-2.5-3.3-3.2-5.3s-1.1-4.3-1.1-6.8v-1.4
			c0-2.8,0.4-5.4,1.3-7.6s2-4.1,3.4-5.7s3.1-2.7,4.9-3.5c1.8-0.8,3.7-1.2,5.7-1.2c2.5,0,4.6,0.4,6.5,1.3c1.8,0.9,3.3,2.1,4.5,3.6
			c1.2,1.5,2,3.3,2.6,5.4c0.6,2.1,0.8,4.3,0.8,6.8v2.7h-26v-4.9h20.1v-0.5c-0.1-1.5-0.4-3.1-1-4.5c-0.5-1.5-1.4-2.7-2.6-3.6
			c-1.2-0.9-2.8-1.4-4.8-1.4c-1.4,0-2.6,0.3-3.7,0.9c-1.1,0.6-2.1,1.4-2.9,2.5c-0.8,1.1-1.5,2.5-1.9,4.1s-0.7,3.5-0.7,5.6v1.4
			c0,1.7,0.2,3.2,0.7,4.7s1.1,2.7,2,3.8c0.9,1.1,2,2,3.3,2.6c1.3,0.6,2.7,0.9,4.4,0.9c2.1,0,3.9-0.4,5.3-1.3c1.5-0.9,2.7-2,3.8-3.4
			l3.6,2.9c-0.8,1.1-1.7,2.2-2.9,3.3s-2.6,1.9-4.3,2.5C867.9,545.1,865.9,545.4,863.6,545.4z"/>
		<path class="st7" d="M890.1,515.4v29.4h-6v-34.9h5.8L890.1,515.4z M901,509.7l0,5.5c-0.5-0.1-1-0.2-1.4-0.2c-0.4,0-0.9,0-1.5,0
			c-1.4,0-2.6,0.2-3.6,0.6c-1.1,0.4-1.9,1-2.7,1.8s-1.3,1.7-1.7,2.8c-0.4,1.1-0.7,2.2-0.8,3.5l-1.7,1c0-2.1,0.2-4.1,0.6-5.9
			c0.4-1.8,1.1-3.5,1.9-4.9c0.9-1.4,2-2.5,3.4-3.4s3-1.2,4.9-1.2c0.4,0,0.9,0,1.5,0.1S900.8,509.6,901,509.7z"/>
		<path class="st7" d="M909.2,509.9l9.8,29.6l0.7,5.2h-4L903,509.9H909.2z M917.1,539.4l9.5-29.5h6.1l-12.5,34.9h-4L917.1,539.4z"/>
		<path class="st7" d="M938.5,500.7c0-1,0.3-1.8,0.9-2.4c0.6-0.7,1.5-1,2.6-1c1.1,0,2,0.3,2.6,1c0.6,0.7,0.9,1.5,0.9,2.4
			c0,0.9-0.3,1.7-0.9,2.4c-0.6,0.7-1.5,1-2.6,1c-1.2,0-2-0.3-2.6-1C938.8,502.4,938.5,501.6,938.5,500.7z M945,509.9v34.9h-6v-34.9
			H945z"/>
		<path class="st7" d="M968.5,540.5c1.4,0,2.7-0.3,3.9-0.9s2.2-1.4,3-2.4c0.8-1,1.2-2.2,1.3-3.5h5.7c-0.1,2.1-0.8,4-2.1,5.8
			c-1.3,1.8-2.9,3.2-5,4.3c-2.1,1.1-4.3,1.6-6.8,1.6c-2.6,0-4.9-0.5-6.8-1.4c-1.9-0.9-3.6-2.2-4.8-3.8c-1.3-1.6-2.2-3.5-2.9-5.6
			s-1-4.3-1-6.7v-1.4c0-2.3,0.3-4.6,1-6.7s1.6-3.9,2.9-5.6c1.3-1.6,2.9-2.9,4.8-3.8c1.9-0.9,4.2-1.4,6.8-1.4c2.7,0,5.1,0.6,7.2,1.7
			c2,1.1,3.6,2.6,4.8,4.5c1.2,1.9,1.8,4.1,1.9,6.5h-5.7c-0.1-1.4-0.5-2.7-1.2-3.9c-0.7-1.2-1.6-2.1-2.8-2.8c-1.2-0.7-2.6-1-4.2-1
			c-1.8,0-3.4,0.4-4.6,1.1c-1.2,0.7-2.2,1.7-2.9,2.9c-0.7,1.2-1.2,2.6-1.5,4c-0.3,1.5-0.5,3-0.5,4.5v1.4c0,1.5,0.2,3,0.5,4.5
			s0.8,2.8,1.5,4c0.7,1.2,1.7,2.2,2.9,2.9C965.1,540.2,966.6,540.5,968.5,540.5z"/>
		<path class="st7" d="M989.1,500.7c0-1,0.3-1.8,0.9-2.4c0.6-0.7,1.5-1,2.6-1c1.1,0,2,0.3,2.6,1c0.6,0.7,0.9,1.5,0.9,2.4
			c0,0.9-0.3,1.7-0.9,2.4c-0.6,0.7-1.5,1-2.6,1c-1.2,0-2-0.3-2.6-1C989.4,502.4,989.1,501.6,989.1,500.7z M995.6,509.9v34.9h-6
			v-34.9H995.6z"/>
		<path class="st7" d="M1003.6,527.8V527c0-2.5,0.4-4.9,1.1-7s1.8-4,3.2-5.6c1.4-1.6,3-2.8,5-3.7c2-0.9,4.1-1.3,6.6-1.3
			c2.4,0,4.7,0.4,6.6,1.3c2,0.9,3.6,2.1,5,3.7c1.4,1.6,2.4,3.5,3.2,5.6s1.1,4.5,1.1,7v0.7c0,2.5-0.4,4.8-1.1,7
			c-0.7,2.1-1.8,4-3.2,5.6c-1.4,1.6-3.1,2.8-5,3.7c-1.9,0.9-4.1,1.3-6.6,1.3s-4.7-0.4-6.6-1.3c-2-0.9-3.6-2.1-5-3.7
			c-1.4-1.6-2.4-3.5-3.2-5.6C1003.9,532.6,1003.6,530.3,1003.6,527.8z M1009.5,527v0.7c0,1.7,0.2,3.4,0.6,4.9c0.4,1.5,1,2.9,1.9,4.1
			c0.8,1.2,1.9,2.1,3.1,2.8s2.7,1,4.4,1c1.6,0,3.1-0.3,4.3-1s2.3-1.6,3.1-2.8c0.8-1.2,1.4-2.5,1.9-4.1c0.4-1.5,0.6-3.2,0.6-4.9V527
			c0-1.7-0.2-3.3-0.6-4.9c-0.4-1.5-1-2.9-1.9-4.1c-0.8-1.2-1.9-2.1-3.1-2.8c-1.2-0.7-2.7-1-4.3-1c-1.6,0-3.1,0.3-4.3,1
			c-1.2,0.7-2.3,1.6-3.1,2.8c-0.8,1.2-1.4,2.6-1.9,4.1C1009.7,523.7,1009.5,525.3,1009.5,527z"/>
		<path class="st7" d="M1042.9,541.6c0-1,0.3-1.9,1-2.6c0.6-0.7,1.6-1,2.8-1s2.1,0.3,2.8,1c0.6,0.7,1,1.6,1,2.6c0,1-0.3,1.8-1,2.5
			s-1.6,1-2.8,1s-2.1-0.3-2.8-1C1043.2,543.5,1042.9,542.6,1042.9,541.6z"/>
		<path class="st7" d="M314.7,577.1V624h-6.2v-46.9H314.7z M321.2,624h-9.8l0.1-5.1h9.7c3.4,0,6.1-0.7,8.4-2.1
			c2.2-1.4,3.9-3.4,5-5.9s1.7-5.5,1.7-8.9v-2.9c0-2.7-0.3-5.1-1-7.2s-1.6-3.9-2.8-5.3c-1.2-1.5-2.8-2.6-4.6-3.3
			c-1.8-0.8-3.9-1.1-6.2-1.1h-10.6v-5.1h10.6c3.1,0,5.9,0.5,8.4,1.5c2.5,1,4.7,2.5,6.6,4.4c1.8,1.9,3.2,4.2,4.2,7
			c1,2.7,1.5,5.8,1.5,9.2v2.8c0,3.4-0.5,6.5-1.5,9.2c-1,2.7-2.4,5-4.3,6.9c-1.9,1.9-4.1,3.4-6.7,4.4
			C327.4,623.5,324.4,624,321.2,624z"/>
		<path class="st7" d="M365.3,624.6c-2.4,0-4.6-0.4-6.6-1.2c-2-0.8-3.7-2-5.1-3.5c-1.4-1.5-2.5-3.3-3.2-5.3
			c-0.8-2.1-1.1-4.3-1.1-6.8v-1.4c0-2.8,0.4-5.4,1.3-7.6s2-4.1,3.4-5.7c1.4-1.5,3.1-2.7,4.9-3.5c1.8-0.8,3.7-1.2,5.7-1.2
			c2.5,0,4.6,0.4,6.5,1.3c1.8,0.9,3.3,2.1,4.5,3.6c1.2,1.5,2,3.3,2.6,5.4c0.6,2.1,0.8,4.3,0.8,6.8v2.7h-26v-4.9H373v-0.5
			c-0.1-1.5-0.4-3.1-1-4.5s-1.4-2.7-2.6-3.6c-1.2-0.9-2.8-1.4-4.8-1.4c-1.4,0-2.6,0.3-3.7,0.9c-1.1,0.6-2.1,1.4-2.9,2.5
			c-0.8,1.1-1.5,2.5-1.9,4.1s-0.7,3.5-0.7,5.6v1.4c0,1.7,0.2,3.2,0.7,4.7c0.5,1.5,1.1,2.7,2,3.8c0.9,1.1,2,2,3.3,2.6
			c1.3,0.6,2.7,0.9,4.4,0.9c2.1,0,3.9-0.4,5.3-1.3c1.5-0.9,2.7-2,3.8-3.4l3.6,2.9c-0.8,1.1-1.7,2.2-2.9,3.3s-2.6,1.9-4.3,2.5
			C369.6,624.3,367.6,624.6,365.3,624.6z"/>
		<path class="st7" d="M402.2,589.1v4.6h-18.9v-4.6H402.2z M394.8,624h-6v-38.5c0-2.5,0.5-4.6,1.4-6.4c0.9-1.7,2.2-3,3.9-3.9
			c1.7-0.9,3.8-1.3,6.1-1.3c0.7,0,1.4,0,2.1,0.1c0.7,0.1,1.4,0.2,2,0.4l-0.3,4.9c-0.5-0.1-1-0.2-1.5-0.2c-0.6,0-1.1-0.1-1.7-0.1
			c-1.3,0-2.4,0.3-3.3,0.8c-0.9,0.5-1.6,1.2-2.1,2.2c-0.5,1-0.7,2.2-0.7,3.6V624z"/>
		<path class="st7" d="M408.9,579.9c0-1,0.3-1.8,0.9-2.4c0.6-0.7,1.5-1,2.6-1c1.1,0,2,0.3,2.6,1s0.9,1.5,0.9,2.4
			c0,0.9-0.3,1.7-0.9,2.4c-0.6,0.7-1.5,1-2.6,1c-1.2,0-2-0.3-2.6-1C409.1,581.6,408.9,580.8,408.9,579.9z M415.3,589.1V624h-6v-34.9
			H415.3z"/>
		<path class="st7" d="M430.8,596.6V624h-6v-34.9h5.6L430.8,596.6z M429.4,605.2l-2.5-0.1c0-2.4,0.4-4.6,1.1-6.6
			c0.7-2,1.7-3.8,2.9-5.3c1.2-1.5,2.7-2.7,4.5-3.5c1.7-0.8,3.6-1.2,5.8-1.2c1.7,0,3.3,0.2,4.6,0.7c1.4,0.5,2.6,1.2,3.5,2.2
			c1,1,1.7,2.3,2.2,3.9c0.5,1.6,0.8,3.6,0.8,5.8V624h-6v-22.9c0-1.8-0.3-3.3-0.8-4.4c-0.5-1.1-1.3-1.9-2.4-2.4
			c-1-0.5-2.3-0.8-3.8-0.8c-1.5,0-2.8,0.3-4,0.9c-1.2,0.6-2.3,1.5-3.1,2.6s-1.5,2.3-2,3.8C429.7,602.2,429.4,603.7,429.4,605.2z"/>
		<path class="st7" d="M461.3,579.9c0-1,0.3-1.8,0.9-2.4c0.6-0.7,1.5-1,2.6-1c1.1,0,2,0.3,2.6,1s0.9,1.5,0.9,2.4
			c0,0.9-0.3,1.7-0.9,2.4c-0.6,0.7-1.5,1-2.6,1c-1.2,0-2-0.3-2.6-1C461.6,581.6,461.3,580.8,461.3,579.9z M467.8,589.1V624h-6v-34.9
			H467.8z"/>
		<path class="st7" d="M492,589.1v4.6h-18.9v-4.6H492z M479.5,580.7h6v34.7c0,1.2,0.2,2.1,0.5,2.7c0.4,0.6,0.8,1,1.4,1.2
			s1.2,0.3,1.9,0.3c0.5,0,1,0,1.6-0.1s1-0.2,1.2-0.2l0,4.9c-0.5,0.1-1.1,0.3-1.9,0.4c-0.8,0.1-1.7,0.2-2.8,0.2c-1.5,0-2.8-0.3-4-0.9
			s-2.2-1.6-2.9-2.9c-0.7-1.4-1.1-3.2-1.1-5.5V580.7z"/>
		<path class="st7" d="M499,579.9c0-1,0.3-1.8,0.9-2.4c0.6-0.7,1.5-1,2.6-1c1.1,0,2,0.3,2.6,1s0.9,1.5,0.9,2.4
			c0,0.9-0.3,1.7-0.9,2.4c-0.6,0.7-1.5,1-2.6,1c-1.2,0-2-0.3-2.6-1C499.3,581.6,499,580.8,499,579.9z M505.4,589.1V624h-6v-34.9
			H505.4z"/>
		<path class="st7" d="M517.6,589.1l9.8,29.6l0.7,5.2h-4l-12.6-34.9H517.6z M525.6,618.6l9.5-29.5h6.1L528.7,624h-4L525.6,618.6z"/>
		<path class="st7" d="M568.6,602.9l0.1,4.2h-6c-1.7,0-3.2,0.1-4.5,0.4c-1.3,0.3-2.4,0.7-3.4,1.2s-1.6,1.2-2.1,2
			c-0.5,0.8-0.7,1.7-0.7,2.8c0,1.1,0.2,2.1,0.7,3c0.5,0.9,1.2,1.6,2.2,2.1c1,0.5,2.2,0.8,3.7,0.8c1.8,0,3.4-0.4,4.8-1.2
			c1.4-0.8,2.5-1.7,3.3-2.8c0.8-1.1,1.3-2.2,1.3-3.3l2.5,2.9c-0.2,0.9-0.6,1.9-1.2,3c-0.7,1.1-1.6,2.1-2.7,3.1
			c-1.1,1-2.4,1.8-3.9,2.5s-3.2,1-5.1,1c-2.4,0-4.4-0.5-6.2-1.4c-1.8-0.9-3.1-2.2-4.1-3.7c-1-1.6-1.5-3.3-1.5-5.2
			c0-1.9,0.4-3.5,1.1-4.9c0.7-1.4,1.8-2.6,3.2-3.6c1.4-1,3-1.7,5-2.2s4.1-0.7,6.5-0.7H568.6z M567.5,618v-18c0-1.4-0.3-2.6-0.8-3.6
			c-0.5-1-1.4-1.8-2.5-2.4s-2.4-0.8-4.1-0.8c-1.5,0-2.8,0.3-3.9,0.8s-2,1.2-2.6,2c-0.6,0.8-1,1.7-1,2.7h-6c0-1.2,0.3-2.5,1-3.7
			s1.6-2.3,2.8-3.3c1.2-1,2.7-1.8,4.4-2.4c1.7-0.6,3.6-0.9,5.7-0.9c2.5,0,4.8,0.4,6.7,1.3c1.9,0.9,3.5,2.2,4.6,3.9
			c1.1,1.7,1.7,3.9,1.7,6.5v16.2c0,1.2,0.1,2.4,0.3,3.7c0.2,1.3,0.5,2.4,0.9,3.4v0.5h-6.2c-0.3-0.7-0.5-1.6-0.7-2.8
			C567.6,620.1,567.5,619,567.5,618z"/>
		<path class="st7" d="M588.8,596.1V624h-6v-34.9h5.7L588.8,596.1z M587.6,605.2l-2.8-0.1c0-2.4,0.3-4.6,0.9-6.6s1.5-3.8,2.7-5.3
			s2.7-2.7,4.4-3.5c1.8-0.8,3.8-1.2,6.1-1.2c1.6,0,3.1,0.2,4.5,0.7c1.4,0.5,2.6,1.2,3.6,2.2s1.8,2.3,2.4,3.8s0.8,3.4,0.8,5.6V624h-6
			v-22.9c0-1.8-0.3-3.3-0.9-4.4c-0.6-1.1-1.5-1.9-2.6-2.4c-1.1-0.5-2.4-0.8-3.9-0.8c-1.8,0-3.2,0.3-4.4,0.9s-2.1,1.5-2.8,2.6
			s-1.2,2.3-1.5,3.8C587.7,602.2,587.6,603.7,587.6,605.2z M610.2,602l-4,1.2c0-1.9,0.3-3.7,1-5.5c0.6-1.8,1.5-3.3,2.7-4.7
			s2.6-2.5,4.3-3.3s3.7-1.2,5.9-1.2c1.9,0,3.5,0.2,5,0.7c1.5,0.5,2.7,1.3,3.7,2.3c1,1,1.8,2.3,2.3,3.9s0.8,3.5,0.8,5.7V624h-6v-23
			c0-2-0.3-3.5-0.9-4.6c-0.6-1.1-1.5-1.8-2.6-2.3c-1.1-0.4-2.4-0.7-3.9-0.7c-1.3,0-2.5,0.2-3.5,0.7s-1.9,1.1-2.5,1.9
			c-0.7,0.8-1.2,1.7-1.6,2.7C610.3,599.7,610.2,600.8,610.2,602z"/>
		<path class="st7" d="M655.2,624.6c-2.4,0-4.6-0.4-6.6-1.2c-2-0.8-3.7-2-5.1-3.5s-2.5-3.3-3.2-5.3s-1.1-4.3-1.1-6.8v-1.4
			c0-2.8,0.4-5.4,1.3-7.6s2-4.1,3.4-5.7s3.1-2.7,4.9-3.5s3.7-1.2,5.7-1.2c2.5,0,4.6,0.4,6.5,1.3s3.3,2.1,4.5,3.6
			c1.2,1.5,2,3.3,2.6,5.4c0.6,2.1,0.8,4.3,0.8,6.8v2.7h-26v-4.9h20.1v-0.5c-0.1-1.5-0.4-3.1-1-4.5c-0.5-1.5-1.4-2.7-2.6-3.6
			s-2.8-1.4-4.8-1.4c-1.4,0-2.6,0.3-3.7,0.9c-1.1,0.6-2.1,1.4-2.9,2.5s-1.5,2.5-1.9,4.1s-0.7,3.5-0.7,5.6v1.4c0,1.7,0.2,3.2,0.7,4.7
			s1.1,2.7,2,3.8c0.9,1.1,2,2,3.3,2.6s2.7,0.9,4.4,0.9c2.1,0,3.9-0.4,5.3-1.3s2.7-2,3.8-3.4l3.6,2.9c-0.8,1.1-1.7,2.2-2.9,3.3
			s-2.6,1.9-4.3,2.5C659.5,624.3,657.5,624.6,655.2,624.6z"/>
		<path class="st7" d="M681.7,596.6V624h-6v-34.9h5.6L681.7,596.6z M680.3,605.2l-2.5-0.1c0-2.4,0.4-4.6,1.1-6.6s1.7-3.8,2.9-5.3
			s2.7-2.7,4.5-3.5c1.7-0.8,3.6-1.2,5.8-1.2c1.7,0,3.3,0.2,4.6,0.7c1.4,0.5,2.6,1.2,3.5,2.2s1.7,2.3,2.2,3.9
			c0.5,1.6,0.8,3.6,0.8,5.8V624h-6v-22.9c0-1.8-0.3-3.3-0.8-4.4c-0.5-1.1-1.3-1.9-2.4-2.4c-1-0.5-2.3-0.8-3.8-0.8
			c-1.5,0-2.8,0.3-4,0.9s-2.3,1.5-3.1,2.6c-0.9,1.1-1.5,2.3-2,3.8C680.5,602.2,680.3,603.7,680.3,605.2z"/>
		<path class="st7" d="M726.8,589.1v4.6h-18.9v-4.6H726.8z M714.3,580.7h6v34.7c0,1.2,0.2,2.1,0.5,2.7s0.8,1,1.4,1.2
			s1.2,0.3,1.9,0.3c0.5,0,1,0,1.6-0.1c0.5-0.1,1-0.2,1.2-0.2l0,4.9c-0.5,0.1-1.1,0.3-1.9,0.4c-0.8,0.1-1.7,0.2-2.8,0.2
			c-1.5,0-2.8-0.3-4-0.9s-2.2-1.6-2.9-2.9c-0.7-1.4-1.1-3.2-1.1-5.5V580.7z"/>
		<path class="st7" d="M748.3,624.6c-2.4,0-4.6-0.4-6.6-1.2c-2-0.8-3.7-2-5.1-3.5s-2.5-3.3-3.2-5.3s-1.1-4.3-1.1-6.8v-1.4
			c0-2.8,0.4-5.4,1.3-7.6s2-4.1,3.4-5.7s3.1-2.7,4.9-3.5s3.7-1.2,5.7-1.2c2.5,0,4.6,0.4,6.5,1.3s3.3,2.1,4.5,3.6
			c1.2,1.5,2,3.3,2.6,5.4c0.6,2.1,0.8,4.3,0.8,6.8v2.7h-26v-4.9h20.1v-0.5c-0.1-1.5-0.4-3.1-1-4.5c-0.5-1.5-1.4-2.7-2.6-3.6
			s-2.8-1.4-4.8-1.4c-1.4,0-2.6,0.3-3.7,0.9c-1.1,0.6-2.1,1.4-2.9,2.5s-1.5,2.5-1.9,4.1s-0.7,3.5-0.7,5.6v1.4c0,1.7,0.2,3.2,0.7,4.7
			s1.1,2.7,2,3.8c0.9,1.1,2,2,3.3,2.6s2.7,0.9,4.4,0.9c2.1,0,3.9-0.4,5.3-1.3s2.7-2,3.8-3.4l3.6,2.9c-0.8,1.1-1.7,2.2-2.9,3.3
			s-2.6,1.9-4.3,2.5C752.6,624.3,750.6,624.6,748.3,624.6z"/>
		<path class="st7" d="M787.8,589.1l9.8,29.6l0.7,5.2h-4l-12.6-34.9H787.8z M795.8,618.6l9.5-29.5h6.1L798.9,624h-4L795.8,618.6z"/>
		<path class="st7" d="M838.7,602.9l0.1,4.2h-6c-1.7,0-3.2,0.1-4.5,0.4c-1.3,0.3-2.4,0.7-3.4,1.2s-1.6,1.2-2.1,2s-0.7,1.7-0.7,2.8
			c0,1.1,0.2,2.1,0.7,3s1.2,1.6,2.2,2.1c1,0.5,2.2,0.8,3.7,0.8c1.8,0,3.4-0.4,4.8-1.2s2.5-1.7,3.3-2.8c0.8-1.1,1.3-2.2,1.3-3.3
			l2.5,2.9c-0.2,0.9-0.6,1.9-1.2,3s-1.6,2.1-2.7,3.1c-1.1,1-2.4,1.8-3.9,2.5c-1.5,0.7-3.2,1-5.1,1c-2.4,0-4.4-0.5-6.2-1.4
			c-1.8-0.9-3.1-2.2-4.1-3.7c-1-1.6-1.5-3.3-1.5-5.2c0-1.9,0.4-3.5,1.1-4.9c0.7-1.4,1.8-2.6,3.2-3.6c1.4-1,3-1.7,5-2.2
			s4.1-0.7,6.5-0.7H838.7z M837.7,618v-18c0-1.4-0.3-2.6-0.8-3.6c-0.5-1-1.4-1.8-2.5-2.4s-2.4-0.8-4.1-0.8c-1.5,0-2.8,0.3-3.9,0.8
			c-1.1,0.5-2,1.2-2.6,2s-1,1.7-1,2.7h-6c0-1.2,0.3-2.5,1-3.7s1.6-2.3,2.8-3.3s2.7-1.8,4.4-2.4c1.7-0.6,3.6-0.9,5.7-0.9
			c2.5,0,4.8,0.4,6.7,1.3s3.5,2.2,4.6,3.9c1.1,1.7,1.7,3.9,1.7,6.5v16.2c0,1.2,0.1,2.4,0.3,3.7c0.2,1.3,0.5,2.4,0.9,3.4v0.5h-6.2
			c-0.3-0.7-0.5-1.6-0.7-2.8C837.8,620.1,837.7,619,837.7,618z"/>
		<path class="st7" d="M859.5,574.5V624h-6v-49.5H859.5z"/>
		<path class="st7" d="M883.5,624.6c-2.4,0-4.6-0.4-6.6-1.2c-2-0.8-3.7-2-5.1-3.5s-2.5-3.3-3.2-5.3s-1.1-4.3-1.1-6.8v-1.4
			c0-2.8,0.4-5.4,1.3-7.6s2-4.1,3.4-5.7s3.1-2.7,4.9-3.5s3.7-1.2,5.7-1.2c2.5,0,4.6,0.4,6.5,1.3s3.3,2.1,4.5,3.6
			c1.2,1.5,2,3.3,2.6,5.4c0.6,2.1,0.8,4.3,0.8,6.8v2.7h-26v-4.9h20.1v-0.5c-0.1-1.5-0.4-3.1-1-4.5c-0.5-1.5-1.4-2.7-2.6-3.6
			s-2.8-1.4-4.8-1.4c-1.4,0-2.6,0.3-3.7,0.9c-1.1,0.6-2.1,1.4-2.9,2.5s-1.5,2.5-1.9,4.1s-0.7,3.5-0.7,5.6v1.4c0,1.7,0.2,3.2,0.7,4.7
			s1.1,2.7,2,3.8c0.9,1.1,2,2,3.3,2.6s2.7,0.9,4.4,0.9c2.1,0,3.9-0.4,5.3-1.3s2.7-2,3.8-3.4l3.6,2.9c-0.8,1.1-1.7,2.2-2.9,3.3
			s-2.6,1.9-4.3,2.5C887.8,624.3,885.8,624.6,883.5,624.6z"/>
		<path class="st7" d="M926.9,574.5V624h-6v-49.5H926.9z"/>
		<path class="st7" d="M958.1,602.9l0.1,4.2h-6c-1.7,0-3.2,0.1-4.5,0.4c-1.3,0.3-2.4,0.7-3.4,1.2s-1.6,1.2-2.1,2s-0.7,1.7-0.7,2.8
			c0,1.1,0.2,2.1,0.7,3s1.2,1.6,2.2,2.1c1,0.5,2.2,0.8,3.7,0.8c1.8,0,3.4-0.4,4.8-1.2s2.5-1.7,3.3-2.8c0.8-1.1,1.3-2.2,1.3-3.3
			l2.5,2.9c-0.2,0.9-0.6,1.9-1.2,3s-1.6,2.1-2.7,3.1c-1.1,1-2.4,1.8-3.9,2.5c-1.5,0.7-3.2,1-5.1,1c-2.4,0-4.4-0.5-6.2-1.4
			c-1.8-0.9-3.1-2.2-4.1-3.7c-1-1.6-1.5-3.3-1.5-5.2c0-1.9,0.4-3.5,1.1-4.9c0.7-1.4,1.8-2.6,3.2-3.6c1.4-1,3-1.7,5-2.2
			s4.1-0.7,6.5-0.7H958.1z M957.1,618v-18c0-1.4-0.3-2.6-0.8-3.6c-0.5-1-1.4-1.8-2.5-2.4s-2.4-0.8-4.1-0.8c-1.5,0-2.8,0.3-3.9,0.8
			c-1.1,0.5-2,1.2-2.6,2s-1,1.7-1,2.7h-6c0-1.2,0.3-2.5,1-3.7s1.6-2.3,2.8-3.3s2.7-1.8,4.4-2.4c1.7-0.6,3.6-0.9,5.7-0.9
			c2.5,0,4.8,0.4,6.7,1.3s3.5,2.2,4.6,3.9c1.1,1.7,1.7,3.9,1.7,6.5v16.2c0,1.2,0.1,2.4,0.3,3.7c0.2,1.3,0.5,2.4,0.9,3.4v0.5H958
			c-0.3-0.7-0.5-1.6-0.7-2.8C957.1,620.1,957.1,619,957.1,618z"/>
		<path class="st7" d="M313.5,675v41.6h-6v-48.3h5.5L313.5,675z M337,685.5v0.7c0,2.5-0.3,4.9-0.9,7c-0.6,2.2-1.5,4-2.6,5.6
			c-1.1,1.6-2.6,2.8-4.2,3.7s-3.6,1.3-5.8,1.3c-2.2,0-4.2-0.4-5.9-1.1c-1.7-0.7-3.1-1.8-4.3-3.2c-1.2-1.4-2.1-3.1-2.8-5
			c-0.7-2-1.2-4.2-1.4-6.6v-3.6c0.3-2.6,0.7-4.9,1.5-6.9c0.7-2,1.6-3.8,2.8-5.2c1.2-1.5,2.6-2.6,4.3-3.3s3.6-1.1,5.8-1.1
			s4.1,0.4,5.8,1.3c1.7,0.8,3.1,2.1,4.3,3.6c1.2,1.6,2,3.4,2.6,5.6C336.7,680.4,337,682.8,337,685.5z M331,686.2v-0.7
			c0-1.7-0.2-3.4-0.5-4.9c-0.4-1.5-0.9-2.9-1.7-4.1c-0.8-1.2-1.7-2.1-2.9-2.8c-1.2-0.7-2.6-1-4.2-1c-1.5,0-2.8,0.3-3.9,0.8
			c-1.1,0.5-2,1.2-2.8,2.1s-1.4,1.9-1.9,3s-0.8,2.3-1.1,3.4v8.3c0.4,1.5,1,2.9,1.8,4.2c0.8,1.3,1.8,2.4,3.1,3.2
			c1.3,0.8,2.9,1.2,4.9,1.2c1.6,0,3-0.3,4.2-1c1.2-0.7,2.1-1.6,2.9-2.8c0.8-1.2,1.3-2.5,1.7-4.1C330.8,689.5,331,687.9,331,686.2z"
			/>
		<path class="st7" d="M359.1,703.8c-2.4,0-4.6-0.4-6.6-1.2c-2-0.8-3.7-2-5.1-3.5c-1.4-1.5-2.5-3.3-3.2-5.3
			c-0.8-2.1-1.1-4.3-1.1-6.8v-1.4c0-2.8,0.4-5.4,1.3-7.6s2-4.1,3.4-5.7c1.4-1.5,3.1-2.7,4.9-3.5c1.8-0.8,3.7-1.2,5.7-1.2
			c2.5,0,4.6,0.4,6.5,1.3c1.8,0.9,3.3,2.1,4.5,3.6s2,3.3,2.6,5.4c0.6,2.1,0.8,4.3,0.8,6.8v2.7h-26v-4.9h20.1v-0.5
			c-0.1-1.5-0.4-3-1-4.5c-0.5-1.5-1.4-2.7-2.6-3.6c-1.2-0.9-2.8-1.4-4.8-1.4c-1.4,0-2.6,0.3-3.7,0.9c-1.1,0.6-2.1,1.4-2.9,2.5
			c-0.8,1.1-1.5,2.5-1.9,4.1s-0.7,3.5-0.7,5.6v1.4c0,1.7,0.2,3.2,0.7,4.7c0.5,1.4,1.1,2.7,2,3.8c0.9,1.1,2,2,3.3,2.6
			c1.3,0.6,2.7,0.9,4.4,0.9c2.1,0,3.9-0.4,5.3-1.3c1.5-0.9,2.7-2,3.8-3.4l3.6,2.9c-0.8,1.1-1.7,2.2-2.9,3.3s-2.6,1.9-4.3,2.5
			C363.4,703.5,361.4,703.8,359.1,703.8z"/>
		<path class="st7" d="M385.6,675.8v27.4h-6v-34.9h5.6L385.6,675.8z M384.2,684.4l-2.5-0.1c0-2.4,0.4-4.6,1.1-6.6
			c0.7-2,1.7-3.8,2.9-5.3c1.2-1.5,2.7-2.7,4.5-3.5c1.7-0.8,3.6-1.2,5.8-1.2c1.7,0,3.3,0.2,4.6,0.7c1.4,0.5,2.6,1.2,3.5,2.2
			c1,1,1.7,2.3,2.2,3.9s0.8,3.5,0.8,5.8v22.8h-6v-22.9c0-1.8-0.3-3.3-0.8-4.4c-0.5-1.1-1.3-1.9-2.4-2.4s-2.3-0.8-3.8-0.8
			c-1.5,0-2.8,0.3-4,0.9c-1.2,0.6-2.3,1.5-3.1,2.6s-1.5,2.3-2,3.8S384.2,682.9,384.2,684.4z"/>
		<path class="st7" d="M437.7,682.1l0.1,4.2h-6c-1.7,0-3.2,0.1-4.5,0.4c-1.3,0.3-2.4,0.7-3.4,1.2c-0.9,0.5-1.6,1.2-2.1,2
			c-0.5,0.8-0.7,1.7-0.7,2.8c0,1.1,0.2,2.1,0.7,3c0.5,0.9,1.2,1.6,2.2,2.1s2.2,0.8,3.7,0.8c1.8,0,3.4-0.4,4.8-1.2
			c1.4-0.8,2.5-1.7,3.3-2.8c0.8-1.1,1.3-2.2,1.3-3.3l2.5,2.9c-0.2,0.9-0.6,1.9-1.2,3c-0.7,1.1-1.6,2.1-2.7,3.1
			c-1.1,1-2.4,1.8-3.9,2.5c-1.5,0.7-3.2,1-5.1,1c-2.4,0-4.4-0.5-6.2-1.4s-3.1-2.2-4.1-3.7c-1-1.6-1.5-3.3-1.5-5.2
			c0-1.9,0.4-3.5,1.1-4.9c0.7-1.4,1.8-2.6,3.2-3.6c1.4-1,3-1.7,5-2.2c1.9-0.5,4.1-0.7,6.5-0.7H437.7z M436.6,697.2v-18
			c0-1.4-0.3-2.6-0.8-3.6s-1.4-1.8-2.5-2.4c-1.1-0.6-2.4-0.8-4.1-0.8c-1.5,0-2.8,0.3-3.9,0.8s-2,1.2-2.6,2c-0.6,0.8-1,1.7-1,2.7h-6
			c0-1.2,0.3-2.5,1-3.7s1.6-2.3,2.8-3.3c1.2-1,2.7-1.8,4.4-2.4s3.6-0.9,5.7-0.9c2.5,0,4.8,0.4,6.7,1.3c1.9,0.9,3.5,2.2,4.6,3.9
			c1.1,1.7,1.7,3.9,1.7,6.5v16.2c0,1.2,0.1,2.4,0.3,3.7c0.2,1.3,0.5,2.4,0.9,3.4v0.5h-6.2c-0.3-0.7-0.5-1.6-0.7-2.8
			C436.7,699.3,436.6,698.2,436.6,697.2z"/>
		<path class="st7" d="M482.3,698.9c1.4,0,2.7-0.3,3.9-0.9c1.2-0.6,2.2-1.4,3-2.4c0.8-1,1.2-2.2,1.3-3.5h5.7c-0.1,2.1-0.8,4-2.1,5.8
			c-1.3,1.8-2.9,3.2-5,4.3c-2.1,1.1-4.3,1.6-6.8,1.6c-2.6,0-4.9-0.5-6.8-1.4c-1.9-0.9-3.6-2.2-4.8-3.8c-1.3-1.6-2.2-3.5-2.9-5.6
			c-0.6-2.1-1-4.3-1-6.7v-1.4c0-2.3,0.3-4.6,1-6.7c0.6-2.1,1.6-3.9,2.9-5.6c1.3-1.6,2.9-2.9,4.8-3.8c1.9-0.9,4.2-1.4,6.8-1.4
			c2.7,0,5.1,0.6,7.2,1.7c2,1.1,3.6,2.6,4.8,4.5c1.2,1.9,1.8,4.1,1.9,6.5h-5.7c-0.1-1.4-0.5-2.7-1.2-3.9c-0.7-1.2-1.6-2.1-2.8-2.8
			s-2.6-1-4.2-1c-1.8,0-3.4,0.4-4.6,1.1c-1.2,0.7-2.2,1.7-2.9,2.9c-0.7,1.2-1.2,2.6-1.5,4c-0.3,1.5-0.5,3-0.5,4.5v1.4
			c0,1.5,0.1,3,0.5,4.5c0.3,1.5,0.8,2.8,1.5,4c0.7,1.2,1.7,2.2,2.9,2.9C478.9,698.6,480.4,698.9,482.3,698.9z"/>
		<path class="st7" d="M524.5,682.1l0.1,4.2h-6c-1.7,0-3.2,0.1-4.5,0.4c-1.3,0.3-2.4,0.7-3.4,1.2c-0.9,0.5-1.6,1.2-2.1,2
			c-0.5,0.8-0.7,1.7-0.7,2.8c0,1.1,0.2,2.1,0.7,3c0.5,0.9,1.2,1.6,2.2,2.1s2.2,0.8,3.7,0.8c1.8,0,3.4-0.4,4.8-1.2
			c1.4-0.8,2.5-1.7,3.3-2.8c0.8-1.1,1.3-2.2,1.3-3.3l2.5,2.9c-0.2,0.9-0.6,1.9-1.2,3c-0.7,1.1-1.6,2.1-2.7,3.1
			c-1.1,1-2.4,1.8-3.9,2.5c-1.5,0.7-3.2,1-5.1,1c-2.4,0-4.4-0.5-6.2-1.4s-3.1-2.2-4.1-3.7c-1-1.6-1.5-3.3-1.5-5.2
			c0-1.9,0.4-3.5,1.1-4.9c0.7-1.4,1.8-2.6,3.2-3.6c1.4-1,3-1.7,5-2.2c1.9-0.5,4.1-0.7,6.5-0.7H524.5z M523.4,697.2v-18
			c0-1.4-0.3-2.6-0.8-3.6s-1.4-1.8-2.5-2.4c-1.1-0.6-2.4-0.8-4.1-0.8c-1.5,0-2.8,0.3-3.9,0.8s-2,1.2-2.6,2c-0.6,0.8-1,1.7-1,2.7h-6
			c0-1.2,0.3-2.5,1-3.7s1.6-2.3,2.8-3.3c1.2-1,2.7-1.8,4.4-2.4s3.6-0.9,5.7-0.9c2.5,0,4.8,0.4,6.7,1.3c1.9,0.9,3.5,2.2,4.6,3.9
			c1.1,1.7,1.7,3.9,1.7,6.5v16.2c0,1.2,0.1,2.4,0.3,3.7c0.2,1.3,0.5,2.4,0.9,3.4v0.5h-6.2c-0.3-0.7-0.5-1.6-0.7-2.8
			C523.5,699.3,523.4,698.2,523.4,697.2z"/>
		<path class="st7" d="M537.3,686.2v-0.7c0-2.7,0.3-5.1,1-7.3c0.7-2.2,1.6-4.1,2.8-5.6c1.2-1.6,2.7-2.8,4.4-3.6
			c1.7-0.8,3.6-1.3,5.7-1.3c2.2,0,4.1,0.4,5.8,1.1s3,1.9,4.2,3.3c1.1,1.5,2.1,3.2,2.7,5.2c0.7,2,1.1,4.4,1.4,6.9v3
			c-0.2,2.6-0.7,4.9-1.4,6.9s-1.6,3.8-2.7,5.2c-1.1,1.4-2.6,2.5-4.2,3.3c-1.7,0.8-3.6,1.1-5.8,1.1c-2,0-3.9-0.4-5.6-1.3
			c-1.7-0.9-3.1-2.1-4.4-3.7c-1.2-1.6-2.1-3.5-2.8-5.6C537.6,691,537.3,688.7,537.3,686.2z M543.3,685.5v0.7c0,1.7,0.2,3.4,0.5,4.9
			s0.9,2.9,1.7,4c0.8,1.2,1.7,2.1,2.9,2.7c1.2,0.7,2.5,1,4.2,1c2,0,3.6-0.4,4.9-1.3c1.3-0.8,2.3-1.9,3.1-3.3s1.4-2.9,1.8-4.5V682
			c-0.3-1.2-0.6-2.3-1.1-3.4s-1.1-2.1-1.9-3c-0.8-0.9-1.7-1.6-2.8-2.1c-1.1-0.5-2.4-0.8-3.9-0.8c-1.6,0-3,0.3-4.2,1
			c-1.2,0.7-2.1,1.6-2.9,2.8c-0.8,1.2-1.3,2.5-1.7,4.1S543.3,683.7,543.3,685.5z M560.8,696.4v-42.7h6v49.5h-5.5L560.8,696.4z"/>
		<path class="st7" d="M597.6,682.1l0.1,4.2h-6c-1.7,0-3.2,0.1-4.5,0.4s-2.4,0.7-3.4,1.2c-0.9,0.5-1.6,1.2-2.1,2
			c-0.5,0.8-0.7,1.7-0.7,2.8c0,1.1,0.2,2.1,0.7,3s1.2,1.6,2.2,2.1c1,0.5,2.2,0.8,3.7,0.8c1.8,0,3.4-0.4,4.8-1.2s2.5-1.7,3.3-2.8
			c0.8-1.1,1.3-2.2,1.3-3.3l2.5,2.9c-0.2,0.9-0.6,1.9-1.2,3s-1.6,2.1-2.7,3.1c-1.1,1-2.4,1.8-3.9,2.5c-1.5,0.7-3.2,1-5.1,1
			c-2.4,0-4.4-0.5-6.2-1.4c-1.8-0.9-3.1-2.2-4.1-3.7s-1.5-3.3-1.5-5.2c0-1.9,0.4-3.5,1.1-4.9s1.8-2.6,3.2-3.6s3-1.7,5-2.2
			c1.9-0.5,4.1-0.7,6.5-0.7H597.6z M596.6,697.2v-18c0-1.4-0.3-2.6-0.8-3.6c-0.5-1-1.4-1.8-2.5-2.4c-1.1-0.6-2.4-0.8-4.1-0.8
			c-1.5,0-2.8,0.3-3.9,0.8c-1.1,0.5-2,1.2-2.6,2s-1,1.7-1,2.7h-6c0-1.2,0.3-2.5,1-3.7s1.6-2.3,2.8-3.3s2.7-1.8,4.4-2.4
			c1.7-0.6,3.6-0.9,5.7-0.9c2.5,0,4.8,0.4,6.7,1.3c1.9,0.9,3.5,2.2,4.6,3.9s1.7,3.9,1.7,6.5v16.2c0,1.2,0.1,2.4,0.3,3.7
			c0.2,1.3,0.5,2.4,0.9,3.4v0.5h-6.2c-0.3-0.7-0.5-1.6-0.7-2.8C596.7,699.3,596.6,698.2,596.6,697.2z"/>
		<path class="st7" d="M642.2,698.9c1.4,0,2.7-0.3,3.9-0.9s2.2-1.4,3-2.4c0.8-1,1.2-2.2,1.3-3.5h5.7c-0.1,2.1-0.8,4-2.1,5.8
			c-1.3,1.8-2.9,3.2-5,4.3c-2.1,1.1-4.3,1.6-6.8,1.6c-2.6,0-4.9-0.5-6.8-1.4c-1.9-0.9-3.6-2.2-4.8-3.8c-1.3-1.6-2.2-3.5-2.9-5.6
			c-0.6-2.1-1-4.3-1-6.7v-1.4c0-2.3,0.3-4.6,1-6.7s1.6-3.9,2.9-5.6c1.3-1.6,2.9-2.9,4.8-3.8c1.9-0.9,4.2-1.4,6.8-1.4
			c2.7,0,5.1,0.6,7.2,1.7s3.6,2.6,4.8,4.5c1.2,1.9,1.8,4.1,1.9,6.5h-5.7c-0.1-1.4-0.5-2.7-1.2-3.9c-0.7-1.2-1.6-2.1-2.8-2.8
			c-1.2-0.7-2.6-1-4.2-1c-1.8,0-3.4,0.4-4.6,1.1c-1.2,0.7-2.2,1.7-2.9,2.9s-1.2,2.6-1.5,4s-0.5,3-0.5,4.5v1.4c0,1.5,0.2,3,0.5,4.5
			s0.8,2.8,1.5,4c0.7,1.2,1.7,2.2,2.9,2.9C638.8,698.6,640.4,698.9,642.2,698.9z"/>
		<path class="st7" d="M677.3,703.8c-2.4,0-4.6-0.4-6.6-1.2c-2-0.8-3.7-2-5.1-3.5s-2.5-3.3-3.2-5.3s-1.1-4.3-1.1-6.8v-1.4
			c0-2.8,0.4-5.4,1.3-7.6s2-4.1,3.4-5.7s3.1-2.7,4.9-3.5c1.8-0.8,3.7-1.2,5.7-1.2c2.5,0,4.6,0.4,6.5,1.3c1.8,0.9,3.3,2.1,4.5,3.6
			s2,3.3,2.6,5.4s0.8,4.3,0.8,6.8v2.7h-26v-4.9h20.1v-0.5c-0.1-1.5-0.4-3-1-4.5c-0.5-1.5-1.4-2.7-2.6-3.6c-1.2-0.9-2.8-1.4-4.8-1.4
			c-1.4,0-2.6,0.3-3.7,0.9s-2.1,1.4-2.9,2.5c-0.8,1.1-1.5,2.5-1.9,4.1s-0.7,3.5-0.7,5.6v1.4c0,1.7,0.2,3.2,0.7,4.7
			c0.5,1.4,1.1,2.7,2,3.8c0.9,1.1,2,2,3.3,2.6s2.7,0.9,4.4,0.9c2.1,0,3.9-0.4,5.3-1.3s2.7-2,3.8-3.4l3.6,2.9
			c-0.8,1.1-1.7,2.2-2.9,3.3s-2.6,1.9-4.3,2.5C681.6,703.5,679.6,703.8,677.3,703.8z"/>
		<path class="st7" d="M703.8,675.8v27.4h-6v-34.9h5.6L703.8,675.8z M702.4,684.4l-2.5-0.1c0-2.4,0.4-4.6,1.1-6.6s1.7-3.8,2.9-5.3
			c1.2-1.5,2.7-2.7,4.5-3.5s3.6-1.2,5.8-1.2c1.7,0,3.3,0.2,4.6,0.7s2.6,1.2,3.5,2.2c1,1,1.7,2.3,2.2,3.9s0.8,3.5,0.8,5.8v22.8h-6
			v-22.9c0-1.8-0.3-3.3-0.8-4.4s-1.3-1.9-2.4-2.4s-2.3-0.8-3.8-0.8c-1.5,0-2.8,0.3-4,0.9c-1.2,0.6-2.3,1.5-3.1,2.6
			c-0.9,1.1-1.5,2.3-2,3.8C702.6,681.4,702.4,682.9,702.4,684.4z"/>
		<path class="st7" d="M748.9,668.3v4.6H730v-4.6H748.9z M736.4,659.9h6v34.7c0,1.2,0.2,2.1,0.5,2.7s0.8,1,1.4,1.2s1.2,0.3,1.9,0.3
			c0.5,0,1,0,1.6-0.1c0.5-0.1,1-0.2,1.2-0.2l0,4.9c-0.5,0.2-1.1,0.3-1.9,0.4c-0.8,0.1-1.7,0.2-2.8,0.2c-1.5,0-2.8-0.3-4-0.9
			s-2.2-1.6-2.9-2.9c-0.7-1.4-1.1-3.2-1.1-5.5V659.9z"/>
		<path class="st7" d="M777.5,682.1l0.1,4.2h-6c-1.7,0-3.2,0.1-4.5,0.4s-2.4,0.7-3.4,1.2c-0.9,0.5-1.6,1.2-2.1,2
			c-0.5,0.8-0.7,1.7-0.7,2.8c0,1.1,0.2,2.1,0.7,3s1.2,1.6,2.2,2.1c1,0.5,2.2,0.8,3.7,0.8c1.8,0,3.4-0.4,4.8-1.2s2.5-1.7,3.3-2.8
			c0.8-1.1,1.3-2.2,1.3-3.3l2.5,2.9c-0.2,0.9-0.6,1.9-1.2,3s-1.6,2.1-2.7,3.1c-1.1,1-2.4,1.8-3.9,2.5c-1.5,0.7-3.2,1-5.1,1
			c-2.4,0-4.4-0.5-6.2-1.4c-1.8-0.9-3.1-2.2-4.1-3.7s-1.5-3.3-1.5-5.2c0-1.9,0.4-3.5,1.1-4.9s1.8-2.6,3.2-3.6s3-1.7,5-2.2
			c1.9-0.5,4.1-0.7,6.5-0.7H777.5z M776.4,697.2v-18c0-1.4-0.3-2.6-0.8-3.6c-0.5-1-1.4-1.8-2.5-2.4c-1.1-0.6-2.4-0.8-4.1-0.8
			c-1.5,0-2.8,0.3-3.9,0.8c-1.1,0.5-2,1.2-2.6,2s-1,1.7-1,2.7h-6c0-1.2,0.3-2.5,1-3.7s1.6-2.3,2.8-3.3s2.7-1.8,4.4-2.4
			c1.7-0.6,3.6-0.9,5.7-0.9c2.5,0,4.8,0.4,6.7,1.3c1.9,0.9,3.5,2.2,4.6,3.9s1.7,3.9,1.7,6.5v16.2c0,1.2,0.1,2.4,0.3,3.7
			c0.2,1.3,0.5,2.4,0.9,3.4v0.5h-6.2c-0.3-0.7-0.5-1.6-0.7-2.8C776.5,699.3,776.4,698.2,776.4,697.2z"/>
		<path class="st7" d="M794.4,668.3l9.8,29.6l0.7,5.2h-4l-12.6-34.9H794.4z M802.4,697.8l9.5-29.5h6.1l-12.5,34.9h-4L802.4,697.8z"
			/>
		<path class="st7" d="M822.2,686.2v-0.7c0-2.5,0.4-4.8,1.1-7s1.8-4,3.2-5.6s3-2.8,5-3.7s4.1-1.3,6.6-1.3c2.4,0,4.7,0.4,6.6,1.3
			c2,0.9,3.6,2.1,5,3.7c1.4,1.6,2.4,3.5,3.2,5.6s1.1,4.5,1.1,7v0.7c0,2.5-0.4,4.8-1.1,7s-1.8,4-3.2,5.6c-1.4,1.6-3.1,2.8-5,3.7
			c-1.9,0.9-4.1,1.3-6.6,1.3s-4.7-0.4-6.6-1.3c-2-0.9-3.6-2.1-5-3.7c-1.4-1.6-2.4-3.5-3.2-5.6S822.2,688.7,822.2,686.2z
			 M828.1,685.4v0.7c0,1.7,0.2,3.4,0.6,4.9s1,2.9,1.9,4.1c0.8,1.2,1.9,2.1,3.1,2.8c1.2,0.7,2.7,1,4.4,1c1.6,0,3.1-0.3,4.3-1
			c1.2-0.7,2.3-1.6,3.1-2.8s1.4-2.5,1.9-4.1c0.4-1.5,0.6-3.2,0.6-4.9v-0.7c0-1.7-0.2-3.3-0.6-4.9c-0.4-1.5-1-2.9-1.9-4.1
			c-0.8-1.2-1.9-2.1-3.1-2.8c-1.2-0.7-2.7-1-4.3-1c-1.6,0-3.1,0.3-4.3,1c-1.2,0.7-2.3,1.6-3.1,2.8c-0.8,1.2-1.4,2.6-1.9,4.1
			S828.1,683.7,828.1,685.4z"/>
		<path class="st7" d="M862,700.2c0-1,0.3-1.8,0.9-2.4s1.5-1,2.6-1c1.1,0,2,0.3,2.6,1c0.6,0.7,0.9,1.5,0.9,2.4
			c0,0.9-0.3,1.7-0.9,2.4c-0.6,0.7-1.5,1-2.6,1c-1.2,0-2-0.3-2.6-1S862,701.1,862,700.2z M868.5,656.3L868,690h-5.4l-0.5-33.7H868.5
			z"/>
		<path class="st7" d="M882.8,653.7v4.4l-1,11.5h-3.6v-11.2v-4.7H882.8z M891.5,653.7v4.4l-1,11.5H887v-11.4v-4.4H891.5z"/>
	</g>
</g>
</svg>
