<?xml version="1.0" encoding="utf-8"?>
<!-- Generator: Adobe Illustrator 27.1.1, SVG Export Plug-In . SVG Version: 6.00 Build 0)  -->
<svg version="1.1" id="Capa_1" xmlns="http://www.w3.org/2000/svg" xmlns:xlink="http://www.w3.org/1999/xlink" x="0px" y="0px"
	 viewBox="0 0 1362.6 1081.5" style="enable-background:new 0 0 1362.6 1081.5;" xml:space="preserve">
<style type="text/css">
	.st0{clip-path:url(#SVGID_00000021090847113320240050000011715707590967122104_);}
	.st1{fill-rule:evenodd;clip-rule:evenodd;fill:#FFFFFF;stroke:#FDD466;stroke-width:6.875;stroke-miterlimit:8;}
	.st2{fill-rule:evenodd;clip-rule:evenodd;fill:#FDD466;}
	.st3{display:none;fill:#032B43;enable-background:new    ;}
	.st4{font-family:'ArialMT';}
	.st5{font-size:66px;}
	.st6{enable-background:new    ;}
	.st7{fill:#032B43;}
	.st8{font-family:'Arial-BoldMT';}
	.st9{display:none;}
	.st10{display:inline;fill:#032B43;}
	.st11{font-family:'GillSans-UltraBold';}
	.st12{font-size:600px;}
</style>
<g transform="translate(-2643 -5310)">
	<g>
		<g>
			<g>
				<g>
					<g>
						<g>
							<defs>
								<path id="SVGID_1_" d="M3177.8,5437.6c-211.7,0-383.4,171.7-383.4,383.4v383.4h717.9c211.7,0,383.4-171.7,383.4-383.4
									v-383.4H3177.8z M2643,5310h1362.6v1020H2643V5310z"/>
							</defs>
							<clipPath id="SVGID_00000110450262331540204750000006948393073230878371_">
								<use xlink:href="#SVGID_1_"  style="overflow:visible;"/>
							</clipPath>
							<g style="clip-path:url(#SVGID_00000110450262331540204750000006948393073230878371_);">
								<g transform="matrix(2 0 0 1.99924 3123 5711)">
								</g>
							</g>
						</g>
					</g>
				</g>
			</g>
		</g>
		<path class="st1" d="M3177.8,5437.6h717.9V5821c0,211.7-171.7,383.4-383.4,383.4h-717.9V5821
			C2794.4,5609.3,2966,5437.6,3177.8,5437.6z"/>
		<path class="st2" d="M3207.3,5577.3h31.9l9.8-28.2l9.8,28.2h31.9l-25.8,17.4l9.8,28.2l-25.8-17.4l-25.8,17.4l9.8-28.2
			L3207.3,5577.3z"/>
		<path class="st2" d="M3306,5577.3h31.9l9.8-28.2l9.8,28.2h31.9l-25.8,17.4l9.8,28.2l-25.8-17.4l-25.8,17.4l9.8-28.2L3306,5577.3z"
			/>
		<path class="st2" d="M3404.7,5577.3h31.9l9.8-28.2l9.8,28.2h31.9l-25.8,17.4l9.8,28.2l-25.8-17.4l-25.8,17.4l9.8-28.2
			L3404.7,5577.3z"/>
		<path class="st2" d="M3503.4,5577.3h31.9l9.8-28.2l9.8,28.2h31.9l-25.8,17.4l9.8,28.2l-25.8-17.4l-25.8,17.4l9.8-28.2
			L3503.4,5577.3z"/>
		<path class="st2" d="M3602.1,5577.3h31.9l9.8-28.2l9.8,28.2h31.9l-25.8,17.4l9.8,28.2l-25.8-17.4l-25.8,17.4l9.8-28.2
			L3602.1,5577.3z"/>
		<text transform="matrix(1 0 0 1 2946.5464 5715)" class="st3 st4 st5">Lorem</text>
		<text transform="matrix(1 0 0 1 3135.0942 5715)" class="st3 st4 st5"> </text>
		<text transform="matrix(1 0 0 1 3151.4194 5715)" class="st3 st4 st5">ipsum</text>
		<text transform="matrix(1 0 0 1 3332.9194 5715)" class="st3 st4 st5"> </text>
		<text transform="matrix(1 0 0 1 3349.2495 5715)" class="st3 st4 st5">dolor </text>
		<text transform="matrix(1 0 0 1 3516.4839 5715)" class="st3 st4 st5">sit</text>
		<text transform="matrix(1 0 0 1 3588.1538 5715)" class="st3 st4 st5"> </text>
		<text transform="matrix(1 0 0 1 2946.5464 5794.2002)" class="st3 st4 st5">amet</text>
		<text transform="matrix(1 0 0 1 3097.1079 5794.2002)" class="st3 st4 st5"> </text>
		<text transform="matrix(1 0 0 1 3113.437 5794.2002)" class="st3 st4 st5">consectetur</text>
		<text transform="matrix(1 0 0 1 3462.8589 5794.2002)" class="st3 st4 st5"> </text>
		<text transform="matrix(1 0 0 1 2946.5464 5873.4004)" class="st3 st4 st5">adipiscing</text>
		<text transform="matrix(1 0 0 1 3246.9849 5873.4004)" class="st3 st4 st5"> </text>
		<text transform="matrix(1 0 0 1 3263.311 5873.4004)" class="st3 st4 st5">elit</text>
		<text transform="matrix(1 0 0 1 3351.9995 5873.4004)" class="st3 st4 st5"> </text>
		<text transform="matrix(1 0 0 1 3368.3257 5873.4004)" class="st3 st4 st5">quisque mus </text>
		<text transform="matrix(1 0 0 1 2946.5464 5952.5996)" class="st3 st4 st5">aliquam</text>
		<text transform="matrix(1 0 0 1 3182.188 5952.5996)" class="st3 st4 st5"> </text>
		<text transform="matrix(1 0 0 1 3198.5142 5952.5996)" class="st3 st4 st5">pretium</text>
		<text transform="matrix(1 0 0 1 3425.0464 5952.5996)" class="st3 st4 st5"> </text>
		<g>
			<g class="st6">
				<path class="st7" d="M2954.8,6057.4v46.9h-9.7v-46.9H2954.8z M2975.3,6096.8v7.5h-23.6v-7.5H2975.3z"/>
				<path class="st7" d="M2978.8,6087.2v-0.7c0-2.6,0.4-4.9,1.1-7.1c0.7-2.2,1.8-4,3.2-5.6c1.4-1.6,3.1-2.8,5.2-3.7
					c2-0.9,4.4-1.3,7-1.3s5,0.4,7.1,1.3s3.8,2.1,5.2,3.7c1.4,1.6,2.5,3.5,3.2,5.6c0.7,2.2,1.1,4.5,1.1,7.1v0.7c0,2.5-0.4,4.9-1.1,7
					c-0.7,2.2-1.8,4-3.2,5.6c-1.4,1.6-3.1,2.8-5.2,3.7c-2,0.9-4.4,1.3-7,1.3s-5-0.4-7-1.3c-2.1-0.9-3.8-2.1-5.2-3.7
					c-1.4-1.6-2.5-3.5-3.2-5.6C2979.1,6092.1,2978.8,6089.8,2978.8,6087.2z M2988.1,6086.5v0.7c0,1.5,0.1,2.8,0.4,4.1
					s0.7,2.4,1.2,3.3c0.6,1,1.3,1.7,2.2,2.2c0.9,0.5,2.1,0.8,3.4,0.8c1.3,0,2.4-0.3,3.3-0.8c0.9-0.5,1.7-1.3,2.2-2.2
					c0.6-1,1-2.1,1.2-3.3c0.3-1.3,0.4-2.6,0.4-4.1v-0.7c0-1.4-0.1-2.8-0.4-4c-0.3-1.3-0.7-2.4-1.3-3.4c-0.6-1-1.3-1.7-2.2-2.3
					c-0.9-0.6-2-0.8-3.4-0.8c-1.3,0-2.4,0.3-3.3,0.8c-0.9,0.6-1.7,1.3-2.2,2.3c-0.6,1-1,2.1-1.2,3.4
					C2988.2,6083.8,2988.1,6085.1,2988.1,6086.5z"/>
				<path class="st7" d="M3026.8,6077v27.3h-9.3v-34.9h8.7L3026.8,6077z M3037.3,6069.2l-0.2,8.6c-0.5-0.1-1-0.1-1.6-0.2
					c-0.6-0.1-1.2-0.1-1.7-0.1c-1.3,0-2.4,0.2-3.4,0.5c-1,0.3-1.8,0.8-2.4,1.5c-0.6,0.6-1.1,1.4-1.4,2.4c-0.3,0.9-0.5,2-0.5,3.2
					l-1.9-0.6c0-2.3,0.2-4.3,0.7-6.2c0.5-1.9,1.1-3.6,2-5s1.9-2.5,3.2-3.3c1.3-0.8,2.7-1.2,4.4-1.2c0.5,0,1,0,1.6,0.1
					C3036.5,6069,3037,6069.1,3037.3,6069.2z"/>
				<path class="st7" d="M3057.7,6104.9c-2.7,0-5.1-0.4-7.3-1.3c-2.1-0.9-4-2.1-5.5-3.6c-1.5-1.5-2.6-3.3-3.4-5.4
					c-0.8-2.1-1.2-4.2-1.2-6.6v-1.3c0-2.6,0.4-5.1,1.1-7.3c0.8-2.2,1.8-4.1,3.2-5.7c1.4-1.6,3.1-2.9,5.1-3.7c2-0.9,4.3-1.3,6.8-1.3
					c2.5,0,4.7,0.4,6.6,1.2c1.9,0.8,3.5,2,4.8,3.5c1.3,1.5,2.3,3.3,2.9,5.4c0.7,2.1,1,4.4,1,7v3.9h-27.7v-6.2h18.6v-0.7
					c0-1.3-0.2-2.4-0.7-3.5c-0.5-1-1.2-1.8-2.1-2.4c-0.9-0.6-2.1-0.9-3.5-0.9c-1.2,0-2.3,0.3-3.2,0.8c-0.9,0.5-1.6,1.3-2.1,2.3
					s-1,2.1-1.2,3.4c-0.3,1.3-0.4,2.7-0.4,4.3v1.3c0,1.4,0.2,2.7,0.6,3.9c0.4,1.2,1,2.2,1.7,3.1s1.6,1.5,2.7,2s2.3,0.7,3.6,0.7
					c1.7,0,3.2-0.3,4.7-1c1.5-0.7,2.7-1.6,3.8-3l4.5,4.9c-0.7,1.1-1.7,2.1-3,3s-2.8,1.8-4.5,2.4
					C3062,6104.6,3060,6104.9,3057.7,6104.9z"/>
				<path class="st7" d="M3086.4,6076.9v27.4h-9.3v-34.9h8.7L3086.4,6076.9z M3085.1,6085.6h-2.5c0-2.6,0.3-4.9,1-7
					c0.7-2.1,1.6-3.8,2.8-5.3c1.2-1.5,2.6-2.6,4.3-3.4c1.7-0.8,3.5-1.2,5.6-1.2c1.6,0,3.1,0.2,4.5,0.7s2.5,1.2,3.5,2.3
					c1,1,1.7,2.4,2.3,4.1c0.5,1.7,0.8,3.8,0.8,6.2v22.2h-9.3V6082c0-1.5-0.2-2.8-0.6-3.6c-0.4-0.9-1.1-1.5-1.9-1.8
					c-0.8-0.4-1.8-0.5-3-0.5c-1.2,0-2.3,0.2-3.2,0.7c-0.9,0.5-1.7,1.2-2.3,2c-0.6,0.9-1,1.9-1.3,3
					C3085.2,6083.1,3085.1,6084.3,3085.1,6085.6z"/>
				<path class="st7" d="M3134.4,6083.1l0.1,5.3h-5.2c-1.2,0-2.3,0.1-3.2,0.4s-1.6,0.7-2.2,1.2s-1,1.1-1.3,1.8
					c-0.3,0.7-0.4,1.4-0.4,2.2s0.2,1.5,0.5,2.1c0.4,0.6,0.9,1.1,1.6,1.5c0.7,0.4,1.5,0.5,2.4,0.5c1.4,0,2.6-0.3,3.6-0.8
					s1.8-1.2,2.4-2.1c0.6-0.8,0.9-1.6,0.9-2.3l2.4,3.9c-0.3,0.9-0.8,1.8-1.4,2.7c-0.6,0.9-1.3,1.8-2.2,2.7c-0.9,0.8-2,1.5-3.3,2
					c-1.3,0.5-2.8,0.8-4.5,0.8c-2.2,0-4.2-0.4-6-1.3c-1.8-0.9-3.2-2.1-4.3-3.7c-1-1.6-1.6-3.4-1.6-5.4c0-1.8,0.3-3.4,1-4.9
					c0.7-1.4,1.7-2.6,3-3.6c1.3-1,3-1.7,5-2.2c2-0.5,4.4-0.8,7-0.8H3134.4z M3133.1,6096.4v-15.5c0-1.1-0.2-2.1-0.5-2.9
					c-0.4-0.8-0.9-1.4-1.7-1.9c-0.8-0.5-1.7-0.7-2.9-0.7c-1,0-1.9,0.2-2.7,0.5c-0.8,0.4-1.3,0.9-1.7,1.5c-0.4,0.7-0.6,1.4-0.6,2.3
					h-9.3c0-1.5,0.3-2.9,1-4.2c0.7-1.3,1.7-2.5,3-3.5c1.3-1,2.9-1.8,4.7-2.4c1.8-0.6,3.9-0.9,6.1-0.9c2.7,0,5.1,0.5,7.2,1.4
					c2.1,0.9,3.8,2.3,5,4.1c1.2,1.8,1.8,4.1,1.8,6.8v14.9c0,1.9,0.1,3.5,0.4,4.7c0.2,1.2,0.6,2.3,1,3.2v0.5h-9.4
					c-0.5-0.9-0.8-2.1-1-3.6S3133.1,6097.9,3133.1,6096.4z"/>
			</g>
		</g>
		<text transform="matrix(1 0 0 1 3131.0288 6063.3008)" class="st3 st8 st5"> </text>
		<text transform="matrix(1 0 0 1 3147.3579 6063.3008)" class="st3 st8 st5">ipsum</text>
		<text transform="matrix(1 0 0 1 3330.061 6063.3008)" class="st3 st8 st5"> </text>
		<text transform="matrix(1 0 0 1 3346.3901 6063.3008)" class="st3 st8 st5">dolor</text>
		<text transform="matrix(1 0 0 1 3499.8726 6063.3008)" class="st3 st8 st5"> </text>
		<g>
			<g class="st6">
				<path class="st7" d="M2974.7,6142.6h6.2c-0.3,3-1.2,5.6-2.5,8c-1.4,2.3-3.3,4.2-5.8,5.6c-2.5,1.4-5.7,2-9.4,2
					c-2.8,0-5.2-0.5-7.5-1.5c-2.2-1-4.2-2.5-5.8-4.4c-1.6-1.9-2.9-4.2-3.7-6.9c-0.9-2.7-1.3-5.7-1.3-8.9v-4.7c0-3.3,0.4-6.3,1.3-8.9
					c0.9-2.7,2.1-5,3.8-6.9s3.6-3.4,5.9-4.4s4.9-1.5,7.8-1.5c3.5,0,6.5,0.7,9,2s4.4,3.2,5.7,5.5c1.4,2.4,2.2,5.1,2.5,8.2h-6.2
					c-0.3-2.2-0.9-4.1-1.7-5.7c-0.8-1.6-2-2.8-3.5-3.7c-1.5-0.9-3.5-1.3-5.9-1.3c-2.1,0-3.9,0.4-5.5,1.2s-2.9,1.9-4,3.4
					s-1.9,3.2-2.4,5.3c-0.5,2-0.8,4.3-0.8,6.8v4.7c0,2.3,0.2,4.5,0.7,6.5s1.2,3.8,2.2,5.3c1,1.5,2.2,2.7,3.8,3.6
					c1.5,0.9,3.3,1.3,5.4,1.3c2.6,0,4.7-0.4,6.3-1.3c1.6-0.8,2.8-2,3.6-3.6S2974.4,6144.8,2974.7,6142.6z"/>
				<path class="st7" d="M3006.7,6114.7l-15.5,42.8h-6.3l17.9-46.9h4.1L3006.7,6114.7z M3018.9,6140.1v5.1h-26.4v-5.1H3018.9z
					 M3019.7,6157.5l-15.6-42.8l-0.1-4.2h4.1l18,46.9H3019.7z"/>
				<path class="st7" d="M3032.4,6110.6h5.3l0.9,28.6v18.3h-6.2V6110.6z M3034.4,6110.6h6l15.4,38.3l15.3-38.3h6.1l-19.1,46.9h-4.7
					L3034.4,6110.6z M3073.8,6110.6h5.3v46.9h-6.2v-18.3L3073.8,6110.6z"/>
				<path class="st7" d="M3116.9,6110.6h6.2v31.7c0,3.5-0.8,6.5-2.4,8.8c-1.6,2.3-3.6,4.1-6.2,5.3c-2.6,1.2-5.4,1.8-8.4,1.8
					c-3.2,0-6.1-0.6-8.6-1.8c-2.6-1.2-4.6-2.9-6.1-5.3c-1.5-2.3-2.2-5.3-2.2-8.8v-31.7h6.2v31.7c0,2.4,0.5,4.5,1.4,6.1
					s2.2,2.8,3.8,3.5c1.6,0.8,3.5,1.2,5.7,1.2c2.2,0,4.1-0.4,5.7-1.2c1.6-0.8,2.9-2,3.8-3.5s1.4-3.6,1.4-6.1V6110.6z"/>
				<path class="st7" d="M3155.4,6110.6v46.9h-6.2v-46.9H3155.4z M3178.7,6110.6v5.1h-24.5v-5.1H3178.7z M3175.7,6130.8v5.1h-21.6
					v-5.1H3175.7z M3179,6152.4v5.1h-24.8v-5.1H3179z"/>
				<path class="st7" d="M3192.3,6108v49.5h-6V6108H3192.3z"/>
				<path class="st7" d="M3236.4,6139.1h-12.5v-5.1h12.5c2.4,0,4.4-0.4,5.9-1.2c1.5-0.8,2.6-1.8,3.3-3.2c0.7-1.4,1-2.9,1-4.7
					c0-1.6-0.3-3.1-1-4.5c-0.7-1.4-1.8-2.6-3.3-3.4c-1.5-0.9-3.5-1.3-5.9-1.3h-11.1v41.8h-6.2v-46.9h17.3c3.5,0,6.5,0.6,9,1.8
					s4.3,2.9,5.6,5.1c1.3,2.2,1.9,4.6,1.9,7.4c0,3-0.6,5.6-1.9,7.7c-1.3,2.1-3.1,3.7-5.6,4.9S3240,6139.1,3236.4,6139.1z"/>
				<path class="st7" d="M3265.8,6128.1v29.4h-6v-34.9h5.8L3265.8,6128.1z M3276.7,6122.4l0,5.5c-0.5-0.1-1-0.2-1.4-0.2
					c-0.4,0-0.9,0-1.5,0c-1.4,0-2.6,0.2-3.6,0.6c-1.1,0.4-1.9,1-2.7,1.8c-0.7,0.8-1.3,1.7-1.7,2.8c-0.4,1.1-0.7,2.2-0.8,3.5l-1.7,1
					c0-2.1,0.2-4.1,0.6-5.9s1.1-3.5,1.9-4.9c0.9-1.4,2-2.5,3.4-3.4c1.4-0.8,3-1.2,4.9-1.2c0.4,0,0.9,0,1.5,0.1
					C3276.1,6122.2,3276.5,6122.3,3276.7,6122.4z"/>
				<path class="st7" d="M3303.8,6136.4l0.1,4.2h-6c-1.7,0-3.2,0.1-4.5,0.4c-1.3,0.3-2.4,0.7-3.4,1.2s-1.6,1.2-2.1,2
					c-0.5,0.8-0.7,1.7-0.7,2.8c0,1.1,0.2,2.1,0.7,3c0.5,0.9,1.2,1.6,2.2,2.1s2.2,0.8,3.7,0.8c1.8,0,3.4-0.4,4.8-1.2
					c1.4-0.8,2.5-1.7,3.3-2.8c0.8-1.1,1.3-2.2,1.3-3.3l2.5,2.9c-0.2,0.9-0.6,1.9-1.2,3c-0.7,1.1-1.6,2.1-2.7,3.1
					c-1.1,1-2.4,1.8-3.9,2.5c-1.5,0.7-3.2,1-5.1,1c-2.4,0-4.4-0.5-6.2-1.4s-3.1-2.2-4.1-3.7c-1-1.6-1.5-3.3-1.5-5.2
					c0-1.9,0.4-3.5,1.1-4.9c0.7-1.4,1.8-2.6,3.2-3.6c1.4-1,3-1.7,5-2.2s4.1-0.7,6.5-0.7H3303.8z M3302.8,6151.5v-18
					c0-1.4-0.3-2.6-0.8-3.6c-0.5-1-1.4-1.8-2.5-2.4s-2.4-0.8-4.1-0.8c-1.5,0-2.8,0.3-3.9,0.8s-2,1.2-2.6,2c-0.6,0.8-1,1.7-1,2.7h-6
					c0-1.2,0.3-2.5,1-3.7s1.6-2.3,2.8-3.3c1.2-1,2.7-1.8,4.4-2.4s3.6-0.9,5.7-0.9c2.5,0,4.8,0.4,6.7,1.3c1.9,0.9,3.5,2.2,4.6,3.9
					c1.1,1.7,1.7,3.9,1.7,6.5v16.2c0,1.2,0.1,2.4,0.3,3.7c0.2,1.3,0.5,2.4,0.9,3.4v0.5h-6.2c-0.3-0.7-0.5-1.6-0.7-2.8
					C3302.9,6153.6,3302.8,6152.5,3302.8,6151.5z"/>
				<path class="st7" d="M3316.6,6140.5v-0.7c0-2.7,0.3-5.1,1-7.3c0.7-2.2,1.6-4.1,2.8-5.6c1.2-1.6,2.7-2.8,4.4-3.6
					c1.7-0.8,3.6-1.3,5.7-1.3c2.2,0,4.1,0.4,5.8,1.1s3,1.9,4.2,3.3c1.1,1.5,2.1,3.2,2.7,5.2s1.1,4.4,1.4,6.9v3
					c-0.2,2.6-0.7,4.9-1.4,6.9s-1.6,3.8-2.7,5.2c-1.1,1.4-2.6,2.5-4.2,3.3c-1.7,0.8-3.6,1.1-5.8,1.1c-2,0-3.9-0.4-5.6-1.3
					c-1.7-0.9-3.1-2.1-4.4-3.7c-1.2-1.6-2.1-3.5-2.8-5.6C3317,6145.3,3316.6,6143,3316.6,6140.5z M3322.6,6139.8v0.7
					c0,1.7,0.2,3.4,0.5,4.9s0.9,2.9,1.7,4s1.7,2.1,2.9,2.7c1.2,0.7,2.5,1,4.2,1c2,0,3.6-0.4,4.9-1.3s2.3-1.9,3.1-3.3
					s1.4-2.9,1.8-4.5v-7.8c-0.3-1.2-0.6-2.3-1.1-3.4c-0.5-1.1-1.1-2.1-1.9-3c-0.8-0.9-1.7-1.6-2.8-2.1s-2.4-0.8-3.9-0.8
					c-1.6,0-3,0.3-4.2,1c-1.2,0.7-2.1,1.6-2.9,2.8s-1.3,2.5-1.7,4.1S3322.6,6138,3322.6,6139.8z M3340.1,6150.7V6108h6v49.5h-5.5
					L3340.1,6150.7z"/>
				<path class="st7" d="M3353.8,6140.5v-0.7c0-2.5,0.4-4.8,1.1-7c0.7-2.2,1.8-4,3.2-5.6c1.4-1.6,3-2.8,5-3.7s4.1-1.3,6.6-1.3
					c2.4,0,4.7,0.4,6.6,1.3s3.6,2.1,5,3.7s2.4,3.5,3.2,5.6c0.7,2.2,1.1,4.5,1.1,7v0.7c0,2.5-0.4,4.8-1.1,7s-1.8,4-3.2,5.6
					c-1.4,1.6-3.1,2.8-5,3.7c-1.9,0.9-4.1,1.3-6.6,1.3s-4.7-0.4-6.6-1.3c-2-0.9-3.6-2.1-5-3.7c-1.4-1.6-2.4-3.5-3.2-5.6
					C3354.1,6145.3,3353.8,6143,3353.8,6140.5z M3359.7,6139.7v0.7c0,1.7,0.2,3.4,0.6,4.9c0.4,1.5,1,2.9,1.9,4.1s1.9,2.1,3.1,2.8
					c1.2,0.7,2.7,1,4.3,1c1.6,0,3.1-0.3,4.3-1c1.2-0.7,2.3-1.6,3.1-2.8c0.8-1.2,1.4-2.5,1.9-4.1s0.6-3.2,0.6-4.9v-0.7
					c0-1.7-0.2-3.3-0.6-4.9c-0.4-1.5-1-2.9-1.9-4.1c-0.8-1.2-1.9-2.1-3.1-2.8s-2.7-1-4.3-1c-1.6,0-3.1,0.3-4.3,1s-2.3,1.6-3.1,2.8
					c-0.8,1.2-1.4,2.6-1.9,4.1C3359.9,6136.4,3359.7,6138,3359.7,6139.7z"/>
			</g>
		</g>
		<text transform="matrix(1 0 0 1 3340.0298 6142.5)" class="st3 st4 st5"> </text>
		<g class="st9">
			<text transform="matrix(1 0 0 1 2794.3999 5887.1465)" class="st10 st11 st12">‘</text>
			<text transform="matrix(-1 0 0 -1 3895.7012 5868)" class="st10 st11 st12">‘</text>
		</g>
	</g>
</g>
<g>
	<g>
		<g>
			<g>
				<path class="st7" d="M150.4,233.7L150.4,233.7L150.4,233.7L150.4,233.7L150.4,233.7L150.4,233.7L150.4,233.7L150.4,233.7
					L150.4,233.7L150.4,233.7L150.4,233.7L150.4,233.7L150.4,233.7L150.4,233.7L150.4,233.7L150.4,233.7L150.4,233.7L150.4,233.7
					L150.4,233.7L150.4,233.7L150.4,233.7L150.4,233.7L150.4,233.7L150.4,233.7L150.4,233.7L150.4,233.7L150.4,233.7L150.4,233.7
					L150.4,233.7L150.4,233.7L150.4,233.7L150.4,233.7L150.4,233.7c0.2,1.9,0.4,3.8,0.6,5.6c0.2,1.9,0.4,3.7,0.7,5.5s0.6,3.6,1,5.4
					s0.8,3.6,1.2,5.4c0.5,1.8,0.9,3.5,1.5,5.3c0.5,1.7,1.1,3.5,1.7,5.2s1.3,3.4,2,5c0.7,1.7,1.4,3.3,2.2,4.9s1.6,3.2,2.4,4.8
					c0.8,1.6,1.7,3.1,2.6,4.7c0.9,1.5,1.8,3,2.8,4.5s2,2.9,3,4.4c1,1.4,2.1,2.8,3.2,4.2c1.1,1.4,2.2,2.7,3.4,4.1s2.4,2.6,3.6,3.9
					s2.5,2.5,3.8,3.7s2.6,2.4,3.9,3.6s2.7,2.3,4.1,3.4s2.8,2.2,4.2,3.2s2.9,2,4.4,3s3,1.9,4.5,2.8s3.1,1.8,4.7,2.6s3.2,1.6,4.8,2.4
					s3.3,1.5,4.9,2.1c1.7,0.7,3.3,1.3,5.1,1.9c1.7,0.6,3.4,1.2,5.2,1.7c1.7,0.5,3.5,1,5.3,1.4s3.6,0.8,5.4,1.2
					c1.8,0.4,3.6,0.7,5.5,0.9c1.8,0.3,3.7,0.5,5.5,0.7c1.9,0.2,3.7,0.3,5.6,0.4s3.8,0.1,5.7,0.1c2,0,3.9-0.1,5.9-0.1
					c2-0.1,3.9-0.2,5.8-0.4c1.9-0.2,3.8-0.4,5.7-0.7c1.9-0.3,3.8-0.6,5.6-1c1.9-0.4,3.7-0.8,5.5-1.3s3.6-1,5.4-1.5
					c1.8-0.6,3.6-1.2,5.3-1.8s3.5-1.3,5.2-2.1c1.7-0.7,3.4-1.5,5.1-2.3s3.3-1.6,4.9-2.5s3.2-1.8,4.8-2.8c1.6-1,3.1-2,4.7-3
					c1.5-1,3-2.1,4.5-3.2s2.9-2.2,4.3-3.4c1.4-1.2,2.8-2.4,4.2-3.6c1.4-1.2,2.7-2.5,4-3.8s2.6-2.6,3.8-4c1.2-1.4,2.4-2.7,3.6-4.2
					s2.3-2.9,3.4-4.3c1.1-1.5,2.2-3,3.2-4.5s2-3.1,3-4.7s1.9-3.2,2.8-4.8s1.7-3.3,2.5-4.9s1.6-3.4,2.3-5.1c0.7-1.7,1.4-3.5,2.1-5.2
					c0.6-1.8,1.2-3.5,1.8-5.3c0.6-1.8,1.1-3.6,1.5-5.4c0.5-1.8,0.9-3.7,1.3-5.5c0.4-1.9,0.7-3.7,1-5.6s0.5-3.8,0.7-5.7
					s0.3-3.9,0.4-5.8c0.1-2,0.1-3.9,0.1-5.9s-0.1-3.9-0.1-5.9c-0.1-2-0.2-3.9-0.4-5.8c-0.2-1.9-0.4-3.8-0.7-5.7
					c-0.3-1.9-0.6-3.8-1-5.6c-0.4-1.9-0.8-3.7-1.3-5.5s-1-3.6-1.5-5.4c-0.6-1.8-1.2-3.6-1.8-5.3c-0.6-1.8-1.3-3.5-2.1-5.2
					c-0.7-1.7-1.5-3.4-2.3-5.1s-1.6-3.3-2.5-4.9s-1.8-3.2-2.8-4.8s-2-3.1-3-4.7c-1-1.5-2.1-3-3.2-4.5s-2.2-2.9-3.4-4.3
					c-1.2-1.4-2.4-2.8-3.6-4.2s-2.5-2.7-3.8-4s-2.6-2.6-4-3.8s-2.7-2.4-4.2-3.6c-1.4-1.2-2.9-2.3-4.3-3.4s-3-2.2-4.5-3.2
					s-3.1-2-4.7-3s-3.2-1.9-4.8-2.8c-1.6-0.9-3.3-1.7-4.9-2.5c-1.7-0.8-3.4-1.6-5.1-2.3c-1.7-0.7-3.5-1.4-5.2-2.1s-3.5-1.2-5.3-1.8
					c-1.8-0.6-3.6-1.1-5.4-1.5c-1.8-0.5-3.7-0.9-5.5-1.3c-1.9-0.4-3.7-0.7-5.6-1s-3.8-0.5-5.7-0.7c-1.9-0.2-3.9-0.3-5.8-0.4
					c-2-0.1-3.9-0.1-5.9-0.1c-0.1,0-0.2,0-0.2,0h-0.2c-0.1,0-0.2,0-0.2,0h-0.2h-0.2c-0.1,0-0.2,0-0.2,0c-0.1,0-0.2,0-0.2,0
					s-0.1,0-0.2,0s-0.1,0-0.2,0s-0.1,0-0.2,0s-0.1,0-0.2,0s-0.1,0-0.2,0s-0.1,0-0.2,0s-0.1,0-0.2,0s-0.1,0-0.2,0s-0.1,0-0.2,0
					s-0.1,0-0.2,0s-0.1,0-0.2,0s-0.1,0-0.2,0s-0.1,0-0.2,0s-0.1,0-0.2,0s-0.1,0-0.2,0s-0.1,0-0.2,0s-0.1,0-0.2,0s-0.1,0-0.2,0
					s-0.1,0-0.2,0s-0.1,0-0.2,0s-0.1,0-0.2,0s-0.1,0-0.2,0s-0.1,0-0.2,0s-0.1,0-0.2,0s-0.1,0-0.2,0v-2.2v-2.2v-2.2v-2.2v-2.2v-2.2
					v-2.2v-2.2v-2.2v-2.2v-2.2v-2.2v-2.2v-2.2v-2.2v-2.2v-2.2v-2.2v-2.2v-2.2v-2.2v-2.2v-2.2v-2.2v-2.2v-2.2v-2.2v-2.2v-2.2v-2.2
					v-2.2v-2.2c-1.3,0.8-2.6,1.7-3.9,2.7c-1.3,0.9-2.7,1.9-4,3c-1.4,1-2.7,2.1-4.1,3.2s-2.8,2.3-4.2,3.5s-2.9,2.5-4.3,3.8
					c-1.5,1.3-2.9,2.6-4.4,4c-1.5,1.4-3,2.8-4.4,4.3s-3,3-4.5,4.5s-3,3.1-4.5,4.7s-3,3.2-4.5,4.9c-1.5,1.7-3,3.4-4.5,5.1
					s-3,3.5-4.4,5.3c-1.5,1.8-2.9,3.6-4.4,5.5s-2.9,3.8-4.3,5.7c-1.4,1.9-2.8,3.9-4.2,5.9s-2.8,4-4.1,6c-1.4,2-2.7,4.1-4,6.2
					s-2.6,4.2-3.9,6.3c-1.3,2.1-2.5,4.3-3.7,6.5s-2.4,4.4-3.6,6.6s-2.3,4.5-3.4,6.7c-1.1,2.3-2.2,4.5-3.2,6.8s-2,4.6-3,6.9
					c-0.9,2.3-1.9,4.7-2.7,7c-0.9,2.4-1.7,4.7-2.5,7.1s-1.5,4.8-2.2,7.2s-1.3,4.8-1.9,7.2c-0.6,2.4-1.1,4.9-1.6,7.3
					s-0.9,4.9-1.3,7.3c-0.4,2.5-0.7,4.9-0.9,7.4s-0.4,4.9-0.6,7.4c-0.1,2.5-0.2,5-0.2,7.4c0,0.1,0,0.1,0,0.2s0,0.1,0,0.2
					s0,0.1,0,0.2s0,0.1,0,0.2s0,0.1,0,0.2s0,0.1,0,0.2s0,0.1,0,0.2s0,0.1,0,0.2s0,0.1,0,0.2s0,0.1,0,0.2s0,0.1,0,0.2s0,0.1,0,0.2
					s0,0.1,0,0.2s0,0.1,0,0.2s0,0.1,0,0.2s0,0.1,0,0.2s0,0.1,0,0.2s0,0.1,0,0.2s0,0.1,0,0.2s0,0.1,0,0.2s0,0.1,0,0.2s0,0.1,0,0.2
					s0,0.1,0,0.2s0,0.1,0,0.2s0,0.1,0,0.2s0,0.1,0,0.2s0,0.1,0,0.2s0,0.1,0,0.2s0,0.1,0,0.2s0,0.1,0,0.2s0,0.1,0,0.2
					C150.4,233.6,150.4,233.6,150.4,233.7z"/>
			</g>
			<g>
				<path class="st7" d="M1251.4,785.3L1251.4,785.3L1251.4,785.3L1251.4,785.3L1251.4,785.3L1251.4,785.3L1251.4,785.3
					L1251.4,785.3L1251.4,785.3L1251.4,785.3L1251.4,785.3L1251.4,785.3L1251.4,785.3L1251.4,785.3L1251.4,785.3L1251.4,785.3
					L1251.4,785.3L1251.4,785.3L1251.4,785.3L1251.4,785.3L1251.4,785.3L1251.4,785.3L1251.4,785.3L1251.4,785.3L1251.4,785.3
					L1251.4,785.3L1251.4,785.3L1251.4,785.3L1251.4,785.3L1251.4,785.3L1251.4,785.3L1251.4,785.3L1251.4,785.3
					c-0.2-1.9-0.4-3.8-0.6-5.6c-0.2-1.9-0.4-3.7-0.7-5.5s-0.6-3.6-1-5.4s-0.8-3.6-1.2-5.4c-0.5-1.8-0.9-3.5-1.5-5.3
					c-0.5-1.7-1.1-3.5-1.7-5.2s-1.3-3.4-2-5s-1.4-3.3-2.2-4.9s-1.6-3.2-2.4-4.8s-1.7-3.1-2.6-4.7c-0.9-1.5-1.8-3-2.8-4.5
					s-2-2.9-3-4.4c-1-1.4-2.1-2.8-3.2-4.2s-2.2-2.7-3.4-4.1s-2.4-2.6-3.6-3.9c-1.2-1.3-2.5-2.5-3.8-3.7s-2.6-2.4-3.9-3.6
					c-1.3-1.2-2.7-2.3-4.1-3.4s-2.8-2.2-4.2-3.2s-2.9-2-4.4-3s-3-1.9-4.5-2.8s-3.1-1.8-4.7-2.6s-3.2-1.6-4.8-2.4s-3.3-1.5-4.9-2.1
					c-1.7-0.7-3.3-1.3-5.1-1.9c-1.7-0.6-3.4-1.2-5.2-1.7c-1.7-0.5-3.5-1-5.3-1.4s-3.6-0.8-5.4-1.2s-3.6-0.7-5.5-0.9
					c-1.8-0.3-3.7-0.5-5.5-0.7c-1.9-0.2-3.7-0.3-5.6-0.4c-1.9-0.1-3.8-0.1-5.7-0.1c-2,0-3.9,0.1-5.9,0.1c-2,0.1-3.9,0.2-5.8,0.4
					s-3.8,0.4-5.7,0.7c-1.9,0.3-3.8,0.6-5.6,1c-1.9,0.4-3.7,0.8-5.5,1.3s-3.6,1-5.4,1.5c-1.8,0.6-3.6,1.2-5.3,1.8s-3.5,1.3-5.2,2.1
					c-1.7,0.7-3.4,1.5-5.1,2.3s-3.3,1.6-4.9,2.5s-3.2,1.8-4.8,2.8s-3.1,2-4.7,3c-1.5,1-3,2.1-4.5,3.2s-2.9,2.2-4.3,3.4
					s-2.8,2.4-4.2,3.6s-2.7,2.5-4,3.8s-2.6,2.6-3.8,4s-2.4,2.7-3.6,4.2c-1.2,1.4-2.3,2.9-3.4,4.3c-1.1,1.5-2.2,3-3.2,4.5
					s-2,3.1-3,4.7s-1.9,3.2-2.8,4.8s-1.7,3.3-2.5,4.9c-0.8,1.7-1.6,3.4-2.3,5.1s-1.4,3.5-2.1,5.2c-0.6,1.8-1.2,3.5-1.8,5.3
					s-1.1,3.6-1.5,5.4c-0.5,1.8-0.9,3.7-1.3,5.5c-0.4,1.9-0.7,3.7-1,5.6s-0.5,3.8-0.7,5.7s-0.3,3.9-0.4,5.8c-0.1,2-0.1,3.9-0.1,5.9
					s0.1,3.9,0.1,5.9c0.1,2,0.2,3.9,0.4,5.8s0.4,3.8,0.7,5.7c0.3,1.9,0.6,3.8,1,5.6c0.4,1.9,0.8,3.7,1.3,5.5s1,3.6,1.5,5.4
					c0.6,1.8,1.2,3.6,1.8,5.3c0.6,1.8,1.3,3.5,2.1,5.2c0.7,1.7,1.5,3.4,2.3,5.1s1.6,3.3,2.5,4.9s1.8,3.2,2.8,4.8s2,3.1,3,4.7
					s2.1,3,3.2,4.5s2.2,2.9,3.4,4.3s2.4,2.8,3.6,4.2s2.5,2.7,3.8,4s2.6,2.6,4,3.8s2.7,2.4,4.2,3.6c1.4,1.2,2.9,2.3,4.3,3.4
					s3,2.2,4.5,3.2s3.1,2,4.7,3s3.2,1.9,4.8,2.8s3.3,1.7,4.9,2.5c1.7,0.8,3.4,1.6,5.1,2.3s3.5,1.4,5.2,2.1s3.5,1.2,5.3,1.8
					s3.6,1.1,5.4,1.5c1.8,0.5,3.7,0.9,5.5,1.3c1.9,0.4,3.7,0.7,5.6,1s3.8,0.5,5.7,0.7s3.9,0.3,5.8,0.4c2,0.1,3.9,0.1,5.9,0.1
					c0.1,0,0.2,0,0.2,0c0.1,0,0.2,0,0.2,0h0.2h0.2c0.1,0,0.2,0,0.2,0c0.1,0,0.2,0,0.2,0c0.1,0,0.2,0,0.2,0c0.1,0,0.1,0,0.2,0
					s0.1,0,0.2,0s0.1,0,0.2,0s0.1,0,0.2,0s0.1,0,0.2,0s0.1,0,0.2,0s0.1,0,0.2,0s0.1,0,0.2,0s0.1,0,0.2,0s0.1,0,0.2,0s0.1,0,0.2,0
					s0.1,0,0.2,0s0.1,0,0.2,0s0.1,0,0.2,0s0.1,0,0.2,0s0.1,0,0.2,0s0.1,0,0.2,0s0.1,0,0.2,0s0.1,0,0.2,0s0.1,0,0.2,0s0.1,0,0.2,0
					s0.1,0,0.2,0s0.1,0,0.2,0s0.1,0,0.2,0s0.1,0,0.2,0v2.2v2.2v2.2v2.2v2.2v2.2v2.2v2.2v2.2v2.2v2.2v2.2v2.2v2.2v2.2v2.2v2.2v2.2
					v2.2v2.2v2.2v2.2v2.2v2.2v2.2v2.2v2.2v2.2v2.2v2.2v2.2v2.2c1.3-0.8,2.6-1.7,3.9-2.7c1.3-0.9,2.7-1.9,4-3s2.7-2.1,4.1-3.2
					s2.8-2.3,4.2-3.5s2.9-2.5,4.3-3.8c1.5-1.3,2.9-2.6,4.4-4s3-2.8,4.4-4.3c1.5-1.5,3-3,4.5-4.5s3-3.1,4.5-4.7s3-3.2,4.5-4.9
					s3-3.4,4.5-5.1c1.5-1.7,3-3.5,4.4-5.3c1.5-1.8,2.9-3.6,4.4-5.5s2.9-3.8,4.3-5.7s2.8-3.9,4.2-5.9s2.8-4,4.1-6
					c1.4-2,2.7-4.1,4-6.2s2.6-4.2,3.9-6.3s2.5-4.3,3.7-6.5s2.4-4.4,3.6-6.6c1.2-2.2,2.3-4.5,3.4-6.7c1.1-2.3,2.2-4.5,3.2-6.8
					s2-4.6,3-6.9c0.9-2.3,1.9-4.7,2.7-7c0.9-2.4,1.7-4.7,2.5-7.1s1.5-4.8,2.2-7.2s1.3-4.8,1.9-7.2s1.1-4.9,1.6-7.3s0.9-4.9,1.3-7.3
					c0.4-2.5,0.7-4.9,0.9-7.4s0.4-4.9,0.6-7.4c0.1-2.5,0.2-5,0.2-7.4c0-0.1,0-0.1,0-0.2s0-0.1,0-0.2s0-0.1,0-0.2s0-0.1,0-0.2
					s0-0.1,0-0.2s0-0.1,0-0.2s0-0.1,0-0.2s0-0.1,0-0.2s0-0.1,0-0.2s0-0.1,0-0.2s0-0.1,0-0.2s0-0.1,0-0.2s0-0.1,0-0.2s0-0.1,0-0.2
					s0-0.1,0-0.2s0-0.1,0-0.2s0-0.1,0-0.2s0-0.1,0-0.2s0-0.1,0-0.2s0-0.1,0-0.2s0-0.1,0-0.2s0-0.1,0-0.2s0-0.1,0-0.2s0-0.1,0-0.2
					s0-0.1,0-0.2s0-0.1,0-0.2s0-0.1,0-0.2s0-0.1,0-0.2s0-0.1,0-0.2s0-0.1,0-0.2s0-0.1,0-0.2C1251.4,785.4,1251.4,785.4,1251.4,785.3
					z"/>
			</g>
		</g>
	</g>
</g>
<g>
	<g>
		<path class="st7" d="M312,336.9v4.4l-1,11.5h-3.6v-11.2v-4.7H312z M320.7,336.9v4.4l-1,11.5h-3.6v-11.4v-4.4H320.7z"/>
		<path class="st7" d="M335.8,339.5v46.9h-6.2v-46.9H335.8z M359.1,339.5v5.1h-24.5v-5.1H359.1z M356.1,359.7v5.1h-21.6v-5.1H356.1z
			 M359.4,381.3v5.1h-24.8v-5.1H359.4z"/>
		<path class="st7" d="M372.7,336.9v49.5h-6v-49.5H372.7z"/>
		<path class="st7" d="M404.6,358.2v41.6h-6v-48.3h5.5L404.6,358.2z M428.1,368.7v0.7c0,2.5-0.3,4.9-0.9,7c-0.6,2.2-1.5,4-2.6,5.6
			c-1.1,1.6-2.6,2.8-4.2,3.7s-3.6,1.3-5.8,1.3c-2.2,0-4.2-0.4-5.9-1.1c-1.7-0.7-3.1-1.8-4.3-3.2c-1.2-1.4-2.1-3.1-2.8-5
			c-0.7-2-1.2-4.2-1.4-6.6v-3.6c0.3-2.6,0.7-4.9,1.5-6.9c0.7-2,1.6-3.8,2.8-5.2c1.2-1.5,2.6-2.6,4.3-3.3c1.7-0.8,3.6-1.1,5.8-1.1
			s4.1,0.4,5.8,1.3c1.7,0.8,3.1,2.1,4.3,3.6c1.2,1.6,2,3.4,2.6,5.6C427.8,363.6,428.1,366,428.1,368.7z M422.1,369.4v-0.7
			c0-1.7-0.2-3.4-0.5-4.9c-0.4-1.5-0.9-2.9-1.7-4.1c-0.8-1.2-1.7-2.1-2.9-2.8c-1.2-0.7-2.6-1-4.2-1c-1.5,0-2.8,0.3-3.9,0.8
			c-1.1,0.5-2,1.2-2.8,2.1s-1.4,1.9-1.9,3c-0.5,1.1-0.8,2.3-1.1,3.4v8.3c0.4,1.5,1,2.9,1.8,4.2s1.8,2.4,3.1,3.2s2.9,1.2,4.9,1.2
			c1.6,0,3-0.3,4.2-1c1.2-0.7,2.1-1.6,2.9-2.8c0.8-1.2,1.3-2.5,1.7-4.1C421.9,372.7,422.1,371.1,422.1,369.4z"/>
		<path class="st7" d="M441.7,357v29.4h-6v-34.9h5.8L441.7,357z M452.5,351.3l0,5.5c-0.5-0.1-1-0.2-1.4-0.2c-0.4,0-0.9,0-1.5,0
			c-1.4,0-2.6,0.2-3.6,0.6c-1.1,0.4-1.9,1-2.7,1.8c-0.7,0.8-1.3,1.7-1.7,2.8s-0.7,2.2-0.8,3.5l-1.7,1c0-2.1,0.2-4.1,0.6-5.9
			c0.4-1.8,1.1-3.5,1.9-4.9c0.9-1.4,2-2.5,3.4-3.4c1.4-0.8,3-1.2,4.9-1.2c0.4,0,0.9,0,1.5,0.1C451.9,351.1,452.3,351.2,452.5,351.3z
			"/>
		<path class="st7" d="M456.5,369.4v-0.7c0-2.5,0.4-4.9,1.1-7c0.7-2.2,1.8-4,3.2-5.6c1.4-1.6,3-2.8,5-3.7c2-0.9,4.1-1.3,6.6-1.3
			c2.4,0,4.7,0.4,6.6,1.3c2,0.9,3.6,2.1,5,3.7c1.4,1.6,2.4,3.5,3.2,5.6c0.7,2.2,1.1,4.5,1.1,7v0.7c0,2.5-0.4,4.8-1.1,7
			c-0.7,2.1-1.8,4-3.2,5.6c-1.4,1.6-3.1,2.8-5,3.7c-1.9,0.9-4.1,1.3-6.6,1.3s-4.7-0.4-6.6-1.3c-2-0.9-3.6-2.1-5-3.7
			c-1.4-1.6-2.4-3.5-3.2-5.6C456.8,374.2,456.5,371.9,456.5,369.4z M462.4,368.6v0.7c0,1.7,0.2,3.4,0.6,4.9c0.4,1.5,1,2.9,1.9,4.1
			c0.8,1.2,1.9,2.1,3.1,2.8c1.2,0.7,2.7,1,4.4,1c1.6,0,3.1-0.3,4.3-1c1.2-0.7,2.3-1.6,3.1-2.8c0.8-1.2,1.4-2.5,1.9-4.1
			c0.4-1.5,0.6-3.2,0.6-4.9v-0.7c0-1.7-0.2-3.3-0.6-4.9c-0.4-1.5-1-2.9-1.9-4.1c-0.8-1.2-1.9-2.1-3.1-2.8c-1.2-0.7-2.7-1-4.3-1
			c-1.6,0-3.1,0.3-4.3,1c-1.2,0.7-2.3,1.6-3.1,2.8c-0.8,1.2-1.4,2.6-1.9,4.1C462.6,365.3,462.4,366.9,462.4,368.6z"/>
		<path class="st7" d="M494.2,369.4v-0.7c0-2.7,0.3-5.1,1-7.3c0.7-2.2,1.6-4.1,2.8-5.6c1.2-1.6,2.7-2.8,4.4-3.6
			c1.7-0.8,3.6-1.3,5.7-1.3c2.2,0,4.1,0.4,5.8,1.1c1.6,0.8,3,1.9,4.2,3.3c1.1,1.5,2.1,3.2,2.7,5.2c0.7,2,1.1,4.4,1.4,6.9v3
			c-0.2,2.6-0.7,4.9-1.4,6.9c-0.7,2-1.6,3.8-2.7,5.2c-1.1,1.4-2.6,2.5-4.2,3.3c-1.7,0.8-3.6,1.1-5.8,1.1c-2,0-3.9-0.4-5.6-1.3
			c-1.7-0.9-3.1-2.1-4.4-3.7c-1.2-1.6-2.1-3.5-2.8-5.6C494.5,374.2,494.2,371.9,494.2,369.4z M500.2,368.7v0.7
			c0,1.7,0.2,3.4,0.5,4.9c0.4,1.5,0.9,2.9,1.7,4c0.8,1.2,1.7,2.1,2.9,2.7c1.2,0.7,2.5,1,4.2,1c2,0,3.6-0.4,4.9-1.3
			c1.3-0.8,2.3-1.9,3.1-3.3c0.8-1.4,1.4-2.9,1.8-4.5v-7.8c-0.3-1.2-0.6-2.3-1.1-3.4c-0.5-1.1-1.1-2.1-1.9-3
			c-0.8-0.9-1.7-1.6-2.8-2.1c-1.1-0.5-2.4-0.8-3.9-0.8c-1.6,0-3,0.3-4.2,1c-1.2,0.7-2.1,1.6-2.9,2.8c-0.8,1.2-1.3,2.5-1.7,4.1
			C500.4,365.3,500.2,366.9,500.2,368.7z M517.7,379.6v-42.7h6v49.5h-5.5L517.7,379.6z"/>
		<path class="st7" d="M555.4,371l2.5-0.1c0,2.3-0.2,4.5-0.7,6.4s-1.3,3.7-2.3,5.1c-1.1,1.4-2.5,2.6-4.2,3.4s-3.9,1.2-6.3,1.2
			c-1.7,0-3.2-0.2-4.7-0.7c-1.4-0.5-2.6-1.3-3.6-2.3c-1-1-1.8-2.4-2.3-4c-0.5-1.7-0.8-3.6-0.8-6v-22.5h6v22.6c0,1.6,0.2,2.9,0.5,3.9
			c0.4,1,0.8,1.8,1.5,2.4c0.6,0.6,1.3,1,2.1,1.2c0.8,0.2,1.6,0.4,2.4,0.4c2.5,0,4.5-0.5,6-1.5c1.5-1,2.6-2.3,3.2-4
			C555.1,374.9,555.4,373,555.4,371z M554.3,378.3v-26.8h6v34.9h-5.7L554.3,378.3z"/>
		<path class="st7" d="M583.3,382.1c1.4,0,2.7-0.3,3.9-0.9s2.2-1.4,3-2.4c0.8-1,1.2-2.2,1.3-3.5h5.7c-0.1,2.1-0.8,4-2.1,5.8
			s-2.9,3.2-5,4.3s-4.3,1.6-6.8,1.6c-2.6,0-4.9-0.5-6.8-1.4c-1.9-0.9-3.6-2.2-4.8-3.8c-1.3-1.6-2.2-3.5-2.9-5.6
			c-0.6-2.1-1-4.3-1-6.7v-1.4c0-2.3,0.3-4.6,1-6.7c0.6-2.1,1.6-3.9,2.9-5.6c1.3-1.6,2.9-2.9,4.8-3.8c1.9-0.9,4.2-1.4,6.8-1.4
			c2.7,0,5.1,0.6,7.2,1.7c2,1.1,3.6,2.6,4.8,4.5c1.2,1.9,1.8,4.1,1.9,6.5h-5.7c-0.1-1.4-0.5-2.7-1.2-3.9c-0.7-1.2-1.6-2.1-2.8-2.8
			c-1.2-0.7-2.6-1-4.2-1c-1.8,0-3.4,0.4-4.6,1.1c-1.2,0.7-2.2,1.7-2.9,2.9c-0.7,1.2-1.2,2.6-1.5,4c-0.3,1.5-0.5,3-0.5,4.5v1.4
			c0,1.5,0.2,3,0.5,4.5s0.8,2.8,1.5,4c0.7,1.2,1.7,2.2,2.9,2.9C579.9,381.8,581.4,382.1,583.3,382.1z"/>
		<path class="st7" d="M618.5,351.5v4.6h-18.9v-4.6H618.5z M606,343.1h6v34.7c0,1.2,0.2,2.1,0.5,2.7c0.4,0.6,0.8,1,1.4,1.2
			s1.2,0.3,1.9,0.3c0.5,0,1,0,1.6-0.1c0.5-0.1,1-0.2,1.2-0.2l0,4.9c-0.5,0.1-1.1,0.3-1.9,0.4c-0.8,0.1-1.7,0.2-2.8,0.2
			c-1.5,0-2.8-0.3-4-0.9s-2.2-1.6-2.9-2.9c-0.7-1.4-1.1-3.2-1.1-5.5V343.1z"/>
		<path class="st7" d="M623.9,369.4v-0.7c0-2.5,0.4-4.9,1.1-7s1.8-4,3.2-5.6c1.4-1.6,3-2.8,5-3.7c2-0.9,4.1-1.3,6.6-1.3
			c2.4,0,4.7,0.4,6.6,1.3c2,0.9,3.6,2.1,5,3.7c1.4,1.6,2.4,3.5,3.2,5.6s1.1,4.5,1.1,7v0.7c0,2.5-0.4,4.8-1.1,7
			c-0.7,2.1-1.8,4-3.2,5.6c-1.4,1.6-3.1,2.8-5,3.7c-1.9,0.9-4.1,1.3-6.6,1.3s-4.7-0.4-6.6-1.3s-3.6-2.1-5-3.7
			c-1.4-1.6-2.4-3.5-3.2-5.6C624.2,374.2,623.9,371.9,623.9,369.4z M629.8,368.6v0.7c0,1.7,0.2,3.4,0.6,4.9c0.4,1.5,1,2.9,1.9,4.1
			c0.8,1.2,1.9,2.1,3.1,2.8s2.7,1,4.4,1c1.6,0,3.1-0.3,4.3-1s2.3-1.6,3.1-2.8c0.8-1.2,1.4-2.5,1.9-4.1c0.4-1.5,0.6-3.2,0.6-4.9v-0.7
			c0-1.7-0.2-3.3-0.6-4.9c-0.4-1.5-1-2.9-1.9-4.1c-0.8-1.2-1.9-2.1-3.1-2.8c-1.2-0.7-2.7-1-4.3-1c-1.6,0-3.1,0.3-4.3,1
			c-1.2,0.7-2.3,1.6-3.1,2.8c-0.8,1.2-1.4,2.6-1.9,4.1C630,365.3,629.8,366.9,629.8,368.6z"/>
		<path class="st7" d="M699.8,377.2c0-0.9-0.2-1.7-0.6-2.4c-0.4-0.7-1.1-1.4-2.3-2s-2.9-1.1-5.2-1.6c-1.9-0.4-3.7-0.9-5.2-1.5
			c-1.6-0.6-2.9-1.2-4-2c-1.1-0.8-1.9-1.7-2.5-2.8c-0.6-1.1-0.9-2.3-0.9-3.8c0-1.4,0.3-2.7,0.9-3.9c0.6-1.2,1.5-2.3,2.6-3.3
			c1.1-0.9,2.5-1.7,4.1-2.2c1.6-0.5,3.4-0.8,5.3-0.8c2.8,0,5.2,0.5,7.2,1.5c2,1,3.5,2.3,4.5,3.9s1.6,3.5,1.6,5.5h-6
			c0-1-0.3-1.9-0.9-2.8c-0.6-0.9-1.4-1.7-2.5-2.3c-1.1-0.6-2.4-0.9-4-0.9c-1.7,0-3,0.3-4,0.8c-1,0.5-1.8,1.1-2.2,1.9
			c-0.5,0.8-0.7,1.6-0.7,2.4c0,0.6,0.1,1.2,0.3,1.7c0.2,0.5,0.6,1,1.2,1.4s1.4,0.8,2.4,1.2c1.1,0.4,2.4,0.7,4,1.1
			c2.9,0.6,5.2,1.4,7.1,2.3s3.2,2,4.1,3.3c0.9,1.3,1.4,2.9,1.4,4.8c0,1.5-0.3,2.9-1,4.2c-0.6,1.3-1.5,2.4-2.7,3.3
			c-1.2,0.9-2.6,1.6-4.3,2.1c-1.6,0.5-3.5,0.8-5.5,0.8c-3.1,0-5.7-0.5-7.8-1.6s-3.7-2.5-4.8-4.3s-1.6-3.6-1.6-5.5h6
			c0.1,1.6,0.6,2.9,1.4,3.9c0.9,1,1.9,1.6,3.2,2c1.2,0.4,2.5,0.6,3.7,0.6c1.6,0,3-0.2,4.1-0.6c1.1-0.4,1.9-1,2.5-1.8
			C699.5,379,699.8,378.1,699.8,377.2z"/>
		<path class="st7" d="M736,371l2.5-0.1c0,2.3-0.2,4.5-0.7,6.4c-0.5,2-1.3,3.7-2.3,5.1c-1.1,1.4-2.5,2.6-4.2,3.4s-3.9,1.2-6.3,1.2
			c-1.7,0-3.2-0.2-4.7-0.7c-1.4-0.5-2.6-1.3-3.6-2.3s-1.8-2.4-2.3-4c-0.5-1.7-0.8-3.6-0.8-6v-22.5h6v22.6c0,1.6,0.2,2.9,0.5,3.9
			c0.4,1,0.8,1.8,1.5,2.4c0.6,0.6,1.3,1,2.1,1.2c0.8,0.2,1.6,0.4,2.4,0.4c2.5,0,4.5-0.5,6-1.5c1.5-1,2.6-2.3,3.2-4
			C735.7,374.9,736,373,736,371z M734.9,378.3v-26.8h6v34.9h-5.7L734.9,378.3z"/>
		<path class="st7" d="M755.9,358.2v41.6h-6v-48.3h5.5L755.9,358.2z M779.4,368.7v0.7c0,2.5-0.3,4.9-0.9,7s-1.5,4-2.6,5.6
			c-1.2,1.6-2.6,2.8-4.2,3.7s-3.6,1.3-5.8,1.3c-2.2,0-4.2-0.4-5.9-1.1s-3.1-1.8-4.3-3.2c-1.2-1.4-2.1-3.1-2.8-5
			c-0.7-2-1.2-4.2-1.4-6.6v-3.6c0.3-2.6,0.7-4.9,1.5-6.9c0.7-2,1.6-3.8,2.8-5.2c1.2-1.5,2.6-2.6,4.3-3.3c1.7-0.8,3.6-1.1,5.8-1.1
			s4.1,0.4,5.8,1.3c1.7,0.8,3.1,2.1,4.3,3.6c1.2,1.6,2,3.4,2.6,5.6C779.1,363.6,779.4,366,779.4,368.7z M773.4,369.4v-0.7
			c0-1.7-0.2-3.4-0.5-4.9c-0.4-1.5-0.9-2.9-1.7-4.1c-0.8-1.2-1.7-2.1-2.9-2.8s-2.6-1-4.2-1c-1.5,0-2.8,0.3-3.9,0.8s-2,1.2-2.8,2.1
			s-1.4,1.9-1.9,3c-0.5,1.1-0.8,2.3-1.1,3.4v8.3c0.4,1.5,1,2.9,1.8,4.2s1.8,2.4,3.1,3.2s2.9,1.2,4.9,1.2c1.6,0,3-0.3,4.2-1
			c1.2-0.7,2.1-1.6,2.9-2.8c0.8-1.2,1.3-2.5,1.7-4.1C773.2,372.7,773.4,371.1,773.4,369.4z"/>
		<path class="st7" d="M801.4,387c-2.4,0-4.6-0.4-6.6-1.2c-2-0.8-3.7-2-5.1-3.5c-1.4-1.5-2.5-3.3-3.2-5.3s-1.1-4.3-1.1-6.8v-1.4
			c0-2.8,0.4-5.4,1.3-7.6s2-4.1,3.4-5.7s3.1-2.7,4.9-3.5c1.8-0.8,3.7-1.2,5.7-1.2c2.5,0,4.6,0.4,6.5,1.3c1.8,0.9,3.3,2.1,4.5,3.6
			c1.2,1.5,2,3.3,2.6,5.4c0.6,2.1,0.8,4.3,0.8,6.8v2.7h-26v-4.9H809v-0.5c-0.1-1.5-0.4-3.1-1-4.5c-0.5-1.5-1.4-2.7-2.6-3.6
			c-1.2-0.9-2.8-1.4-4.8-1.4c-1.4,0-2.6,0.3-3.7,0.9c-1.1,0.6-2.1,1.4-2.9,2.5c-0.8,1.1-1.5,2.5-1.9,4.1s-0.7,3.5-0.7,5.6v1.4
			c0,1.7,0.2,3.2,0.7,4.7s1.1,2.7,2,3.8c0.9,1.1,2,2,3.3,2.6c1.3,0.6,2.7,0.9,4.4,0.9c2.1,0,3.9-0.4,5.3-1.3c1.5-0.9,2.7-2,3.8-3.4
			l3.6,2.9c-0.8,1.1-1.7,2.2-2.9,3.3s-2.6,1.9-4.3,2.5C805.7,386.7,803.7,387,801.4,387z"/>
		<path class="st7" d="M827.9,357v29.4h-6v-34.9h5.8L827.9,357z M838.8,351.3l0,5.5c-0.5-0.1-1-0.2-1.4-0.2c-0.4,0-0.9,0-1.5,0
			c-1.4,0-2.6,0.2-3.6,0.6c-1.1,0.4-1.9,1-2.7,1.8s-1.3,1.7-1.7,2.8c-0.4,1.1-0.7,2.2-0.8,3.5l-1.7,1c0-2.1,0.2-4.1,0.6-5.9
			c0.4-1.8,1.1-3.5,1.9-4.9c0.9-1.4,2-2.5,3.4-3.4s3-1.2,4.9-1.2c0.4,0,0.9,0,1.5,0.1S838.6,351.2,838.8,351.3z"/>
		<path class="st7" d="M842.7,369.4v-0.7c0-2.5,0.4-4.9,1.1-7s1.8-4,3.2-5.6c1.4-1.6,3-2.8,5-3.7c2-0.9,4.1-1.3,6.6-1.3
			c2.4,0,4.7,0.4,6.6,1.3c2,0.9,3.6,2.1,5,3.7c1.4,1.6,2.4,3.5,3.2,5.6s1.1,4.5,1.1,7v0.7c0,2.5-0.4,4.8-1.1,7
			c-0.7,2.1-1.8,4-3.2,5.6c-1.4,1.6-3.1,2.8-5,3.7c-1.9,0.9-4.1,1.3-6.6,1.3s-4.7-0.4-6.6-1.3s-3.6-2.1-5-3.7
			c-1.4-1.6-2.4-3.5-3.2-5.6C843.1,374.2,842.7,371.9,842.7,369.4z M848.7,368.6v0.7c0,1.7,0.2,3.4,0.6,4.9c0.4,1.5,1,2.9,1.9,4.1
			c0.8,1.2,1.9,2.1,3.1,2.8s2.7,1,4.4,1c1.6,0,3.1-0.3,4.3-1s2.3-1.6,3.1-2.8c0.8-1.2,1.4-2.5,1.9-4.1c0.4-1.5,0.6-3.2,0.6-4.9v-0.7
			c0-1.7-0.2-3.3-0.6-4.9c-0.4-1.5-1-2.9-1.9-4.1c-0.8-1.2-1.9-2.1-3.1-2.8c-1.2-0.7-2.7-1-4.3-1c-1.6,0-3.1,0.3-4.3,1
			c-1.2,0.7-2.3,1.6-3.1,2.8c-0.8,1.2-1.4,2.6-1.9,4.1C848.9,365.3,848.7,366.9,848.7,368.6z M855,346.4l6.3-9.5h7.2l-8.6,9.5H855z"
			/>
		<path class="st7" d="M904.3,358.5v27.9h-6v-34.9h5.7L904.3,358.5z M903,367.6l-2.8-0.1c0-2.4,0.3-4.6,0.9-6.6s1.5-3.8,2.7-5.3
			c1.2-1.5,2.7-2.7,4.4-3.5c1.8-0.8,3.8-1.2,6.1-1.2c1.6,0,3.1,0.2,4.5,0.7c1.4,0.5,2.6,1.2,3.6,2.2c1,1,1.8,2.3,2.4,3.8
			s0.8,3.4,0.8,5.6v23.2h-6v-22.9c0-1.8-0.3-3.3-0.9-4.4c-0.6-1.1-1.5-1.9-2.6-2.4c-1.1-0.5-2.4-0.8-3.9-0.8c-1.8,0-3.2,0.3-4.4,0.9
			c-1.2,0.6-2.1,1.5-2.8,2.6s-1.2,2.3-1.5,3.8C903.2,364.6,903,366.1,903,367.6z M925.6,364.4l-4,1.2c0-1.9,0.3-3.7,1-5.5
			c0.6-1.8,1.5-3.3,2.7-4.7c1.2-1.4,2.6-2.5,4.3-3.3s3.7-1.2,5.9-1.2c1.9,0,3.5,0.2,5,0.7c1.5,0.5,2.7,1.3,3.7,2.3
			c1,1,1.8,2.3,2.3,3.9c0.5,1.6,0.8,3.5,0.8,5.7v22.9h-6v-23c0-2-0.3-3.5-0.9-4.6c-0.6-1.1-1.5-1.8-2.6-2.3
			c-1.1-0.4-2.4-0.7-3.9-0.7c-1.3,0-2.5,0.2-3.5,0.7s-1.9,1.1-2.5,1.9c-0.7,0.8-1.2,1.7-1.6,2.7
			C925.8,362.1,925.6,363.2,925.6,364.4z"/>
		<path class="st7" d="M956.3,342.3c0-1,0.3-1.8,0.9-2.4c0.6-0.7,1.5-1,2.6-1c1.1,0,2,0.3,2.6,1c0.6,0.7,0.9,1.5,0.9,2.4
			c0,0.9-0.3,1.7-0.9,2.4c-0.6,0.7-1.5,1-2.6,1c-1.2,0-2-0.3-2.6-1C956.5,344,956.3,343.2,956.3,342.3z M962.7,351.5v34.9h-6v-34.9
			H962.7z"/>
		<path class="st7" d="M992.6,377.2c0-0.9-0.2-1.7-0.6-2.4c-0.4-0.7-1.1-1.4-2.3-2s-2.9-1.1-5.2-1.6c-1.9-0.4-3.7-0.9-5.2-1.5
			c-1.6-0.6-2.9-1.2-4-2c-1.1-0.8-1.9-1.7-2.5-2.8c-0.6-1.1-0.9-2.3-0.9-3.8c0-1.4,0.3-2.7,0.9-3.9c0.6-1.2,1.5-2.3,2.6-3.3
			c1.1-0.9,2.5-1.7,4.1-2.2c1.6-0.5,3.4-0.8,5.3-0.8c2.8,0,5.2,0.5,7.2,1.5c2,1,3.5,2.3,4.5,3.9s1.6,3.5,1.6,5.5h-6
			c0-1-0.3-1.9-0.9-2.8c-0.6-0.9-1.4-1.7-2.5-2.3c-1.1-0.6-2.4-0.9-4-0.9c-1.7,0-3,0.3-4,0.8c-1,0.5-1.8,1.1-2.2,1.9
			c-0.5,0.8-0.7,1.6-0.7,2.4c0,0.6,0.1,1.2,0.3,1.7c0.2,0.5,0.6,1,1.2,1.4s1.4,0.8,2.4,1.2c1.1,0.4,2.4,0.7,4,1.1
			c2.9,0.6,5.2,1.4,7.1,2.3s3.2,2,4.1,3.3c0.9,1.3,1.4,2.9,1.4,4.8c0,1.5-0.3,2.9-1,4.2c-0.6,1.3-1.5,2.4-2.7,3.3
			c-1.2,0.9-2.6,1.6-4.3,2.1c-1.6,0.5-3.5,0.8-5.5,0.8c-3.1,0-5.7-0.5-7.8-1.6s-3.7-2.5-4.8-4.3s-1.6-3.6-1.6-5.5h6
			c0.1,1.6,0.6,2.9,1.4,3.9c0.9,1,1.9,1.6,3.2,2c1.2,0.4,2.5,0.6,3.7,0.6c1.6,0,3-0.2,4.1-0.6c1.1-0.4,1.9-1,2.5-1.8
			C992.3,379,992.6,378.1,992.6,377.2z"/>
		<path class="st7" d="M322,466.2c-2.4,0-4.6-0.4-6.6-1.2s-3.7-2-5.1-3.5c-1.4-1.5-2.5-3.3-3.2-5.3c-0.8-2.1-1.1-4.3-1.1-6.8V448
			c0-2.8,0.4-5.4,1.3-7.6s2-4.1,3.4-5.7c1.4-1.5,3.1-2.7,4.9-3.5c1.8-0.8,3.7-1.2,5.7-1.2c2.5,0,4.6,0.4,6.5,1.3
			c1.8,0.9,3.3,2.1,4.5,3.6c1.2,1.5,2,3.3,2.6,5.4c0.6,2.1,0.8,4.3,0.8,6.8v2.7h-26V445h20.1v-0.5c-0.1-1.5-0.4-3.1-1-4.5
			c-0.5-1.5-1.4-2.7-2.6-3.6c-1.2-0.9-2.8-1.4-4.8-1.4c-1.4,0-2.6,0.3-3.7,0.9c-1.1,0.6-2.1,1.4-2.9,2.5c-0.8,1.1-1.5,2.5-1.9,4.1
			s-0.7,3.5-0.7,5.6v1.4c0,1.7,0.2,3.2,0.7,4.7c0.5,1.5,1.1,2.7,2,3.8c0.9,1.1,2,2,3.3,2.6c1.3,0.6,2.7,0.9,4.4,0.9
			c2.1,0,3.9-0.4,5.3-1.3c1.5-0.9,2.7-2,3.8-3.4l3.6,2.9c-0.8,1.1-1.7,2.2-2.9,3.3s-2.6,1.9-4.3,2.5
			C326.3,465.9,324.3,466.2,322,466.2z"/>
		<path class="st7" d="M346.6,430.7l7.6,12.7l7.7-12.7h7l-11.4,17.2l11.8,17.7h-6.9l-8.1-13.1l-8.1,13.1h-6.9l11.7-17.7l-11.4-17.2
			H346.6z"/>
		<path class="st7" d="M381.3,437.4V479h-6v-48.3h5.5L381.3,437.4z M404.8,447.9v0.7c0,2.5-0.3,4.9-0.9,7c-0.6,2.2-1.5,4-2.6,5.6
			c-1.1,1.6-2.6,2.8-4.2,3.7s-3.6,1.3-5.8,1.3c-2.2,0-4.2-0.4-5.9-1.1c-1.7-0.7-3.1-1.8-4.3-3.2c-1.2-1.4-2.1-3.1-2.8-5
			c-0.7-2-1.2-4.2-1.4-6.6v-3.6c0.3-2.6,0.7-4.9,1.5-6.9c0.7-2,1.6-3.8,2.8-5.2c1.2-1.5,2.6-2.6,4.3-3.3c1.7-0.8,3.6-1.1,5.8-1.1
			s4.1,0.4,5.8,1.3c1.7,0.8,3.1,2.1,4.3,3.6c1.2,1.6,2,3.4,2.6,5.6C404.5,442.8,404.8,445.2,404.8,447.9z M398.8,448.6v-0.7
			c0-1.7-0.2-3.4-0.5-4.9c-0.4-1.5-0.9-2.9-1.7-4.1c-0.8-1.2-1.7-2.1-2.9-2.8c-1.2-0.7-2.6-1-4.2-1c-1.5,0-2.8,0.3-3.9,0.8
			c-1.1,0.5-2,1.2-2.8,2.1s-1.4,1.9-1.9,3c-0.5,1.1-0.8,2.3-1.1,3.4v8.3c0.4,1.5,1,2.9,1.8,4.2s1.8,2.4,3.1,3.2s2.9,1.2,4.9,1.2
			c1.6,0,3-0.3,4.2-1c1.2-0.7,2.1-1.6,2.9-2.8c0.8-1.2,1.3-2.5,1.7-4.1C398.6,451.9,398.8,450.3,398.8,448.6z"/>
		<path class="st7" d="M426.8,466.2c-2.4,0-4.6-0.4-6.6-1.2s-3.7-2-5.1-3.5c-1.4-1.5-2.5-3.3-3.2-5.3c-0.8-2.1-1.1-4.3-1.1-6.8V448
			c0-2.8,0.4-5.4,1.3-7.6s2-4.1,3.4-5.7c1.4-1.5,3.1-2.7,4.9-3.5c1.8-0.8,3.7-1.2,5.7-1.2c2.5,0,4.6,0.4,6.5,1.3
			c1.8,0.9,3.3,2.1,4.5,3.6c1.2,1.5,2,3.3,2.6,5.4c0.6,2.1,0.8,4.3,0.8,6.8v2.7h-26V445h20.1v-0.5c-0.1-1.5-0.4-3.1-1-4.5
			c-0.5-1.5-1.4-2.7-2.6-3.6c-1.2-0.9-2.8-1.4-4.8-1.4c-1.4,0-2.6,0.3-3.7,0.9c-1.1,0.6-2.1,1.4-2.9,2.5c-0.8,1.1-1.5,2.5-1.9,4.1
			s-0.7,3.5-0.7,5.6v1.4c0,1.7,0.2,3.2,0.7,4.7c0.5,1.5,1.1,2.7,2,3.8c0.9,1.1,2,2,3.3,2.6c1.3,0.6,2.7,0.9,4.4,0.9
			c2.1,0,3.9-0.4,5.3-1.3c1.5-0.9,2.7-2,3.8-3.4l3.6,2.9c-0.8,1.1-1.7,2.2-2.9,3.3s-2.6,1.9-4.3,2.5
			C431.1,465.9,429.1,466.2,426.8,466.2z"/>
		<path class="st7" d="M461.3,461.3c1.4,0,2.7-0.3,3.9-0.9c1.2-0.6,2.2-1.4,3-2.4c0.8-1,1.2-2.2,1.3-3.5h5.7c-0.1,2.1-0.8,4-2.1,5.8
			c-1.3,1.8-2.9,3.2-5,4.3s-4.3,1.6-6.8,1.6c-2.6,0-4.9-0.5-6.8-1.4c-1.9-0.9-3.6-2.2-4.8-3.8c-1.3-1.6-2.2-3.5-2.9-5.6
			c-0.6-2.1-1-4.3-1-6.7v-1.4c0-2.3,0.3-4.6,1-6.7c0.6-2.1,1.6-3.9,2.9-5.6c1.3-1.6,2.9-2.9,4.8-3.8c1.9-0.9,4.2-1.4,6.8-1.4
			c2.7,0,5.1,0.6,7.2,1.7c2,1.1,3.6,2.6,4.8,4.5c1.2,1.9,1.8,4.1,1.9,6.5h-5.7c-0.1-1.4-0.5-2.7-1.2-3.9c-0.7-1.2-1.6-2.1-2.8-2.8
			c-1.2-0.7-2.6-1-4.2-1c-1.8,0-3.4,0.4-4.6,1.1c-1.2,0.7-2.2,1.7-2.9,2.9c-0.7,1.2-1.2,2.6-1.5,4c-0.3,1.5-0.5,3-0.5,4.5v1.4
			c0,1.5,0.1,3,0.5,4.5c0.3,1.5,0.8,2.8,1.5,4c0.7,1.2,1.7,2.2,2.9,2.9C457.9,461,459.5,461.3,461.3,461.3z"/>
		<path class="st7" d="M496.5,430.7v4.6h-18.9v-4.6H496.5z M484,422.3h6V457c0,1.2,0.2,2.1,0.5,2.7c0.4,0.6,0.8,1,1.4,1.2
			s1.2,0.3,1.9,0.3c0.5,0,1,0,1.6-0.1s1-0.2,1.2-0.2l0,4.9c-0.5,0.1-1.1,0.3-1.9,0.4c-0.8,0.1-1.7,0.2-2.8,0.2c-1.5,0-2.8-0.3-4-0.9
			s-2.2-1.6-2.9-2.9c-0.7-1.4-1.1-3.2-1.1-5.5V422.3z"/>
		<path class="st7" d="M525.1,444.5l0.1,4.2h-6c-1.7,0-3.2,0.1-4.5,0.4c-1.3,0.3-2.4,0.7-3.4,1.2c-0.9,0.5-1.6,1.2-2.1,2
			c-0.5,0.8-0.7,1.7-0.7,2.8c0,1.1,0.2,2.1,0.7,3c0.5,0.9,1.2,1.6,2.2,2.1c1,0.5,2.2,0.8,3.7,0.8c1.8,0,3.4-0.4,4.8-1.2
			c1.4-0.8,2.5-1.7,3.3-2.8c0.8-1.1,1.3-2.2,1.3-3.3l2.5,2.9c-0.2,0.9-0.6,1.9-1.2,3c-0.7,1.1-1.6,2.1-2.7,3.1
			c-1.1,1-2.4,1.8-3.9,2.5s-3.2,1-5.1,1c-2.4,0-4.4-0.5-6.2-1.4s-3.1-2.2-4.1-3.7c-1-1.6-1.5-3.3-1.5-5.2c0-1.9,0.4-3.5,1.1-4.9
			c0.7-1.4,1.8-2.6,3.2-3.6c1.4-1,3-1.7,5-2.2c1.9-0.5,4.1-0.7,6.5-0.7H525.1z M524.1,459.6v-18c0-1.4-0.3-2.6-0.8-3.6
			c-0.5-1-1.4-1.8-2.5-2.4c-1.1-0.6-2.4-0.8-4.1-0.8c-1.5,0-2.8,0.3-3.9,0.8s-2,1.2-2.6,2c-0.6,0.8-1,1.7-1,2.7h-6
			c0-1.2,0.3-2.5,1-3.7s1.6-2.3,2.8-3.3c1.2-1,2.7-1.8,4.4-2.4c1.7-0.6,3.6-0.9,5.7-0.9c2.5,0,4.8,0.4,6.7,1.3
			c1.9,0.9,3.5,2.2,4.6,3.9c1.1,1.7,1.7,3.9,1.7,6.5V458c0,1.2,0.1,2.4,0.3,3.7c0.2,1.3,0.5,2.4,0.9,3.4v0.5H525
			c-0.3-0.7-0.5-1.6-0.7-2.8C524.1,461.7,524.1,460.6,524.1,459.6z"/>
		<path class="st7" d="M554,430.7v4.6h-18.9v-4.6H554z M541.5,422.3h6V457c0,1.2,0.2,2.1,0.5,2.7c0.4,0.6,0.8,1,1.4,1.2
			s1.2,0.3,1.9,0.3c0.5,0,1,0,1.6-0.1s1-0.2,1.2-0.2l0,4.9c-0.5,0.1-1.1,0.3-1.9,0.4c-0.8,0.1-1.7,0.2-2.8,0.2c-1.5,0-2.8-0.3-4-0.9
			s-2.2-1.6-2.9-2.9c-0.7-1.4-1.1-3.2-1.1-5.5V422.3z"/>
		<path class="st7" d="M561,421.5c0-1,0.3-1.8,0.9-2.4c0.6-0.7,1.5-1,2.6-1c1.1,0,2,0.3,2.6,1c0.6,0.7,0.9,1.5,0.9,2.4
			c0,0.9-0.3,1.7-0.9,2.4c-0.6,0.7-1.5,1-2.6,1c-1.2,0-2-0.3-2.6-1C561.3,423.2,561,422.4,561,421.5z M567.5,430.7v34.9h-6v-34.9
			H567.5z"/>
		<path class="st7" d="M579.7,430.7l9.8,29.6l0.7,5.2h-4l-12.6-34.9H579.7z M587.6,460.2l9.5-29.5h6.1l-12.5,34.9h-4L587.6,460.2z"
			/>
		<path class="st7" d="M630.6,444.5l0.1,4.2h-6c-1.7,0-3.2,0.1-4.5,0.4c-1.3,0.3-2.4,0.7-3.4,1.2c-0.9,0.5-1.6,1.2-2.1,2
			s-0.7,1.7-0.7,2.8c0,1.1,0.2,2.1,0.7,3s1.2,1.6,2.2,2.1c1,0.5,2.2,0.8,3.7,0.8c1.8,0,3.4-0.4,4.8-1.2s2.5-1.7,3.3-2.8
			c0.8-1.1,1.3-2.2,1.3-3.3l2.5,2.9c-0.2,0.9-0.6,1.9-1.2,3s-1.6,2.1-2.7,3.1c-1.1,1-2.4,1.8-3.9,2.5c-1.5,0.7-3.2,1-5.1,1
			c-2.4,0-4.4-0.5-6.2-1.4c-1.8-0.9-3.1-2.2-4.1-3.7c-1-1.6-1.5-3.3-1.5-5.2c0-1.9,0.4-3.5,1.1-4.9c0.7-1.4,1.8-2.6,3.2-3.6
			c1.4-1,3-1.7,5-2.2c1.9-0.5,4.1-0.7,6.5-0.7H630.6z M629.6,459.6v-18c0-1.4-0.3-2.6-0.8-3.6c-0.5-1-1.4-1.8-2.5-2.4
			c-1.1-0.6-2.4-0.8-4.1-0.8c-1.5,0-2.8,0.3-3.9,0.8c-1.1,0.5-2,1.2-2.6,2s-1,1.7-1,2.7h-6c0-1.2,0.3-2.5,1-3.7s1.6-2.3,2.8-3.3
			s2.7-1.8,4.4-2.4c1.7-0.6,3.6-0.9,5.7-0.9c2.5,0,4.8,0.4,6.7,1.3c1.9,0.9,3.5,2.2,4.6,3.9c1.1,1.7,1.7,3.9,1.7,6.5V458
			c0,1.2,0.1,2.4,0.3,3.7c0.2,1.3,0.5,2.4,0.9,3.4v0.5h-6.2c-0.3-0.7-0.5-1.6-0.7-2.8C629.7,461.7,629.6,460.6,629.6,459.6z"/>
		<path class="st7" d="M665.2,456.4c0-0.9-0.2-1.7-0.6-2.4c-0.4-0.7-1.1-1.4-2.3-2s-2.9-1.1-5.2-1.6c-1.9-0.4-3.7-0.9-5.2-1.5
			c-1.6-0.6-2.9-1.2-4-2c-1.1-0.8-1.9-1.7-2.5-2.8c-0.6-1.1-0.9-2.3-0.9-3.8c0-1.4,0.3-2.7,0.9-3.9c0.6-1.2,1.5-2.3,2.6-3.3
			c1.1-0.9,2.5-1.7,4.1-2.2c1.6-0.5,3.4-0.8,5.3-0.8c2.8,0,5.2,0.5,7.2,1.5c2,1,3.5,2.3,4.5,3.9s1.6,3.5,1.6,5.5h-6
			c0-1-0.3-1.9-0.9-2.8c-0.6-0.9-1.4-1.7-2.5-2.3c-1.1-0.6-2.4-0.9-4-0.9c-1.7,0-3,0.3-4,0.8c-1,0.5-1.8,1.1-2.2,1.9
			c-0.5,0.8-0.7,1.6-0.7,2.4c0,0.6,0.1,1.2,0.3,1.7c0.2,0.5,0.6,1,1.2,1.4s1.4,0.8,2.4,1.2c1.1,0.4,2.4,0.7,4,1.1
			c2.9,0.6,5.2,1.4,7.1,2.3s3.2,2,4.1,3.3c0.9,1.3,1.4,2.9,1.4,4.8c0,1.5-0.3,2.9-1,4.2c-0.6,1.3-1.5,2.4-2.7,3.3
			c-1.2,0.9-2.6,1.6-4.3,2.1c-1.6,0.5-3.5,0.8-5.5,0.8c-3.1,0-5.7-0.5-7.8-1.6s-3.7-2.5-4.8-4.3s-1.6-3.6-1.6-5.5h6
			c0.1,1.6,0.6,2.9,1.4,3.9c0.9,1,1.9,1.6,3.2,2c1.2,0.4,2.5,0.6,3.7,0.6c1.6,0,3-0.2,4.1-0.6c1.1-0.4,1.9-1,2.5-1.8
			C664.9,458.2,665.2,457.3,665.2,456.4z"/>
		<path class="st7" d="M679.1,462.4c0-1,0.3-1.9,1-2.6c0.6-0.7,1.6-1,2.8-1s2.1,0.3,2.8,1c0.6,0.7,1,1.6,1,2.6c0,1-0.3,1.8-1,2.5
			s-1.6,1-2.8,1s-2.1-0.3-2.8-1C679.4,464.3,679.1,463.4,679.1,462.4z"/>
		<path class="st7" d="M719.9,418.7v46.9h-6.2v-46.9H719.9z M742.1,460.5v5.1h-23.5v-5.1H742.1z"/>
		<path class="st7" d="M769.9,444.5l0.1,4.2h-6c-1.7,0-3.2,0.1-4.5,0.4c-1.3,0.3-2.4,0.7-3.4,1.2c-0.9,0.5-1.6,1.2-2.1,2
			s-0.7,1.7-0.7,2.8c0,1.1,0.2,2.1,0.7,3s1.2,1.6,2.2,2.1c1,0.5,2.2,0.8,3.7,0.8c1.8,0,3.4-0.4,4.8-1.2s2.5-1.7,3.3-2.8
			c0.8-1.1,1.3-2.2,1.3-3.3l2.5,2.9c-0.2,0.9-0.6,1.9-1.2,3s-1.6,2.1-2.7,3.1c-1.1,1-2.4,1.8-3.9,2.5c-1.5,0.7-3.2,1-5.1,1
			c-2.4,0-4.4-0.5-6.2-1.4c-1.8-0.9-3.1-2.2-4.1-3.7c-1-1.6-1.5-3.3-1.5-5.2c0-1.9,0.4-3.5,1.1-4.9c0.7-1.4,1.8-2.6,3.2-3.6
			c1.4-1,3-1.7,5-2.2c1.9-0.5,4.1-0.7,6.5-0.7H769.9z M768.9,459.6v-18c0-1.4-0.3-2.6-0.8-3.6c-0.5-1-1.4-1.8-2.5-2.4
			c-1.1-0.6-2.4-0.8-4.1-0.8c-1.5,0-2.8,0.3-3.9,0.8c-1.1,0.5-2,1.2-2.6,2s-1,1.7-1,2.7h-6c0-1.2,0.3-2.5,1-3.7s1.6-2.3,2.8-3.3
			s2.7-1.8,4.4-2.4c1.7-0.6,3.6-0.9,5.7-0.9c2.5,0,4.8,0.4,6.7,1.3c1.9,0.9,3.5,2.2,4.6,3.9c1.1,1.7,1.7,3.9,1.7,6.5V458
			c0,1.2,0.1,2.4,0.3,3.7c0.2,1.3,0.5,2.4,0.9,3.4v0.5h-6.2c-0.3-0.7-0.5-1.6-0.7-2.8C768.9,461.7,768.9,460.6,768.9,459.6z"/>
		<path class="st7" d="M814.5,461.3c1.4,0,2.7-0.3,3.9-0.9s2.2-1.4,3-2.4c0.8-1,1.2-2.2,1.3-3.5h5.7c-0.1,2.1-0.8,4-2.1,5.8
			s-2.9,3.2-5,4.3s-4.3,1.6-6.8,1.6c-2.6,0-4.9-0.5-6.8-1.4c-1.9-0.9-3.6-2.2-4.8-3.8c-1.3-1.6-2.2-3.5-2.9-5.6s-1-4.3-1-6.7v-1.4
			c0-2.3,0.3-4.6,1-6.7s1.6-3.9,2.9-5.6c1.3-1.6,2.9-2.9,4.8-3.8c1.9-0.9,4.2-1.4,6.8-1.4c2.7,0,5.1,0.6,7.2,1.7
			c2,1.1,3.6,2.6,4.8,4.5c1.2,1.9,1.8,4.1,1.9,6.5h-5.7c-0.1-1.4-0.5-2.7-1.2-3.9c-0.7-1.2-1.6-2.1-2.8-2.8c-1.2-0.7-2.6-1-4.2-1
			c-1.8,0-3.4,0.4-4.6,1.1c-1.2,0.7-2.2,1.7-2.9,2.9c-0.7,1.2-1.2,2.6-1.5,4c-0.3,1.5-0.5,3-0.5,4.5v1.4c0,1.5,0.2,3,0.5,4.5
			s0.8,2.8,1.5,4c0.7,1.2,1.7,2.2,2.9,2.9C811.1,461,812.7,461.3,814.5,461.3z"/>
		<path class="st7" d="M856.7,444.5l0.1,4.2h-6c-1.7,0-3.2,0.1-4.5,0.4c-1.3,0.3-2.4,0.7-3.4,1.2c-0.9,0.5-1.6,1.2-2.1,2
			s-0.7,1.7-0.7,2.8c0,1.1,0.2,2.1,0.7,3s1.2,1.6,2.2,2.1c1,0.5,2.2,0.8,3.7,0.8c1.8,0,3.4-0.4,4.8-1.2s2.5-1.7,3.3-2.8
			c0.8-1.1,1.3-2.2,1.3-3.3l2.5,2.9c-0.2,0.9-0.6,1.9-1.2,3s-1.6,2.1-2.7,3.1c-1.1,1-2.4,1.8-3.9,2.5c-1.5,0.7-3.2,1-5.1,1
			c-2.4,0-4.4-0.5-6.2-1.4c-1.8-0.9-3.1-2.2-4.1-3.7c-1-1.6-1.5-3.3-1.5-5.2c0-1.9,0.4-3.5,1.1-4.9c0.7-1.4,1.8-2.6,3.2-3.6
			c1.4-1,3-1.7,5-2.2c1.9-0.5,4.1-0.7,6.5-0.7H856.7z M855.7,459.6v-18c0-1.4-0.3-2.6-0.8-3.6c-0.5-1-1.4-1.8-2.5-2.4
			c-1.1-0.6-2.4-0.8-4.1-0.8c-1.5,0-2.8,0.3-3.9,0.8c-1.1,0.5-2,1.2-2.6,2s-1,1.7-1,2.7h-6c0-1.2,0.3-2.5,1-3.7s1.6-2.3,2.8-3.3
			s2.7-1.8,4.4-2.4c1.7-0.6,3.6-0.9,5.7-0.9c2.5,0,4.8,0.4,6.7,1.3c1.9,0.9,3.5,2.2,4.6,3.9c1.1,1.7,1.7,3.9,1.7,6.5V458
			c0,1.2,0.1,2.4,0.3,3.7c0.2,1.3,0.5,2.4,0.9,3.4v0.5h-6.2c-0.3-0.7-0.5-1.6-0.7-2.8C855.8,461.7,855.7,460.6,855.7,459.6z"/>
		<path class="st7" d="M877.5,416.1v49.5h-6v-49.5H877.5z"/>
		<path class="st7" d="M887.1,421.5c0-1,0.3-1.8,0.9-2.4c0.6-0.7,1.5-1,2.6-1c1.1,0,2,0.3,2.6,1c0.6,0.7,0.9,1.5,0.9,2.4
			c0,0.9-0.3,1.7-0.9,2.4c-0.6,0.7-1.5,1-2.6,1c-1.2,0-2-0.3-2.6-1C887.4,423.2,887.1,422.4,887.1,421.5z M893.5,430.7v34.9h-6
			v-34.9H893.5z"/>
		<path class="st7" d="M901.6,448.6v-0.7c0-2.7,0.3-5.1,1-7.3c0.7-2.2,1.6-4.1,2.8-5.6c1.2-1.6,2.7-2.8,4.4-3.6
			c1.7-0.8,3.6-1.3,5.7-1.3c2.2,0,4.1,0.4,5.8,1.1c1.6,0.8,3,1.9,4.2,3.3c1.1,1.5,2.1,3.2,2.7,5.2c0.7,2,1.1,4.4,1.4,6.9v3
			c-0.2,2.6-0.7,4.9-1.4,6.9c-0.7,2-1.6,3.8-2.7,5.2c-1.2,1.4-2.6,2.5-4.2,3.3s-3.6,1.1-5.8,1.1c-2,0-3.9-0.4-5.6-1.3
			c-1.7-0.9-3.1-2.1-4.4-3.7c-1.2-1.6-2.1-3.5-2.8-5.6C902,453.4,901.6,451.1,901.6,448.6z M907.6,447.9v0.7c0,1.7,0.2,3.4,0.5,4.9
			c0.4,1.5,0.9,2.9,1.7,4s1.7,2.1,2.9,2.7c1.2,0.7,2.5,1,4.2,1c2,0,3.6-0.4,4.9-1.3s2.3-1.9,3.1-3.3c0.8-1.4,1.4-2.9,1.8-4.5v-7.8
			c-0.3-1.2-0.6-2.3-1.1-3.4c-0.5-1.1-1.1-2.1-1.9-3c-0.8-0.9-1.7-1.6-2.8-2.1s-2.4-0.8-3.9-0.8c-1.6,0-3,0.3-4.2,1
			s-2.1,1.6-2.9,2.8c-0.8,1.2-1.3,2.5-1.7,4.1C907.8,444.5,907.6,446.1,907.6,447.9z M925.1,458.8v-42.7h6v49.5h-5.5L925.1,458.8z"
			/>
		<path class="st7" d="M961.9,444.5l0.1,4.2h-6c-1.7,0-3.2,0.1-4.5,0.4c-1.3,0.3-2.4,0.7-3.4,1.2c-0.9,0.5-1.6,1.2-2.1,2
			s-0.7,1.7-0.7,2.8c0,1.1,0.2,2.1,0.7,3s1.2,1.6,2.2,2.1c1,0.5,2.2,0.8,3.7,0.8c1.8,0,3.4-0.4,4.8-1.2s2.5-1.7,3.3-2.8
			c0.8-1.1,1.3-2.2,1.3-3.3l2.5,2.9c-0.2,0.9-0.6,1.9-1.2,3s-1.6,2.1-2.7,3.1c-1.1,1-2.4,1.8-3.9,2.5c-1.5,0.7-3.2,1-5.1,1
			c-2.4,0-4.4-0.5-6.2-1.4c-1.8-0.9-3.1-2.2-4.1-3.7c-1-1.6-1.5-3.3-1.5-5.2c0-1.9,0.4-3.5,1.1-4.9c0.7-1.4,1.8-2.6,3.2-3.6
			c1.4-1,3-1.7,5-2.2c1.9-0.5,4.1-0.7,6.5-0.7H961.9z M960.9,459.6v-18c0-1.4-0.3-2.6-0.8-3.6c-0.5-1-1.4-1.8-2.5-2.4
			c-1.1-0.6-2.4-0.8-4.1-0.8c-1.5,0-2.8,0.3-3.9,0.8c-1.1,0.5-2,1.2-2.6,2s-1,1.7-1,2.7h-6c0-1.2,0.3-2.5,1-3.7s1.6-2.3,2.8-3.3
			s2.7-1.8,4.4-2.4c1.7-0.6,3.6-0.9,5.7-0.9c2.5,0,4.8,0.4,6.7,1.3c1.9,0.9,3.5,2.2,4.6,3.9c1.1,1.7,1.7,3.9,1.7,6.5V458
			c0,1.2,0.1,2.4,0.3,3.7c0.2,1.3,0.5,2.4,0.9,3.4v0.5h-6.2c-0.3-0.7-0.5-1.6-0.7-2.8C961,461.7,960.9,460.6,960.9,459.6z"/>
		<path class="st7" d="M974.7,448.6v-0.7c0-2.7,0.3-5.1,1-7.3c0.7-2.2,1.6-4.1,2.8-5.6c1.2-1.6,2.7-2.8,4.4-3.6
			c1.7-0.8,3.6-1.3,5.7-1.3c2.2,0,4.1,0.4,5.8,1.1c1.6,0.8,3,1.9,4.2,3.3c1.1,1.5,2.1,3.2,2.7,5.2c0.7,2,1.1,4.4,1.4,6.9v3
			c-0.2,2.6-0.7,4.9-1.4,6.9c-0.7,2-1.6,3.8-2.7,5.2c-1.2,1.4-2.6,2.5-4.2,3.3s-3.6,1.1-5.8,1.1c-2,0-3.9-0.4-5.6-1.3
			c-1.7-0.9-3.1-2.1-4.4-3.7c-1.2-1.6-2.1-3.5-2.8-5.6C975.1,453.4,974.7,451.1,974.7,448.6z M980.7,447.9v0.7
			c0,1.7,0.2,3.4,0.5,4.9c0.4,1.5,0.9,2.9,1.7,4s1.7,2.1,2.9,2.7c1.2,0.7,2.5,1,4.2,1c2,0,3.6-0.4,4.9-1.3s2.3-1.9,3.1-3.3
			c0.8-1.4,1.4-2.9,1.8-4.5v-7.8c-0.3-1.2-0.6-2.3-1.1-3.4c-0.5-1.1-1.1-2.1-1.9-3c-0.8-0.9-1.7-1.6-2.8-2.1s-2.4-0.8-3.9-0.8
			c-1.6,0-3,0.3-4.2,1s-2.1,1.6-2.9,2.8c-0.8,1.2-1.3,2.5-1.7,4.1C980.9,444.5,980.7,446.1,980.7,447.9z M998.2,458.8v-42.7h6v49.5
			h-5.5L998.2,458.8z"/>
		<path class="st7" d="M322,545.4c-2.4,0-4.6-0.4-6.6-1.2c-2-0.8-3.7-2-5.1-3.5c-1.4-1.5-2.5-3.3-3.2-5.3c-0.8-2.1-1.1-4.3-1.1-6.8
			v-1.4c0-2.8,0.4-5.4,1.3-7.6s2-4.1,3.4-5.7c1.4-1.5,3.1-2.7,4.9-3.5c1.8-0.8,3.7-1.2,5.7-1.2c2.5,0,4.6,0.4,6.5,1.3
			c1.8,0.9,3.3,2.1,4.5,3.6c1.2,1.5,2,3.3,2.6,5.4c0.6,2.1,0.8,4.3,0.8,6.8v2.7h-26v-4.9h20.1v-0.5c-0.1-1.5-0.4-3.1-1-4.5
			c-0.5-1.5-1.4-2.7-2.6-3.6c-1.2-0.9-2.8-1.4-4.8-1.4c-1.4,0-2.6,0.3-3.7,0.9c-1.1,0.6-2.1,1.4-2.9,2.5c-0.8,1.1-1.5,2.5-1.9,4.1
			s-0.7,3.5-0.7,5.6v1.4c0,1.7,0.2,3.2,0.7,4.7c0.5,1.5,1.1,2.7,2,3.8c0.9,1.1,2,2,3.3,2.6c1.3,0.6,2.7,0.9,4.4,0.9
			c2.1,0,3.9-0.4,5.3-1.3c1.5-0.9,2.7-2,3.8-3.4l3.6,2.9c-0.8,1.1-1.7,2.2-2.9,3.3s-2.6,1.9-4.3,2.5
			C326.3,545.1,324.3,545.4,322,545.4z"/>
		<path class="st7" d="M362.9,535.6c0-0.9-0.2-1.7-0.6-2.4c-0.4-0.7-1.1-1.4-2.3-2c-1.1-0.6-2.9-1.1-5.2-1.6
			c-1.9-0.4-3.7-0.9-5.2-1.5c-1.6-0.6-2.9-1.2-4-2c-1.1-0.8-1.9-1.7-2.5-2.8c-0.6-1.1-0.9-2.3-0.9-3.8c0-1.4,0.3-2.7,0.9-3.9
			s1.5-2.3,2.6-3.3c1.1-0.9,2.5-1.7,4.1-2.2c1.6-0.5,3.4-0.8,5.3-0.8c2.8,0,5.2,0.5,7.2,1.5c2,1,3.5,2.3,4.5,3.9
			c1.1,1.6,1.6,3.5,1.6,5.5h-6c0-1-0.3-1.9-0.9-2.8c-0.6-0.9-1.4-1.7-2.5-2.3c-1.1-0.6-2.4-0.9-4-0.9c-1.7,0-3,0.3-4,0.8
			c-1,0.5-1.8,1.1-2.2,1.9c-0.5,0.8-0.7,1.6-0.7,2.4c0,0.6,0.1,1.2,0.3,1.7c0.2,0.5,0.6,1,1.2,1.4s1.4,0.8,2.4,1.2
			c1.1,0.4,2.4,0.7,4,1.1c2.9,0.6,5.2,1.4,7.1,2.3c1.8,0.9,3.2,2,4.1,3.3c0.9,1.3,1.4,2.9,1.4,4.8c0,1.5-0.3,2.9-1,4.2
			c-0.6,1.3-1.5,2.4-2.7,3.3c-1.2,0.9-2.6,1.6-4.3,2.1c-1.6,0.5-3.5,0.8-5.5,0.8c-3.1,0-5.7-0.5-7.8-1.6s-3.7-2.5-4.8-4.3
			s-1.6-3.6-1.6-5.5h6c0.1,1.6,0.6,2.9,1.4,3.9c0.9,1,1.9,1.6,3.2,2c1.2,0.4,2.5,0.6,3.7,0.6c1.6,0,3-0.2,4.1-0.6
			c1.1-0.4,1.9-1,2.5-1.8C362.6,537.4,362.9,536.5,362.9,535.6z"/>
		<path class="st7" d="M407.5,545.4c-2.4,0-4.6-0.4-6.6-1.2c-2-0.8-3.7-2-5.1-3.5c-1.4-1.5-2.5-3.3-3.2-5.3
			c-0.8-2.1-1.1-4.3-1.1-6.8v-1.4c0-2.8,0.4-5.4,1.3-7.6s2-4.1,3.4-5.7c1.4-1.5,3.1-2.7,4.9-3.5c1.8-0.8,3.7-1.2,5.7-1.2
			c2.5,0,4.6,0.4,6.5,1.3c1.8,0.9,3.3,2.1,4.5,3.6c1.2,1.5,2,3.3,2.6,5.4c0.6,2.1,0.8,4.3,0.8,6.8v2.7h-26v-4.9h20.1v-0.5
			c-0.1-1.5-0.4-3.1-1-4.5c-0.5-1.5-1.4-2.7-2.6-3.6c-1.2-0.9-2.8-1.4-4.8-1.4c-1.4,0-2.6,0.3-3.7,0.9c-1.1,0.6-2.1,1.4-2.9,2.5
			c-0.8,1.1-1.5,2.5-1.9,4.1s-0.7,3.5-0.7,5.6v1.4c0,1.7,0.2,3.2,0.7,4.7c0.5,1.5,1.1,2.7,2,3.8c0.9,1.1,2,2,3.3,2.6
			c1.3,0.6,2.7,0.9,4.4,0.9c2.1,0,3.9-0.4,5.3-1.3c1.5-0.9,2.7-2,3.8-3.4l3.6,2.9c-0.8,1.1-1.7,2.2-2.9,3.3s-2.6,1.9-4.3,2.5
			C411.8,545.1,409.8,545.4,407.5,545.4z"/>
		<path class="st7" d="M432,509.9l7.6,12.7l7.7-12.7h7L443,527.1l11.8,17.7h-6.9l-8.1-13.1l-8.1,13.1h-6.9l11.7-17.7l-11.4-17.2H432
			z"/>
		<path class="st7" d="M474.7,540.5c1.4,0,2.7-0.3,3.9-0.9c1.2-0.6,2.2-1.4,3-2.4c0.8-1,1.2-2.2,1.3-3.5h5.7c-0.1,2.1-0.8,4-2.1,5.8
			c-1.3,1.8-2.9,3.2-5,4.3c-2.1,1.1-4.3,1.6-6.8,1.6c-2.6,0-4.9-0.5-6.8-1.4c-1.9-0.9-3.6-2.2-4.8-3.8c-1.3-1.6-2.2-3.5-2.9-5.6
			c-0.6-2.1-1-4.3-1-6.7v-1.4c0-2.3,0.3-4.6,1-6.7c0.6-2.1,1.6-3.9,2.9-5.6c1.3-1.6,2.9-2.9,4.8-3.8c1.9-0.9,4.2-1.4,6.8-1.4
			c2.7,0,5.1,0.6,7.2,1.7c2,1.1,3.6,2.6,4.8,4.5c1.2,1.9,1.8,4.1,1.9,6.5h-5.7c-0.1-1.4-0.5-2.7-1.2-3.9c-0.7-1.2-1.6-2.1-2.8-2.8
			c-1.2-0.7-2.6-1-4.2-1c-1.8,0-3.4,0.4-4.6,1.1c-1.2,0.7-2.2,1.7-2.9,2.9c-0.7,1.2-1.2,2.6-1.5,4c-0.3,1.5-0.5,3-0.5,4.5v1.4
			c0,1.5,0.1,3,0.5,4.5c0.3,1.5,0.8,2.8,1.5,4c0.7,1.2,1.7,2.2,2.9,2.9C471.3,540.2,472.8,540.5,474.7,540.5z"/>
		<path class="st7" d="M509.8,545.4c-2.4,0-4.6-0.4-6.6-1.2c-2-0.8-3.7-2-5.1-3.5c-1.4-1.5-2.5-3.3-3.2-5.3
			c-0.8-2.1-1.1-4.3-1.1-6.8v-1.4c0-2.8,0.4-5.4,1.3-7.6s2-4.1,3.4-5.7c1.4-1.5,3.1-2.7,4.9-3.5c1.8-0.8,3.7-1.2,5.7-1.2
			c2.5,0,4.6,0.4,6.5,1.3c1.8,0.9,3.3,2.1,4.5,3.6c1.2,1.5,2,3.3,2.6,5.4c0.6,2.1,0.8,4.3,0.8,6.8v2.7h-26v-4.9h20.1v-0.5
			c-0.1-1.5-0.4-3.1-1-4.5c-0.5-1.5-1.4-2.7-2.6-3.6c-1.2-0.9-2.8-1.4-4.8-1.4c-1.4,0-2.6,0.3-3.7,0.9c-1.1,0.6-2.1,1.4-2.9,2.5
			c-0.8,1.1-1.5,2.5-1.9,4.1s-0.7,3.5-0.7,5.6v1.4c0,1.7,0.2,3.2,0.7,4.7c0.5,1.5,1.1,2.7,2,3.8c0.9,1.1,2,2,3.3,2.6
			c1.3,0.6,2.7,0.9,4.4,0.9c2.1,0,3.9-0.4,5.3-1.3c1.5-0.9,2.7-2,3.8-3.4l3.6,2.9c-0.8,1.1-1.7,2.2-2.9,3.3s-2.6,1.9-4.3,2.5
			C514,545.1,512.1,545.4,509.8,545.4z"/>
		<path class="st7" d="M536.8,495.3v49.5h-6v-49.5H536.8z"/>
		<path class="st7" d="M560.8,545.4c-2.4,0-4.6-0.4-6.6-1.2c-2-0.8-3.7-2-5.1-3.5c-1.4-1.5-2.5-3.3-3.2-5.3
			c-0.8-2.1-1.1-4.3-1.1-6.8v-1.4c0-2.8,0.4-5.4,1.3-7.6s2-4.1,3.4-5.7c1.4-1.5,3.1-2.7,4.9-3.5c1.8-0.8,3.7-1.2,5.7-1.2
			c2.5,0,4.6,0.4,6.5,1.3c1.8,0.9,3.3,2.1,4.5,3.6c1.2,1.5,2,3.3,2.6,5.4c0.6,2.1,0.8,4.3,0.8,6.8v2.7h-26v-4.9h20.1v-0.5
			c-0.1-1.5-0.4-3.1-1-4.5c-0.5-1.5-1.4-2.7-2.6-3.6c-1.2-0.9-2.8-1.4-4.8-1.4c-1.4,0-2.6,0.3-3.7,0.9c-1.1,0.6-2.1,1.4-2.9,2.5
			c-0.8,1.1-1.5,2.5-1.9,4.1s-0.7,3.5-0.7,5.6v1.4c0,1.7,0.2,3.2,0.7,4.7c0.5,1.5,1.1,2.7,2,3.8c0.9,1.1,2,2,3.3,2.6
			c1.3,0.6,2.7,0.9,4.4,0.9c2.1,0,3.9-0.4,5.3-1.3c1.5-0.9,2.7-2,3.8-3.4l3.6,2.9c-0.8,1.1-1.7,2.2-2.9,3.3s-2.6,1.9-4.3,2.5
			C565.1,545.1,563.1,545.4,560.8,545.4z"/>
		<path class="st7" d="M587.3,517.4v27.4h-6v-34.9h5.6L587.3,517.4z M585.9,526l-2.5-0.1c0-2.4,0.4-4.6,1.1-6.6s1.7-3.8,2.9-5.3
			c1.2-1.5,2.7-2.7,4.5-3.5c1.7-0.8,3.6-1.2,5.8-1.2c1.7,0,3.3,0.2,4.6,0.7c1.4,0.5,2.6,1.2,3.5,2.2c1,1,1.7,2.3,2.2,3.9
			c0.5,1.6,0.8,3.6,0.8,5.8v22.8h-6v-22.9c0-1.8-0.3-3.3-0.8-4.4c-0.5-1.1-1.3-1.9-2.4-2.4c-1-0.5-2.3-0.8-3.8-0.8
			c-1.5,0-2.8,0.3-4,0.9c-1.2,0.6-2.3,1.5-3.1,2.6c-0.9,1.1-1.5,2.3-2,3.8C586.1,523,585.9,524.5,585.9,526z"/>
		<path class="st7" d="M632.4,509.9v4.6h-18.9v-4.6H632.4z M619.9,501.5h6v34.7c0,1.2,0.2,2.1,0.5,2.7c0.4,0.6,0.8,1,1.4,1.2
			s1.2,0.3,1.9,0.3c0.5,0,1,0,1.6-0.1c0.5-0.1,1-0.2,1.2-0.2l0,4.9c-0.5,0.1-1.1,0.3-1.9,0.4c-0.8,0.1-1.7,0.2-2.8,0.2
			c-1.5,0-2.8-0.3-4-0.9s-2.2-1.6-2.9-2.9c-0.7-1.4-1.1-3.2-1.1-5.5V501.5z"/>
		<path class="st7" d="M653.8,545.4c-2.4,0-4.6-0.4-6.6-1.2c-2-0.8-3.7-2-5.1-3.5c-1.4-1.5-2.5-3.3-3.2-5.3s-1.1-4.3-1.1-6.8v-1.4
			c0-2.8,0.4-5.4,1.3-7.6s2-4.1,3.4-5.7s3.1-2.7,4.9-3.5c1.8-0.8,3.7-1.2,5.7-1.2c2.5,0,4.6,0.4,6.5,1.3c1.8,0.9,3.3,2.1,4.5,3.6
			c1.2,1.5,2,3.3,2.6,5.4c0.6,2.1,0.8,4.3,0.8,6.8v2.7h-26v-4.9h20.1v-0.5c-0.1-1.5-0.4-3.1-1-4.5c-0.5-1.5-1.4-2.7-2.6-3.6
			c-1.2-0.9-2.8-1.4-4.8-1.4c-1.4,0-2.6,0.3-3.7,0.9c-1.1,0.6-2.1,1.4-2.9,2.5c-0.8,1.1-1.5,2.5-1.9,4.1s-0.7,3.5-0.7,5.6v1.4
			c0,1.7,0.2,3.2,0.7,4.7s1.1,2.7,2,3.8c0.9,1.1,2,2,3.3,2.6c1.3,0.6,2.7,0.9,4.4,0.9c2.1,0,3.9-0.4,5.3-1.3c1.5-0.9,2.7-2,3.8-3.4
			l3.6,2.9c-0.8,1.1-1.7,2.2-2.9,3.3s-2.6,1.9-4.3,2.5C658.1,545.1,656.1,545.4,653.8,545.4z"/>
		<path class="st7" d="M693.4,509.9l9.1,27.1l1.5,6.3l-4.3,2.2l-12.8-35.5H693.4z M700.5,541.2l9.7-31.3h6.4l-14,40.3
			c-0.3,0.9-0.7,1.8-1.3,2.8s-1.2,2-2,2.9s-1.8,1.6-2.9,2.2s-2.5,0.9-4.1,0.9c-0.5,0-1.1-0.1-1.8-0.2s-1.2-0.2-1.5-0.3l0-4.8
			c0.2,0,0.4,0,0.8,0.1c0.4,0,0.6,0,0.8,0c1.4,0,2.5-0.2,3.4-0.5s1.7-0.9,2.4-1.8c0.7-0.8,1.2-2,1.7-3.4L700.5,541.2z"/>
		<path class="st7" d="M752.8,545.4c-2.4,0-4.6-0.4-6.6-1.2c-2-0.8-3.7-2-5.1-3.5c-1.4-1.5-2.5-3.3-3.2-5.3s-1.1-4.3-1.1-6.8v-1.4
			c0-2.8,0.4-5.4,1.3-7.6s2-4.1,3.4-5.7s3.1-2.7,4.9-3.5c1.8-0.8,3.7-1.2,5.7-1.2c2.5,0,4.6,0.4,6.5,1.3c1.8,0.9,3.3,2.1,4.5,3.6
			c1.2,1.5,2,3.3,2.6,5.4c0.6,2.1,0.8,4.3,0.8,6.8v2.7h-26v-4.9h20.1v-0.5c-0.1-1.5-0.4-3.1-1-4.5c-0.5-1.5-1.4-2.7-2.6-3.6
			c-1.2-0.9-2.8-1.4-4.8-1.4c-1.4,0-2.6,0.3-3.7,0.9c-1.1,0.6-2.1,1.4-2.9,2.5c-0.8,1.1-1.5,2.5-1.9,4.1s-0.7,3.5-0.7,5.6v1.4
			c0,1.7,0.2,3.2,0.7,4.7s1.1,2.7,2,3.8c0.9,1.1,2,2,3.3,2.6c1.3,0.6,2.7,0.9,4.4,0.9c2.1,0,3.9-0.4,5.3-1.3c1.5-0.9,2.7-2,3.8-3.4
			l3.6,2.9c-0.8,1.1-1.7,2.2-2.9,3.3s-2.6,1.9-4.3,2.5C757.1,545.1,755.1,545.4,752.8,545.4z"/>
		<path class="st7" d="M779.8,495.3v49.5h-6v-49.5H779.8z"/>
		<path class="st7" d="M826.1,535.6c0-0.9-0.2-1.7-0.6-2.4c-0.4-0.7-1.1-1.4-2.3-2s-2.9-1.1-5.2-1.6c-1.9-0.4-3.7-0.9-5.2-1.5
			c-1.6-0.6-2.9-1.2-4-2c-1.1-0.8-1.9-1.7-2.5-2.8c-0.6-1.1-0.9-2.3-0.9-3.8c0-1.4,0.3-2.7,0.9-3.9c0.6-1.2,1.5-2.3,2.6-3.3
			c1.1-0.9,2.5-1.7,4.1-2.2c1.6-0.5,3.4-0.8,5.3-0.8c2.8,0,5.2,0.5,7.2,1.5c2,1,3.5,2.3,4.5,3.9s1.6,3.5,1.6,5.5h-6
			c0-1-0.3-1.9-0.9-2.8c-0.6-0.9-1.4-1.7-2.5-2.3c-1.1-0.6-2.4-0.9-4-0.9c-1.7,0-3,0.3-4,0.8c-1,0.5-1.8,1.1-2.2,1.9
			c-0.5,0.8-0.7,1.6-0.7,2.4c0,0.6,0.1,1.2,0.3,1.7c0.2,0.5,0.6,1,1.2,1.4s1.4,0.8,2.4,1.2c1.1,0.4,2.4,0.7,4,1.1
			c2.9,0.6,5.2,1.4,7.1,2.3s3.2,2,4.1,3.3c0.9,1.3,1.4,2.9,1.4,4.8c0,1.5-0.3,2.9-1,4.2c-0.6,1.3-1.5,2.4-2.7,3.3
			c-1.2,0.9-2.6,1.6-4.3,2.1c-1.6,0.5-3.5,0.8-5.5,0.8c-3.1,0-5.7-0.5-7.8-1.6s-3.7-2.5-4.8-4.3s-1.6-3.6-1.6-5.5h6
			c0.1,1.6,0.6,2.9,1.4,3.9c0.9,1,1.9,1.6,3.2,2c1.2,0.4,2.5,0.6,3.7,0.6c1.6,0,3-0.2,4.1-0.6c1.1-0.4,1.9-1,2.5-1.8
			C825.8,537.4,826.1,536.5,826.1,535.6z"/>
		<path class="st7" d="M854.3,545.4c-2.4,0-4.6-0.4-6.6-1.2c-2-0.8-3.7-2-5.1-3.5c-1.4-1.5-2.5-3.3-3.2-5.3s-1.1-4.3-1.1-6.8v-1.4
			c0-2.8,0.4-5.4,1.3-7.6s2-4.1,3.4-5.7s3.1-2.7,4.9-3.5c1.8-0.8,3.7-1.2,5.7-1.2c2.5,0,4.6,0.4,6.5,1.3c1.8,0.9,3.3,2.1,4.5,3.6
			c1.2,1.5,2,3.3,2.6,5.4c0.6,2.1,0.8,4.3,0.8,6.8v2.7h-26v-4.9h20.1v-0.5c-0.1-1.5-0.4-3.1-1-4.5c-0.5-1.5-1.4-2.7-2.6-3.6
			c-1.2-0.9-2.8-1.4-4.8-1.4c-1.4,0-2.6,0.3-3.7,0.9c-1.1,0.6-2.1,1.4-2.9,2.5c-0.8,1.1-1.5,2.5-1.9,4.1s-0.7,3.5-0.7,5.6v1.4
			c0,1.7,0.2,3.2,0.7,4.7s1.1,2.7,2,3.8c0.9,1.1,2,2,3.3,2.6c1.3,0.6,2.7,0.9,4.4,0.9c2.1,0,3.9-0.4,5.3-1.3c1.5-0.9,2.7-2,3.8-3.4
			l3.6,2.9c-0.8,1.1-1.7,2.2-2.9,3.3s-2.6,1.9-4.3,2.5C858.6,545.1,856.6,545.4,854.3,545.4z"/>
		<path class="st7" d="M880.8,515.4v29.4h-6v-34.9h5.8L880.8,515.4z M891.7,509.7l0,5.5c-0.5-0.1-1-0.2-1.4-0.2c-0.4,0-0.9,0-1.5,0
			c-1.4,0-2.6,0.2-3.6,0.6c-1.1,0.4-1.9,1-2.7,1.8s-1.3,1.7-1.7,2.8c-0.4,1.1-0.7,2.2-0.8,3.5l-1.7,1c0-2.1,0.2-4.1,0.6-5.9
			c0.4-1.8,1.1-3.5,1.9-4.9c0.9-1.4,2-2.5,3.4-3.4s3-1.2,4.9-1.2c0.4,0,0.9,0,1.5,0.1S891.5,509.6,891.7,509.7z"/>
		<path class="st7" d="M899.8,509.9l9.8,29.6l0.7,5.2h-4l-12.6-34.9H899.8z M907.8,539.4l9.5-29.5h6.1l-12.5,34.9h-4L907.8,539.4z"
			/>
		<path class="st7" d="M929.2,500.7c0-1,0.3-1.8,0.9-2.4c0.6-0.7,1.5-1,2.6-1c1.1,0,2,0.3,2.6,1c0.6,0.7,0.9,1.5,0.9,2.4
			c0,0.9-0.3,1.7-0.9,2.4c-0.6,0.7-1.5,1-2.6,1c-1.2,0-2-0.3-2.6-1C929.5,502.4,929.2,501.6,929.2,500.7z M935.6,509.9v34.9h-6
			v-34.9H935.6z"/>
		<path class="st7" d="M959.2,540.5c1.4,0,2.7-0.3,3.9-0.9s2.2-1.4,3-2.4c0.8-1,1.2-2.2,1.3-3.5h5.7c-0.1,2.1-0.8,4-2.1,5.8
			c-1.3,1.8-2.9,3.2-5,4.3c-2.1,1.1-4.3,1.6-6.8,1.6c-2.6,0-4.9-0.5-6.8-1.4c-1.9-0.9-3.6-2.2-4.8-3.8c-1.3-1.6-2.2-3.5-2.9-5.6
			s-1-4.3-1-6.7v-1.4c0-2.3,0.3-4.6,1-6.7s1.6-3.9,2.9-5.6c1.3-1.6,2.9-2.9,4.8-3.8c1.9-0.9,4.2-1.4,6.8-1.4c2.7,0,5.1,0.6,7.2,1.7
			c2,1.1,3.6,2.6,4.8,4.5c1.2,1.9,1.8,4.1,1.9,6.5h-5.7c-0.1-1.4-0.5-2.7-1.2-3.9c-0.7-1.2-1.6-2.1-2.8-2.8c-1.2-0.7-2.6-1-4.2-1
			c-1.8,0-3.4,0.4-4.6,1.1c-1.2,0.7-2.2,1.7-2.9,2.9c-0.7,1.2-1.2,2.6-1.5,4c-0.3,1.5-0.5,3-0.5,4.5v1.4c0,1.5,0.2,3,0.5,4.5
			s0.8,2.8,1.5,4c0.7,1.2,1.7,2.2,2.9,2.9C955.8,540.2,957.3,540.5,959.2,540.5z"/>
		<path class="st7" d="M979.8,500.7c0-1,0.3-1.8,0.9-2.4c0.6-0.7,1.5-1,2.6-1c1.1,0,2,0.3,2.6,1c0.6,0.7,0.9,1.5,0.9,2.4
			c0,0.9-0.3,1.7-0.9,2.4c-0.6,0.7-1.5,1-2.6,1c-1.2,0-2-0.3-2.6-1C980.1,502.4,979.8,501.6,979.8,500.7z M986.2,509.9v34.9h-6
			v-34.9H986.2z"/>
		<path class="st7" d="M994.2,527.8V527c0-2.5,0.4-4.9,1.1-7s1.8-4,3.2-5.6c1.4-1.6,3-2.8,5-3.7c2-0.9,4.1-1.3,6.6-1.3
			c2.4,0,4.7,0.4,6.6,1.3c2,0.9,3.6,2.1,5,3.7c1.4,1.6,2.4,3.5,3.2,5.6s1.1,4.5,1.1,7v0.7c0,2.5-0.4,4.8-1.1,7
			c-0.7,2.1-1.8,4-3.2,5.6c-1.4,1.6-3.1,2.8-5,3.7c-1.9,0.9-4.1,1.3-6.6,1.3s-4.7-0.4-6.6-1.3c-2-0.9-3.6-2.1-5-3.7
			c-1.4-1.6-2.4-3.5-3.2-5.6C994.6,532.6,994.2,530.3,994.2,527.8z M1000.2,527v0.7c0,1.7,0.2,3.4,0.6,4.9c0.4,1.5,1,2.9,1.9,4.1
			c0.8,1.2,1.9,2.1,3.1,2.8s2.7,1,4.4,1c1.6,0,3.1-0.3,4.3-1s2.3-1.6,3.1-2.8c0.8-1.2,1.4-2.5,1.9-4.1c0.4-1.5,0.6-3.2,0.6-4.9V527
			c0-1.7-0.2-3.3-0.6-4.9c-0.4-1.5-1-2.9-1.9-4.1c-0.8-1.2-1.9-2.1-3.1-2.8c-1.2-0.7-2.7-1-4.3-1c-1.6,0-3.1,0.3-4.3,1
			c-1.2,0.7-2.3,1.6-3.1,2.8c-0.8,1.2-1.4,2.6-1.9,4.1C1000.4,523.7,1000.2,525.3,1000.2,527z"/>
		<path class="st7" d="M329.2,602.9l0.1,4.2h-6c-1.7,0-3.2,0.1-4.5,0.4c-1.3,0.3-2.4,0.7-3.4,1.2s-1.6,1.2-2.1,2
			c-0.5,0.8-0.7,1.7-0.7,2.8c0,1.1,0.2,2.1,0.7,3c0.5,0.9,1.2,1.6,2.2,2.1c1,0.5,2.2,0.8,3.7,0.8c1.8,0,3.4-0.4,4.8-1.2
			c1.4-0.8,2.5-1.7,3.3-2.8c0.8-1.1,1.3-2.2,1.3-3.3l2.5,2.9c-0.2,0.9-0.6,1.9-1.2,3c-0.7,1.1-1.6,2.1-2.7,3.1
			c-1.1,1-2.4,1.8-3.9,2.5s-3.2,1-5.1,1c-2.4,0-4.4-0.5-6.2-1.4c-1.8-0.9-3.1-2.2-4.1-3.7c-1-1.6-1.5-3.3-1.5-5.2
			c0-1.9,0.4-3.5,1.1-4.9c0.7-1.4,1.8-2.6,3.2-3.6c1.4-1,3-1.7,5-2.2s4.1-0.7,6.5-0.7H329.2z M328.1,618v-18c0-1.4-0.3-2.6-0.8-3.6
			c-0.5-1-1.4-1.8-2.5-2.4s-2.4-0.8-4.1-0.8c-1.5,0-2.8,0.3-3.9,0.8s-2,1.2-2.6,2c-0.6,0.8-1,1.7-1,2.7h-6c0-1.2,0.3-2.5,1-3.7
			s1.6-2.3,2.8-3.3c1.2-1,2.7-1.8,4.4-2.4c1.7-0.6,3.6-0.9,5.7-0.9c2.5,0,4.8,0.4,6.7,1.3c1.9,0.9,3.5,2.2,4.6,3.9
			c1.1,1.7,1.7,3.9,1.7,6.5v16.2c0,1.2,0.1,2.4,0.3,3.7c0.2,1.3,0.5,2.4,0.9,3.4v0.5h-6.2c-0.3-0.7-0.5-1.6-0.7-2.8
			C328.2,620.1,328.1,619,328.1,618z"/>
		<path class="st7" d="M349.9,574.5V624h-6v-49.5H349.9z"/>
		<path class="st7" d="M389.8,619.7c1.4,0,2.7-0.3,3.9-0.9c1.2-0.6,2.2-1.4,3-2.4c0.8-1,1.2-2.2,1.3-3.5h5.7c-0.1,2.1-0.8,4-2.1,5.8
			c-1.3,1.8-2.9,3.2-5,4.3c-2.1,1.1-4.3,1.6-6.8,1.6c-2.6,0-4.9-0.5-6.8-1.4c-1.9-0.9-3.6-2.2-4.8-3.8c-1.3-1.6-2.2-3.5-2.9-5.6
			c-0.6-2.1-1-4.3-1-6.7v-1.4c0-2.3,0.3-4.6,1-6.7c0.6-2.1,1.6-3.9,2.9-5.6c1.3-1.6,2.9-2.9,4.8-3.8c1.9-0.9,4.2-1.4,6.8-1.4
			c2.7,0,5.1,0.6,7.2,1.7c2,1.1,3.6,2.6,4.8,4.5c1.2,1.9,1.8,4.1,1.9,6.5h-5.7c-0.1-1.4-0.5-2.7-1.2-3.9c-0.7-1.2-1.6-2.1-2.8-2.8
			c-1.2-0.7-2.6-1-4.2-1c-1.8,0-3.4,0.4-4.6,1.1c-1.2,0.7-2.2,1.7-2.9,2.9c-0.7,1.2-1.2,2.6-1.5,4c-0.3,1.5-0.5,3-0.5,4.5v1.4
			c0,1.5,0.1,3,0.5,4.5c0.3,1.5,0.8,2.8,1.5,4c0.7,1.2,1.7,2.2,2.9,2.9C386.4,619.4,388,619.7,389.8,619.7z"/>
		<path class="st7" d="M416.9,574.5V624h-6v-49.5H416.9z"/>
		<path class="st7" d="M426.5,579.9c0-1,0.3-1.8,0.9-2.4c0.6-0.7,1.5-1,2.6-1c1.1,0,2,0.3,2.6,1s0.9,1.5,0.9,2.4
			c0,0.9-0.3,1.7-0.9,2.4c-0.6,0.7-1.5,1-2.6,1c-1.2,0-2-0.3-2.6-1C426.8,581.6,426.5,580.8,426.5,579.9z M433,589.1V624h-6v-34.9
			H433z"/>
		<path class="st7" d="M457,624.6c-2.4,0-4.6-0.4-6.6-1.2c-2-0.8-3.7-2-5.1-3.5c-1.4-1.5-2.5-3.3-3.2-5.3c-0.8-2.1-1.1-4.3-1.1-6.8
			v-1.4c0-2.8,0.4-5.4,1.3-7.6s2-4.1,3.4-5.7c1.4-1.5,3.1-2.7,4.9-3.5c1.8-0.8,3.7-1.2,5.7-1.2c2.5,0,4.6,0.4,6.5,1.3
			c1.8,0.9,3.3,2.1,4.5,3.6c1.2,1.5,2,3.3,2.6,5.4c0.6,2.1,0.8,4.3,0.8,6.8v2.7h-26v-4.9h20.1v-0.5c-0.1-1.5-0.4-3.1-1-4.5
			s-1.4-2.7-2.6-3.6c-1.2-0.9-2.8-1.4-4.8-1.4c-1.4,0-2.6,0.3-3.7,0.9c-1.1,0.6-2.1,1.4-2.9,2.5c-0.8,1.1-1.5,2.5-1.9,4.1
			s-0.7,3.5-0.7,5.6v1.4c0,1.7,0.2,3.2,0.7,4.7c0.5,1.5,1.1,2.7,2,3.8c0.9,1.1,2,2,3.3,2.6c1.3,0.6,2.7,0.9,4.4,0.9
			c2.1,0,3.9-0.4,5.3-1.3c1.5-0.9,2.7-2,3.8-3.4l3.6,2.9c-0.8,1.1-1.7,2.2-2.9,3.3s-2.6,1.9-4.3,2.5
			C461.3,624.3,459.3,624.6,457,624.6z"/>
		<path class="st7" d="M483.5,596.6V624h-6v-34.9h5.6L483.5,596.6z M482.1,605.2l-2.5-0.1c0-2.4,0.4-4.6,1.1-6.6
			c0.7-2,1.7-3.8,2.9-5.3c1.2-1.5,2.7-2.7,4.5-3.5c1.7-0.8,3.6-1.2,5.8-1.2c1.7,0,3.3,0.2,4.6,0.7c1.4,0.5,2.6,1.2,3.5,2.2
			c1,1,1.7,2.3,2.2,3.9c0.5,1.6,0.8,3.6,0.8,5.8V624h-6v-22.9c0-1.8-0.3-3.3-0.8-4.4c-0.5-1.1-1.3-1.9-2.4-2.4
			c-1-0.5-2.3-0.8-3.8-0.8c-1.5,0-2.8,0.3-4,0.9c-1.2,0.6-2.3,1.5-3.1,2.6s-1.5,2.3-2,3.8C482.3,602.2,482.1,603.7,482.1,605.2z"/>
		<path class="st7" d="M528.6,589.1v4.6h-18.9v-4.6H528.6z M516.1,580.7h6v34.7c0,1.2,0.2,2.1,0.5,2.7c0.4,0.6,0.8,1,1.4,1.2
			s1.2,0.3,1.9,0.3c0.5,0,1,0,1.6-0.1s1-0.2,1.2-0.2l0,4.9c-0.5,0.1-1.1,0.3-1.9,0.4c-0.8,0.1-1.7,0.2-2.8,0.2c-1.5,0-2.8-0.3-4-0.9
			s-2.2-1.6-2.9-2.9c-0.7-1.4-1.1-3.2-1.1-5.5V580.7z"/>
		<path class="st7" d="M550,624.6c-2.4,0-4.6-0.4-6.6-1.2c-2-0.8-3.7-2-5.1-3.5c-1.4-1.5-2.5-3.3-3.2-5.3c-0.8-2.1-1.1-4.3-1.1-6.8
			v-1.4c0-2.8,0.4-5.4,1.3-7.6s2-4.1,3.4-5.7c1.4-1.5,3.1-2.7,4.9-3.5c1.8-0.8,3.7-1.2,5.7-1.2c2.5,0,4.6,0.4,6.5,1.3
			c1.8,0.9,3.3,2.1,4.5,3.6c1.2,1.5,2,3.3,2.6,5.4c0.6,2.1,0.8,4.3,0.8,6.8v2.7h-26v-4.9h20.1v-0.5c-0.1-1.5-0.4-3.1-1-4.5
			s-1.4-2.7-2.6-3.6c-1.2-0.9-2.8-1.4-4.8-1.4c-1.4,0-2.6,0.3-3.7,0.9c-1.1,0.6-2.1,1.4-2.9,2.5c-0.8,1.1-1.5,2.5-1.9,4.1
			s-0.7,3.5-0.7,5.6v1.4c0,1.7,0.2,3.2,0.7,4.7c0.5,1.5,1.1,2.7,2,3.8c0.9,1.1,2,2,3.3,2.6c1.3,0.6,2.7,0.9,4.4,0.9
			c2.1,0,3.9-0.4,5.3-1.3c1.5-0.9,2.7-2,3.8-3.4l3.6,2.9c-0.8,1.1-1.7,2.2-2.9,3.3s-2.6,1.9-4.3,2.5
			C554.3,624.3,552.3,624.6,550,624.6z"/>
		<path class="st7" d="M603.2,589.1v4.6h-18.9v-4.6H603.2z M595.8,624h-6v-38.5c0-2.5,0.5-4.6,1.4-6.4c0.9-1.7,2.2-3,3.9-3.9
			c1.7-0.9,3.8-1.3,6.1-1.3c0.7,0,1.4,0,2.1,0.1c0.7,0.1,1.4,0.2,2,0.4l-0.3,4.9c-0.5-0.1-1-0.2-1.5-0.2c-0.6,0-1.1-0.1-1.7-0.1
			c-1.3,0-2.4,0.3-3.3,0.8c-0.9,0.5-1.6,1.2-2.1,2.2s-0.7,2.2-0.7,3.6V624z"/>
		<path class="st7" d="M632.3,608.6l2.5-0.1c0,2.3-0.2,4.5-0.7,6.4c-0.5,2-1.3,3.7-2.3,5.1s-2.5,2.6-4.2,3.4s-3.9,1.2-6.3,1.2
			c-1.7,0-3.2-0.2-4.7-0.7c-1.4-0.5-2.6-1.3-3.6-2.3s-1.8-2.4-2.3-4c-0.5-1.7-0.8-3.6-0.8-6v-22.5h6v22.6c0,1.6,0.2,2.9,0.5,3.9
			c0.4,1,0.8,1.8,1.5,2.4c0.6,0.6,1.3,1,2.1,1.2c0.8,0.2,1.6,0.4,2.4,0.4c2.5,0,4.5-0.5,6-1.5c1.5-1,2.6-2.3,3.2-4
			C632,612.5,632.3,610.6,632.3,608.6z M631.2,615.9v-26.8h6V624h-5.7L631.2,615.9z"/>
		<path class="st7" d="M660.7,624.6c-2.4,0-4.6-0.4-6.6-1.2c-2-0.8-3.7-2-5.1-3.5s-2.5-3.3-3.2-5.3s-1.1-4.3-1.1-6.8v-1.4
			c0-2.8,0.4-5.4,1.3-7.6s2-4.1,3.4-5.7s3.1-2.7,4.9-3.5s3.7-1.2,5.7-1.2c2.5,0,4.6,0.4,6.5,1.3s3.3,2.1,4.5,3.6
			c1.2,1.5,2,3.3,2.6,5.4c0.6,2.1,0.8,4.3,0.8,6.8v2.7h-26v-4.9h20.1v-0.5c-0.1-1.5-0.4-3.1-1-4.5c-0.5-1.5-1.4-2.7-2.6-3.6
			s-2.8-1.4-4.8-1.4c-1.4,0-2.6,0.3-3.7,0.9c-1.1,0.6-2.1,1.4-2.9,2.5s-1.5,2.5-1.9,4.1s-0.7,3.5-0.7,5.6v1.4c0,1.7,0.2,3.2,0.7,4.7
			s1.1,2.7,2,3.8c0.9,1.1,2,2,3.3,2.6s2.7,0.9,4.4,0.9c2.1,0,3.9-0.4,5.3-1.3s2.7-2,3.8-3.4l3.6,2.9c-0.8,1.1-1.7,2.2-2.9,3.3
			s-2.6,1.9-4.3,2.5C665,624.3,663,624.6,660.7,624.6z"/>
		<path class="st7" d="M703.6,596.1V624h-6v-34.9h5.7L703.6,596.1z M702.3,605.2l-2.8-0.1c0-2.4,0.3-4.6,0.9-6.6s1.5-3.8,2.7-5.3
			s2.7-2.7,4.4-3.5c1.8-0.8,3.8-1.2,6.1-1.2c1.6,0,3.1,0.2,4.5,0.7c1.4,0.5,2.6,1.2,3.6,2.2s1.8,2.3,2.4,3.8s0.8,3.4,0.8,5.6V624h-6
			v-22.9c0-1.8-0.3-3.3-0.9-4.4c-0.6-1.1-1.5-1.9-2.6-2.4c-1.1-0.5-2.4-0.8-3.9-0.8c-1.8,0-3.2,0.3-4.4,0.9s-2.1,1.5-2.8,2.6
			s-1.2,2.3-1.5,3.8C702.5,602.2,702.3,603.7,702.3,605.2z M724.9,602l-4,1.2c0-1.9,0.3-3.7,1-5.5c0.6-1.8,1.5-3.3,2.7-4.7
			s2.6-2.5,4.3-3.3s3.7-1.2,5.9-1.2c1.9,0,3.5,0.2,5,0.7c1.5,0.5,2.7,1.3,3.7,2.3c1,1,1.8,2.3,2.3,3.9s0.8,3.5,0.8,5.7V624h-6v-23
			c0-2-0.3-3.5-0.9-4.6c-0.6-1.1-1.5-1.8-2.6-2.3c-1.1-0.4-2.4-0.7-3.9-0.7c-1.3,0-2.5,0.2-3.5,0.7s-1.9,1.1-2.5,1.9
			c-0.7,0.8-1.2,1.7-1.6,2.7C725.1,599.7,724.9,600.8,724.9,602z"/>
		<path class="st7" d="M778,608.6l2.5-0.1c0,2.3-0.2,4.5-0.7,6.4c-0.5,2-1.3,3.7-2.3,5.1s-2.5,2.6-4.2,3.4s-3.9,1.2-6.3,1.2
			c-1.7,0-3.2-0.2-4.7-0.7c-1.4-0.5-2.6-1.3-3.6-2.3s-1.8-2.4-2.3-4c-0.5-1.7-0.8-3.6-0.8-6v-22.5h6v22.6c0,1.6,0.2,2.9,0.5,3.9
			c0.4,1,0.8,1.8,1.5,2.4c0.6,0.6,1.3,1,2.1,1.2c0.8,0.2,1.6,0.4,2.4,0.4c2.5,0,4.5-0.5,6-1.5c1.5-1,2.6-2.3,3.2-4
			C777.6,612.5,778,610.6,778,608.6z M776.8,615.9v-26.8h6V624h-5.7L776.8,615.9z"/>
		<path class="st7" d="M794.6,589.1l9.1,27.1l1.5,6.3l-4.3,2.2l-12.8-35.5H794.6z M801.7,620.4l9.7-31.3h6.4l-14,40.3
			c-0.3,0.9-0.7,1.8-1.3,2.8s-1.2,2-2,2.9s-1.8,1.6-2.9,2.2s-2.5,0.9-4.1,0.9c-0.5,0-1.1-0.1-1.8-0.2s-1.2-0.2-1.5-0.3l0-4.8
			c0.2,0,0.4,0,0.8,0.1c0.4,0,0.6,0,0.8,0c1.4,0,2.5-0.2,3.4-0.5s1.7-0.9,2.4-1.8c0.7-0.8,1.2-2,1.7-3.4L801.7,620.4z"/>
		<path class="st7" d="M861.1,602.9l0.1,4.2h-6c-1.7,0-3.2,0.1-4.5,0.4c-1.3,0.3-2.4,0.7-3.4,1.2s-1.6,1.2-2.1,2s-0.7,1.7-0.7,2.8
			c0,1.1,0.2,2.1,0.7,3s1.2,1.6,2.2,2.1c1,0.5,2.2,0.8,3.7,0.8c1.8,0,3.4-0.4,4.8-1.2s2.5-1.7,3.3-2.8c0.8-1.1,1.3-2.2,1.3-3.3
			l2.5,2.9c-0.2,0.9-0.6,1.9-1.2,3s-1.6,2.1-2.7,3.1c-1.1,1-2.4,1.8-3.9,2.5c-1.5,0.7-3.2,1-5.1,1c-2.4,0-4.4-0.5-6.2-1.4
			c-1.8-0.9-3.1-2.2-4.1-3.7c-1-1.6-1.5-3.3-1.5-5.2c0-1.9,0.4-3.5,1.1-4.9c0.7-1.4,1.8-2.6,3.2-3.6c1.4-1,3-1.7,5-2.2
			s4.1-0.7,6.5-0.7H861.1z M860.1,618v-18c0-1.4-0.3-2.6-0.8-3.6c-0.5-1-1.4-1.8-2.5-2.4s-2.4-0.8-4.1-0.8c-1.5,0-2.8,0.3-3.9,0.8
			c-1.1,0.5-2,1.2-2.6,2s-1,1.7-1,2.7h-6c0-1.2,0.3-2.5,1-3.7s1.6-2.3,2.8-3.3s2.7-1.8,4.4-2.4c1.7-0.6,3.6-0.9,5.7-0.9
			c2.5,0,4.8,0.4,6.7,1.3s3.5,2.2,4.6,3.9c1.1,1.7,1.7,3.9,1.7,6.5v16.2c0,1.2,0.1,2.4,0.3,3.7c0.2,1.3,0.5,2.4,0.9,3.4v0.5H861
			c-0.3-0.7-0.5-1.6-0.7-2.8C860.1,620.1,860.1,619,860.1,618z"/>
		<path class="st7" d="M890,589.1v4.6h-18.9v-4.6H890z M877.5,580.7h6v34.7c0,1.2,0.2,2.1,0.5,2.7s0.8,1,1.4,1.2s1.2,0.3,1.9,0.3
			c0.5,0,1,0,1.6-0.1c0.5-0.1,1-0.2,1.2-0.2l0,4.9c-0.5,0.1-1.1,0.3-1.9,0.4c-0.8,0.1-1.7,0.2-2.8,0.2c-1.5,0-2.8-0.3-4-0.9
			s-2.2-1.6-2.9-2.9c-0.7-1.4-1.1-3.2-1.1-5.5V580.7z"/>
		<path class="st7" d="M911.5,624.6c-2.4,0-4.6-0.4-6.6-1.2c-2-0.8-3.7-2-5.1-3.5s-2.5-3.3-3.2-5.3s-1.1-4.3-1.1-6.8v-1.4
			c0-2.8,0.4-5.4,1.3-7.6s2-4.1,3.4-5.7s3.1-2.7,4.9-3.5s3.7-1.2,5.7-1.2c2.5,0,4.6,0.4,6.5,1.3s3.3,2.1,4.5,3.6
			c1.2,1.5,2,3.3,2.6,5.4c0.6,2.1,0.8,4.3,0.8,6.8v2.7h-26v-4.9h20.1v-0.5c-0.1-1.5-0.4-3.1-1-4.5c-0.5-1.5-1.4-2.7-2.6-3.6
			s-2.8-1.4-4.8-1.4c-1.4,0-2.6,0.3-3.7,0.9c-1.1,0.6-2.1,1.4-2.9,2.5s-1.5,2.5-1.9,4.1s-0.7,3.5-0.7,5.6v1.4c0,1.7,0.2,3.2,0.7,4.7
			s1.1,2.7,2,3.8c0.9,1.1,2,2,3.3,2.6s2.7,0.9,4.4,0.9c2.1,0,3.9-0.4,5.3-1.3s2.7-2,3.8-3.4l3.6,2.9c-0.8,1.1-1.7,2.2-2.9,3.3
			s-2.6,1.9-4.3,2.5C915.7,624.3,913.8,624.6,911.5,624.6z"/>
		<path class="st7" d="M937.9,596.6V624h-6v-34.9h5.6L937.9,596.6z M936.5,605.2l-2.5-0.1c0-2.4,0.4-4.6,1.1-6.6s1.7-3.8,2.9-5.3
			s2.7-2.7,4.5-3.5c1.7-0.8,3.6-1.2,5.8-1.2c1.7,0,3.3,0.2,4.6,0.7c1.4,0.5,2.6,1.2,3.5,2.2s1.7,2.3,2.2,3.9
			c0.5,1.6,0.8,3.6,0.8,5.8V624h-6v-22.9c0-1.8-0.3-3.3-0.8-4.4c-0.5-1.1-1.3-1.9-2.4-2.4c-1-0.5-2.3-0.8-3.8-0.8
			c-1.5,0-2.8,0.3-4,0.9s-2.3,1.5-3.1,2.6c-0.9,1.1-1.5,2.3-2,3.8C936.8,602.2,936.5,603.7,936.5,605.2z"/>
		<path class="st7" d="M983,589.1v4.6h-18.9v-4.6H983z M970.6,580.7h6v34.7c0,1.2,0.2,2.1,0.5,2.7s0.8,1,1.4,1.2s1.2,0.3,1.9,0.3
			c0.5,0,1,0,1.6-0.1c0.5-0.1,1-0.2,1.2-0.2l0,4.9c-0.5,0.1-1.1,0.3-1.9,0.4c-0.8,0.1-1.7,0.2-2.8,0.2c-1.5,0-2.8-0.3-4-0.9
			s-2.2-1.6-2.9-2.9c-0.7-1.4-1.1-3.2-1.1-5.5V580.7z"/>
		<path class="st7" d="M988.4,607v-0.7c0-2.5,0.4-4.9,1.1-7s1.8-4,3.2-5.6c1.4-1.6,3-2.8,5-3.7c2-0.9,4.1-1.3,6.6-1.3
			c2.4,0,4.7,0.4,6.6,1.3c2,0.9,3.6,2.1,5,3.7c1.4,1.6,2.4,3.5,3.2,5.6s1.1,4.5,1.1,7v0.7c0,2.5-0.4,4.8-1.1,7s-1.8,4-3.2,5.6
			c-1.4,1.6-3.1,2.8-5,3.7c-1.9,0.9-4.1,1.3-6.6,1.3s-4.7-0.4-6.6-1.3c-2-0.9-3.6-2.1-5-3.7c-1.4-1.6-2.4-3.5-3.2-5.6
			S988.4,609.5,988.4,607z M994.4,606.2v0.7c0,1.7,0.2,3.4,0.6,4.9c0.4,1.5,1,2.9,1.9,4.1c0.8,1.2,1.9,2.1,3.1,2.8s2.7,1,4.4,1
			c1.6,0,3.1-0.3,4.3-1s2.3-1.6,3.1-2.8s1.4-2.5,1.9-4.1c0.4-1.5,0.6-3.2,0.6-4.9v-0.7c0-1.7-0.2-3.3-0.6-4.9
			c-0.4-1.5-1-2.9-1.9-4.1c-0.8-1.2-1.9-2.1-3.1-2.8c-1.2-0.7-2.7-1-4.3-1c-1.6,0-3.1,0.3-4.3,1c-1.2,0.7-2.3,1.6-3.1,2.8
			c-0.8,1.2-1.4,2.6-1.9,4.1C994.6,602.9,994.4,604.5,994.4,606.2z"/>
		<path class="st7" d="M1027.8,620.8c0-1,0.3-1.9,1-2.6c0.6-0.7,1.6-1,2.8-1s2.1,0.3,2.8,1c0.6,0.7,1,1.6,1,2.6c0,1-0.3,1.8-1,2.5
			s-1.6,1-2.8,1s-2.1-0.3-2.8-1C1028.1,622.7,1027.8,621.8,1027.8,620.8z"/>
		<path class="st7" d="M314.7,656.3v46.9h-6.2v-46.9H314.7z M336.9,698.1v5.1h-23.5v-5.1H336.9z"/>
		<path class="st7" d="M341.5,686.2v-0.7c0-2.5,0.4-4.8,1.1-7c0.7-2.2,1.8-4,3.2-5.6c1.4-1.6,3-2.8,5-3.7c2-0.9,4.1-1.3,6.6-1.3
			c2.4,0,4.7,0.4,6.6,1.3s3.6,2.1,5,3.7s2.4,3.5,3.2,5.6c0.7,2.2,1.1,4.5,1.1,7v0.7c0,2.5-0.4,4.8-1.1,7c-0.7,2.1-1.8,4-3.2,5.6
			c-1.4,1.6-3.1,2.8-5,3.7c-1.9,0.9-4.1,1.3-6.6,1.3s-4.7-0.4-6.6-1.3c-2-0.9-3.6-2.1-5-3.7c-1.4-1.6-2.4-3.5-3.2-5.6
			C341.9,691,341.5,688.7,341.5,686.2z M347.5,685.4v0.7c0,1.7,0.2,3.4,0.6,4.9c0.4,1.5,1,2.9,1.9,4.1c0.8,1.2,1.9,2.1,3.1,2.8
			c1.2,0.7,2.7,1,4.4,1c1.6,0,3.1-0.3,4.3-1c1.2-0.7,2.3-1.6,3.1-2.8c0.8-1.2,1.4-2.5,1.9-4.1s0.6-3.2,0.6-4.9v-0.7
			c0-1.7-0.2-3.3-0.6-4.9s-1-2.9-1.9-4.1c-0.8-1.2-1.9-2.1-3.1-2.8c-1.2-0.7-2.7-1-4.3-1c-1.6,0-3.1,0.3-4.3,1
			c-1.2,0.7-2.3,1.6-3.1,2.8c-0.8,1.2-1.4,2.6-1.9,4.1C347.7,682.1,347.5,683.7,347.5,685.4z"/>
		<path class="st7" d="M403.1,673.8v29.4h-6v-34.9h5.8L403.1,673.8z M414,668.1l0,5.5c-0.5-0.1-1-0.2-1.4-0.2c-0.4,0-0.9,0-1.5,0
			c-1.4,0-2.6,0.2-3.6,0.6c-1.1,0.4-1.9,1-2.7,1.8c-0.7,0.8-1.3,1.7-1.7,2.8s-0.7,2.2-0.8,3.5l-1.7,1c0-2.1,0.2-4.1,0.6-5.9
			c0.4-1.8,1.1-3.5,1.9-4.9c0.9-1.4,2-2.5,3.4-3.4c1.4-0.8,3-1.2,4.9-1.2c0.4,0,0.9,0,1.5,0.1C413.4,667.9,413.8,668,414,668.1z"/>
		<path class="st7" d="M434,703.8c-2.4,0-4.6-0.4-6.6-1.2c-2-0.8-3.7-2-5.1-3.5c-1.4-1.5-2.5-3.3-3.2-5.3c-0.8-2.1-1.1-4.3-1.1-6.8
			v-1.4c0-2.8,0.4-5.4,1.3-7.6s2-4.1,3.4-5.7c1.4-1.5,3.1-2.7,4.9-3.5c1.8-0.8,3.7-1.2,5.7-1.2c2.5,0,4.6,0.4,6.5,1.3
			c1.8,0.9,3.3,2.1,4.5,3.6s2,3.3,2.6,5.4c0.6,2.1,0.8,4.3,0.8,6.8v2.7h-26v-4.9h20.1v-0.5c-0.1-1.5-0.4-3-1-4.5
			c-0.5-1.5-1.4-2.7-2.6-3.6c-1.2-0.9-2.8-1.4-4.8-1.4c-1.4,0-2.6,0.3-3.7,0.9c-1.1,0.6-2.1,1.4-2.9,2.5c-0.8,1.1-1.5,2.5-1.9,4.1
			s-0.7,3.5-0.7,5.6v1.4c0,1.7,0.2,3.2,0.7,4.7c0.5,1.4,1.1,2.7,2,3.8c0.9,1.1,2,2,3.3,2.6c1.3,0.6,2.7,0.9,4.4,0.9
			c2.1,0,3.9-0.4,5.3-1.3c1.5-0.9,2.7-2,3.8-3.4l3.6,2.9c-0.8,1.1-1.7,2.2-2.9,3.3s-2.6,1.9-4.3,2.5
			C438.2,703.5,436.3,703.8,434,703.8z"/>
		<path class="st7" d="M468.4,698.9c1.4,0,2.7-0.3,3.9-0.9c1.2-0.6,2.2-1.4,3-2.4c0.8-1,1.2-2.2,1.3-3.5h5.7c-0.1,2.1-0.8,4-2.1,5.8
			c-1.3,1.8-2.9,3.2-5,4.3c-2.1,1.1-4.3,1.6-6.8,1.6c-2.6,0-4.9-0.5-6.8-1.4c-1.9-0.9-3.6-2.2-4.8-3.8c-1.3-1.6-2.2-3.5-2.9-5.6
			c-0.6-2.1-1-4.3-1-6.7v-1.4c0-2.3,0.3-4.6,1-6.7c0.6-2.1,1.6-3.9,2.9-5.6c1.3-1.6,2.9-2.9,4.8-3.8c1.9-0.9,4.2-1.4,6.8-1.4
			c2.7,0,5.1,0.6,7.2,1.7c2,1.1,3.6,2.6,4.8,4.5c1.2,1.9,1.8,4.1,1.9,6.5h-5.7c-0.1-1.4-0.5-2.7-1.2-3.9c-0.7-1.2-1.6-2.1-2.8-2.8
			s-2.6-1-4.2-1c-1.8,0-3.4,0.4-4.6,1.1c-1.2,0.7-2.2,1.7-2.9,2.9c-0.7,1.2-1.2,2.6-1.5,4c-0.3,1.5-0.5,3-0.5,4.5v1.4
			c0,1.5,0.1,3,0.5,4.5c0.3,1.5,0.8,2.8,1.5,4c0.7,1.2,1.7,2.2,2.9,2.9C465,698.6,466.6,698.9,468.4,698.9z"/>
		<path class="st7" d="M487.5,686.2v-0.7c0-2.5,0.4-4.8,1.1-7c0.7-2.2,1.8-4,3.2-5.6c1.4-1.6,3-2.8,5-3.7c2-0.9,4.1-1.3,6.6-1.3
			c2.4,0,4.7,0.4,6.6,1.3s3.6,2.1,5,3.7s2.4,3.5,3.2,5.6c0.7,2.2,1.1,4.5,1.1,7v0.7c0,2.5-0.4,4.8-1.1,7c-0.7,2.1-1.8,4-3.2,5.6
			c-1.4,1.6-3.1,2.8-5,3.7c-1.9,0.9-4.1,1.3-6.6,1.3s-4.7-0.4-6.6-1.3c-2-0.9-3.6-2.1-5-3.7c-1.4-1.6-2.4-3.5-3.2-5.6
			C487.8,691,487.5,688.7,487.5,686.2z M493.4,685.4v0.7c0,1.7,0.2,3.4,0.6,4.9c0.4,1.5,1,2.9,1.9,4.1c0.8,1.2,1.9,2.1,3.1,2.8
			c1.2,0.7,2.7,1,4.4,1c1.6,0,3.1-0.3,4.3-1c1.2-0.7,2.3-1.6,3.1-2.8c0.8-1.2,1.4-2.5,1.9-4.1s0.6-3.2,0.6-4.9v-0.7
			c0-1.7-0.2-3.3-0.6-4.9s-1-2.9-1.9-4.1c-0.8-1.2-1.9-2.1-3.1-2.8c-1.2-0.7-2.7-1-4.3-1c-1.6,0-3.1,0.3-4.3,1
			c-1.2,0.7-2.3,1.6-3.1,2.8c-0.8,1.2-1.4,2.6-1.9,4.1C493.6,682.1,493.4,683.7,493.4,685.4z"/>
		<path class="st7" d="M532.6,675.3v27.9h-6v-34.9h5.7L532.6,675.3z M531.4,684.4l-2.8-0.1c0-2.4,0.3-4.6,0.9-6.6
			c0.6-2,1.5-3.8,2.7-5.3c1.2-1.5,2.7-2.7,4.4-3.5c1.8-0.8,3.8-1.2,6.1-1.2c1.6,0,3.1,0.2,4.5,0.7c1.4,0.5,2.6,1.2,3.6,2.2
			c1,1,1.8,2.3,2.4,3.8c0.6,1.5,0.8,3.4,0.8,5.6v23.2h-6v-22.9c0-1.8-0.3-3.3-0.9-4.4s-1.5-1.9-2.6-2.4c-1.1-0.5-2.4-0.8-3.9-0.8
			c-1.8,0-3.2,0.3-4.4,0.9c-1.2,0.6-2.1,1.5-2.8,2.6s-1.2,2.3-1.5,3.8C531.5,681.4,531.4,682.9,531.4,684.4z M554,681.2l-4,1.2
			c0-1.9,0.3-3.7,1-5.5c0.6-1.8,1.5-3.3,2.7-4.7c1.2-1.4,2.6-2.5,4.3-3.3c1.7-0.8,3.7-1.2,5.9-1.2c1.9,0,3.5,0.2,5,0.7
			c1.5,0.5,2.7,1.3,3.7,2.3c1,1,1.8,2.3,2.3,3.9c0.5,1.6,0.8,3.5,0.8,5.7v22.9h-6v-23c0-2-0.3-3.5-0.9-4.6s-1.5-1.8-2.6-2.3
			c-1.1-0.4-2.4-0.7-3.9-0.7c-1.3,0-2.5,0.2-3.5,0.7c-1,0.5-1.9,1.1-2.5,1.9c-0.7,0.8-1.2,1.7-1.6,2.7
			C554.1,678.9,554,680,554,681.2z"/>
		<path class="st7" d="M584.6,659.1c0-1,0.3-1.8,0.9-2.4c0.6-0.7,1.5-1,2.6-1c1.1,0,2,0.3,2.6,1c0.6,0.7,0.9,1.5,0.9,2.4
			c0,0.9-0.3,1.7-0.9,2.4c-0.6,0.7-1.5,1-2.6,1c-1.2,0-2-0.3-2.6-1C584.9,660.8,584.6,660,584.6,659.1z M591,668.3v34.9h-6v-34.9
			H591z"/>
		<path class="st7" d="M615.1,703.8c-2.4,0-4.6-0.4-6.6-1.2c-2-0.8-3.7-2-5.1-3.5s-2.5-3.3-3.2-5.3s-1.1-4.3-1.1-6.8v-1.4
			c0-2.8,0.4-5.4,1.3-7.6s2-4.1,3.4-5.7s3.1-2.7,4.9-3.5c1.8-0.8,3.7-1.2,5.7-1.2c2.5,0,4.6,0.4,6.5,1.3c1.8,0.9,3.3,2.1,4.5,3.6
			s2,3.3,2.6,5.4s0.8,4.3,0.8,6.8v2.7h-26v-4.9h20.1v-0.5c-0.1-1.5-0.4-3-1-4.5c-0.5-1.5-1.4-2.7-2.6-3.6c-1.2-0.9-2.8-1.4-4.8-1.4
			c-1.4,0-2.6,0.3-3.7,0.9s-2.1,1.4-2.9,2.5c-0.8,1.1-1.5,2.5-1.9,4.1s-0.7,3.5-0.7,5.6v1.4c0,1.7,0.2,3.2,0.7,4.7
			c0.5,1.4,1.1,2.7,2,3.8c0.9,1.1,2,2,3.3,2.6s2.7,0.9,4.4,0.9c2.1,0,3.9-0.4,5.3-1.3s2.7-2,3.8-3.4l3.6,2.9
			c-0.8,1.1-1.7,2.2-2.9,3.3s-2.6,1.9-4.3,2.5C619.4,703.5,617.4,703.8,615.1,703.8z"/>
		<path class="st7" d="M641.6,675.8v27.4h-6v-34.9h5.6L641.6,675.8z M640.1,684.4l-2.5-0.1c0-2.4,0.4-4.6,1.1-6.6s1.7-3.8,2.9-5.3
			c1.2-1.5,2.7-2.7,4.5-3.5s3.6-1.2,5.8-1.2c1.7,0,3.3,0.2,4.6,0.7s2.6,1.2,3.5,2.2c1,1,1.7,2.3,2.2,3.9s0.8,3.5,0.8,5.8v22.8h-6
			v-22.9c0-1.8-0.3-3.3-0.8-4.4s-1.3-1.9-2.4-2.4s-2.3-0.8-3.8-0.8c-1.5,0-2.8,0.3-4,0.9c-1.2,0.6-2.3,1.5-3.1,2.6
			c-0.9,1.1-1.5,2.3-2,3.8C640.4,681.4,640.1,682.9,640.1,684.4z"/>
		<path class="st7" d="M670.6,686.2v-0.7c0-2.7,0.3-5.1,1-7.3c0.7-2.2,1.6-4.1,2.8-5.6c1.2-1.6,2.7-2.8,4.4-3.6
			c1.7-0.8,3.6-1.3,5.7-1.3c2.2,0,4.1,0.4,5.8,1.1c1.6,0.8,3,1.9,4.2,3.3c1.1,1.5,2.1,3.2,2.7,5.2c0.7,2,1.1,4.4,1.4,6.9v3
			c-0.2,2.6-0.7,4.9-1.4,6.9c-0.7,2-1.6,3.8-2.7,5.2c-1.2,1.4-2.6,2.5-4.2,3.3c-1.7,0.8-3.6,1.1-5.8,1.1c-2,0-3.9-0.4-5.6-1.3
			c-1.7-0.9-3.1-2.1-4.4-3.7s-2.1-3.5-2.8-5.6C670.9,691,670.6,688.7,670.6,686.2z M676.6,685.5v0.7c0,1.7,0.2,3.4,0.5,4.9
			c0.4,1.5,0.9,2.9,1.7,4s1.7,2.1,2.9,2.7c1.2,0.7,2.5,1,4.2,1c2,0,3.6-0.4,4.9-1.3s2.3-1.9,3.1-3.3s1.4-2.9,1.8-4.5V682
			c-0.3-1.2-0.6-2.3-1.1-3.4c-0.5-1.1-1.1-2.1-1.9-3c-0.8-0.9-1.7-1.6-2.8-2.1s-2.4-0.8-3.9-0.8c-1.6,0-3,0.3-4.2,1
			s-2.1,1.6-2.9,2.8s-1.3,2.5-1.7,4.1C676.7,682.1,676.6,683.7,676.6,685.5z M694,696.4v-42.7h6v49.5h-5.5L694,696.4z"/>
		<path class="st7" d="M707.7,686.2v-0.7c0-2.5,0.4-4.8,1.1-7s1.8-4,3.2-5.6s3-2.8,5-3.7s4.1-1.3,6.6-1.3c2.4,0,4.7,0.4,6.6,1.3
			c2,0.9,3.6,2.1,5,3.7c1.4,1.6,2.4,3.5,3.2,5.6s1.1,4.5,1.1,7v0.7c0,2.5-0.4,4.8-1.1,7s-1.8,4-3.2,5.6c-1.4,1.6-3.1,2.8-5,3.7
			c-1.9,0.9-4.1,1.3-6.6,1.3s-4.7-0.4-6.6-1.3c-2-0.9-3.6-2.1-5-3.7c-1.4-1.6-2.4-3.5-3.2-5.6S707.7,688.7,707.7,686.2z
			 M713.6,685.4v0.7c0,1.7,0.2,3.4,0.6,4.9s1,2.9,1.9,4.1c0.8,1.2,1.9,2.1,3.1,2.8c1.2,0.7,2.7,1,4.4,1c1.6,0,3.1-0.3,4.3-1
			c1.2-0.7,2.3-1.6,3.1-2.8s1.4-2.5,1.9-4.1c0.4-1.5,0.6-3.2,0.6-4.9v-0.7c0-1.7-0.2-3.3-0.6-4.9c-0.4-1.5-1-2.9-1.9-4.1
			c-0.8-1.2-1.9-2.1-3.1-2.8c-1.2-0.7-2.7-1-4.3-1c-1.6,0-3.1,0.3-4.3,1c-1.2,0.7-2.3,1.6-3.1,2.8c-0.8,1.2-1.4,2.6-1.9,4.1
			S713.6,683.7,713.6,685.4z"/>
		<path class="st7" d="M767.7,653.7v4.4l-1,11.5h-3.6v-11.2v-4.7H767.7z M776.4,653.7v4.4l-1,11.5h-3.6v-11.4v-4.4H776.4z"/>
	</g>
</g>
</svg>
