<?xml version="1.0" encoding="utf-8"?>
<!-- Generator: Adobe Illustrator 27.1.1, SVG Export Plug-In . SVG Version: 6.00 Build 0)  -->
<svg version="1.1" id="Layer_1" xmlns="http://www.w3.org/2000/svg" xmlns:xlink="http://www.w3.org/1999/xlink" x="0px" y="0px"
	 viewBox="0 0 13.7 13.7" style="enable-background:new 0 0 13.7 13.7;" xml:space="preserve">
<style type="text/css">
	.st0{fill:#FFFFFF;}
	.st1{fill:#0D9F16;}
	.st2{fill-rule:evenodd;clip-rule:evenodd;fill:#0D9F16;}
</style>
<path class="st0" d="M6.9,13.7C3.1,13.7,0,10.6,0,6.8S3.1,0,6.9,0s6.9,3.1,6.9,6.8S10.6,13.7,6.9,13.7z"/>
<path class="st1" d="M6.9,13.7C3.1,13.7,0,10.6,0,6.8S3.1,0,6.9,0s6.9,3.1,6.9,6.8S10.6,13.7,6.9,13.7z M6.9,1C3.6,1,1,3.6,1,6.8
	s2.6,5.9,5.9,5.9s5.9-2.6,5.9-5.9S10.1,1,6.9,1z"/>
<g>
	<path class="st2" d="M10.5,6C10.1,4.2,8.6,3.1,6.8,3c-0.2,0-0.5,0-0.7,0.1C3.6,3.6,2.3,6.4,3.5,8.6c0,0.1,0,0.1,0,0.2
		C3.4,9.4,3.2,10,3.1,10.6c0,0.1,0,0.1,0.1,0.1c0.6-0.2,1.2-0.3,1.8-0.5c0,0,0.1,0,0.1,0c0.8,0.4,1.6,0.5,2.5,0.3
		C9.7,10.1,11,8,10.5,6L10.5,6z M7.4,9.9c-0.2,0-0.3,0-0.4,0c-0.7,0-1.2-0.2-1.7-0.5c-0.1,0-0.1,0-0.2,0C4.7,9.6,4.4,9.6,4,9.7
		C4,9.8,4,9.7,4,9.7c0.1-0.3,0.2-0.6,0.3-1c0-0.1,0-0.2,0-0.2C3.5,7.4,3.5,6,4.3,5c0.8-1.1,1.9-1.5,3.2-1.2C8.8,4,9.6,4.8,9.9,6.1
		C10.3,7.9,9.1,9.6,7.4,9.9L7.4,9.9z"/>
	<path class="st2" d="M7.8,8.6c-0.1,0-0.3,0-0.4-0.1c-0.9-0.2-1.5-0.8-2-1.5C5.2,6.8,5,6.5,5,6.2c-0.1-0.4,0-0.7,0.3-1
		C5.4,5.1,5.7,5,5.8,5.1c0,0,0.1,0.1,0.1,0.1C6,5.5,6.1,5.7,6.2,6c0,0,0,0.1,0,0.2c0,0.1-0.1,0.2-0.2,0.3C5.9,6.5,5.9,6.6,6,6.7
		c0.3,0.5,0.7,0.9,1.3,1.1c0.1,0,0.1,0,0.2,0c0.1-0.1,0.2-0.2,0.3-0.3c0.1-0.1,0.1-0.1,0.2-0.1c0.2,0.1,0.4,0.2,0.5,0.3
		c0,0,0.1,0,0.1,0.1c0.2,0.1,0.2,0.1,0.2,0.3c0,0.4-0.3,0.6-0.7,0.7C8,8.6,7.9,8.6,7.8,8.6z"/>
</g>
</svg>
